<?xml version="1.0" encoding="UTF-8"?>
<svg id="Livello_2" data-name="Livello 2" xmlns="http://www.w3.org/2000/svg" viewBox="0 0 1401 751" width="1400" height="750">
  <defs>
    <style>
      .cls-1 {
        fill-rule: evenodd;
      }

      .cls-1, .cls-2 {
        fill: #54f411;
        stroke-width: 0px;
      }

      .cls-3 {
        fill: #d1ffca;
        stroke: #000;
        stroke-miterlimit: 10;
      }
    </style>
  </defs>
  <g id="Background">
    <rect class="cls-3" x=".5" y=".5" width="1400" height="750"/>
    <g>
      <path class="cls-1" d="M381.92,463.36c-21.47,5.92-13.01,37.93,9.16,30.88,5.87-1.87,11.81-3.5,17.71-5.25-.83-2.79-1.65-5.58-2.48-8.36l-19.14,5.68c-8.83,2.58-13.7-11.29-3.96-14.2,6.3-1.87,12.61-3.74,18.91-5.61-.83-2.79-1.66-5.59-2.49-8.39-5.9,1.75-11.81,3.5-17.71,5.25h0ZM401.2,458.17c0,.87,0,1.73,0,2.6,1.05-.83,2.11-1.66,3.16-2.49-.26.59-.52,1.19-.77,1.78,2.31-1.89,4.61-3.78,6.92-5.68-1.48.87-2.95,1.74-4.42,2.61-.04-.42-.08-.84-.12-1.26-1.58.81-3.17,1.62-4.75,2.43h0ZM403.33,465.36c-.47-.73-.95-1.45-1.42-2.18,1.36.2,2.72.41,4.08.61-.57-.44-1.13-.88-1.69-1.32,2.99.41,5.98.83,8.97,1.24-1.71.08-3.42.15-5.13.22.19.37.39.75.58,1.13-1.8.1-3.59.2-5.39.3h0ZM407.87,480.66c0,.87.05,1.7.05,2.57,1.03-.91,2.01-1.78,3.04-2.69-.23.68-.47,1.36-.7,2.03,2.33-1.82,4.65-3.65,6.98-5.47-1.5.79-3,1.59-4.49,2.38-.04-.42-.08-.84-.12-1.26-1.58.81-3.17,1.62-4.75,2.44h0ZM410.07,488.08c-.5-.8-.99-1.61-1.49-2.41,1.36.21,2.72.41,4.08.61-.54-.36-1.08-.73-1.62-1.09,2.97.34,5.93.67,8.9,1.01-1.71.08-3.42.15-5.13.22.19.38.39.75.58,1.13-1.77.17-3.54.35-5.32.53h0ZM405.74,482.04l-5.05,1.55,1.76,6.13,5.07-1.55-1.78-6.13h0ZM399.02,459.39l-5.08,1.46,1.98,6.43,5.08-1.46-1.98-6.43h0Z"/>
      <path class="cls-1" d="M715.68,351.86c10.23,3.36,15.39-11.79,4.58-14.88-2.86-.82-5.69-1.75-8.54-2.63-.41,1.34-.83,2.69-1.24,4.03l9.22,2.84c4.25,1.33,2.49,8.21-2.21,6.77-3.04-.93-6.08-1.87-9.11-2.8-.41,1.35-.83,2.69-1.24,4.04,2.85.88,5.69,1.75,8.54,2.63h0ZM706.53,348.79c.23-.35.46-.7.7-1.05-.65.05-1.29.1-1.94.15.26-.17.53-.34.79-.51-1.43.14-2.87.29-4.3.43.83.05,1.65.09,2.48.13-.1.18-.19.36-.29.54.86.1,1.71.19,2.57.29h0ZM707.6,345.32c0,.42,0,.84-.01,1.26-.49-.45-.99-.89-1.48-1.34.11.33.22.66.33.98-1.09-.97-2.19-1.93-3.28-2.9.71.43,1.42.86,2.13,1.28.02-.2.05-.41.07-.61.75.44,1.5.88,2.25,1.32h0ZM709.87,337.95c.23-.35.44-.7.67-1.05-.66.09-1.29.18-1.94.27.28-.21.55-.42.82-.63-1.42.11-2.85.22-4.27.33.82.08,1.63.16,2.45.24-.1.18-.19.36-.29.54.86.1,1.71.19,2.56.29h0ZM710.97,334.37c-.01.46-.03.91-.05,1.37-.49-.45-.98-.89-1.48-1.34.12.29.24.58.36.87-1.1-.93-2.21-1.86-3.31-2.79.71.43,1.42.86,2.13,1.28.02-.2.04-.41.07-.61.76.4,1.52.81,2.28,1.21h0ZM711.09,337.96l2.45.73.93-2.94-2.46-.73-.92,2.95h0ZM707.73,348.88l2.43.77.93-3.12-2.43-.77-.93,3.12h0Z"/>
      <path class="cls-1" d="M104.11,605.01c.8,42.59,64.13,42.08,61.56-2.35-.68-11.76-.9-23.54-1.35-35.32-5.56.21-11.11.42-16.67.64l1.45,38.16c.59,17.59-27.42,20.04-28.19.61-.48-12.56-.96-25.13-1.44-37.7-5.57.21-11.15.42-16.72.64.45,11.77.9,23.54,1.34,35.32h0ZM103.62,566.82c1.61.41,3.21.83,4.82,1.24-1.04-2.35-2.07-4.69-3.11-7.04.98.76,1.95,1.52,2.93,2.27-2.41-5.17-4.83-10.34-7.24-15.5.92,3.15,1.83,6.29,2.74,9.44-.8-.12-1.6-.24-2.4-.37.75,3.32,1.51,6.64,2.26,9.96h0ZM117.95,566.27c-1.57.53-3.14,1.07-4.71,1.6,1.02-2.42,2.05-4.85,3.07-7.27-1.08.84-2.17,1.67-3.25,2.51,2.18-5.34,4.36-10.69,6.55-16.03-.67,3.21-1.35,6.41-2.02,9.62.79-.18,1.58-.37,2.36-.55-.67,3.38-1.33,6.75-2,10.12h0ZM148.46,565.11c1.62.41,3.17.72,4.79,1.13-1.21-2.34-2.34-4.57-3.55-6.91,1.14.75,2.29,1.5,3.43,2.26-2.28-5.17-4.55-10.35-6.83-15.52.76,3.15,1.52,6.3,2.29,9.45-.8-.12-1.6-.24-2.4-.37.75,3.32,1.51,6.64,2.26,9.96h0ZM163.26,564.54c-1.72.54-3.45,1.08-5.17,1.62,1.02-2.42,2.05-4.85,3.07-7.27-.93.83-1.86,1.66-2.79,2.49,2.03-5.34,4.06-10.67,6.09-16.01-.67,3.21-1.35,6.41-2.02,9.62.79-.18,1.58-.37,2.36-.55-.51,3.37-1.03,6.74-1.54,10.1h0ZM150.01,569.71l.48,10.1,12.2-.36-.47-10.14-12.21.4h0ZM104.84,571.43l.3,10.1,12.85-.62-.3-10.1-12.85.62h0Z"/>
      <path class="cls-1" d="M971.06,186.1c-.15-1.34.82-2.54,2.15-2.69,1.34-.15,2.54.82,2.69,2.15.41,3.75,1.55,7.6,4.54,10.61,4.17,4.19,9.64,5.23,15.34,5.89-.7,1.52-1.44,3.04-2.14,4.57-5.79-.67-11.61-1.97-16.65-7.04-3.94-3.96-5.41-8.83-5.93-13.5h0ZM979.18,192.14l17.52-9.85c-.82-1.25-1.81-2.37-2.88-3.37l-16.17,9.09c.34,1.42.83,2.81,1.53,4.13h0ZM1000.21,227.5l17.4-9.78c.59,1.2,1.11,2.57,1.55,4.12l-16.11,9.06c-1.13-1.16-2.07-2.29-2.84-3.39h0ZM998.01,214.08l8.51-4.79c1.83.45,3.6,1.09,5.25,2.04l-14.43,8.11c-.07-1.8.21-3.63.67-5.36h0ZM997.61,221.64l16.05-9.02c1.09.89,2.08,1.98,2.95,3.33l-17.47,9.82c-.76-1.4-1.26-2.78-1.53-4.13h0ZM990.68,200.33l7.68-4.31c.48-1.77.78-3.58.77-5.42l-13.73,7.72c1.66.92,3.44,1.55,5.29,2.02h0ZM983.45,197.06l15.51-8.72c-.21-1.49-.62-2.91-1.26-4.28l-17.44,9.8c.89,1.22,1.98,2.29,3.19,3.2h0ZM1003.08,203.05c4.46.52,8.87,1.29,12.72,3.62,4.86,2.93,8.48,7.95,10.1,16.93.24,1.32-.64,2.59-1.95,2.83-1.32.24-2.59-.64-2.83-1.96-1.34-7.38-4.13-11.4-7.83-13.63-3.7-2.23-7.95-2.83-12.38-3.27.72-1.49,1.47-2.99,2.17-4.52h0ZM996.13,172.8c-1.07-.82-2.6-.62-3.42.44-.82,1.07-.62,2.6.44,3.42,2.98,2.3,5.69,5.28,6.7,9.39,2.93,11.87-8.55,21.5-8.6,33.49-.02,5.67,2.38,11.38,9.21,17.43,1,.89,2.54.8,3.43-.2.89-1,.8-2.54-.2-3.43-5.61-4.98-7.59-9.45-7.57-13.78.05-11.49,11.99-20.35,8.45-34.68-1.33-5.42-4.73-9.21-8.45-12.08h0Z"/>
      <path class="cls-1" d="M516.04,298.48h-2.93v10.98c0,5.02-9.56,12.94-2.93,18.31h8.79c6.63-5.36-2.93-13.28-2.93-18.31v-10.98h0ZM489.36,319.25h14.05c-.94,8.81-13.2,8.56-14.05,0h0ZM496.43,327.77h0c5.16,0,9.35-4.19,9.35-9.35,0-4.34-2.96-7.99-6.97-9.04v-12.77h-4.75v12.77c-4.01,1.05-6.97,4.7-6.97,9.04,0,5.16,4.19,9.35,9.35,9.35h0ZM496.43,326.58c-4.42,0-8-3.58-8-8,0-.03,0-.07,0-.1h16s0,.07,0,.1c0,4.42-3.58,8-8,8h0ZM510.66,319.49c-1.2,2.38-1.81,4.8.68,6.75h6.47c2.49-1.95,1.88-4.37.68-6.75h-7.84ZM510.03,318.79c-1.39,2.86-2.1,5.77.79,8.11h7.52c2.89-2.34,2.18-5.25.79-8.11h-9.11Z"/>
      <path class="cls-2" d="M482.29,127.84l.08,6.87c-.44-.03-.89,0-1.32.06l-.08-6.97c.43.1.89.12,1.32.04h0ZM445.9,157.02c1.2,1.28,3.21,1.34,4.49.15,1.28-1.2,1.32-3.23.12-4.49-1.2-1.24-3.21-1.28-4.49-.12-1.26,1.2-1.34,3.21-.12,4.47h0ZM479.38,126.37c1.2,1.28,3.21,1.34,4.49.15,1.28-1.2,1.32-3.23.12-4.49-1.2-1.23-3.21-1.28-4.49-.12-1.26,1.2-1.34,3.21-.12,4.47h0ZM478.77,147.32c-3.06-1.74-4.18-5.69-2.42-8.82,1.72-3.09,5.67-4.2,8.77-2.46,3.11,1.76,4.23,5.71,2.47,8.82-1.74,3.11-5.69,4.2-8.82,2.46h0ZM509.19,151.68c1.17,3.07-.39,6.57-3.48,7.72-3.1,1.2-6.57-.39-7.77-3.48-1.15-3.1.41-6.53,3.5-7.7,3.1-1.17,6.57.39,7.75,3.46h0ZM466.66,176.19c1.2,1.26,3.21,1.32,4.51.12,1.26-1.2,1.32-3.23.1-4.49-1.2-1.28-3.19-1.32-4.47-.12-1.28,1.2-1.34,3.21-.15,4.49h0ZM459.93,162.01c2.42,2.53,6.42,2.64,8.98.25,2.53-2.39,2.64-6.45.25-8.98-2.37-2.49-6.42-2.6-8.96-.25-2.53,2.39-2.66,6.42-.27,8.98h0ZM477.11,146.64l-7.25,6.92c-.27-.35-.57-.67-.91-.96l7.32-6.98c.24.37.53.71.85,1.02h0ZM466.94,163.94l1.52,6.54c-.44.06-.86.22-1.25.47l-1.55-6.66c.43-.07.86-.19,1.28-.35h0ZM457.76,157.14l-6.2-1.06c.16-.42.23-.86.21-1.31l6.22,1.06c-.12.43-.2.86-.22,1.31h0ZM488.33,144.57l9.67,5.6c-.25.37-.46.76-.62,1.17l-9.7-5.62c.26-.36.48-.75.66-1.15h0Z"/>
      <path class="cls-2" d="M692.97,636.52l5.63-2.46c-.19-.35-.33-.72-.44-1.1l-5.71,2.49c.24.32.42.68.52,1.07h0ZM703.4,596.13c1.48.51,2.28,2.13,1.77,3.61-.51,1.48-2.15,2.26-3.61,1.75-1.45-.52-2.22-2.15-1.75-3.61.51-1.46,2.13-2.27,3.6-1.74h0ZM690.71,634.69c1.48.51,2.27,2.13,1.77,3.61-.51,1.48-2.15,2.26-3.61,1.75-1.45-.52-2.22-2.15-1.75-3.61.51-1.46,2.13-2.28,3.6-1.74h0ZM707.56,626.49c-2.54-1.86-6.17-1.32-8.08,1.27-1.88,2.53-1.35,6.16,1.21,8.06,2.58,1.89,6.21,1.35,8.09-1.23,1.89-2.56,1.34-6.18-1.23-8.1h0ZM722.29,649.69c2.94-.17,5.22-2.73,5.02-5.68-.16-2.96-2.73-5.22-5.69-5.06-2.95.2-5.17,2.73-4.99,5.69.18,2.96,2.73,5.22,5.67,5.05h0ZM726.65,606.02c1.46.51,2.26,2.13,1.76,3.63-.51,1.46-2.15,2.26-3.62,1.73-1.48-.51-2.25-2.12-1.74-3.6.51-1.48,2.13-2.27,3.61-1.77h0ZM712.62,605.74c2.95,1.04,4.51,4.27,3.5,7.23-1.02,2.95-4.29,4.52-7.23,3.5-2.9-1.02-4.48-4.28-3.49-7.21,1.02-2.95,4.26-4.53,7.22-3.52h0ZM706.39,625.4l2.98-8.46c-.39-.09-.76-.22-1.12-.39l-3,8.53c.39.06.77.17,1.14.32h0ZM716.76,610.74l5.89-1.16c-.11-.38-.14-.78-.08-1.19l-6,1.18c.1.38.16.77.19,1.17h0ZM707.85,605.75l-3.14-4.67c-.28.29-.62.51-.99.65l3.15,4.68c.3-.25.63-.48.98-.66h0ZM708.83,635.3l8.11,5.83c.21-.34.45-.65.73-.94l-8.15-5.85c-.2.34-.43.66-.69.96h0Z"/>
      <path class="cls-2" d="M902.96,228.55l8.12,1.81,11.78,22.48.76-.4c2.1-1.1,3.75,2.07,1.66,3.17l-.76.4c-4.83,2.53-9.66,5.06-14.5,7.6l-.76.4c-2.09,1.1-3.75-2.07-1.66-3.17l.76-.4-11.78-22.47,3.12-7.71,3.25-1.71h0ZM913.38,263l8.73-4.58,1.88,3.59.68-.36c2.1-1.1,3.76,2.07,1.66,3.17l-10.1,5.29c-2.09,1.1-3.75-2.07-1.66-3.17l.69-.36-1.88-3.59h0ZM918.49,251.69l-5.59,2.93-.77-1.47,5.59-2.93.77,1.47h0ZM910.52,236.47l-5.59,2.93-.77-1.47,5.59-2.93.77,1.47h0ZM912.51,240.27l-5.59,2.93-.77-1.47,5.59-2.93.77,1.47h0ZM914.5,244.08l-5.59,2.93-.77-1.47,5.59-2.93.77,1.47h0ZM916.5,247.88l-5.59,2.93-.77-1.47,5.59-2.93.77,1.47h0ZM894.5,218.15l4.8,11.33,3.26-1.71-6.58-10.4-1.48.77h0ZM901.75,230.39l-2.91,7.45,11.23,21.43,10.84-5.68-11.23-21.43-7.94-1.77h0Z"/>
      <path class="cls-2" d="M817.84,593.15l17.38,10.68,9.39,61.54,2.07-.32c5.74-.87,7.06,7.8,1.32,8.67l-2.07.32c-13.23,2.02-26.46,4.04-39.69,6.05l-2.07.32c-5.74.87-7.06-7.8-1.32-8.67l2.07-.32-9.39-61.52,13.39-15.39,8.91-1.36h0ZM814.52,681.37l23.91-3.65,1.5,9.84,1.87-.29c5.74-.87,7.06,7.8,1.32,8.67l-27.66,4.22c-5.74.87-7.06-7.8-1.32-8.67l1.88-.29-1.5-9.84h0ZM835.41,659.2l-15.3,2.33-.61-4.03,15.3-2.33.61,4.03h0ZM829.05,617.53l-15.3,2.33-.61-4.03,15.3-2.33.61,4.03h0ZM830.64,627.95l-15.3,2.33-.61-4.03,15.3-2.33.61,4.03h0ZM832.23,638.37l-15.3,2.33-.61-4.03,15.3-2.33.61,4.03h0ZM833.82,648.79l-15.3,2.33-.61-4.03,15.3-2.33.61,4.03h0ZM806.51,562.27l2.1,30.12,8.92-1.36-6.98-29.37-4.04.62h0ZM813.58,596.45l-12.69,14.96,8.95,58.67,29.69-4.53-8.95-58.66-17-10.45h0Z"/>
      <path class="cls-1" d="M738.26,677.59c5.75,7.86,12.52,5.54,18.62,9.51,5.56,3.61,5.62,8.78-.95,20.78-3.65,7.02-4.97,12.22-2.84,14.59-17-8.12-26.22-16.7-16.89-31.62-.59,4.07.56,7.11,5.58,9.79,7.82-16.51-3.61-8.18-4.52-17.26,2.21,4.94,8.93,3.22,10.51,7.72,1.5,4.29-5.54,10.16-3.81,13.86-4-1.23-5.78-2.32-7.49-4.6.03,4.51,3.58,7.96,9.55,11.32,7.24-9.43,12.21-17.79,7.17-22.36-3.53-3.2-12.15-2.38-14.94-11.72h0ZM739.07,689.27c7.18.69,1.23,6.71,1.73,9.37-2.21-1.86-4.69-6.3-1.73-9.37h0Z"/>
      <path class="cls-1" d="M932.8,179.34c-8.03-11.07-17.55-7.85-26.1-13.46-7.79-5.11-7.85-12.36,1.44-29.17,5.17-9.84,7.05-17.14,4.06-20.47,23.83,11.5,36.74,23.59,23.55,44.5.85-5.71-.75-9.99-7.79-13.78-11.07,23.14,5.02,11.51,6.25,24.26-3.08-6.95-12.53-4.57-14.72-10.9-2.08-6.03,7.84-14.23,5.42-19.44,5.61,1.75,8.1,3.29,10.5,6.5-.01-6.33-4.99-11.2-13.36-15.95-10.22,13.21-17.25,24.93-10.2,31.36,4.95,4.51,17.06,3.41,20.93,16.54h0ZM931.72,162.92c-10.08-1.01-1.69-9.43-2.38-13.17,3.09,2.63,6.56,8.87,2.38,13.17h0Z"/>
      <path class="cls-1" d="M471.6,703.32c-2.15-14.67-12.9-16.37-18.29-26.05-4.91-8.82-1.32-15.81,16.06-27.28,9.91-6.85,15.39-12.91,14.2-17.61,17.1,23.03,23.41,41.13.22,54.57,3.69-5.06,4.3-9.97-.55-17.15-22.27,16.65-.97,13.58-6.2,26.44.54-8.22-9.73-10.69-8.64-17.87,1.03-6.84,14.69-9.72,14.98-15.94,4.5,4.5,6.13,7.23,6.81,11.52,3.17-6.08.84-13.26-4.8-22.03-16.45,7.54-29.1,15.25-25.56,24.98,2.48,6.82,14.66,11.85,11.77,26.41h0ZM478.82,687.02c-9.17-6.04,3.12-9.91,4.33-13.84,1.64,4.08,1.83,11.82-4.33,13.84h0Z"/>
      <path class="cls-1" d="M209.23,438.8c-23.72,17.45-35.21,48.29-8.87,63.18-18.38-23.23-6.17-47.77,8.87-63.18h0ZM209.54,438.92c-7.72,14.28-.16,21.84,6.92,27.9,8.31,7.11,14.24,10.45,4.94,23.11,12.35-13.14,10.05-18.79-2.27-27.91-5.31-3.94-13.78-8.64-9.59-23.1h0ZM204.03,454.92c3.98,25.45,26.68,22.43-1.4,47.22,43.52-21.3,6.48-30.29,1.4-47.22h0ZM201.32,456.28c-9.4,22.08-7.74,32.05.36,43.45,22.85-18.45-1.59-22.16-.36-43.45h0Z"/>
      <path class="cls-1" d="M781.64,53.52c-7.01,28.66,3.99,59.75,33.82,54.26-29.06-6.03-35.47-32.75-33.82-54.26h0ZM781.96,53.42c3.25,15.94,13.92,16.89,23.27,16.99,10.96.12,17.66-1.13,18.66,14.59,1.05-18.04-4.36-20.9-19.7-19.99-6.61.39-16.15,2.22-22.22-11.59h0ZM788.01,69.26c19.43,17,34.93.08,29.3,37.19,19.75-44.36-14.5-27.45-29.3-37.19h0ZM786.8,72.05c6.98,23.01,14.66,29.61,28.22,33.16,5.7-28.87-15.47-16.01-28.22-33.16h0Z"/>
      <path class="cls-1" d="M603.92,313.84c-16.55-7.05-36.35-3.51-36,14.97,6.51-16.89,23.22-18.09,36-14.97h0ZM603.95,314.05c-9.91.38-11.54,6.7-12.53,12.31-1.16,6.58-1.07,10.74-10.62,9.78,10.75,2.42,13.01-.55,13.98-9.87.42-4.02.26-9.93,9.17-12.22h0ZM593.82,316.12c-12.15,10.01-3.5,21.01-25.28,13.94,24.73,16.27,17.95-6,25.28-13.94h0ZM592.26,315.11c-14.54,1.92-19.27,5.89-22.75,13.69,16.81,6.29,11.17-7.72,22.75-13.69h0Z"/>
      <path class="cls-1" d="M1220.58,191.84c-5.2,6.56-12.52,7.42-16.73,6.43,5.51,4.25,17.07-3.33,24.68,4.83-6.28-4.69-21.54,2.23-21.99,7.82,2.53.24,3.49-.53,4.98-1.45,4.65-2.87,7.43-8.06,14.34-2.52-6.37-2.37-7.01,3.09-10.74,7.33-8.4,9.56-22.98,11.29-32.67,5.88-15.64-8.73-15.37-40.1,3.87-37.96,16.82,1.87,18.38,8.53,28.64,4.57-6.03,3.7-8.91,4.08-14.51,2.67,6.26,3.39,13.03,6,20.12,2.4h0ZM1200.72,193.95c-2.89-1.73-5.95-2.31-8.32-1.84-4.59.91-5.37,6.47-1.07,9.36,2.99,2.02,7.43,4.14,13.9,2.52-9.26,5.42-17.87.76-14.26,5.59,2.31,3.09,8.39,7.91,17.04,5.64-8.05,4.55-21.16,5.2-27.32-1.58-7.27-8-7.27-23.24.61-26.42,6.16-2.49,15.72,2.1,19.43,6.73h0Z"/>
      <path class="cls-1" d="M973.26,493.59c2.27-13.11,14.29-8.46,20.1-4.49,2.78,1.9,6.55,1.57,9.24.2-2.33,2.71-4.31,3.48-7.3,3.63,3.71,2.62,11.1,2.39,13.49-.12-1.48,2.26-3.12,3.56-6.31,4.63,5.56,1.18,10.99,3.66,15.58,9-8.47-5.22-27.01-3.45-29.43,4.28-.84,2.7,1.34,5.48,8.08,3.26-10.64,7.46-23.63,6.21-24.23-8.64,1.99,6.18,4.66,9.53,11.71,9.29-2.71-6.38,6.45-15.44,18.04-14.27-7.13-3.48-16.64-5.39-21.02-.76,1.28-3.6,4.4-6.46,10.2-5.56-6.36-2.87-10.63-2.8-14.82,1.61.37-2.92,2.63-8.01,8.66-7.49-5.65-2.16-9.63.06-11.99,5.43h0Z"/>
      <path class="cls-1" d="M51.81,87.98c6.2-8.26-2.62-9.48,1.45-15.02,1.1-1.5,2.42-2.74,6.3-4.64,1.42,3.62,1.1,5.83-.32,9.29,6.3-2.82,8.11-4.69,10.59-9.95,1.9,24.92-9.34,8.02-11.57,22.59,4.48-8.96,16.31,2.84,16.03-19.25-.04-3.48-.35-7.29,2.26-9.4-2.23.44-3.8,1.15-6.11,2.79,1.89-9.09.09-13.75-4.2-22.07-.38,10.26-13.85,11.43-19.28,20.75-8.69,14.91,8.09,18.78,4.84,24.91h0ZM62.42,73.18c5.43-7.47,6.75-12.22,4.24-20.9-10.58,6.2-14.42,8.47-16.54,18.85,5.32-5.38,7.83-2.56,10.72-10.28,1.15,4.56,1.96,7.24,1.58,12.33h0Z"/>
      <path class="cls-1" d="M1198.67,328.72c6.54-3.2,11.03-6.91,15.66-12.46,1.92,29.11-3,55.08-21.68,66.19-23.08,13.72-56.37-.32-60.89-28.26-2.93-18.1,6.91-40.01,31.7-58.28-2.48,7.07-.84,14.58,5.96,18.43,7.1-11.76,9.59-21.91,8.33-36.97,14.74,13.66,24.24,27.41,20.93,51.35h0ZM1155.05,310.42c-23.07,35.17-11.04,55.26,5.19,62.1,17.37,7.32,42.41-2.41,48.1-39.52-8.01,19.42-20.81,23.13-32.17,23.83,14.9-21.51,14.87-49.84,8.05-65.34,3.78,17.9-6.5,45.46-19.05,57.05-4.47-3.39-3.72-24.92,6.57-16.63-6.44-11.43-17.82,1.49-17.85,11.68-3.47-7.49-6.26-15.67,1.17-33.17h0Z"/>
      <path class="cls-1" d="M768.97,409.1c-1.58-5.84-7.68-9.34-13.52-7.76-5.84,1.58-9.34,7.68-7.76,13.52,1.58,5.84,7.68,9.34,13.52,7.76,5.84-1.58,9.34-7.68,7.76-13.52h0ZM769.24,419.73c-4.58,6.51-13.92,7.47-19.74,2l.82-1.17c5.17,5.03,13.62,4.23,17.75-1.65,4.14-5.88,2.03-14.1-4.44-17.27l.82-1.17c1.67.85,3.07,2.01,4.18,3.36l1.09-.82c-1.31-2.22-1.35-4.69-.08-6.03l7,9.28c-1.64.85-4.01.13-5.78-1.74l-1.14.86c2.58,4.29,2.62,9.92-.49,14.35h0ZM751.09,418.79c-1.39-1.48-2.28-3.34-2.58-5.3l3.05,1.75c-.24,1.13-.4,2.31-.46,3.55h0ZM754.79,421.27c-.48-.18-.95-.41-1.41-.67-.46-.26-.89-.56-1.29-.88.01-1.38.15-2.69.41-3.93l5.47,3.14c-.94.85-2,1.63-3.18,2.34h0ZM761.98,421.23c-1.85.73-3.9.9-5.88.44,1.03-.68,1.98-1.41,2.83-2.19l3.05,1.75h0ZM751.88,413.94l-3.49-2c0-1.47.33-2.95,1.02-4.34l4.11,2.36c-.69,1.25-1.23,2.58-1.64,3.99h0ZM758.94,418l-6.11-3.51c.4-1.41.97-2.73,1.67-3.97l7.02,4.03c-.71,1.23-1.57,2.39-2.58,3.45h0ZM766.61,417.47c-.86,1.29-1.97,2.33-3.23,3.07l-3.49-2c1.01-1.06,1.88-2.2,2.62-3.43l4.11,2.36h0ZM754.17,408.85l-4.13-2.37c.86-1.29,1.97-2.33,3.23-3.07l3.6,2.06c-1.04,1.05-1.94,2.17-2.71,3.37h0ZM762.12,413.41l-6.95-3.99c.79-1.19,1.73-2.29,2.78-3.33l5.63,3.23c-.36,1.44-.84,2.8-1.47,4.08h0ZM768.27,412.02c0,1.47-.33,2.95-1.02,4.34l-4.13-2.37c.65-1.27,1.16-2.62,1.54-4.04l3.6,2.07h0ZM757.85,404.55l-3.17-1.82c1.89-.74,3.99-.91,6.01-.41-1.02.7-1.97,1.44-2.84,2.23h0ZM765.47,405.06c1.45,1.5,2.37,3.4,2.68,5.4l-3.17-1.82c.24-1.15.4-2.34.49-3.58h0ZM763.28,403.35c.38.22.75.46,1.09.72-.08,1.36-.24,2.67-.48,3.93l-4.93-2.83c.97-.85,2.02-1.65,3.15-2.4.4.16.79.36,1.17.58h0Z"/>
      <path class="cls-1" d="M879.35,528.46c10.14,4.07,21.81-.91,25.88-11.05,4.07-10.14-.91-21.81-11.05-25.88-10.14-4.07-21.81.91-25.88,11.05-4.07,10.14.91,21.81,11.05,25.88h0ZM863.74,517.3c-4.4-13.68,4.37-28.19,18.58-30.62l.79,2.46c-12.86,1.99-20.9,15.03-16.93,27.38,3.98,12.35,18.11,18.26,29.72,12.37l.79,2.46c-3.04,1.48-6.23,2.25-9.39,2.38v2.46c4.61.53,8.22,3.15,8.79,6.44h-20.99c.57-3.29,4.18-5.91,8.79-6.44v-2.58c-8.99-.95-17.15-7.01-20.15-16.3h0ZM884.82,492.15c3.65-.4,7.29.34,10.45,2.04l-5.83,2.49c-1.37-1.58-2.9-3.09-4.61-4.53h0ZM877.22,494.8c.78-.49,1.62-.93,2.5-1.3.88-.38,1.77-.68,2.67-.9,1.97,1.52,3.71,3.15,5.22,4.87l-10.48,4.47c-.2-2.28-.18-4.66.09-7.14h0ZM869.47,505.2c.96-3.45,2.94-6.59,5.75-8.95-.15,2.23-.12,4.38.08,6.46l-5.83,2.49h0ZM890.95,498.56l6.68-2.85c2.11,1.6,3.89,3.69,5.15,6.19l-7.86,3.36c-1.05-2.35-2.37-4.58-3.97-6.69h0ZM877.43,504.33l11.7-5c1.59,2.12,2.88,4.36,3.9,6.72l-13.44,5.74c-1.01-2.37-1.74-4.85-2.16-7.47h0ZM869.83,515.96c-.93-2.64-1.21-5.37-.91-8l6.68-2.85c.42,2.61,1.13,5.11,2.09,7.49l-7.87,3.36h0ZM895.8,507.41l7.9-3.37c.93,2.64,1.21,5.37.91,8l-6.89,2.94c-.39-2.63-1.02-5.16-1.92-7.57h0ZM880.57,513.91l13.29-5.68c.85,2.43,1.43,4.98,1.77,7.63l-10.78,4.6c-1.68-2.08-3.11-4.26-4.29-6.56h0ZM875.9,524.29c-2.11-1.6-3.89-3.69-5.15-6.19l7.9-3.37c1.13,2.31,2.51,4.52,4.14,6.62l-6.89,2.94h0ZM897.99,517.39l6.07-2.59c-.98,3.53-3.03,6.74-5.95,9.12.11-2.24.07-4.41-.12-6.52h0ZM888.96,527.82c-3.73.46-7.47-.28-10.7-2.01l6.07-2.59c1.4,1.59,2.94,3.13,4.63,4.6h0ZM893.81,526.51c-.73.31-1.48.57-2.22.78-1.87-1.59-3.59-3.25-5.15-4.97l9.44-4.03c.17,2.32.17,4.71.03,7.16-.67.4-1.37.75-2.1,1.06h0Z"/>
      <path class="cls-1" d="M51.72,395.26l-1.4-11.4,1.93-.24.84,6.85,1.02-.12-.84-6.86,1.94-.24.48,3.91.67-.08-.48-3.91,1.91-.24.84,6.86,1.02-.12-.84-6.86,1.94-.24.48,3.91.67-.08-.48-3.91,1.91-.24.84,6.86,1.02-.13-.84-6.85,1.94-.24.48,3.91.67-.08-.48-3.91,1.55-.19,1.4,11.4-18.2,2.24h0ZM68.33,369.02h0s0-.02,0-.02c0,0,0,.01,0,.02h0ZM72.92,354.93l1.94,2.94-3.12.39,1.17-3.32h0ZM85.53,405.95c.29,2.38,1.77,6.36-5.15,7.22-7.38.91-6.98-3.05-7.31-5.68-.23-1.9,12.22-3.44,12.46-1.54h0ZM68.57,369.96c1.22-.47,1.76-.62,2.95-.77,2.6-.34,4.36,1.94,4.61,1.91.29-.03.73-2.17,4.66-2.65.08.09.14.15.15.23l4.39,35.63c-1.37-1.16-10.87-.22-12.46,1.54l-4.39-35.66s.05-.15.09-.22h0ZM74.55,358.2l2.37,3.53,3.81,5.65s-.05-.06-.08-.1c-3.93.49-4.38,2.62-4.67,2.65-.24.03-2-2.25-4.61-1.91-1.18.15-1.73.31-2.94.77-.02.03-.04.07-.06.1l2.32-6.41,1.45-4-.27.76,3.12-.39-.44-.67h0ZM80.77,367.45v.02s.02.04.02.04c0-.02,0-.04-.02-.06h0ZM83.81,379.75l.85-.1.48,3.91.67-.08-.48-3.91,1.91-.24.84,6.86,1.02-.13-.84-6.85,1.94-.24.48,3.91.67-.08-.48-3.91,1.91-.23.84,6.86,1.02-.13-.84-6.86,1.94-.24.48,3.91.67-.08-.48-3.91,7.15-.88,1.4,11.4-19.76,2.43-1.4-11.4h0ZM99.91,383.56c-.08-.68.4-1.3,1.08-1.38.68-.08,1.3.4,1.38,1.08.08.68-.4,1.3-1.08,1.38-.68.08-1.3-.4-1.38-1.08h0Z"/>
      <path class="cls-1" d="M525.79,524.63c.85-4.35,1.88-8.73,3.09-13.16,8.76.73,17.53,1.45,26.29,2.18-1.23,4.14-2.28,8.31-3.16,12.5-3.48-2.53-7.68-4.16-12.28-4.54-5.03-.42-9.84.73-13.93,3.02h0ZM524.53,530.62c-8.44,7.15-9.5,19.94-2.35,28.37,7.15,8.44,19.94,9.5,28.37,2.35,8.44-7.14,9.5-19.94,2.35-28.37-7.15-8.44-19.94-9.5-28.37-2.35h0ZM522.47,528.19c9.77-8.28,24.58-7.05,32.86,2.72,8.28,9.77,7.05,24.58-2.72,32.86-9.77,8.28-24.58,7.05-32.86-2.72-8.28-9.77-7.05-24.58,2.72-32.86h0ZM580.77,549.47c1.07-15.78,6.5-32.43,9.6-32.17,3.1.26,5.44,15.33,3.94,33.41-1.5,18.08-6.26,32.33-9.36,32.07-3.1-.26-5.25-17.54-4.18-33.31h0ZM538.81,527.51c7.29.7,13.48,5.17,15.3,10.44-3.87,1.81-7.74,3.61-11.62,5.42-1.25-1.91-2.79-2.77-4.74-3.17h0c.35-4.23.7-8.46,1.05-12.69h0ZM533.64,545.64c.17-2.01,1.93-3.5,3.94-3.33,2.01.17,3.5,1.93,3.34,3.94-.17,2.01-1.93,3.5-3.94,3.33-2.01-.17-3.5-1.93-3.34-3.94h0ZM535.78,564.17c6.6.84,14.03-2.22,16.83-7.99h0c-3.52-2.42-7.05-4.84-10.57-7.25-.8,1.93-3.43,2.97-5.21,2.56l-1.05,12.69h0ZM522.19,535.52c-3.94,4.68-4.79,13.87-1.51,18.23,3.88-1.88,7.76-3.75,11.63-5.63-1.07-1.23-.77-4.49.46-5.56h0c-3.53-2.35-7.06-4.69-10.59-7.04h0ZM553.11,580.9c-.48-5.12-.78-10.25-.88-15.4,5.43-4.03,9.17-10.3,9.77-17.57.6-7.3-2.07-14.11-6.79-18.99.92-4.95,2.06-9.95,3.44-15.01,8.76.73,17.53,1.45,26.29,2.18-8.71,23.16-10.3,45.67-5.54,66.96-8.76-.73-17.53-1.45-26.29-2.18h0ZM493.55,575.96c-3.77-18-1.85-47.87,5.54-66.96,8.76.72,17.53,1.45,26.29,2.18-1.63,5.49-2.95,11.02-3.97,16.59-4.47,4.01-7.48,9.68-8.01,16.13-.54,6.49,1.52,12.6,5.31,17.3.1,5.66.49,11.32,1.13,16.94-8.76-.73-17.53-1.45-26.29-2.18h0ZM523.33,578.43c-.42-4.47-.7-8.95-.83-13.45,3.65,2.92,8.18,4.82,13.19,5.23,4.62.38,9.05-.55,12.92-2.49.18,4.31.52,8.6,1.01,12.88-8.76-.72-17.53-1.45-26.29-2.18h0Z"/>
      <path class="cls-2" d="M308.83,610.05l-9.87-15.89c-1.76,1.71-6.79,1.66-8.58,0-3.08,5.3-6.16,10.59-9.24,15.89,8.53,4.64,19.17,4.64,27.69,0h0ZM269.49,611.42c-14.01-13.3-14.01-35.14,0-48.45,14.01-13.31,37-13.31,51.01,0,14.01,13.3,14.01,35.14,0,48.45-14.01,13.31-37,13.31-51.01,0h0ZM294.99,592.54c-3.1,0-5.62-2.39-5.62-5.33s2.52-5.34,5.62-5.34,5.62,2.39,5.62,5.34-2.51,5.33-5.62,5.33h0ZM272.97,608.12c12.1,11.49,31.95,11.49,44.04,0,12.1-11.49,12.1-30.35,0-41.83s-31.95-11.49-44.04,0c-12.1,11.49-12.1,30.35,0,41.83h0ZM308.44,564.14l-9.48,15.76c3.06.93,5,4.63,4.58,7.29h19.17c0-9.62-5.43-18.42-14.27-23.05h0ZM281.06,564.4l9.32,15.5c-2.77,2.05-3.9,4.4-4.26,7.29h-18.84c0-9.43,5.22-18.08,13.78-22.78h0Z"/>
      <path class="cls-2" d="M1134.17,553.65c-9.76-9.76-9.76-25.77,0-35.53,9.76-9.76,25.77-9.76,35.53,0,9.76,9.76,9.76,25.77,0,35.53-9.76,9.76-25.77,9.76-35.53,0h0ZM1136.59,551.23c8.42,8.42,22.25,8.42,30.68,0,8.42-8.42,8.42-22.25,0-30.68-8.42-8.42-22.25-8.42-30.68,0-8.42,8.42-8.42,22.25,0,30.68h0ZM1158.38,550.41c.2-.73.59-1.37,1.16-1.92,1.67-1.4,2.85-2.47,4.34-6.29.55-1.53,1.34-2.75,2.33-3.45.87-.62,1.62-1.4,1.57-1.95-.16-1.63-2.67-1.37-3.9-1.14-1.7.47-3.73,2.06-4.33,3.58.1-2.29.1-3.69.16-7.16,0-2.94.1-6.8-.03-9.75-.12-2.78-4.22-2.55-4.35-.1-.14,2.68-.26,6.72-.35,9.94-.18,0-.43,0-.61,0,.09-3.25.1-8.87-.02-11.75-.1-2.49-3.77-2.43-3.92-.03-.15,2.57-.24,8.35-.3,12.11-.18.02-.36.02-.55.02.03-3.38.01-7.84-.06-10.42-.07-2.5-3.66-2.18-3.78-.07-.12,2.18-.26,7.09-.25,10.78-.22,0-.33,0-.55,0-.04-3.05,0-5.67-.15-8.07.04-1.9-3.33-1.83-3.42.08-.19.92-.09,4.66-.2,8.82-.3,11.81,2.22,13.46,2.87,16.61.79,3.85,13.28,3.99,14.32.16h0Z"/>
      <path class="cls-1" d="M584.11,82.05c-3-3.23-4.38-7.85-3.26-12.46,1.77-7.28,9.11-11.75,16.39-9.98,6.9,1.68,11.27,8.35,10.21,15.25,1.59-.32,3.31-.29,5.13.15,7.28,1.77,11.75,9.11,9.98,16.39-1.77,7.28-9.11,11.75-16.39,9.98-1.82-.44-3.36-1.21-4.62-2.22-2.22,6.61-9.17,10.54-16.07,8.86-7.28-1.77-11.75-9.11-9.98-16.39,1.12-4.6,4.47-8.08,8.62-9.57h0ZM588.92,76.07c3.58-3.44,8.85-4.55,13.51-2.82-.39.97-.95,1.83-1.64,2.57-3.24-.96-6.77-.22-9.35,1.95-.96-.41-1.81-.99-2.53-1.7h0ZM602.31,85.71l-1.51-.37c.05-1.69-1.08-3.24-2.78-3.66-.22-.05-.43-.09-.65-.1l-.43-1.48c3.68-.83,6.76-3.67,7.71-7.58,1.34-5.5-2.04-11.04-7.54-12.38-5.5-1.34-11.04,2.04-12.38,7.54-1.34,5.5,2.04,11.04,7.54,12.38,1.06.26,2.13.34,3.17.26l.43,1.48c-1.09.41-1.96,1.34-2.26,2.55-.29,1.2.05,2.42.81,3.28l-1.07,1.13c-.88-.53-1.85-.95-2.91-1.2-5.5-1.34-11.04,2.04-12.38,7.54-1.34,5.5,2.04,11.04,7.54,12.38,5.5,1.34,11.04-2.04,12.38-7.54.95-3.92-.49-7.87-3.4-10.29l1.06-1.11c.21.09.42.17.65.23,1.71.42,3.43-.44,4.15-1.97l1.51.37c-.9,5.36,2.58,10.4,7.69,11.64,5.5,1.34,11.04-2.04,12.38-7.54,1.34-5.5-2.04-11.04-7.54-12.38-5.14-1.25-10.53,1.68-12.17,6.81h0ZM610.05,80.84c1.87,4.97.48,10.66-3.46,14.21-.74-.66-1.36-1.46-1.82-2.34,2.87-2.7,3.89-6.91,2.59-10.63.81-.57,1.73-.99,2.69-1.24h0ZM596.29,98.28c-4.92-.62-9.08-4.02-10.67-8.72.96-.29,1.99-.41,3.03-.33,1.28,3.11,4.06,5.38,7.37,6.02.27.97.37,1.99.27,3.03h0Z"/>
      <path class="cls-1" d="M69.97,282.93c-2,3.03-5.43,5.02-9.33,5.02-6.16,0-11.15-5.01-11.15-11.17,0-5.84,4.49-10.63,10.21-11.11-.56-1.21-.87-2.59-.87-4.13,0-6.16,5.01-11.15,11.17-11.15,6.16,0,11.15,5,11.15,11.17,0,1.54-.32,2.92-.88,4.13,5.71.49,10.2,5.29,10.19,11.13,0,6.16-5.01,11.16-11.17,11.15-3.9,0-7.33-2.01-9.32-5.03h0ZM64.25,280.24c-3.45-2.19-5.35-6.19-4.87-10.25.85.12,1.65.4,2.37.81-.14,2.78,1.14,5.46,3.37,7.09-.14.85-.44,1.64-.87,2.35h0ZM69.37,267.67v1.28c-1.36.28-2.38,1.49-2.39,2.93,0,.18.02.36.05.54l-1.1.63c-1.37-2.78-4.24-4.69-7.55-4.7-4.65,0-8.43,3.77-8.43,8.42,0,4.65,3.77,8.43,8.42,8.43,4.65,0,8.43-3.77,8.43-8.42,0-.9-.14-1.77-.4-2.58l1.1-.64c.54.79,1.45,1.31,2.48,1.31,1.02,0,1.92-.51,2.46-1.29l1.11.64c-.26.81-.4,1.67-.4,2.56,0,4.65,3.77,8.43,8.42,8.43,4.65,0,8.43-3.77,8.43-8.42,0-4.65-3.77-8.43-8.42-8.43-3.32,0-6.19,1.92-7.57,4.71l-1.09-.63c.03-.18.05-.37.05-.57,0-1.44-1.02-2.65-2.38-2.94v-1.28c4.45-.32,7.81-4.07,7.82-8.4,0-4.65-3.77-8.43-8.42-8.43-4.65,0-8.43,3.77-8.43,8.42,0,4.35,3.38,8.09,7.8,8.41h0ZM63.98,262.43c3.61-2.45,8.42-2.45,12.03.01-.39.72-.9,1.37-1.52,1.91-2.72-1.77-6.28-1.77-9,0-.61-.54-1.13-1.19-1.51-1.91h0ZM80.58,270.05c.46,4.05-1.46,8.03-4.9,10.21-.42-.71-.71-1.51-.85-2.35,2.24-1.63,3.51-4.29,3.39-7.05.72-.41,1.52-.68,2.37-.81h0Z"/>
      <path class="cls-1" d="M740.93,163.05c-2.43.72-4.38-2.28-2.29-4.21-.41-1.2-.78-2.58-1.04-3.83-10.82,6.06-15.39,1.39-8.5-8.73-11.53-3.42-11.04-9.91.62-12.06-5.63-10.49-1.09-14.56,8.71-8.17,3.18-11.59,9.65-10.22,11.99.83.14-.08.29-.15.43-.23,0,0,0,0,0,.01-.08-2.2,2.62-3.35,4.2-1.77,9.77-2.72,7.24,5.44,3.58,10.86,3.99.95,10.22,3.58,7.84,8.3.81,2.36-2.16,4.33-4.02,2.55-1.41.51-2.8.87-4.26,1.16,5.39,9.91,1.44,14.99-8.56,8.33-1.01,3.49-4.31,11.27-8.7,6.96h0ZM757.51,137.33c-1.08,1.43-2.27,2.83-3.45,4.18,1.3,1.74,2.54,3.48,3.63,5.36,1.42-.29,2.81-.66,4.15-1.22-.68-1.91,1.13-3.79,3.06-3.16.54-2.72-5.05-4.66-7.39-5.16h0ZM742.34,161.87c2.55,2.46,5.17-5.05,5.68-6.9-1.58-1.15-3.12-2.36-4.61-3.64-1.6,1.13-3.26,2.19-4.95,3.18.28,1.32.64,2.57,1.14,3.82,2.23-.61,3.83,1.74,2.74,3.53h0ZM751.53,128.37c-.25.13-.51.27-.76.41.29,1.81.45,3.63.58,5.45,2.11.32,4.26.67,6.32,1.24,2.31-3.49,5.27-10.58-1.91-8.83-.03,1.56-1.5,2.72-3.04,2.34-.65-.16-1.19-.61-1.19-.61h0ZM743.47,146.43c-2.78-.13-4.91-2.5-4.78-5.28.13-2.77,2.49-4.92,5.27-4.79,2.78.13,4.91,2.5,4.78,5.28-.14,2.77-2.49,4.92-5.27,4.79h0ZM730.88,136.22c-.08-.12-.15-.25-.23-.38-9.27,1.6-10.78,6.74-1.03,9.71,1.27-1.77,2.69-3.41,4.16-5.02-.06-.08-.17-.24-.24-.34-2.44.96-4.46-2.1-2.66-3.98h0ZM733.05,135.5c2.07.35,2.7,2.91,1.23,4.24.03.05.06.09.1.14.67-.72,1.35-1.44,2.05-2.13.03-.46.07-.93.11-1.39.04-.41.08-.81.13-1.2-1.21.08-2.42.21-3.62.35h0ZM736.89,133.5c.28-1.86.63-3.73,1.06-5.56-7.94-5.31-11.95-2.89-7.24,6.11,2.06-.32,4.1-.46,6.17-.55h0ZM751.46,135.98c.04.77.07,1.55.08,2.32.68.82,1.34,1.66,1.99,2.51,1.04-1.23,2.05-2.47,3.01-3.75-1.67-.44-3.39-.78-5.09-1.08h0ZM749.84,135.72c-.21-.03-.42-.06-.62-.09.22.24.44.49.66.74-.01-.22-.03-.43-.04-.65h0ZM746.68,135.31c-1.63-.17-3.26-.27-4.89-.3-.82.68-1.62,1.37-2.39,2.08-.77.7-1.51,1.43-2.24,2.17-.06,1.47-.05,2.93.01,4.4,1.13,1.42,2.33,2.78,3.6,4.07,1.9.17,3.8.24,5.71.21,1.12-.94,2.2-1.93,3.23-2.96.19-2.03.28-4.05.25-6.09-1.04-1.24-2.14-2.43-3.28-3.58h0ZM739.3,135.03c-.6.02-1.2.04-1.8.07-.07.59-.13,1.18-.18,1.77.65-.63,1.31-1.24,1.98-1.85h0ZM731.42,146.06c1.7.44,3.42.82,5.15,1.12-.09-1.06-.17-2.13-.21-3.2-.55-.69-1.08-1.39-1.6-2.09-1.16,1.34-2.29,2.74-3.34,4.17h0ZM737.44,147.32c.69.11,1.38.2,2.07.28-.78-.82-1.53-1.67-2.25-2.53.05.75.11,1.5.19,2.25h0ZM747.78,147.91c.54-.02,1.07-.05,1.61-.08.07-.52.14-1.05.2-1.57-.59.56-1.19,1.11-1.81,1.65h0ZM751.11,147.71c1.57-.13,3.18-.28,4.73-.51-.89-1.5-1.88-3-2.89-4.43-.51.56-1.02,1.12-1.55,1.67-.07,1.09-.17,2.19-.3,3.27h0ZM756.34,148.07c-1.76.25-3.56.39-5.34.51-.28,2.23-.58,4.47-1.15,6.65,8.45,5.5,10.82.61,6.48-7.16h0ZM749.27,148.68c-.83.04-1.66.07-2.5.09-.87.72-1.76,1.41-2.67,2.08,1.34,1.15,2.73,2.23,4.15,3.27.44-1.77.75-3.63,1.02-5.43h0ZM745.47,148.78c-1.27,0-2.53-.05-3.8-.14.59.57,1.19,1.12,1.8,1.66.68-.49,1.34-1,2-1.52h0ZM740.4,148.52c-.96-.09-1.92-.22-2.87-.36.2,1.82.43,3.7.77,5.49,1.53-.9,3.04-1.86,4.49-2.88-.82-.73-1.62-1.48-2.39-2.26h0ZM736.65,148.02c-1.94-.33-3.84-.75-5.75-1.24-5.67,8.13-2.56,12.4,6.53,7.37-.37-1.99-.59-4.1-.78-6.13h0ZM737.72,133.47c1.14-.04,2.29-.06,3.44-.05.32-.27.65-.54,1-.82.28-.22.57-.45.87-.68-1.4-1.2-2.83-2.4-4.34-3.47-.39,1.66-.71,3.34-.97,5.02h0ZM743.73,133.48c.37.02.74.03,1.12.06-.18-.17-.36-.33-.54-.49-.19.14-.39.29-.58.44h0ZM747.43,133.74c.76.07,1.52.16,2.27.26-.14-1.42-.32-2.85-.54-4.26-1.17.74-2.33,1.51-3.46,2.31.59.55,1.16,1.12,1.73,1.7h0ZM735.33,141.23c.32.45.65.89.98,1.33-.02-.8-.02-1.61,0-2.41-.33.36-.66.72-.99,1.08h0ZM744.42,130.86c1.42-1.05,2.91-2.12,4.4-3.05-1.76-8.73-6.84-11.09-9.64-1.26,1.84,1.27,3.59,2.82,5.24,4.31h0ZM751.48,143.15c.33-.35.65-.71.97-1.08-.3-.4-.59-.8-.9-1.2-.01.76-.04,1.52-.07,2.28h0Z"/>
      <path class="cls-1" d="M826.86,223.01c1.51,2.71-1.55,5.84-4.41,3.86-1.32.81-2.87,1.63-4.29,2.27,10.14,11.28,5.8,17.99-8.13,12.49-.98,14.68-8.85,15.84-14.56,2.5-11.01,9.53-17.08,5.22-12.09-8.19-14.69-.68-14.79-8.76-2.24-14.53-.13-.15-.26-.3-.39-.46,0,0,.01,0,.02,0-2.61.68-4.7-2.23-3.24-4.53-5.87-10.93,4.54-10.1,12-7.19.06-5.02,1.52-13.16,7.8-11.59,2.6-1.6,5.74,1.41,4.12,4.12.99,1.54,1.79,3.1,2.53,4.78,10.37-9.1,17.5-5.75,12.24,7.98,4.44.27,14.61,2.11,10.64,8.51h0ZM791.71,210.14c2,.91,3.99,1.95,5.92,2.99,1.72-2.01,3.47-3.96,5.42-5.77-.73-1.61-1.54-3.18-2.57-4.62-2.09,1.33-4.82-.33-4.59-2.8-3.39.09-4.21,7.28-4.17,10.21h0ZM825.07,221.63c2.26-3.7-7.42-4.81-9.76-4.92-.95,2.2-1.98,4.36-3.1,6.47,1.78,1.61,3.49,3.3,5.13,5.05,1.49-.69,2.89-1.45,4.25-2.39-1.33-2.49,1.05-5.04,3.48-4.22h0ZM782.63,219.67c.23.27.46.53.69.79,2.08-.83,4.21-1.51,6.35-2.16-.18-2.6-.34-5.26-.22-7.87-4.78-1.82-14.05-3.44-10.02,4.66,1.87-.39,3.65,1.07,3.61,3-.02.82-.41,1.58-.41,1.58h0ZM806.34,224.44c.58,3.35-1.67,6.53-5.01,7.12-3.35.58-6.54-1.65-7.13-5-.59-3.35,1.67-6.53,5.01-7.12,3.35-.58,6.54,1.65,7.13,5h0ZM797.55,242.21c-.13.13-.26.25-.39.38,4.41,10.63,10.94,11.06,11.86-1.38-2.45-1.04-4.8-2.3-7.11-3.61-.08.09-.24.26-.34.37,1.81,2.65-1.31,5.89-4.03,4.24h0ZM796.1,239.81c-.14-2.57,2.75-4.01,4.73-2.6.05-.05.1-.1.14-.15-1.04-.61-2.08-1.23-3.1-1.88-.56.09-1.13.17-1.69.24-.5.06-.99.12-1.47.17.43,1.42.89,2.83,1.39,4.22h0ZM792.69,235.77c-2.3.17-4.62.25-6.92.23-4.2,10.9-.24,15.04,9.24,6.99-.94-2.37-1.65-4.77-2.31-7.22h0ZM791.73,217.71c.91-.26,1.83-.5,2.75-.73.8-1.03,1.62-2.05,2.46-3.05-1.74-.91-3.5-1.78-5.29-2.59-.08,2.11-.02,4.25.08,6.36h0ZM791.84,219.72c.02.26.04.51.06.77.23-.33.47-.66.7-.99-.25.07-.51.15-.76.22h0ZM792.21,223.59c.24,1.99.56,3.96.96,5.92,1.03.8,2.07,1.56,3.12,2.29,1.04.72,2.11,1.42,3.2,2.09,1.77-.33,3.51-.73,5.25-1.2,1.39-1.73,2.69-3.52,3.89-5.39-.3-2.31-.74-4.6-1.29-6.87-1.42-1.08-2.9-2.1-4.4-3.06-2.47.32-4.91.76-7.33,1.34-1.2,1.58-2.33,3.21-3.39,4.88h0ZM793.86,232.49c.18.71.37,1.42.57,2.12.72-.07,1.44-.16,2.16-.26-.92-.61-1.84-1.23-2.74-1.87h0ZM809.14,238.92c.07-2.15.06-4.3-.05-6.45-1.24.4-2.5.77-3.76,1.11-.67.84-1.36,1.66-2.07,2.48,1.91,1.02,3.88,1.99,5.87,2.86h0ZM809.03,231.4c-.06-.85-.13-1.7-.22-2.55-.77,1.15-1.58,2.27-2.42,3.37.88-.26,1.76-.54,2.63-.83h0ZM806.95,218.9c-.17-.64-.34-1.27-.53-1.9-.64.06-1.29.12-1.93.19.83.55,1.65,1.12,2.46,1.71h0ZM805.81,214.98c-.58-1.84-1.19-3.71-1.88-5.51-1.55,1.47-3.08,3.05-4.51,4.64.81.45,1.61.92,2.4,1.4,1.32-.21,2.65-.38,3.99-.53h0ZM804.83,208.63c.77,2.04,1.42,4.15,2.04,6.23,2.74-.27,5.49-.51,8.24-.42,4.29-11.56-2.18-13.08-10.28-5.81h0ZM807.47,216.92c.27.98.53,1.97.77,2.96,1.09.84,2.16,1.72,3.19,2.63,1.01-1.91,1.93-3.85,2.78-5.83-2.23-.05-4.54.08-6.75.25h0ZM808.6,221.42c.33,1.51.62,3.04.85,4.57.52-.85,1.02-1.72,1.5-2.59-.77-.68-1.55-1.34-2.35-1.98h0ZM809.66,227.54c.15,1.17.26,2.35.34,3.53,2.12-.73,4.3-1.51,6.35-2.4-1.48-1.59-3.03-3.13-4.64-4.59-.65,1.17-1.33,2.33-2.05,3.46h0ZM810.07,232.15c.13,2.4.13,4.79.06,7.19,11.22,4.58,15.48-.28,7.04-9.77-2.28.98-4.74,1.81-7.1,2.58h0ZM792.42,234.78c-.36-1.36-.69-2.72-.98-4.09-.4-.31-.82-.64-1.25-.98-.34-.27-.69-.56-1.05-.85-1.06,1.99-2.11,4.03-2.97,6.11,2.08.01,4.18-.05,6.25-.2h0ZM790.82,227.61c-.08-.45-.16-.9-.23-1.35-.15.26-.3.51-.44.77.22.19.45.38.67.57h0ZM790.14,223.13c-.12-.93-.22-1.85-.3-2.78-1.66.55-3.31,1.15-4.94,1.79,1.2,1.2,2.43,2.37,3.69,3.51.51-.85,1.02-1.69,1.56-2.52h0ZM802.33,235.55c.45-.51.89-1.02,1.32-1.53-.95.23-1.91.45-2.88.64.51.3,1.03.6,1.56.89h0ZM787.51,227.49c-1.64-1.41-3.31-2.9-4.83-4.43-9.94,4.44-11.39,11.14,1.09,11.84,1.03-2.54,2.4-5.04,3.74-7.41h0ZM800.27,215.76c-.51-.3-1.03-.58-1.54-.87-.4.46-.8.92-1.19,1.39.91-.19,1.82-.37,2.74-.53h0Z"/>
      <path class="cls-1" d="M1005.89,607.21c2.95,7.19-.49,15.41-7.68,18.35-7.19,2.95-15.41-.49-18.35-7.68-2.95-7.19.49-15.41,7.68-18.35,7.19-2.95,15.41.49,18.35,7.68h0ZM967.38,617.8l-3.53-8.61c-4.03,2.01-.98,9.9,3.53,8.61h0ZM973.69,594.8l19.11-7.83c-5.35-6.01-17.21-2.87-19.11,7.83h0ZM960.22,600.33l6.38-2.61c5.06-24.42,25.26-22.76,33.13-13.58l7.21-2.96,17.79,43.4c-15.57,6.38-31.14,12.77-46.71,19.15l-1.01-2.46-2,.82,1,2.44-3.95,1.62-4.84-11.81,3.95-1.62,1.08,2.63,2-.82-4.67-11.4c-10.43,2.58-17.14-13.81-7.89-19.24l-1.46-3.57h0ZM987.21,619.9c2.62,2.03,6.11,2.49,9.2,1.23-.8-1.95-1.6-3.9-2.4-5.85-.99.28-1.9.24-2.92-.35l-3.88,4.97h0ZM983.64,611.44c.39-3.36,2.57-6.23,5.71-7.52l2.44,5.95c-.92.23-1.88,1.33-1.8,2.4l-6.35-.83h0ZM1002.52,616.55c-2.21,5.29-8.37,7.82-13.66,5.6-5.29-2.21-7.82-8.37-5.6-13.66,2.21-5.29,8.37-7.82,13.66-5.6,5.29,2.21,7.82,8.37,5.6,13.66h0ZM994.63,611.8c-.4-.96-1.5-1.42-2.46-1.03-.96.39-1.42,1.49-1.03,2.46.39.96,1.5,1.42,2.46,1.03.96-.39,1.42-1.5,1.03-2.46h0ZM1004.04,617.19c2.57-6.13-.36-13.26-6.49-15.82-6.13-2.57-13.26.36-15.82,6.49-2.56,6.13.36,13.26,6.49,15.82,6.13,2.56,13.26-.36,15.82-6.49h0ZM998.59,605.16c2.6,2.03,3.95,5.33,3.52,8.59-2.12-.25-4.24-.49-6.36-.74.31-.78-.31-2.35-1.09-2.66l3.94-5.19h0Z"/>
      <path class="cls-1" d="M169.86,71.43c-4.34-3.57-4.96-9.98-1.39-14.31,3.57-4.34,9.98-4.96,14.31-1.39,4.34,3.57,4.96,9.98,1.39,14.31-3.57,4.34-9.98,4.96-14.31,1.39h0ZM190.75,51.51l5.2,4.27c1.88-2.66-2.77-6.64-5.2-4.27h0ZM194.61,68.31l-9.48,11.53c5.46,1.99,11.94-4.06,9.48-11.53h0ZM201.29,60.18l-3.16,3.85c5.14,17.27-8.29,23.14-16.44,19.98l-3.58,4.35-26.18-21.54c7.73-9.39,15.46-18.79,23.18-28.18l1.48,1.22.99-1.21-1.47-1.21,1.96-2.38,7.12,5.86-1.96,2.38-1.59-1.31-.99,1.21,6.88,5.66c5.76-5.22,15.64,2.93,11.61,9.55l2.15,1.77h0ZM177.42,56.96c-2.37-.39-4.74.51-6.27,2.37,1.18.97,2.35,1.93,3.53,2.9.54-.51,1.13-.8,1.98-.78l.77-4.49h0ZM182.58,61.13c.91,2.27.49,4.84-1.06,6.74l-3.59-2.95c.51-.46.75-1.49.32-2.14l4.33-1.65h0ZM168.81,64.33c-.4-4.13,2.66-7.84,6.78-8.24,4.13-.4,7.84,2.66,8.24,6.78.4,4.13-2.66,7.84-6.78,8.24-4.13.4-7.84-2.66-8.24-6.78h0ZM175.46,64.65c.58.48,1.44.39,1.92-.19.48-.58.39-1.44-.19-1.92-.58-.48-1.44-.39-1.92.19-.48.58-.39,1.44.19,1.92h0ZM167.63,64.45c.46,4.78,4.77,8.32,9.55,7.85,4.78-.46,8.32-4.77,7.85-9.55-.46-4.78-4.77-8.32-9.55-7.85-4.78.46-8.32,4.77-7.85,9.55h0ZM175.21,70.23c-2.35-.4-4.34-2.04-5.18-4.26,1.43-.57,2.87-1.14,4.3-1.71.07.6,1,1.39,1.61,1.32l-.73,4.65h0Z"/>
      <path class="cls-1" d="M1072.9,243.08l9.09,6.01,2.7,10.55c-3.65.78-2.33,6.34,1.27,5.42.88-.22,1.56-.85,1.88-1.63.66.53,1.55.76,2.44.53,3.61-.92,2.1-6.43-1.48-5.36l-1.54-6.02,5.18,3.43c-2.18,3.04,2.53,6.27,4.58,3.16.5-.76.58-1.68.3-2.48.85-.05,1.66-.48,2.16-1.25,2.05-3.11-2.76-6.17-4.7-2.98l-9.09-6.01-2.7-10.55c3.66-.78,2.33-6.34-1.27-5.42-.88.22-1.56.85-1.88,1.63-.66-.53-1.55-.76-2.44-.53-3.61.92-2.1,6.43,1.48,5.36l1.54,6.02-5.18-3.43c2.18-3.04-2.53-6.27-4.58-3.16-.5.76-.58,1.68-.3,2.48-.84.05-1.66.48-2.16,1.25-2.05,3.11,2.76,6.17,4.7,2.98h0ZM1090.35,234.2c-3.12-1.9-.74-6.71,2.66-5.41.54-2.35,1.82-4.43,3.8-5.84,12.57-8.95,27.29,11.77,14.73,20.7-1.98,1.41-4.36,1.94-6.76,1.67.11,3.64-5.21,4.31-5.99.74-2.69,1.91-4.49,3.63-7.94,1.61,3.32-2.36,2.29-2.82-.86-.58-.21-.16-.42-.33-.62-.52,3.81-2.71,2.95-3.29-.69-.69-.17-.19-.34-.39-.51-.6,3.88-2.76,3.31-3.55-.56-.79-.14-.22-.28-.44-.4-.67,3.64-2.59,3.38-3.59-.43-.88-.11-.25-.2-.5-.29-.75,3.15-2.24,3.06-3.36-.26-1-.78-3.93,1.43-5.07,4.12-6.98h0ZM1094.91,233.78c-2.33-3.27,2.64-6.81,4.97-3.54,2.33,3.27-2.64,6.8-4.97,3.54h0ZM1100.68,241.89c-2.33-3.27,2.64-6.81,4.97-3.54,2.33,3.27-2.64,6.8-4.97,3.54h0ZM1095.13,238.38c-2.06.11-3.78-.59-2.52,1.17.31.44,1.6.19,1.92.62.29.41-.39,1.52-.1,1.93,1.34,1.89,1.18.05,2.02-1.98.72-1.76.61-1.85-1.31-1.74h0Z"/>
      <path class="cls-1" d="M1123.93,625.19c-5.13,0-9.29-4.16-9.29-9.29s4.16-9.29,9.29-9.29,9.29,4.16,9.29,9.29-4.16,9.29-9.29,9.29h0ZM1117.73,617.48v-3.17h12.4v3.17h-12.4ZM1123.93,649.97c-5.13,0-9.29-4.16-9.29-9.29s4.16-9.29,9.29-9.29,9.29,4.16,9.29,9.29-4.16,9.29-9.29,9.29h0ZM1117.73,642.26v-3.17h12.4v3.17h-12.4ZM1124.96,637.99h-2.06c-.44,0-.8-.36-.8-.8v-2.06c0-.44.36-.8.8-.8h2.06c.44,0,.8.36.8.8v2.06c0,.44-.36.8-.8.8h0ZM1124.96,647.03h-2.06c-.44,0-.8-.36-.8-.8v-2.06c0-.44.36-.8.8-.8h2.06c.44,0,.8.36.8.8v2.06c0,.44-.36.8-.8.8h0ZM1099.35,649.97c-5.13,0-9.29-4.16-9.29-9.29s4.16-9.29,9.29-9.29,9.29,4.16,9.29,9.29-4.16,9.29-9.29,9.29h0ZM1096.09,646.17l-2.24-2.24,3.26-3.26-3.26-3.26,2.24-2.24,3.26,3.26,3.26-3.26,2.24,2.24-3.26,3.26,3.26,3.26-2.24,2.24-3.26-3.26-3.26,3.26h0ZM1099.35,625.19c-5.13,0-9.29-4.16-9.29-9.29s4.16-9.29,9.29-9.29,9.29,4.16,9.29,9.29-4.16,9.29-9.29,9.29h0ZM1097.8,622.08v-4.6h-4.65v-3.17h4.65v-4.6h3.09v4.6h4.65v3.17h-4.65v4.6h-3.09Z"/>
      <path class="cls-1" d="M452.89,86.36l-9.36,5c-1.42.76-2.76-1.74-1.34-2.5l.64-.34c-1.76-3.28-5.06-10.14-7.27-12.66-6.85-7.82-15.19-10.17-21.13-15.81-5.45-5.17,27.27-23.51,28.67-15.04,1.33,8.01-1.39,16.39,1.38,26.18.91,3.22,4.66,9.74,6.42,13.01l.64-.34c1.42-.76,2.76,1.74,1.34,2.5h0ZM426.89,50.58c.61-.33,1.38-.1,1.71.52.33.62.1,1.38-.52,1.71-.61.33-1.38.1-1.71-.52-.33-.62-.1-1.38.52-1.71h0ZM428.33,54.4c1.7-.91,3.82-.27,4.73,1.43.91,1.7.27,3.82-1.43,4.73-1.7.91-3.82.27-4.73-1.43-.91-1.7-.27-3.82,1.43-4.73h0ZM433.09,61.69c1.34-.72,3.01-.21,3.72,1.13.72,1.34.21,3.01-1.13,3.72-1.34.72-3.01.21-3.72-1.13-.72-1.34-.21-3.01,1.13-3.72h0ZM428.14,62.47c.61-.33,1.37-.1,1.7.52.33.61.1,1.37-.52,1.7-.61.33-1.37.1-1.7-.51-.33-.61-.1-1.38.52-1.7h0ZM436.3,55.22c1.06-.57,2.37-.17,2.94.89.57,1.06.17,2.37-.89,2.94-1.06.56-2.37.17-2.94-.89-.57-1.06-.17-2.37.89-2.94h0ZM432.33,50.99c.82-.44,1.85-.13,2.29.69.44.82.13,1.85-.69,2.29-.82.44-1.85.13-2.29-.69-.44-.82-.13-1.85.69-2.29h0Z"/>
      <path class="cls-1" d="M692.93,211.53l4.34.43,2.28,3.67-9.47-.94,2.85-3.16h0ZM692.48,233.21l-5.97,6.05s-.06-.01-.1-.01c-.5-.05-.95.32-1,.82-.05.5.32.95.82,1,.5.05.95-.32.99-.82.01-.11,0-.22-.03-.32l5.73-5.81,4.48,6.82c-.05.1-.08.2-.09.31-.05.5.32.95.82,1,.5.05.95-.32,1-.82.05-.5-.32-.95-.82-.99-.03,0-.06,0-.1,0l-4.67-7.1.14-1.46c6.33.91,10.87,6.66,10.24,13.08-.65,6.61-6.54,11.43-13.15,10.78-6.61-.65-11.43-6.54-10.78-13.15.64-6.42,6.22-11.16,12.6-10.82l-.14,1.46h0ZM694.66,247.51l-2.25-5.42-.52-.05-3.27,4.88-2.25-5.42-.52-.05,2.51,6.05c.07.17.31.19.41.04l3.34-4.98,2.3,5.54c.07.17.3.19.41.04l3.65-5.44-.52-.05-3.27,4.88h0ZM699.51,221.06l-.09.92s0,.02,0,.03l.61.06c.28.03.49.27.47.53l-.15,1.48-12.7-1.26.15-1.48c.03-.26.28-.46.56-.43l.61.06s0-.02,0-.04l.09-.92,10.46,1.04h0ZM699.66,219.5l-.08.78-10.46-1.04.08-.77,10.46,1.04h0ZM699.82,217.94l-.08.77-10.46-1.04.08-.77,10.46,1.04h0ZM690.03,215.4l9.43.93c.28.03.49.27.47.53l-.03.3-10.46-1.03.03-.3c.03-.26.28-.45.56-.43h0ZM700.24,224.96l1.68,1.68-.45,4.62c4.33,3.3,6.66,8.59,6.12,14.04-.85,8.62-8.53,14.91-17.15,14.06-8.62-.85-14.91-8.53-14.06-17.15.54-5.44,3.86-10.17,8.75-12.56l.46-4.69,2.16-1.24,12.49,1.24h0Z"/>
      <path class="cls-1" d="M944.88,716.9c1.14,9.25,9.36,16.07,18.75,15.36,9.67-.73,16.92-9.16,16.19-18.83-.73-9.67-9.16-16.92-18.83-16.19-9.39.71-16.5,8.68-16.23,18l1.21-.09,9.53-8.97s-.02-.1-.02-.15c-.06-.77.52-1.44,1.29-1.5.77-.06,1.45.52,1.5,1.29.06.77-.52,1.44-1.29,1.5-.17.01-.34,0-.49-.05l-9.15,8.61,10.33,7.14c.15-.07.31-.11.48-.12.77-.06,1.44.52,1.5,1.29.06.77-.52,1.44-1.29,1.5-.77.06-1.44-.52-1.5-1.29,0-.05,0-.1,0-.15l-10.77-7.43-1.21.09h0ZM967.19,709.69l-7.62,4.86.06.81,8.26,3.66-7.62,4.86.06.81,8.5-5.42c.24-.15.21-.51-.05-.63l-8.44-3.74,7.78-4.96c.24-.15.21-.51-.05-.63l-9.22-4.08.06.81,8.26,3.66h0ZM918.55,718.05c-.22-2.86,1.01-5.59,3.23-7.83l1.14,15.08c-2.53-1.88-4.15-4.39-4.37-7.25h0ZM923.31,708.87c.46-.36.96-.7,1.47-1.01l1.46,19.32c-.56-.24-1.1-.5-1.61-.78l-1.32-17.53h0ZM926.35,706.99c.48-.24.98-.46,1.5-.66l1.65,21.9c-.54-.12-1.07-.27-1.58-.43l-1.57-20.81h0ZM929.45,705.77c.5-.15,1-.29,1.52-.41l1.77,23.37c-.53-.04-1.05-.1-1.57-.18l-1.72-22.78h0ZM932.58,705.04c.63-.1,1.27-.18,1.91-.23l1.81,23.94c-.65.04-1.29.06-1.93.06l-1.79-23.76h0ZM935.57,704.8l6.37-.55c3.65-7.07,10.67-11.76,18.65-12.36,12.62-.95,23.62,8.5,24.57,21.12.95,12.62-8.5,23.62-21.12,24.57-7.97.6-15.62-2.97-20.29-9.41l-6.38.48-1.8-23.85h0Z"/>
      <path class="cls-2" d="M246.17,319c1.4.87,4.4.26,5.94.01,8.03-1.28,17.5-.69,18.16,9.67.4,6.28-3.39,13.8-8.75,17.13-8.79,5.45-14.98-2.14-18.64-9.35-.64-1.26-1.82-3.88-3.2-4.42l1.42-2.87c2.3,1.03,3.54,3.71,4.62,5.84,2.69,5.3,7.27,12.32,14.1,8.09,4.37-2.71,7.56-9.09,7.24-14.21-.51-8.06-8.56-7.66-14.46-6.72-2.53.4-5.5.97-7.87-.3l1.43-2.87h0ZM246.44,327.96l3.31,7.21s-.03.05-.04.08c-.21.42-.04.93.38,1.14.42.21.93.04,1.14-.38.21-.42.04-.93-.38-1.14-.09-.05-.19-.07-.29-.08l-3.18-6.92,7.44-1.65c.07.07.15.13.24.18.42.21.93.04,1.14-.38.21-.42.04-.93-.38-1.14-.42-.21-.93-.04-1.14.38-.01.03-.03.06-.04.08l-7.75,1.72-4.71-2.34,2.86-5.75c.18-.37.05-.8-.29-.97l-4.25-2.1-2.44,1.17-4.84,9.75.53,2.8,4.18,2.12c.34.17.77,0,.95-.36l2.85-5.74,4.71,2.34h0ZM259.64,330.79l-5.48.17-.22.44,3.18,4.47-5.48.17-.22.44,6.11-.19c.17,0,.27-.2.17-.34l-3.24-4.56,5.59-.17c.17,0,.27-.2.17-.34l-3.54-4.99-.22.44,3.18,4.47h0ZM227.41,322.44l3.58-7.21c.11-.22.36-.31.56-.21l.23.11-3.97,8-.23-.11c-.2-.1-.28-.36-.17-.57h0ZM232.38,315.42l.59.29-3.97,8-.59-.29,3.97-8h0ZM233.57,316.01l.59.3-3.97,8-.59-.29,3.97-8h0ZM234.76,316.61l.7.35s.02,0,.03.01l.23-.47c.11-.22.36-.31.56-.21l1.13.56-4.82,9.71-1.13-.56c-.2-.1-.28-.36-.17-.57l.23-.47s-.02,0-.03-.01l-.7-.35,3.97-8h0ZM225.2,318.96l1.65-3.32,3.6-.71-3.6,7.24-1.65-3.22h0Z"/>
      <path class="cls-2" d="M449.51,368.7c1.57-.39,3.2-2.9,4.09-4.16,4.62-6.51,11.54-12.74,19.27-6.08,4.68,4.04,7.35,11.86,5.99,17.9-2.22,9.91-11.79,9.03-19.37,6.64-1.32-.42-3.97-1.4-5.3-.8l-1.03-2.97c2.31-.91,5.03.07,7.27.77,5.56,1.75,13.64,3.37,15.36-4.33,1.1-4.92-1.17-11.55-4.98-14.84-6-5.18-11.25.73-14.65,5.52-1.45,2.05-3.1,4.52-5.62,5.31l-1.03-2.97h0ZM455.98,374.68l7.33,2.64s.02.06.03.08c.15.44.63.67,1.06.51.43-.15.67-.63.51-1.06-.15-.44-.63-.67-1.06-.51-.1.03-.18.08-.26.14l-7.04-2.53,3.95-6.35c.1,0,.19-.01.29-.05.44-.15.67-.63.51-1.06-.15-.44-.63-.67-1.06-.51-.44.15-.67.63-.51,1.06.01.03.02.06.03.08l-4.12,6.61-4.88,1.69-2.07-5.95c-.13-.38-.53-.59-.88-.47l-4.39,1.54-.86,2.51,3.5,10.09,2.33,1.55,4.36-1.47c.35-.12.53-.53.4-.91l-2.06-5.95,4.87-1.69h0ZM467.04,367.36l-3.65,3.96.16.46,5.31.85-3.65,3.96.16.46,4.07-4.42c.12-.12.04-.33-.12-.35l-5.43-.86,3.72-4.04c.11-.12.05-.33-.12-.35l-5.93-.94.16.46,5.32.85h0ZM439.03,384.21l-2.59-7.47c-.08-.22.03-.46.24-.54l.24-.08,2.88,8.28-.24.08c-.21.07-.44-.05-.52-.28h0ZM437.53,375.91l.61-.21,2.88,8.28-.61.21-2.88-8.28h0ZM438.76,375.48l.61-.21,2.88,8.28-.61.21-2.88-8.28h0ZM439.99,375.06l.73-.25s.02,0,.03,0l-.17-.48c-.08-.22.03-.47.24-.54l1.17-.41,3.49,10.06-1.17.41c-.21.07-.44-.05-.52-.28l-.17-.48s-.02,0-.03.01l-.73.25-2.88-8.28h0ZM435.08,383.37l-1.19-3.44,1.98-3.01,2.6,7.5-3.39-1.05h0Z"/>
      <path class="cls-2" d="M244.77,200.18c2.4-.41,6.87-4.76,9.56-6.5,40.21-26.04,39.67,55.5-.73,28.2-2.47-1.67-6.71-5.95-8.82-6.37v-4.23c3.3-.13,8.11,4.99,11.21,7.14,31.99,22.13,32.34-42.38.57-21.19-3.31,2.21-8.23,7.28-11.79,7.17v-4.23h0ZM250.24,208.67l7.77,6.27s0,.08,0,.11c0,.59.48,1.07,1.07,1.07.59,0,1.07-.48,1.07-1.07,0-.59-.48-1.07-1.07-1.07-.13,0-.26.02-.37.07l-7.46-6.02,7.45-6.03c.12.04.24.07.37.07.59,0,1.07-.48,1.07-1.07,0-.59-.48-1.07-1.07-1.07-.59,0-1.07.48-1.07,1.07,0,.04,0,.08,0,.11l-7.76,6.28h-6.54s0-7.12,0-7.12h-2.23s.01,15.26.01,15.26h2.23s0-6.86,0-6.86h6.53ZM266.7,204.45l-6.07,3.26v.62s6.08,3.25,6.08,3.25l-6.07,3.26v.62s6.78-3.64,6.78-3.64c.19-.1.19-.38,0-.48l-6.21-3.32,6.2-3.33c.19-.1.19-.38,0-.48l-6.78-3.63v.62s6.08,3.25,6.08,3.25h0ZM228.08,203.89v1.85c-1.16.05-1.54,1-1.54,2.17,0,1.17.39,2.13,1.55,2.17v1.85c0,1.98,1.33,3.6,2.94,3.6h3.29s-.01-15.26-.01-15.26h-3.29c-1.61,0-2.93,1.63-2.93,3.61h0ZM235.77,215.54h1.4s-.01-15.26-.01-15.26h-1.4s.01,15.26.01,15.26h0ZM238.62,215.53h1.4s-.01-15.26-.01-15.26h-1.4s.01,15.26.01,15.26h0Z"/>
      <path class="cls-2" d="M1212.67,523.46c-1.5-2.17-7.79-4.59-10.72-6.44-43.83-27.69,36.54-64.16,28.04-12.08-.52,3.18-2.8,9.3-2.26,11.56l-4.15,1.92c-1.63-3.19,1.22-10.24,1.93-14.26,7.23-41.47-56.31-12.54-21.08,9.06,3.67,2.25,10.88,4.78,12.4,8.33l-4.15,1.92h0ZM1218.53,514.23l2.63-10.48s.08-.03.12-.05c.58-.27.83-.96.56-1.54-.27-.58-.96-.83-1.54-.56-.58.27-.83.96-.57,1.54.06.13.14.24.24.33l-2.53,10.06-9.3-4.58c-.01-.13-.04-.27-.1-.4-.27-.58-.96-.83-1.54-.56-.58.27-.83.96-.56,1.54.27.58.96.83,1.54.56.04-.02.08-.04.11-.06l9.69,4.77,2.97,6.42-7,3.24,1.01,2.19,14.99-6.94-1.01-2.19-6.73,3.12-2.97-6.42h0ZM1206.92,499.98l5.96,4.49.61-.28.44-7.45,5.96,4.49.61-.28-6.65-5.01c-.19-.14-.46-.01-.47.22l-.45,7.61-6.09-4.58c-.18-.14-.46-.02-.47.22l-.49,8.31.61-.28.44-7.45h0ZM1223.88,538.17l1.82-.84c.57,1.12,1.69,1.06,2.84.53,1.15-.53,1.91-1.35,1.43-2.51l1.82-.84c1.95-.9,2.94-2.94,2.21-4.52l-1.49-3.23-14.99,6.94,1.49,3.23c.73,1.58,2.93,2.14,4.87,1.24h0ZM1231.84,525.34l-.64-1.38-14.99,6.94.64,1.38,14.99-6.94h0ZM1230.54,522.53l-.64-1.38-14.99,6.94.64,1.38,14.99-6.94h0Z"/>
      <path class="cls-2" d="M830.13,39.62c.26-5.32,2.28-10.13,5.46-13.9l31.08,34.27c-4.07,2.8-9.05,4.34-14.37,4.08-12.88-.63-22.8-11.58-22.18-24.45h0ZM840.21,21.53c4.07-2.8,9.05-4.34,14.37-4.09,12.88.63,22.8,11.58,22.18,24.45-.26,5.31-2.28,10.13-5.47,13.9l-31.08-34.27h0Z"/>
      <path class="cls-2" d="M526.22,41.52l13.34-15.5c2.37,2.67,3.92,6.11,4.21,9.94.66,8.84-5.62,16.59-14.23,17.93.05-.88.04-1.77-.03-2.67-.27-3.59-1.45-6.89-3.3-9.7h0ZM521.94,63.74c-2.51,2.91-5.8,4.76-9.29,5.5l-2.49-33.34c3.56.21,7.09,1.55,10.01,4.06,7.06,6.08,7.86,16.73,1.78,23.79h0ZM508.16,69.58c-3.56-.21-7.09-1.55-10.01-4.06-7.06-6.08-7.86-16.73-1.78-23.79,2.51-2.91,5.8-4.76,9.29-5.5l2.49,33.34h0ZM510.78,32.38c1.95-6.5,7.74-11.45,14.91-11.98,3.84-.29,7.47.73,10.46,2.68l-12.85,14.93c-3.32-3.19-7.71-5.25-12.51-5.63h0Z"/>
      <path class="cls-1" d="M672.77,493.06l-9.8-2.14c-1.82-.4-2.98-2.21-2.59-4.03.36-1.63,1.27-8.57,2.55-8.94,2.07-.59,2.65-3.38.98-4.74-.91-.74.43-4.45.73-5.84.4-1.82,4.59-5.93,6.41-5.54l6.49,1.42c1.82.4,3.92,5.88,3.52,7.7-.35,1.62-.38,5.28-1.85,5.63-2.02.59-2.61,3.3-1.02,4.68,1.04.91-1.02,7.53-1.39,9.2-.4,1.82-2.21,2.98-4.03,2.59h0ZM678.77,462.29l-8.32-1.82.63-2.9,8.32,1.82-.63,2.9h0ZM673.37,456.8c1.42-6.53,5.69-5.59,4.27.93l-4.27-.93h0ZM677.71,474.6l-11.43-2.5.77-3.53,11.43,2.49-.77,3.53h0Z"/>
      <path class="cls-1" d="M878.31,619.08c1.77,2.37,3.83,5.11,5.6,7.48-.35.37-.71.74-1.07,1.11,2.88,3.85,2.87-1.56,8.16,1.59l3.98,5.32-12.72,9.53,9.52,12.71,12.72-9.53,4.88,6.51c-6.3,4.72-12.59,9.43-18.89,14.15-6.13-8.18-12.25-16.35-18.38-24.53-1.54-5.96,3.65-4.42.76-8.28-.46.24-.91.47-1.37.71l-5.6-7.48,12.4-9.29h0Z"/>
      <path class="cls-1" d="M389.85,151.38c-1.14,4.7-2.47,10.17-3.62,14.87-.84-.06-1.68-.12-2.52-.19-1.86,7.66,4.96,2,6.48,11.97l-2.57,10.57-25.29-6.15-6.14,25.27,25.29,6.15-3.15,12.94c-12.52-3.04-25.04-6.09-37.56-9.13,3.95-16.26,7.91-32.52,11.86-48.78,5.94-8.16,9.39,0,11.26-7.66-.77-.33-1.55-.66-2.32-.99l3.62-14.87,24.66,6h0Z"/>
      <path class="cls-1" d="M1367.14,21.26l-19.07,16.94-1.14-1.28,19.07-16.94,1.14,1.28h0ZM1372.73,33.29l-1.54,26-10.88-.64,1.54-26,4.38.26-.85,14.33,2.12.13.85-14.33,4.38.26h0ZM1369.55,25.22l-1.68-3.14-2,2.92,3.68.22h0ZM1372.84,31.35l-2.56-4.78-5.27-.31-3.05,4.45v.06s10.88.64,10.88.64v-.06h0ZM1371.06,61.42l-.18,3.04c-.07,1.1-1.02,1.95-2.12,1.89l-6.87-.41c-1.1-.06-1.95-1.02-1.89-2.12l.18-3.03,10.88.64h0Z"/>
      <path class="cls-1" d="M1009.38,389.81c.42-2.32.91-4.66,1.5-7.03,4.27.39,8.54.77,12.81,1.16-.6,2.21-1.11,4.44-1.54,6.67-1.7-1.35-3.74-2.22-5.99-2.42-2.45-.22-4.79.39-6.79,1.61h0ZM1008.76,393.01c-4.11,3.81-4.63,10.64-1.14,15.14,3.48,4.5,9.72,5.07,13.83,1.25,4.11-3.81,4.63-10.64,1.14-15.14-3.48-4.5-9.72-5.07-13.83-1.25h0ZM1007.76,391.71c4.76-4.42,11.98-3.76,16.01,1.45,4.03,5.22,3.44,13.12-1.33,17.54-4.76,4.42-11.98,3.76-16.01-1.45-4.03-5.22-3.44-13.12,1.33-17.54h0ZM1036.17,403.07c.52-8.42,3.17-17.31,4.68-17.17,1.51.14,2.65,8.18,1.92,17.83-.73,9.65-3.05,17.26-4.56,17.12-1.51-.14-2.56-9.36-2.04-17.78h0ZM1015.73,391.34c3.55.38,6.57,2.76,7.46,5.57-1.89.96-3.77,1.93-5.66,2.89-.61-1.02-1.36-1.48-2.31-1.69h0c.17-2.26.34-4.51.51-6.77h0ZM1013.21,401.02c.08-1.07.94-1.87,1.92-1.78.98.09,1.71,1.03,1.63,2.1-.08,1.07-.94,1.87-1.92,1.78-.98-.09-1.71-1.03-1.63-2.1h0ZM1014.25,410.91c3.22.45,6.84-1.19,8.2-4.27h0c-1.72-1.29-3.43-2.58-5.15-3.87-.39,1.03-1.67,1.59-2.54,1.36l-.51,6.77h0ZM1007.63,395.62c-1.92,2.5-2.33,7.4-.74,9.73,1.89-1,3.78-2,5.67-3-.52-.66-.37-2.4.22-2.97h0c-1.72-1.25-3.44-2.51-5.16-3.76h0ZM1022.7,419.84c-.23-2.73-.38-5.47-.43-8.22,2.65-2.15,4.47-5.5,4.76-9.38.29-3.9-1.01-7.53-3.31-10.13.45-2.64,1-5.31,1.68-8.01,4.27.39,8.54.77,12.81,1.16-4.24,12.36-5.02,24.38-2.7,35.74-4.27-.39-8.54-.77-12.81-1.16h0ZM993.67,417.21c-1.84-9.61-.9-25.55,2.7-35.74,4.27.39,8.54.77,12.81,1.16-.79,2.93-1.44,5.88-1.94,8.85-2.18,2.14-3.64,5.16-3.9,8.61-.26,3.46.74,6.72,2.59,9.23.05,3.02.24,6.04.55,9.04-4.27-.39-8.54-.77-12.81-1.16h0ZM1008.18,418.52c-.2-2.39-.34-4.78-.4-7.18,1.78,1.56,3.99,2.57,6.43,2.79,2.25.2,4.41-.29,6.29-1.33.09,2.3.25,4.59.49,6.87-4.27-.39-8.54-.77-12.81-1.16h0Z"/>
      <path class="cls-1" d="M1136.18,98.74c-6.77-5.57-7.74-15.56-2.17-22.33,5.57-6.76,15.56-7.74,22.33-2.17,6.77,5.57,7.74,15.56,2.17,22.33-5.57,6.77-15.56,7.74-22.33,2.17h0ZM1168.77,67.66l8.1,6.67c2.93-4.15-4.32-10.35-8.1-6.67h0ZM1174.79,93.87l-14.8,17.99c8.52,3.11,18.62-6.34,14.8-17.99h0ZM1185.22,81.19l-4.94,6c8.02,26.95-12.93,36.09-25.65,31.17l-5.58,6.79-40.84-33.6c12.06-14.65,24.11-29.31,36.17-43.96l2.31,1.9,1.55-1.89-2.29-1.89,3.06-3.72,11.11,9.14-3.06,3.72-2.48-2.04-1.55,1.89,10.73,8.82c8.98-8.14,24.39,4.57,18.11,14.9l3.36,2.76h0ZM1147.97,76.16c-3.69-.61-7.4.8-9.79,3.69,1.83,1.51,3.67,3.02,5.5,4.53.84-.8,1.76-1.25,3.09-1.22l1.2-7h0ZM1156.03,82.66c1.41,3.55.77,7.56-1.66,10.51l-5.6-4.6c.79-.71,1.16-2.32.5-3.34l6.75-2.57h0ZM1134.55,87.66c-.63-6.44,4.14-12.24,10.58-12.86,6.44-.63,12.23,4.14,12.86,10.58.63,6.44-4.14,12.23-10.58,12.86-6.44.63-12.23-4.14-12.86-10.58h0ZM1144.92,88.16c.91.75,2.24.62,2.99-.29.75-.91.62-2.24-.29-2.99-.91-.75-2.24-.61-2.99.29-.74.91-.61,2.24.29,2.99h0ZM1132.7,87.84c.72,7.45,7.44,12.98,14.89,12.25,7.45-.72,12.98-7.44,12.25-14.89-.72-7.45-7.44-12.98-14.89-12.25-7.45.72-12.98,7.44-12.25,14.89h0ZM1144.53,96.87c-3.66-.62-6.77-3.18-8.08-6.65,2.24-.89,4.48-1.78,6.71-2.66.11.94,1.56,2.16,2.51,2.06l-1.14,7.26h0Z"/>
      <path class="cls-2" d="M936.18,393.18l-14.32-23.06c-2.55,2.48-9.85,2.41-12.45,0-4.47,7.68-8.93,15.36-13.4,23.04,12.37,6.73,27.8,6.74,40.17.01h0ZM879.11,395.16c-20.32-19.3-20.32-50.97,0-70.27,20.32-19.3,53.67-19.3,73.99,0,20.32,19.3,20.32,50.97,0,70.27-20.32,19.3-53.67,19.3-73.99,0h0ZM916.1,367.77c-4.5,0-8.15-3.47-8.15-7.74s3.65-7.74,8.15-7.74,8.15,3.47,8.15,7.74-3.65,7.74-8.15,7.74h0ZM884.16,390.37c17.54,16.66,46.34,16.66,63.89,0,17.54-16.66,17.54-44.02,0-60.68-17.54-16.66-46.34-16.66-63.89,0-17.54,16.66-17.54,44.02,0,60.68h0ZM935.6,326.57l-13.75,22.86c4.44,1.34,7.25,6.72,6.65,10.57h27.81c-.01-13.95-7.88-26.73-20.71-33.43h0ZM895.89,326.95l13.52,22.48c-4.02,2.98-5.66,6.38-6.18,10.57h-27.33c0-13.67,7.57-26.23,20-33.05h0Z"/>
      <path class="cls-1" d="M1285.97,422.29c-5.34-5.74-7.79-13.96-5.8-22.15,3.15-12.95,16.19-20.89,29.14-17.74,12.27,2.98,20.04,14.85,18.14,27.1,2.82-.57,5.88-.52,9.12.27,12.95,3.15,20.89,16.19,17.74,29.14-3.15,12.95-16.19,20.89-29.14,17.74-3.24-.79-5.98-2.15-8.22-3.95-3.94,11.75-16.3,18.73-28.56,15.75-12.95-3.15-20.89-16.19-17.74-29.14,1.99-8.19,7.94-14.37,15.32-17.02h0ZM1294.51,411.65c6.36-6.12,15.72-8.08,24.01-5.01-.69,1.72-1.69,3.26-2.91,4.56-5.76-1.72-12.04-.39-16.61,3.47-1.7-.73-3.22-1.77-4.49-3.02h0ZM1318.32,428.79l-2.68-.65c.1-3-1.91-5.76-4.95-6.5-.39-.09-.77-.15-1.16-.17l-.77-2.63c6.54-1.47,12.02-6.52,13.71-13.47,2.38-9.77-3.62-19.63-13.4-22-9.78-2.38-19.63,3.62-22,13.4-2.38,9.78,3.62,19.63,13.4,22,1.89.46,3.79.6,5.63.47l.77,2.64c-1.93.73-3.49,2.37-4.01,4.54-.52,2.14.09,4.29,1.45,5.83l-1.91,2c-1.56-.95-3.3-1.68-5.17-2.14-9.78-2.38-19.63,3.62-22,13.4-2.38,9.78,3.62,19.63,13.4,22,9.78,2.38,19.63-3.62,22-13.4,1.7-6.97-.87-13.99-6.04-18.3l1.88-1.97c.37.17.75.3,1.16.4,3.04.74,6.09-.79,7.38-3.5l2.68.65c-1.6,9.52,4.58,18.49,13.66,20.7,9.78,2.38,19.63-3.62,22-13.4,2.38-9.77-3.62-19.63-13.4-22-9.14-2.22-18.71,2.99-21.64,12.11h0ZM1332.08,420.13c3.32,8.83.86,18.94-6.15,25.26-1.32-1.18-2.42-2.59-3.23-4.16,5.1-4.81,6.92-12.28,4.6-18.89,1.45-1.02,3.07-1.77,4.78-2.21h0ZM1307.62,451.14c-8.75-1.11-16.14-7.15-18.96-15.5,1.71-.52,3.53-.73,5.38-.59,2.28,5.53,7.22,9.57,13.09,10.7.49,1.72.66,3.54.49,5.39h0Z"/>
      <path class="cls-1" d="M120.74,167.57c1.77,4.31-.29,9.24-4.61,11.01-4.31,1.77-9.24-.3-11.01-4.61-1.77-4.31.29-9.24,4.61-11.01,4.31-1.77,9.24.3,11.01,4.61h0ZM97.65,173.93l-2.12-5.17c-2.42,1.21-.59,5.94,2.12,5.17h0ZM101.43,160.13l11.46-4.7c-3.21-3.6-10.32-1.72-11.46,4.7h0ZM93.35,163.44l3.82-1.57c3.03-14.65,15.15-13.65,19.87-8.15l4.32-1.77,10.67,26.03c-9.34,3.83-18.68,7.66-28.02,11.49l-.6-1.47-1.2.49.6,1.46-2.37.97-2.9-7.08,2.37-.97.65,1.58,1.2-.49-2.8-6.84c-6.26,1.55-10.28-8.29-4.73-11.54l-.88-2.14h0ZM109.54,175.18c1.57,1.22,3.67,1.49,5.52.74-.48-1.17-.96-2.34-1.44-3.51-.59.17-1.14.14-1.75-.21l-2.33,2.98h0ZM107.4,170.11c.23-2.02,1.54-3.73,3.43-4.51l1.46,3.57c-.55.14-1.13.79-1.08,1.44l-3.81-.5h0ZM118.72,173.18c-1.33,3.17-5.02,4.69-8.2,3.36-3.17-1.33-4.69-5.02-3.36-8.2,1.33-3.17,5.02-4.69,8.2-3.36,3.17,1.33,4.69,5.02,3.36,8.2h0ZM113.99,170.33c-.24-.58-.9-.85-1.47-.62-.58.24-.85.9-.62,1.47.24.58.9.85,1.47.62.58-.24.85-.9.62-1.47h0ZM119.63,173.56c1.54-3.67-.22-7.95-3.89-9.49-3.67-1.54-7.95.22-9.49,3.89-1.54,3.67.22,7.95,3.89,9.49,3.67,1.54,7.95-.22,9.49-3.89h0ZM116.36,166.35c1.56,1.22,2.37,3.19,2.11,5.15-1.27-.15-2.54-.3-3.82-.44.19-.47-.19-1.41-.65-1.6l2.36-3.11h0Z"/>
      <path class="cls-1" d="M234.93,720.24c-3.2.94-5.75-3-3-5.53-.54-1.57-1.02-3.4-1.37-5.03-14.21,7.97-20.21,1.83-11.16-11.47-15.15-4.49-14.51-13.02.81-15.84-7.39-13.78-1.44-19.13,11.44-10.74,4.18-15.22,12.68-13.43,15.75,1.09.19-.1.38-.2.57-.3,0,0,0,.01,0,.02-.1-2.89,3.45-4.4,5.52-2.33,12.84-3.57,9.51,7.14,4.7,14.27,5.24,1.25,13.43,4.7,10.3,10.91,1.06,3.1-2.84,5.68-5.28,3.34-1.85.67-3.67,1.15-5.6,1.52,7.09,13.02,1.9,19.7-11.25,10.94-1.33,4.59-5.66,14.81-11.43,9.14h0ZM256.71,686.46c-1.42,1.88-2.98,3.72-4.53,5.5,1.7,2.28,3.33,4.57,4.77,7.04,1.86-.38,3.7-.86,5.45-1.6-.9-2.5,1.48-4.98,4.02-4.15.71-3.57-6.63-6.13-9.71-6.78h0ZM236.79,718.69c3.35,3.24,6.79-6.63,7.46-9.06-2.08-1.52-4.11-3.1-6.05-4.78-2.11,1.49-4.28,2.87-6.5,4.18.37,1.73.84,3.38,1.5,5.02,2.93-.8,5.03,2.29,3.6,4.64h0ZM248.87,674.69c-.33.18-.66.35-.99.53.38,2.38.59,4.76.76,7.17,2.77.42,5.59.89,8.3,1.62,3.04-4.58,6.92-13.91-2.51-11.6-.03,2.05-1.98,3.57-3.99,3.07-.85-.21-1.56-.8-1.56-.8h0ZM238.27,698.41c-3.65-.18-6.45-3.29-6.27-6.93.18-3.64,3.27-6.47,6.92-6.29,3.65.18,6.45,3.29,6.27,6.93-.18,3.64-3.27,6.47-6.92,6.29h0ZM221.73,685c-.1-.16-.2-.33-.3-.49-12.18,2.11-14.17,8.85-1.36,12.75,1.66-2.32,3.54-4.48,5.46-6.59-.08-.11-.22-.31-.31-.44-3.2,1.27-5.86-2.76-3.49-5.23h0ZM224.59,684.05c2.72.46,3.55,3.82,1.61,5.57.04.06.09.12.13.19.88-.95,1.78-1.89,2.7-2.8.04-.61.09-1.22.15-1.82.05-.53.11-1.06.17-1.58-1.59.11-3.17.27-4.75.46h0ZM229.63,681.43c.36-2.45.83-4.9,1.4-7.3-10.43-6.97-15.7-3.8-9.51,8.02,2.7-.42,5.38-.6,8.11-.72h0ZM248.77,684.69c.05,1.02.09,2.03.11,3.05.89,1.08,1.76,2.18,2.61,3.3,1.36-1.61,2.69-3.25,3.96-4.93-2.19-.58-4.45-1.02-6.68-1.42h0ZM246.64,684.33c-.27-.04-.55-.08-.82-.12.29.32.58.64.87.97-.02-.28-.03-.57-.05-.85h0ZM242.49,683.8c-2.14-.22-4.28-.35-6.43-.39-1.08.89-2.12,1.8-3.14,2.73-1.01.92-1.98,1.87-2.94,2.86-.08,1.93-.07,3.86.01,5.78,1.48,1.86,3.06,3.65,4.73,5.35,2.5.23,5,.31,7.5.27,1.47-1.24,2.88-2.54,4.24-3.89.25-2.66.36-5.33.33-8-1.37-1.63-2.81-3.2-4.31-4.71h0ZM232.79,683.43c-.79.02-1.57.05-2.36.1-.09.77-.17,1.55-.24,2.33.85-.83,1.72-1.63,2.6-2.43h0ZM222.44,697.92c2.24.58,4.49,1.08,6.77,1.47-.12-1.4-.22-2.8-.28-4.2-.72-.9-1.42-1.82-2.11-2.75-1.52,1.76-3.01,3.6-4.38,5.47h0ZM230.35,699.58c.9.14,1.81.27,2.72.37-1.02-1.08-2.01-2.19-2.96-3.33.06.99.15,1.97.24,2.95h0ZM243.93,700.35c.71-.03,1.41-.06,2.11-.1.09-.69.18-1.38.26-2.07-.77.74-1.56,1.46-2.37,2.17h0ZM248.31,700.09c2.06-.17,4.17-.37,6.22-.67-1.17-1.97-2.47-3.94-3.8-5.82-.67.74-1.34,1.47-2.03,2.19-.1,1.44-.23,2.87-.39,4.3h0ZM255.19,700.56c-2.32.33-4.68.51-7.01.67-.36,2.93-.76,5.87-1.51,8.73,11.1,7.22,14.22.8,8.52-9.4h0ZM245.89,701.37c-1.09.06-2.19.1-3.28.11-1.14.95-2.31,1.85-3.51,2.73,1.76,1.51,3.58,2.93,5.45,4.29.58-2.32.98-4.77,1.34-7.13h0ZM240.9,701.49c-1.66,0-3.33-.07-4.99-.19.77.75,1.56,1.47,2.36,2.18.89-.64,1.77-1.31,2.63-1.99h0ZM234.24,701.16c-1.26-.12-2.52-.28-3.77-.47.26,2.39.56,4.85,1.01,7.22,2.01-1.18,3.99-2.44,5.9-3.78-1.08-.96-2.12-1.94-3.14-2.96h0ZM229.31,700.5c-2.54-.43-5.05-.99-7.55-1.63-7.45,10.68-3.36,16.29,8.58,9.68-.48-2.62-.77-5.39-1.03-8.05h0ZM230.72,681.38c1.5-.05,3.01-.08,4.51-.07.42-.35.86-.71,1.32-1.08.37-.29.75-.59,1.14-.9-1.83-1.58-3.72-3.16-5.7-4.56-.51,2.18-.94,4.39-1.27,6.6h0ZM238.62,681.4c.49.02.98.05,1.47.07-.23-.22-.47-.43-.71-.65-.25.19-.51.38-.76.57h0ZM243.47,681.74c1,.1,1.99.21,2.98.34-.18-1.87-.42-3.75-.71-5.6-1.54.97-3.06,1.98-4.55,3.03.77.73,1.53,1.47,2.28,2.23h0ZM227.58,691.58c.42.59.85,1.17,1.29,1.74-.02-1.05-.02-2.11,0-3.17-.44.47-.87.94-1.3,1.42h0ZM239.52,677.96c1.86-1.38,3.82-2.79,5.78-4.01-2.31-11.46-8.98-14.57-12.67-1.65,2.41,1.67,4.72,3.7,6.88,5.66h0ZM248.8,694.09c.43-.47.85-.94,1.27-1.41-.39-.53-.78-1.06-1.18-1.58-.02,1-.05,1.99-.1,2.99h0Z"/>
      <path class="cls-1" d="M1276.67,158.29l17.85,11.8,5.3,20.73c-7.18,1.54-4.59,12.46,2.5,10.65,1.74-.44,3.06-1.67,3.7-3.21,1.3,1.04,3.05,1.48,4.79,1.04,7.09-1.81,4.12-12.63-2.91-10.54l-3.02-11.83,10.18,6.73c-4.28,5.97,4.97,12.31,9.01,6.21.99-1.5,1.15-3.3.59-4.86,1.66-.1,3.26-.95,4.25-2.45,4.03-6.1-5.43-12.13-9.24-5.85l-17.85-11.8-5.3-20.73c7.18-1.54,4.59-12.46-2.5-10.65-1.74.44-3.06,1.67-3.7,3.21-1.3-1.04-3.05-1.49-4.79-1.04-7.09,1.81-4.12,12.63,2.92,10.54l3.02,11.83-10.18-6.73c4.28-5.97-4.97-12.31-9.01-6.21-.99,1.5-1.15,3.3-.59,4.86-1.66.1-3.26.95-4.24,2.45-4.04,6.1,5.43,12.13,9.24,5.85h0ZM1310.96,140.84c-6.12-3.74-1.46-13.18,5.23-10.64,1.06-4.63,3.57-8.71,7.46-11.48,24.71-17.58,53.61,23.12,28.95,40.67-3.9,2.77-8.57,3.8-13.29,3.29.21,7.15-10.24,8.46-11.76,1.45-5.28,3.76-8.82,7.13-15.61,3.16,6.52-4.64,4.49-5.53-1.69-1.13-.42-.32-.82-.66-1.21-1.02,7.49-5.33,5.8-6.46-1.36-1.36-.34-.38-.68-.77-.99-1.18,7.61-5.42,6.51-6.97-1.1-1.55-.28-.43-.54-.87-.79-1.32,7.16-5.1,6.64-7.06-.84-1.73-.21-.49-.4-.98-.57-1.48,6.18-4.4,6.01-6.61-.51-1.96-1.52-7.72,2.82-9.96,8.1-13.72h0ZM1319.93,140.02c-4.57-6.42,5.2-13.37,9.77-6.95,4.57,6.42-5.19,13.37-9.77,6.95h0ZM1331.27,155.95c-4.57-6.42,5.19-13.37,9.76-6.95,4.57,6.42-5.19,13.37-9.76,6.95h0ZM1320.35,149.04c-4.06.22-7.42-1.15-4.96,2.3.61.87,3.15.36,3.76,1.23.57.81-.77,2.98-.19,3.79,2.64,3.71,2.32.1,3.96-3.9,1.42-3.47,1.19-3.64-2.57-3.42h0Z"/>
      <path class="cls-1" d="M563.85,245.06l5.65-15.71,14.74-7.84c2.49,5.16,10.29,1.18,7.61-3.86-.66-1.24-1.83-2.01-3.12-2.22.55-1.17.56-2.58-.09-3.82-2.68-5.04-10.34-.8-7.45,4.15l-8.41,4.47,3.22-8.96c5.31,2.14,8.42-6.04,3.04-7.97-1.32-.48-2.71-.26-3.79.45-.38-1.24-1.32-2.29-2.64-2.77-5.37-1.93-8.19,6.35-2.73,8.08l-5.65,15.71-14.74,7.84c-2.49-5.16-10.29-1.18-7.61,3.86.66,1.24,1.83,2.01,3.12,2.21-.55,1.18-.56,2.59.09,3.82,2.68,5.04,10.34.8,7.45-4.15l8.41-4.48-3.22,8.96c-5.31-2.15-8.42,6.04-3.04,7.97,1.32.47,2.71.26,3.79-.45.38,1.24,1.32,2.29,2.64,2.77,5.37,1.93,8.19-6.35,2.73-8.08h0ZM544.29,222.28c-1.71,5.33-9.73,3.54-9.03-2-3.7.05-7.26-1.1-10.08-3.54-17.89-15.48,7.63-44.91,25.49-29.45,2.82,2.44,4.47,5.8,4.95,9.47,5.38-1.48,8.31,6.2,3.27,8.65,3.82,3.31,7.03,5.37,5.27,11.25-4.72-4.09-5.02-2.39-.55,1.49-.16.37-.35.74-.55,1.11-5.42-4.69-5.97-3.2-.78,1.28-.22.33-.46.66-.71.97-5.51-4.77-6.48-3.65-.97,1.12-.28.29-.56.57-.86.84-5.18-4.49-6.58-3.73-1.16.96-.33.25-.67.48-1.02.7-4.47-3.88-6.12-3.34-1.39.75-5.57,2.58-8.07-.3-11.89-3.61h0ZM542.01,215.64c-4.03,4.65-11.1-1.47-7.07-6.12,4.02-4.65,11.09,1.47,7.07,6.12h0ZM551.99,204.1c-4.03,4.65-11.1-1.47-7.07-6.12,4.02-4.65,11.09,1.47,7.07,6.12h0ZM548.77,213.65c.92,3.03.5,5.84,2.66,3.33.54-.62-.3-2.45.24-3.08.51-.59,2.4.03,2.91-.55,2.33-2.69-.35-1.78-3.69-2.28-2.89-.44-2.98-.23-2.12,2.58h0Z"/>
      <path class="cls-1" d="M292.55,95.24c2.72,1.56,5.43,3.24,8.13,5.06-2.48,5.71-4.96,11.43-7.44,17.14-2.5-1.76-5.06-3.42-7.66-4.96,2.49-1.76,4.54-4.21,5.84-7.21,1.42-3.28,1.75-6.76,1.14-10.03h0ZM288.82,93.03c-2.88-7.28-11.21-10.9-18.5-8.02-7.28,2.87-10.9,11.21-8.03,18.49,2.87,7.28,11.21,10.9,18.49,8.03,7.28-2.88,10.9-11.21,8.03-18.5h0ZM290.91,92.21c3.33,8.43-.86,18.09-9.29,21.42-8.44,3.33-18.09-.86-21.42-9.29-3.33-8.43.86-18.09,9.29-21.42,8.43-3.33,18.09.86,21.42,9.29h0ZM263.39,126.47c10.34,4.3,20.27,11.73,19.39,13.75-.88,2.02-11.52.16-23.3-4.95-11.79-5.12-20.26-11.55-19.38-13.57.88-2.02,12.96.46,23.29,4.77h0ZM287.66,103.32c-2.13,4.73-6.53,7.86-10.48,7.89-.33-3.01-.66-6.01-.99-9.02,1.57-.4,2.49-1.24,3.2-2.46h0c2.76,1.2,5.51,2.39,8.27,3.59h0ZM276.67,95.73c1.31.57,1.91,2.09,1.34,3.4-.57,1.31-2.09,1.91-3.4,1.34-1.31-.57-1.91-2.09-1.34-3.4.57-1.31,2.09-1.91,3.4-1.34h0ZM263.76,92.96c-2.07,4.23-1.7,9.91,1.53,13.1h0c2.42-1.81,4.85-3.63,7.27-5.44-1.11-.97-1.22-2.97-.53-4.08l-8.27-3.59h0ZM286.06,90.36c-2.25-3.7-8.21-6.36-11.88-5.16.38,3.03.75,6.06,1.13,9.08,1.07-.44,3.18.51,3.62,1.57h0c2.38-1.83,4.75-3.67,7.13-5.5h0ZM248.6,100.78c3.55.84,7.05,1.81,10.53,2.92,1.47,4.56,4.82,8.49,9.56,10.55,4.76,2.06,9.93,1.82,14.28-.24,3.11,1.74,6.21,3.64,9.28,5.72-2.48,5.71-4.96,11.42-7.44,17.14-13.55-11.11-28.29-17.29-43.65-18.94,2.48-5.71,4.96-11.43,7.44-17.14h0ZM265.45,61.95c12.93,1.56,32.53,9.64,43.65,18.94-2.48,5.71-4.96,11.43-7.44,17.14-3.31-2.34-6.72-4.48-10.22-6.43-1.68-3.91-4.79-7.21-9-9.04-4.23-1.84-8.8-1.85-12.81-.38-3.82-1.22-7.7-2.25-11.62-3.09,2.48-5.71,4.96-11.42,7.44-17.14h0ZM257.02,81.36c3.1.74,6.17,1.57,9.21,2.5-2.79,1.79-5.09,4.39-6.51,7.66-1.31,3.01-1.69,6.2-1.27,9.23-2.93-.86-5.89-1.61-8.87-2.25,2.48-5.71,4.96-11.43,7.44-17.14h0Z"/>
      <path class="cls-2" d="M1235.9,711.28l-9.88-15.91c-1.76,1.71-6.8,1.66-8.59,0-3.08,5.3-6.16,10.6-9.25,15.9,8.54,4.64,19.19,4.65,27.72,0h0ZM1196.52,712.65c-14.02-13.32-14.02-35.18,0-48.5,14.02-13.32,37.04-13.32,51.06,0,14.02,13.32,14.02,35.18,0,48.5-14.02,13.32-37.04,13.32-51.06,0h0ZM1222.05,693.74c-3.1,0-5.62-2.39-5.62-5.34s2.52-5.34,5.62-5.34,5.62,2.39,5.62,5.34-2.52,5.34-5.62,5.34h0ZM1200,709.34c12.11,11.5,31.98,11.5,44.09,0,12.11-11.5,12.11-30.38,0-41.88s-31.98-11.5-44.09,0c-12.11,11.5-12.11,30.38,0,41.88h0ZM1235.51,665.31l-9.49,15.78c3.06.93,5,4.64,4.59,7.29h19.19c0-9.63-5.44-18.44-14.29-23.07h0ZM1208.1,665.57l9.33,15.51c-2.78,2.05-3.91,4.4-4.26,7.29h-18.87c0-9.44,5.22-18.1,13.8-22.81h0Z"/>
      <path class="cls-1" d="M326.33,384.03c-1.93.57-3.47-1.81-1.81-3.34-.33-.95-.62-2.05-.82-3.03-8.57,4.81-12.2,1.1-6.73-6.92-9.14-2.71-8.75-7.85.49-9.56-4.46-8.32-.87-11.55,6.9-6.48,2.52-9.19,7.65-8.1,9.51.66.11-.06.23-.12.34-.18,0,0,0,0,0,.01-.06-1.74,2.08-2.65,3.33-1.41,7.75-2.16,5.74,4.31,2.83,8.61,3.16.75,8.1,2.83,6.21,6.58.64,1.87-1.71,3.43-3.19,2.02-1.12.4-2.22.69-3.38.92,4.28,7.86,1.14,11.88-6.79,6.6-.8,2.77-3.42,8.94-6.9,5.52h0ZM339.47,363.65c-.86,1.13-1.8,2.24-2.73,3.32,1.03,1.38,2.01,2.76,2.88,4.25,1.12-.23,2.23-.52,3.29-.97-.54-1.51.89-3,2.43-2.5.43-2.16-4-3.7-5.86-4.09h0ZM327.45,383.1c2.02,1.95,4.1-4,4.5-5.47-1.25-.92-2.48-1.87-3.65-2.89-1.27.9-2.58,1.73-3.93,2.52.22,1.04.51,2.04.9,3.03,1.77-.49,3.03,1.38,2.17,2.8h0ZM334.74,356.55c-.2.11-.4.21-.6.32.23,1.43.36,2.87.46,4.32,1.67.25,3.37.53,5.01.98,1.83-2.76,4.18-8.39-1.52-7-.02,1.24-1.19,2.15-2.41,1.86-.51-.13-.94-.48-.94-.48h0ZM328.35,370.86c-2.2-.11-3.89-1.99-3.79-4.18.11-2.2,1.97-3.9,4.18-3.8,2.2.11,3.89,1.98,3.79,4.18-.11,2.2-1.97,3.9-4.18,3.8h0ZM318.37,362.77c-.06-.1-.12-.2-.18-.3-7.35,1.27-8.55,5.34-.82,7.7,1-1.4,2.14-2.7,3.3-3.98-.05-.06-.13-.19-.19-.27-1.93.76-3.54-1.67-2.11-3.15h0ZM320.09,362.2c1.64.28,2.14,2.31.97,3.36.03.04.05.07.08.11.53-.57,1.07-1.14,1.63-1.69.03-.37.06-.74.09-1.1.03-.32.06-.64.1-.95-.96.07-1.92.16-2.87.27h0ZM323.13,360.61c.22-1.48.5-2.96.84-4.41-6.29-4.21-9.47-2.29-5.74,4.84,1.63-.25,3.25-.36,4.89-.43h0ZM334.68,362.58c.03.61.05,1.23.07,1.84.54.65,1.06,1.32,1.58,1.99.82-.97,1.62-1.96,2.39-2.97-1.32-.35-2.69-.62-4.03-.86h0ZM333.4,362.36c-.16-.03-.33-.05-.5-.07.18.19.35.39.53.59,0-.17-.02-.34-.03-.51h0ZM330.89,362.04c-1.29-.13-2.58-.21-3.88-.23-.65.54-1.28,1.08-1.89,1.65-.61.56-1.2,1.13-1.78,1.72-.05,1.16-.04,2.33,0,3.49.9,1.12,1.84,2.2,2.85,3.23,1.51.14,3.01.19,4.53.16.89-.75,1.74-1.53,2.56-2.35.15-1.61.22-3.21.2-4.83-.83-.98-1.7-1.93-2.6-2.84h0ZM325.04,361.82c-.48.01-.95.03-1.42.06-.06.47-.11.93-.15,1.4.51-.5,1.04-.99,1.57-1.46h0ZM318.79,370.56c1.35.35,2.71.65,4.08.89-.07-.84-.13-1.69-.17-2.53-.43-.55-.86-1.1-1.27-1.66-.92,1.06-1.81,2.17-2.64,3.3h0ZM323.56,371.56c.55.09,1.09.16,1.64.23-.62-.65-1.21-1.32-1.79-2.01.04.6.09,1.19.15,1.78h0ZM331.76,372.03c.43-.02.85-.04,1.28-.06.06-.41.11-.83.16-1.25-.47.45-.94.88-1.43,1.31h0ZM334.4,371.87c1.24-.1,2.52-.22,3.75-.4-.71-1.19-1.49-2.38-2.29-3.51-.4.45-.81.89-1.23,1.32-.06.87-.14,1.73-.23,2.59h0ZM338.55,372.16c-1.4.2-2.82.31-4.23.4-.22,1.77-.46,3.54-.91,5.27,6.7,4.36,8.58.48,5.14-5.67h0ZM332.94,372.64c-.66.03-1.32.06-1.98.07-.69.57-1.39,1.12-2.12,1.65,1.06.91,2.16,1.77,3.29,2.59.35-1.4.59-2.88.81-4.3h0ZM329.93,372.72c-1,0-2.01-.04-3.01-.11.46.45.94.89,1.42,1.32.54-.39,1.07-.79,1.58-1.2h0ZM325.91,372.52c-.76-.07-1.52-.17-2.28-.29.16,1.44.34,2.93.61,4.36,1.22-.71,2.41-1.47,3.56-2.28-.65-.58-1.28-1.17-1.89-1.79h0ZM322.94,372.12c-1.53-.26-3.05-.6-4.55-.98-4.49,6.44-2.03,9.83,5.18,5.84-.29-1.58-.47-3.25-.62-4.86h0ZM323.79,360.58c.91-.03,1.82-.05,2.72-.04.25-.21.52-.43.8-.65.22-.18.45-.36.69-.54-1.11-.95-2.25-1.9-3.44-2.75-.31,1.31-.57,2.65-.77,3.98h0ZM328.55,360.6c.29.01.59.03.88.05-.14-.13-.28-.26-.43-.39-.15.11-.31.23-.46.35h0ZM331.49,360.8c.6.06,1.2.13,1.8.2-.11-1.13-.26-2.26-.43-3.38-.93.59-1.85,1.2-2.74,1.83.46.44.92.89,1.37,1.34h0ZM321.89,366.74c.26.35.52.71.78,1.05-.01-.64-.01-1.27,0-1.91-.26.28-.53.57-.78.86h0ZM329.1,358.52c1.12-.83,2.31-1.68,3.49-2.42-1.39-6.92-5.42-8.79-7.64-1,1.46,1.01,2.85,2.23,4.15,3.42h0ZM334.7,368.25c.26-.28.52-.57.77-.85-.23-.32-.47-.64-.71-.95,0,.6-.03,1.2-.06,1.8h0Z"/>
    </g>
  </g>
</svg>