<?xml version="1.0" encoding="UTF-8"?>
<svg id="Livello_1" data-name="Livello 1" xmlns="http://www.w3.org/2000/svg" viewBox="0 0 1401 751" width="1400" height="750">
  <defs>
    <style>
      .cls-1, .cls-2 {
        fill: #afafaf;
        stroke-width: 0px;
      }

      .cls-2 {
        fill-rule: evenodd;
      }

      .cls-3 {
        fill: #fffee9;
        stroke: #000;
        stroke-miterlimit: 10;
      }
    </style>
  </defs>
  <rect class="cls-3" x=".5" y=".5" width="1400" height="750"/>
  <g>
    <path class="cls-2" d="M381.92,463.36c-21.47,5.92-13.01,37.93,9.16,30.88,5.87-1.87,11.81-3.5,17.71-5.25-.83-2.79-1.65-5.58-2.48-8.36l-19.14,5.68c-8.83,2.58-13.7-11.29-3.96-14.2,6.3-1.87,12.61-3.74,18.91-5.61-.83-2.79-1.66-5.59-2.49-8.39-5.9,1.75-11.81,3.5-17.71,5.25h0ZM401.2,458.17c0,.87,0,1.73,0,2.6,1.05-.83,2.11-1.66,3.16-2.49-.26.59-.52,1.19-.77,1.78,2.31-1.89,4.61-3.78,6.92-5.68-1.48.87-2.95,1.74-4.42,2.61-.04-.42-.08-.84-.12-1.26-1.58.81-3.17,1.62-4.75,2.43h0ZM403.33,465.36c-.47-.73-.95-1.45-1.42-2.18,1.36.2,2.72.41,4.08.61-.57-.44-1.13-.88-1.69-1.32,2.99.41,5.98.83,8.97,1.24-1.71.08-3.42.15-5.13.22.19.37.39.75.58,1.13-1.8.1-3.59.2-5.39.3h0ZM407.87,480.66c0,.87.05,1.7.05,2.57,1.03-.91,2.01-1.78,3.04-2.69-.23.68-.47,1.36-.7,2.03,2.33-1.82,4.65-3.65,6.98-5.47-1.5.79-3,1.59-4.49,2.38-.04-.42-.08-.84-.12-1.26-1.58.81-3.17,1.62-4.75,2.44h0ZM410.07,488.08c-.5-.8-.99-1.61-1.49-2.41,1.36.21,2.72.41,4.08.61-.54-.36-1.08-.73-1.62-1.09,2.97.34,5.93.67,8.9,1.01-1.71.08-3.42.15-5.13.22.19.38.39.75.58,1.13-1.77.17-3.54.35-5.32.53h0ZM405.74,482.04l-5.05,1.55,1.76,6.13,5.07-1.55-1.78-6.13h0ZM399.02,459.39l-5.08,1.46,1.98,6.43,5.08-1.46-1.98-6.43h0Z"/>
    <path class="cls-2" d="M715.68,351.86c10.23,3.36,15.39-11.79,4.58-14.88-2.86-.82-5.69-1.75-8.54-2.63-.41,1.34-.83,2.69-1.24,4.03l9.22,2.84c4.25,1.33,2.49,8.21-2.21,6.77-3.04-.93-6.08-1.87-9.11-2.8-.41,1.35-.83,2.69-1.24,4.04,2.85.88,5.69,1.75,8.54,2.63h0ZM706.53,348.79c.23-.35.46-.7.7-1.05-.65.05-1.29.1-1.94.15.26-.17.53-.34.79-.51-1.43.14-2.87.29-4.3.43.83.05,1.65.09,2.48.13-.1.18-.19.36-.29.54.86.1,1.71.19,2.57.29h0ZM707.6,345.32c0,.42,0,.84-.01,1.26-.49-.45-.99-.89-1.48-1.34.11.33.22.66.33.98-1.09-.97-2.19-1.93-3.28-2.9.71.43,1.42.86,2.13,1.28.02-.2.05-.41.07-.61.75.44,1.5.88,2.25,1.32h0ZM709.87,337.95c.23-.35.44-.7.67-1.05-.66.09-1.29.18-1.94.27.28-.21.55-.42.82-.63-1.42.11-2.85.22-4.27.33.82.08,1.63.16,2.45.24-.1.18-.19.36-.29.54.86.1,1.71.19,2.56.29h0ZM710.97,334.37c-.01.46-.03.91-.05,1.37-.49-.45-.98-.89-1.48-1.34.12.29.24.58.36.87-1.1-.93-2.21-1.86-3.31-2.79.71.43,1.42.86,2.13,1.28.02-.2.04-.41.07-.61.76.4,1.52.81,2.28,1.21h0ZM711.09,337.96l2.45.73.93-2.94-2.46-.73-.92,2.95h0ZM707.73,348.88l2.43.77.93-3.12-2.43-.77-.93,3.12h0Z"/>
    <path class="cls-2" d="M104.11,605.01c.8,42.59,64.13,42.08,61.56-2.35-.68-11.76-.9-23.54-1.35-35.32-5.56.21-11.11.42-16.67.64l1.45,38.16c.59,17.59-27.42,20.04-28.19.61-.48-12.56-.96-25.13-1.44-37.7-5.57.21-11.15.42-16.72.64.45,11.77.9,23.54,1.34,35.32h0ZM103.62,566.82c1.61.41,3.21.83,4.82,1.24-1.04-2.35-2.07-4.69-3.11-7.04.98.76,1.95,1.52,2.93,2.27-2.41-5.17-4.83-10.34-7.24-15.5.92,3.15,1.83,6.29,2.74,9.44-.8-.12-1.6-.24-2.4-.37.75,3.32,1.51,6.64,2.26,9.96h0ZM117.95,566.27c-1.57.53-3.14,1.07-4.71,1.6,1.02-2.42,2.05-4.85,3.07-7.27-1.08.84-2.17,1.67-3.25,2.51,2.18-5.34,4.36-10.69,6.55-16.03-.67,3.21-1.35,6.41-2.02,9.62.79-.18,1.58-.37,2.36-.55-.67,3.38-1.33,6.75-2,10.12h0ZM148.46,565.11c1.62.41,3.17.72,4.79,1.13-1.21-2.34-2.34-4.57-3.55-6.91,1.14.75,2.29,1.5,3.43,2.26-2.28-5.17-4.55-10.35-6.83-15.52.76,3.15,1.52,6.3,2.29,9.45-.8-.12-1.6-.24-2.4-.37.75,3.32,1.51,6.64,2.26,9.96h0ZM163.26,564.54c-1.72.54-3.45,1.08-5.17,1.62,1.02-2.42,2.05-4.85,3.07-7.27-.93.83-1.86,1.66-2.79,2.49,2.03-5.34,4.06-10.67,6.09-16.01-.67,3.21-1.35,6.41-2.02,9.62.79-.18,1.58-.37,2.36-.55-.51,3.37-1.03,6.74-1.54,10.1h0ZM150.01,569.71l.48,10.1,12.2-.36-.47-10.14-12.21.4h0ZM104.84,571.43l.3,10.1,12.85-.62-.3-10.1-12.85.62h0Z"/>
    <path class="cls-2" d="M1200.11,663.69c1.34-.89,2.59-1.56,4.05-2.15.75-.3,1.31-.53,2.27-.74-1.79-1.85-3.32-2.75-4.48-2.29-1.31.53-1.83,2.26-1.84,5.17h0ZM1191.3,691.67c-3.52-8.76-1.4-18.31,4.71-24.64-2.48-11.27-2.44-19.59.93-20.95,3.22-1.29,8.85,4.27,14.72,13.79,9.64-.48,18.86,5.16,22.62,14.53,3.76,9.36,1,19.82-6.28,26.14,2.35,10.93,2.13,18.84-1.09,20.14-3.37,1.35-9.16-4.62-15.16-14.48-8.79-.34-16.93-5.77-20.45-14.53h0ZM1217.03,705.81c2,2.06,3.58,2.95,4.89,2.43,1.16-.47,1.64-2.18,1.65-4.75-.84.51-1.4.74-2.15,1.04-1.46.59-2.83.96-4.4,1.29h0Z"/>
    <path class="cls-2" d="M971.06,186.1c-.15-1.34.82-2.54,2.15-2.69,1.34-.15,2.54.82,2.69,2.15.41,3.75,1.55,7.6,4.54,10.61,4.17,4.19,9.64,5.23,15.34,5.89-.7,1.52-1.44,3.04-2.14,4.57-5.79-.67-11.61-1.97-16.65-7.04-3.94-3.96-5.41-8.83-5.93-13.5h0ZM979.18,192.14l17.52-9.85c-.82-1.25-1.81-2.37-2.88-3.37l-16.17,9.09c.34,1.42.83,2.81,1.53,4.13h0ZM1000.21,227.5l17.4-9.78c.59,1.2,1.11,2.57,1.55,4.12l-16.11,9.06c-1.13-1.16-2.07-2.29-2.84-3.39h0ZM998.01,214.08l8.51-4.79c1.83.45,3.6,1.09,5.25,2.04l-14.43,8.11c-.07-1.8.21-3.63.67-5.36h0ZM997.61,221.64l16.05-9.02c1.09.89,2.08,1.98,2.95,3.33l-17.47,9.82c-.76-1.4-1.26-2.78-1.53-4.13h0ZM990.68,200.33l7.68-4.31c.48-1.77.78-3.58.77-5.42l-13.73,7.72c1.66.92,3.44,1.55,5.29,2.02h0ZM983.45,197.06l15.51-8.72c-.21-1.49-.62-2.91-1.26-4.28l-17.44,9.8c.89,1.22,1.98,2.29,3.19,3.2h0ZM1003.08,203.05c4.46.52,8.87,1.29,12.72,3.62,4.86,2.93,8.48,7.95,10.1,16.93.24,1.32-.64,2.59-1.95,2.83-1.32.24-2.59-.64-2.83-1.96-1.34-7.38-4.13-11.4-7.83-13.63-3.7-2.23-7.95-2.83-12.38-3.27.72-1.49,1.47-2.99,2.17-4.52h0ZM996.13,172.8c-1.07-.82-2.6-.62-3.42.44-.82,1.07-.62,2.6.44,3.42,2.98,2.3,5.69,5.28,6.7,9.39,2.93,11.87-8.55,21.5-8.6,33.49-.02,5.67,2.38,11.38,9.21,17.43,1,.89,2.54.8,3.43-.2.89-1,.8-2.54-.2-3.43-5.61-4.98-7.59-9.45-7.57-13.78.05-11.49,11.99-20.35,8.45-34.68-1.33-5.42-4.73-9.21-8.45-12.08h0Z"/>
    <path class="cls-2" d="M516.04,298.48h-2.93v10.98c0,5.02-9.56,12.94-2.93,18.31h8.79c6.63-5.36-2.93-13.28-2.93-18.31v-10.98h0ZM489.36,319.25h14.05c-.94,8.81-13.2,8.56-14.05,0h0ZM496.43,327.77h0c5.16,0,9.35-4.19,9.35-9.35,0-4.34-2.96-7.99-6.97-9.04v-12.77h-4.75v12.77c-4.01,1.05-6.97,4.7-6.97,9.04,0,5.16,4.19,9.35,9.35,9.35h0ZM496.43,326.58c-4.42,0-8-3.58-8-8,0-.03,0-.07,0-.1h16s0,.07,0,.1c0,4.42-3.58,8-8,8h0ZM510.66,319.49c-1.2,2.38-1.81,4.8.68,6.75h6.47c2.49-1.95,1.88-4.37.68-6.75h-7.84ZM510.03,318.79c-1.39,2.86-2.1,5.77.79,8.11h7.52c2.89-2.34,2.18-5.25.79-8.11h-9.11Z"/>
    <path class="cls-1" d="M482.29,127.84l.08,6.87c-.44-.03-.89,0-1.32.06l-.08-6.97c.43.1.89.12,1.32.04h0ZM445.9,157.02c1.2,1.28,3.21,1.34,4.49.15,1.28-1.2,1.32-3.23.12-4.49-1.2-1.24-3.21-1.28-4.49-.12-1.26,1.2-1.34,3.21-.12,4.47h0ZM479.38,126.37c1.2,1.28,3.21,1.34,4.49.15,1.28-1.2,1.32-3.23.12-4.49-1.2-1.23-3.21-1.28-4.49-.12-1.26,1.2-1.34,3.21-.12,4.47h0ZM478.77,147.32c-3.06-1.74-4.18-5.69-2.42-8.82,1.72-3.09,5.67-4.2,8.77-2.46,3.11,1.76,4.23,5.71,2.47,8.82-1.74,3.11-5.69,4.2-8.82,2.46h0ZM509.19,151.68c1.17,3.07-.39,6.57-3.48,7.72-3.1,1.2-6.57-.39-7.77-3.48-1.15-3.1.41-6.53,3.5-7.7,3.1-1.17,6.57.39,7.75,3.46h0ZM466.66,176.19c1.2,1.26,3.21,1.32,4.51.12,1.26-1.2,1.32-3.23.1-4.49-1.2-1.28-3.19-1.32-4.47-.12-1.28,1.2-1.34,3.21-.15,4.49h0ZM459.93,162.01c2.42,2.53,6.42,2.64,8.98.25,2.53-2.39,2.64-6.45.25-8.98-2.37-2.49-6.42-2.6-8.96-.25-2.53,2.39-2.66,6.42-.27,8.98h0ZM477.11,146.64l-7.25,6.92c-.27-.35-.57-.67-.91-.96l7.32-6.98c.24.37.53.71.85,1.02h0ZM466.94,163.94l1.52,6.54c-.44.06-.86.22-1.25.47l-1.55-6.66c.43-.07.86-.19,1.28-.35h0ZM457.76,157.14l-6.2-1.06c.16-.42.23-.86.21-1.31l6.22,1.06c-.12.43-.2.86-.22,1.31h0ZM488.33,144.57l9.67,5.6c-.25.37-.46.76-.62,1.17l-9.7-5.62c.26-.36.48-.75.66-1.15h0Z"/>
    <path class="cls-1" d="M692.97,636.52l5.63-2.46c-.19-.35-.33-.72-.44-1.1l-5.71,2.49c.24.32.42.68.52,1.07h0ZM703.4,596.13c1.48.51,2.28,2.13,1.77,3.61-.51,1.48-2.15,2.26-3.61,1.75-1.45-.52-2.22-2.15-1.75-3.61.51-1.46,2.13-2.27,3.6-1.74h0ZM690.71,634.69c1.48.51,2.27,2.13,1.77,3.61-.51,1.48-2.15,2.26-3.61,1.75-1.45-.52-2.22-2.15-1.75-3.61.51-1.46,2.13-2.28,3.6-1.74h0ZM707.56,626.49c-2.54-1.86-6.17-1.32-8.08,1.27-1.88,2.53-1.35,6.16,1.21,8.06,2.58,1.89,6.21,1.35,8.09-1.23,1.89-2.56,1.34-6.18-1.23-8.1h0ZM722.29,649.69c2.94-.17,5.22-2.73,5.02-5.68-.16-2.96-2.73-5.22-5.69-5.06-2.95.2-5.17,2.73-4.99,5.69.18,2.96,2.73,5.22,5.67,5.05h0ZM726.65,606.02c1.46.51,2.26,2.13,1.76,3.63-.51,1.46-2.15,2.26-3.62,1.73-1.48-.51-2.25-2.12-1.74-3.6.51-1.48,2.13-2.27,3.61-1.77h0ZM712.62,605.74c2.95,1.04,4.51,4.27,3.5,7.23-1.02,2.95-4.29,4.52-7.23,3.5-2.9-1.02-4.48-4.28-3.49-7.21,1.02-2.95,4.26-4.53,7.22-3.52h0ZM706.39,625.4l2.98-8.46c-.39-.09-.76-.22-1.12-.39l-3,8.53c.39.06.77.17,1.14.32h0ZM716.76,610.74l5.89-1.16c-.11-.38-.14-.78-.08-1.19l-6,1.18c.1.38.16.77.19,1.17h0ZM707.85,605.75l-3.14-4.67c-.28.29-.62.51-.99.65l3.15,4.68c.3-.25.63-.48.98-.66h0ZM708.83,635.3l8.11,5.83c.21-.34.45-.65.73-.94l-8.15-5.85c-.2.34-.43.66-.69.96h0Z"/>
    <path class="cls-2" d="M179.92,696.58l34.83.26c6.77.05,6.85-10.19.08-10.24l-34.83-.26c-6.77-.05-6.85,10.18-.08,10.23h0ZM179.81,710.45l34.83.26c6.77.05,6.85-10.19.08-10.24l-34.83-.26c-6.77-.05-6.85,10.18-.08,10.24h0ZM213.42,708.12c-1.4-.01-2.52-1.15-2.51-2.55.01-1.4,1.15-2.52,2.55-2.51,1.4.01,2.52,1.15,2.51,2.55-.01,1.4-1.15,2.52-2.55,2.51h0ZM193.02,706.5c-.59,0-1.06-.48-1.06-1.07,0-.59.49-1.06,1.07-1.06.59,0,1.06.49,1.06,1.07,0,.59-.49,1.06-1.07,1.06h0ZM186.32,706.44c-.59,0-1.06-.48-1.06-1.07,0-.59.49-1.06,1.07-1.06.59,0,1.06.49,1.06,1.07,0,.59-.49,1.06-1.07,1.06h0ZM179.62,706.39c-.59,0-1.06-.48-1.06-1.07,0-.59.49-1.06,1.07-1.06.59,0,1.06.48,1.06,1.07,0,.59-.48,1.06-1.07,1.06h0ZM199.41,672.36l.03-4.27c1.28-.63,2.15-1.57,2.16-3.35.01-1.78-1.78-3.83-4.02-3.85-2.24-.02-4.06,2.07-4.08,3.79-.01,1.72.71,2.52,1.81,3.21l-.03,4.44-15.18-.12c-6.77-.05-6.85,10.18-.08,10.24l34.83.26c6.77.05,6.85-10.18.08-10.24l-15.52-.12h0ZM213.63,680.04c-1.4-.01-2.52-1.15-2.51-2.55.01-1.4,1.15-2.52,2.55-2.51,1.4.01,2.52,1.15,2.51,2.55-.01,1.4-1.15,2.52-2.55,2.51h0ZM193.23,678.43c-.59,0-1.06-.49-1.06-1.07,0-.59.49-1.06,1.07-1.06.59,0,1.06.49,1.06,1.07,0,.59-.49,1.06-1.07,1.06h0ZM186.53,678.37c-.59,0-1.06-.48-1.06-1.07,0-.59.49-1.06,1.07-1.06.59,0,1.06.49,1.06,1.07,0,.59-.49,1.06-1.07,1.06h0ZM179.83,678.32c-.59,0-1.06-.49-1.06-1.07,0-.59.49-1.06,1.07-1.06.59,0,1.06.49,1.06,1.07,0,.59-.48,1.06-1.07,1.06h0ZM176.37,666.03l14.97.11.03-3.36-14.97-.11-.03,3.36h0ZM203.79,666.24l14.97.11.03-3.36-14.97-.11-.03,3.36h0ZM213.53,694.24c-1.4-.01-2.52-1.15-2.51-2.55.01-1.4,1.15-2.52,2.55-2.51,1.4.01,2.52,1.15,2.51,2.55-.01,1.4-1.15,2.52-2.55,2.51h0ZM193.12,692.63c-.59,0-1.06-.49-1.06-1.07,0-.59.49-1.06,1.07-1.06.59,0,1.06.49,1.06,1.07,0,.59-.49,1.06-1.07,1.06h0ZM186.42,692.57c-.59,0-1.06-.49-1.06-1.07,0-.59.49-1.06,1.07-1.06.59,0,1.06.49,1.06,1.07,0,.59-.49,1.06-1.07,1.06h0ZM179.72,692.52c-.59,0-1.06-.49-1.06-1.07,0-.59.49-1.06,1.07-1.06.59,0,1.06.48,1.06,1.07,0,.59-.49,1.06-1.07,1.06h0Z"/>
    <path class="cls-1" d="M902.96,228.55l8.12,1.81,11.78,22.48.76-.4c2.1-1.1,3.75,2.07,1.66,3.17l-.76.4c-4.83,2.53-9.66,5.06-14.5,7.6l-.76.4c-2.09,1.1-3.75-2.07-1.66-3.17l.76-.4-11.78-22.47,3.12-7.71,3.25-1.71h0ZM913.38,263l8.73-4.58,1.88,3.59.68-.36c2.1-1.1,3.76,2.07,1.66,3.17l-10.1,5.29c-2.09,1.1-3.75-2.07-1.66-3.17l.69-.36-1.88-3.59h0ZM918.49,251.69l-5.59,2.93-.77-1.47,5.59-2.93.77,1.47h0ZM910.52,236.47l-5.59,2.93-.77-1.47,5.59-2.93.77,1.47h0ZM912.51,240.27l-5.59,2.93-.77-1.47,5.59-2.93.77,1.47h0ZM914.5,244.08l-5.59,2.93-.77-1.47,5.59-2.93.77,1.47h0ZM916.5,247.88l-5.59,2.93-.77-1.47,5.59-2.93.77,1.47h0ZM894.5,218.15l4.8,11.33,3.26-1.71-6.58-10.4-1.48.77h0ZM901.75,230.39l-2.91,7.45,11.23,21.43,10.84-5.68-11.23-21.43-7.94-1.77h0Z"/>
    <path class="cls-1" d="M817.84,593.15l17.38,10.68,9.39,61.54,2.07-.32c5.74-.87,7.06,7.8,1.32,8.67l-2.07.32c-13.23,2.02-26.46,4.04-39.69,6.05l-2.07.32c-5.74.87-7.06-7.8-1.32-8.67l2.07-.32-9.39-61.52,13.39-15.39,8.91-1.36h0ZM814.52,681.37l23.91-3.65,1.5,9.84,1.87-.29c5.74-.87,7.06,7.8,1.32,8.67l-27.66,4.22c-5.74.87-7.06-7.8-1.32-8.67l1.88-.29-1.5-9.84h0ZM835.41,659.2l-15.3,2.33-.61-4.03,15.3-2.33.61,4.03h0ZM829.05,617.53l-15.3,2.33-.61-4.03,15.3-2.33.61,4.03h0ZM830.64,627.95l-15.3,2.33-.61-4.03,15.3-2.33.61,4.03h0ZM832.23,638.37l-15.3,2.33-.61-4.03,15.3-2.33.61,4.03h0ZM833.82,648.79l-15.3,2.33-.61-4.03,15.3-2.33.61,4.03h0ZM806.51,562.27l2.1,30.12,8.92-1.36-6.98-29.37-4.04.62h0ZM813.58,596.45l-12.69,14.96,8.95,58.67,29.69-4.53-8.95-58.66-17-10.45h0Z"/>
    <path class="cls-2" d="M598.28,650.75l-17.52-9.55c-1.52-.83-2.09-2.76-1.26-4.28l9.07-16.64c.83-1.52,2.61-2.17,4.28-1.26l17.52,9.55-.49.89c-2.18.21-3.07,2.63-2.34,4.3l-9.26,16.99h0ZM606.5,633.41c-5.38-2.93-10.76-5.86-16.14-8.79-3.21-1.75-.73-6.43,2.49-4.68,5.38,2.93,10.79,5.91,16.17,8.84-2.1.68-2.86,2.65-2.52,4.63h0ZM597.89,649.3c-4.94-2.69-8.76-4.77-13.7-7.46-2.05-1.11-2.63-2.27-1.61-4.15l6.85-12.58,16.69,9.09-8.23,15.1h0Z"/>
    <path class="cls-2" d="M797.97,320.51c.99.56,1.35,1.81.8,2.78-.55.98-1.8,1.31-2.79.75-.99-.56-1.35-1.81-.8-2.78.55-.97,1.8-1.31,2.79-.75h0ZM819.28,331.93c1.08.36,1.67,1.51,1.32,2.58-.35,1.06-1.52,1.63-2.6,1.27-1.08-.36-1.67-1.51-1.32-2.57.35-1.06,1.52-1.63,2.6-1.27h0ZM823.12,310.19l5.81,1.93c.72.24,1.11,1.02.87,1.74l-8.11,24.39c-.24.72-1.02,1.11-1.74.87l-5.81-1.93c-.72-.24-1.11-1.02-.87-1.74l8.11-24.39c.24-.72,1.02-1.11,1.74-.87h0ZM822.83,312.35l5.04,1.68-.63,1.88-5.04-1.68.63-1.88h0ZM821.85,315.31l5.04,1.68-.63,1.88-5.04-1.68.63-1.88h0ZM820.86,318.27l5.04,1.68-.63,1.88-5.04-1.68.63-1.88h0ZM806.85,325.52c.99.56,1.35,1.8.8,2.78-.55.98-1.8,1.31-2.8.75-.99-.56-1.35-1.8-.8-2.78.55-.98,1.8-1.31,2.79-.75h0ZM814.79,304.91l5.33,3.01c.66.37.89,1.21.52,1.87l-12.63,22.39c-.37.66-1.21.89-1.87.52l-5.33-3.01c-.66-.37-.89-1.22-.52-1.87l12.63-22.39c.37-.66,1.21-.89,1.87-.52h0ZM814.09,306.98l4.63,2.61-.97,1.73-4.63-2.61.98-1.73h0ZM812.56,309.69l4.63,2.61-.98,1.73-4.63-2.61.97-1.73h0ZM811.02,312.41l4.63,2.61-.98,1.73-4.63-2.61.98-1.73h0ZM805.91,299.9l5.33,3.01c.66.37.89,1.21.52,1.87l-12.63,22.39c-.37.66-1.21.89-1.87.52l-5.33-3.01c-.66-.37-.89-1.21-.52-1.87l12.63-22.39c.37-.66,1.21-.89,1.87-.52h0ZM805.21,301.97l4.63,2.61-.98,1.73-4.63-2.61.97-1.73h0ZM803.68,304.68l4.63,2.61-.98,1.73-4.63-2.61.98-1.73h0ZM802.14,307.4l4.63,2.61-.97,1.73-4.63-2.61.98-1.73h0Z"/>
    <path class="cls-2" d="M1071.59,472.85l18.65,3.63-17.88-.35-.78-3.28h0ZM1107.35,464.36l-15.03,11.62,15.81-8.35-.78-3.28h0ZM1099.22,505.08l19.37-9.9-6.51-27.42-19.37,9.9,6.51,27.42h0ZM1097.15,505.58l-21.75-.13-6.51-27.42,21.76.13,6.51,27.42h0Z"/>
    <path class="cls-2" d="M314.12,448.39c-2.67-7.14-8.28-12.49-15.58-15.82,7-12.62,14-25.25,21-37.87,8.06,3.3,13.42,9.11,15.58,15.82-7,12.62-14,25.25-21,37.87h0ZM307.99,454.97c-3.72-5.14-13.03-11.14-22.54-14.76l-2.27-1.26,23.72-42.78,2.27,1.26-21.23,38.28c9.13,4,17.02,8.72,21.4,16.81.23-.42.47-.84.7-1.26-2.73-5.59-6.59-9.81-15.97-14.92l-2.27-1.26,21.41-38.59,2.27,1.26-19.76,35.63c8.55,3.98,15.18,10.77,16.58,17.54,1.1.21,1.96.72,2.71,1.5,6.48-2.39,15.75-.37,23.65,4.78l19.76-35.63,2.27,1.26-21.41,38.59-2.27-1.26c-9.31-5.25-14.93-6.29-21.12-5.65-.23.42-.47.84-.7,1.26,9.18-.57,17.37,3.63,25.6,9.25l21.23-38.28,2.27,1.26-23.72,42.78-2.27-1.26c-8.11-6.15-18.12-10.87-24.46-11.31-.67,1.2-6.51-2.04-5.85-3.24h0ZM316.18,449.53c7.47-1.52,14.98.4,21.67,4.84,7-12.62,14-25.25,21-37.87-7.07-5.09-14.83-6.56-21.67-4.84-7,12.62-14,25.25-21,37.87h0Z"/>
    <path class="cls-2" d="M101.08,202.03c8.21,10.64,1.26,19.33,2.31,30.36,13.01-.99,26.02-1.98,39.03-2.98-3.25-11.55,5.77-19.07-2.31-30.36-13.01.99-26.02,1.98-39.03,2.98h0ZM96.91,166.86c-.36.03-1.09.08-1.45.11.03.36.08,1.09.11,1.45,1.62,21.25,3.41,44.71,5.03,65.95.03.36.08,1.09.11,1.45.36-.03,1.09-.08,1.45-.11,13.41-1.02,27.18-2.07,40.59-3.09l-.11-1.45-40.59,3.09c-.66-17.91,5.28-20.76-2.48-32.49-.66.05-.74-.93-.07-.98,5.89-12.76-.41-14.69-2.48-32.49l40.59-3.09-.11-1.45c-13.41,1.02-27.18,2.07-40.59,3.09h0ZM100.95,200.31c6.5-11.76-1.68-19.3-2.31-30.36,13.01-.99,26.02-1.98,39.03-2.98-1.46,11.91,8.59,17.98,2.31,30.36-13.01.99-26.02,1.98-39.03,2.98h0Z"/>
    <path class="cls-1" d="M1342,646.36c-6.76.77-8.96,4.88-11.29,9.22-1.35,2.52-2.75,5.12-5.04,7.3l-.6.57-.58-.58-25.95-26.04-.75-.76.91-.56c3.2-1.95,4.65-4.84,6.06-7.64,2.09-4.17,4.1-8.16,11.07-9.23l.42-.06.3.3,25.95,26.04,1.23,1.23-1.73.2h0ZM1323.74,668.55c.24.24.73.73.97.97.2-.2,1.28-1.28,1.48-1.48,11.77-11.73,28.83-28.72,40.6-40.45.2-.2,1.28-1.28,1.48-1.48-.24-.24-.73-.73-.97-.97-8.91-8.95-20.09-20.17-29-29.11l-1.48,1.48,29,29.11c-10.36,9.39-17.78,8.64-20.03,19.95.44.44-.1.98-.54.54-11.32,2.21-10.6,9.63-20.03,19.95l-29-29.11-1.48,1.48c8.91,8.95,20.09,20.17,29,29.11h0ZM1343.65,641.47c1.32-6.33,5.49-8.55,9.88-10.88,2.18-1.16,4.42-2.35,6.31-4.12l-24.63-24.72c-2.15,2.98-5,4.4-7.76,5.77-3.7,1.84-7.23,3.6-8.29,9.37l24.48,24.57h0ZM1354.31,632.07c-4.35,2.31-8.47,4.5-9.27,11.26l-.2,1.72-1.23-1.23-25.95-26.04-.3-.3.07-.42c1.1-6.96,5.09-8.95,9.27-11.03,2.81-1.4,5.7-2.84,7.66-6.03l.56-.91.75.76,25.95,26.04.58.58-.57.6c-2.19,2.29-4.8,3.67-7.32,5.02h0ZM1329.23,654.79c2.35-4.38,4.58-8.54,10.91-9.84l-24.48-24.57c-5.78,1.04-7.55,4.57-9.41,8.25-1.38,2.75-2.81,5.59-5.8,7.74l24.63,24.72c1.78-1.89,2.98-4.13,4.15-6.3h0Z"/>
    <path class="cls-2" d="M1097.77,71.25c3.25-3.45,4.7-8.05,4.55-13.03l9.73.48-.65,13.23-13.63-.67h0ZM1113.8,55c5.74,3.97,9.36,10.72,9,18.21-.36,7.49-4.63,13.85-10.73,17.25l1.73-35.45h0ZM1115.23,90.82l2.87,11.26c-3.09,1.27-6.41,2.06-9.87,2.31,1.37-3.4,2.65-7.31,3.72-11.62,1.15-.56,2.24-1.21,3.27-1.94h0ZM1111.33,40.75c3.42.58,6.65,1.7,9.6,3.26l-3.96,10.93c-.95-.83-1.98-1.59-3.07-2.25-.65-4.39-1.54-8.42-2.57-11.93h0ZM1125.86,47.22c2.76,2.19,5.14,4.82,7.05,7.78l-10.34,7.27c-.62-1.29-1.36-2.51-2.2-3.65l5.48-11.4h0ZM1135.6,60.11c1.4,3.39,2.24,7.06,2.4,10.89l-13.19.02c-.08-1.53-.31-3.03-.67-4.48l11.46-6.44h0ZM1137.71,76.88c-.53,3.8-1.72,7.37-3.45,10.6l-10.78-7.52c.51-1.4.88-2.87,1.11-4.39l13.13,1.31h0ZM1131.1,92.3c-2.19,2.76-4.82,5.14-7.78,7.05l-4.35-11.88c.95-1.05,1.8-2.19,2.54-3.41l9.58,8.24h0ZM1092.42,69.64c1.85-3.49,2.63-10.32,2.04-16.62l.08-1.61,17.83.87-.08,1.61-14.63-.71c.27,6.19-.19,11.89-3.5,16.55.3.01.6.03.89.04,2.36-3.06,3.66-6.37,3.93-13.01l.08-1.61,13.13.64-.08,1.61-11.02-.54c.13,5.86-1.84,11.42-5.23,14.06.19.67.14,1.29-.09,1.92,3.11,2.96,4.53,8.68,3.83,14.5l11.02.54-.08,1.61-13.13-.64.08-1.61c.37-6.63-.59-10.06-2.65-13.33-.3-.01-.6-.03-.89-.04,2.84,4.96,2.75,10.68,1.87,16.81l14.63.71-.08,1.61-17.83-.87.08-1.61c1.2-6.21,1.09-13.09-.41-16.74-.85-.04-.65-4.19.2-4.15h0ZM1097.7,72.71c2.9,3.75,3.89,8.46,3.25,13.42l9.73.48.65-13.23-13.63-.67h0Z"/>
    <path class="cls-2" d="M1273.06,137.51c1.34,1.24,2.22,2.15,2.91,3.43,1.02.49,2.04,1.5,2.84,2.3-.58-1.6-1.56-3.17-3.23-4.71,8.05-2,16.1-4,24.16-6.01,6.26,6.22,1.41,11.89,4.67,18.79-8.05,2-16.1,4-24.16,6.01-.12-.45-.18-.73-.26-1.18-.43.76-1.05,1.56-1.74,2.13.09.49.11.63.24,1.13,9.38-2.33,18.76-4.66,28.14-7-3.8-8.03,1.85-14.64-5.44-21.89-9.38,2.33-18.76,4.66-28.14,7h0ZM1269.21,135.74c.4,1.62.82,3.23,1.23,4.85,4.63-.06,8.7,3.09,9.81,7.58,1.03,4.14-.69,8.48-4.26,10.79-.47.53-.94,1.21-1.25,1.89-1.45,2.92.62,1.69-3.77,2.99l-.75.19c-.29-1.18-.64-2.36-.91-3.54-4.09-.51-7.45-3.49-8.45-7.5-1.33-5.35,1.93-10.77,7.28-12.1.24-.06.49-.11.74-.15-.13-.51.3-1.43-.24-2.17.13-.91-.68-1.42-.88-2.22-.23.08-.47.14-.7.2-5.36,1.33-10.77-1.93-12.11-7.28-1-4.02.59-8.23,3.96-10.6l-.02-.06c-.38-1.25-.62-2.6-.94-3.88l.75-.19c5.19-1.5,2.59.74,6.74,1.97,4.25,1.58,7.62,2.78,8.9,7.94,1.12,4.51-1.02,9.2-5.14,11.31h0ZM1270.92,160.56c.14.53.28,1.07.43,1.6l1.55-.39c.27-2.53,1.28-1.33-1.98-1.21h0ZM1278.76,148.54c-2.71-10.89-19.06-6.63-16.4,4.08,2.66,10.72,19.05,6.6,16.4-4.08h0ZM1261.39,115.46l-1.55.39c.12.54.24,1.08.37,1.61.38-.08.85-.18,1.35-.29,2.23-.46.94-.08-.17-1.71h0ZM1272.86,124.81c-1.13-4.53-5.71-7.29-10.24-6.16-4.53,1.12-7.29,5.71-6.16,10.23,1.13,4.53,5.71,7.29,10.23,6.16,4.53-1.13,7.29-5.71,6.16-10.24h0ZM1294.5,134.64c4.98,5.85,2.21,10.77,3.37,17.49l2.08-.52c-1.75-6.72,1.87-11.55-4.21-17.28l-1.25.31h0ZM1280.65,138.08c4.98,5.85,2.21,10.77,3.37,17.49l2.08-.52c-1.75-6.72,1.87-11.55-4.2-17.28l-1.25.31h0ZM1285.27,136.94c4.98,5.85,2.21,10.77,3.37,17.49l2.08-.52c-1.75-6.72,1.87-11.55-4.2-17.28l-1.25.31h0ZM1289.89,135.79c4.98,5.86,2.21,10.77,3.37,17.49l2.08-.52c-1.75-6.71,1.87-11.55-4.2-17.28l-1.25.31h0ZM1266.27,113.6c-.26.06-.52.13-.78.19.06.26.13.52.19.78l.25,1.01c.38.09.72.21,1.05.37-.21-.63-.31-.86-.52-1.57l29-7.21-.19-.78c-9.67,2.4-19.33,4.81-29,7.21h0ZM1270.99,135.91l.92,3.7c.92.03,1.87.45,2.71.72-.62-.93-1.31-1.49-2.36-2.61-.48.12-.65-.59-.17-.71.33-1.23.66-1.86.79-2.83-.58.56-1.17,1.32-1.89,1.73h0ZM1276.88,159.59l.23.94c.06.26.13.52.19.78.26-.06.52-.13.78-.19,9.67-2.4,19.33-4.81,29-7.21l-.2-.78-29,7.21c-.14-.67-.15-.86-.25-1.47-.23.27-.46.49-.76.73h0ZM1293.18,129.3c1.65-7.5-3.09-10.55-5.21-17.03l2.08-.52c1.6,6.76,7.06,9.33,4.38,17.24l-1.25.31h0ZM1279.32,132.75c1.66-7.5-3.09-10.55-5.21-17.03l2.08-.52c1.6,6.76,7.06,9.33,4.38,17.24l-1.25.31h0ZM1283.94,131.6c1.66-7.5-3.09-10.55-5.21-17.03l2.08-.52c1.6,6.76,7.06,9.33,4.38,17.24l-1.25.31h0ZM1288.56,130.45c1.66-7.5-3.09-10.55-5.21-17.03l2.08-.52c1.6,6.75,7.06,9.32,4.38,17.24l-1.25.31h0ZM1272.89,136.81c.53-1.5.88-2.52.95-3.81.7-.92,1.16-2.3,1.51-3.4.14,1.54-.04,3.21-.71,5.13,8.05-2,16.1-4,24.16-6.01,2.62-8.43-4.32-11.17-4.67-18.79-8.05,2-16.1,4-24.16,6.01.15.65.29,1.1.51,1.7-.79-.48-1.7-.96-2.6-1.28-.19-.58-.28-.83-.42-1.44,9.38-2.33,18.76-4.66,28.14-7,.4,8.88,8.49,12.07,5.44,21.89-9.38,2.33-18.76,4.66-28.14,7h0Z"/>
    <path class="cls-2" d="M738.26,677.59c5.75,7.86,12.52,5.54,18.62,9.51,5.56,3.61,5.62,8.78-.95,20.78-3.65,7.02-4.97,12.22-2.84,14.59-17-8.12-26.22-16.7-16.89-31.62-.59,4.07.56,7.11,5.58,9.79,7.82-16.51-3.61-8.18-4.52-17.26,2.21,4.94,8.93,3.22,10.51,7.72,1.5,4.29-5.54,10.16-3.81,13.86-4-1.23-5.78-2.32-7.49-4.6.03,4.51,3.58,7.96,9.55,11.32,7.24-9.43,12.21-17.79,7.17-22.36-3.53-3.2-12.15-2.38-14.94-11.72h0ZM739.07,689.27c7.18.69,1.23,6.71,1.73,9.37-2.21-1.86-4.69-6.3-1.73-9.37h0Z"/>
    <path class="cls-2" d="M932.8,179.34c-8.03-11.07-17.55-7.85-26.1-13.46-7.79-5.11-7.85-12.36,1.44-29.17,5.17-9.84,7.05-17.14,4.06-20.47,23.83,11.5,36.74,23.59,23.55,44.5.85-5.71-.75-9.99-7.79-13.78-11.07,23.14,5.02,11.51,6.25,24.26-3.08-6.95-12.53-4.57-14.72-10.9-2.08-6.03,7.84-14.23,5.42-19.44,5.61,1.75,8.1,3.29,10.5,6.5-.01-6.33-4.99-11.2-13.36-15.95-10.22,13.21-17.25,24.93-10.2,31.36,4.95,4.51,17.06,3.41,20.93,16.54h0ZM931.72,162.92c-10.08-1.01-1.69-9.43-2.38-13.17,3.09,2.63,6.56,8.87,2.38,13.17h0Z"/>
    <path class="cls-2" d="M471.6,703.32c-2.15-14.67-12.9-16.37-18.29-26.05-4.91-8.82-1.32-15.81,16.06-27.28,9.91-6.85,15.39-12.91,14.2-17.61,17.1,23.03,23.41,41.13.22,54.57,3.69-5.06,4.3-9.97-.55-17.15-22.27,16.65-.97,13.58-6.2,26.44.54-8.22-9.73-10.69-8.64-17.87,1.03-6.84,14.69-9.72,14.98-15.94,4.5,4.5,6.13,7.23,6.81,11.52,3.17-6.08.84-13.26-4.8-22.03-16.45,7.54-29.1,15.25-25.56,24.98,2.48,6.82,14.66,11.85,11.77,26.41h0ZM478.82,687.02c-9.17-6.04,3.12-9.91,4.33-13.84,1.64,4.08,1.83,11.82-4.33,13.84h0Z"/>
    <path class="cls-2" d="M209.23,438.8c-23.72,17.45-35.21,48.29-8.87,63.18-18.38-23.23-6.17-47.77,8.87-63.18h0ZM209.54,438.92c-7.72,14.28-.16,21.84,6.92,27.9,8.31,7.11,14.24,10.45,4.94,23.11,12.35-13.14,10.05-18.79-2.27-27.91-5.31-3.94-13.78-8.64-9.59-23.1h0ZM204.03,454.92c3.98,25.45,26.68,22.43-1.4,47.22,43.52-21.3,6.48-30.29,1.4-47.22h0ZM201.32,456.28c-9.4,22.08-7.74,32.05.36,43.45,22.85-18.45-1.59-22.16-.36-43.45h0Z"/>
    <path class="cls-2" d="M781.64,53.52c-7.01,28.66,3.99,59.75,33.82,54.26-29.06-6.03-35.47-32.75-33.82-54.26h0ZM781.96,53.42c3.25,15.94,13.92,16.89,23.27,16.99,10.96.12,17.66-1.13,18.66,14.59,1.05-18.04-4.36-20.9-19.7-19.99-6.61.39-16.15,2.22-22.22-11.59h0ZM788.01,69.26c19.43,17,34.93.08,29.3,37.19,19.75-44.36-14.5-27.45-29.3-37.19h0ZM786.8,72.05c6.98,23.01,14.66,29.61,28.22,33.16,5.7-28.87-15.47-16.01-28.22-33.16h0Z"/>
    <path class="cls-2" d="M603.92,313.84c-16.55-7.05-36.35-3.51-36,14.97,6.51-16.89,23.22-18.09,36-14.97h0ZM603.95,314.05c-9.91.38-11.54,6.7-12.53,12.31-1.16,6.58-1.07,10.74-10.62,9.78,10.75,2.42,13.01-.55,13.98-9.87.42-4.02.26-9.93,9.17-12.22h0ZM593.82,316.12c-12.15,10.01-3.5,21.01-25.28,13.94,24.73,16.27,17.95-6,25.28-13.94h0ZM592.26,315.11c-14.54,1.92-19.27,5.89-22.75,13.69,16.81,6.29,11.17-7.72,22.75-13.69h0Z"/>
    <path class="cls-2" d="M1220.58,191.84c-5.2,6.56-12.52,7.42-16.73,6.43,5.51,4.25,17.07-3.33,24.68,4.83-6.28-4.69-21.54,2.23-21.99,7.82,2.53.24,3.49-.53,4.98-1.45,4.65-2.87,7.43-8.06,14.34-2.52-6.37-2.37-7.01,3.09-10.74,7.33-8.4,9.56-22.98,11.29-32.67,5.88-15.64-8.73-15.37-40.1,3.87-37.96,16.82,1.87,18.38,8.53,28.64,4.57-6.03,3.7-8.91,4.08-14.51,2.67,6.26,3.39,13.03,6,20.12,2.4h0ZM1200.72,193.95c-2.89-1.73-5.95-2.31-8.32-1.84-4.59.91-5.37,6.47-1.07,9.36,2.99,2.02,7.43,4.14,13.9,2.52-9.26,5.42-17.87.76-14.26,5.59,2.31,3.09,8.39,7.91,17.04,5.64-8.05,4.55-21.16,5.2-27.32-1.58-7.27-8-7.27-23.24.61-26.42,6.16-2.49,15.72,2.1,19.43,6.73h0Z"/>
    <path class="cls-2" d="M973.26,493.59c2.27-13.11,14.29-8.46,20.1-4.49,2.78,1.9,6.55,1.57,9.24.2-2.33,2.71-4.31,3.48-7.3,3.63,3.71,2.62,11.1,2.39,13.49-.12-1.48,2.26-3.12,3.56-6.31,4.63,5.56,1.18,10.99,3.66,15.58,9-8.47-5.22-27.01-3.45-29.43,4.28-.84,2.7,1.34,5.48,8.08,3.26-10.64,7.46-23.63,6.21-24.23-8.64,1.99,6.18,4.66,9.53,11.71,9.29-2.71-6.38,6.45-15.44,18.04-14.27-7.13-3.48-16.64-5.39-21.02-.76,1.28-3.6,4.4-6.46,10.2-5.56-6.36-2.87-10.63-2.8-14.82,1.61.37-2.92,2.63-8.01,8.66-7.49-5.65-2.16-9.63.06-11.99,5.43h0Z"/>
    <path class="cls-2" d="M51.81,87.98c6.2-8.26-2.62-9.48,1.45-15.02,1.1-1.5,2.42-2.74,6.3-4.64,1.42,3.62,1.1,5.83-.32,9.29,6.3-2.82,8.11-4.69,10.59-9.95,1.9,24.92-9.34,8.02-11.57,22.59,4.48-8.96,16.31,2.84,16.03-19.25-.04-3.48-.35-7.29,2.26-9.4-2.23.44-3.8,1.15-6.11,2.79,1.89-9.09.09-13.75-4.2-22.07-.38,10.26-13.85,11.43-19.28,20.75-8.69,14.91,8.09,18.78,4.84,24.91h0ZM62.42,73.18c5.43-7.47,6.75-12.22,4.24-20.9-10.58,6.2-14.42,8.47-16.54,18.85,5.32-5.38,7.83-2.56,10.72-10.28,1.15,4.56,1.96,7.24,1.58,12.33h0Z"/>
    <path class="cls-2" d="M1198.67,328.72c6.54-3.2,11.03-6.91,15.66-12.46,1.92,29.11-3,55.08-21.68,66.19-23.08,13.72-56.37-.32-60.89-28.26-2.93-18.1,6.91-40.01,31.7-58.28-2.48,7.07-.84,14.58,5.96,18.43,7.1-11.76,9.59-21.91,8.33-36.97,14.74,13.66,24.24,27.41,20.93,51.35h0ZM1155.05,310.42c-23.07,35.17-11.04,55.26,5.19,62.1,17.37,7.32,42.41-2.41,48.1-39.52-8.01,19.42-20.81,23.13-32.17,23.83,14.9-21.51,14.87-49.84,8.05-65.34,3.78,17.9-6.5,45.46-19.05,57.05-4.47-3.39-3.72-24.92,6.57-16.63-6.44-11.43-17.82,1.49-17.85,11.68-3.47-7.49-6.26-15.67,1.17-33.17h0Z"/>
    <path class="cls-2" d="M562.19,195.79l13.15,9.39.25-.35-13.1-9.36-.29.32h0ZM544.23,214.19c.58-.36,2.07-1.58,2.8-2.6.91-1.27-.03-2.26-1.26-1.1-.88.84-1.75,2.29-2.18,3.14-1.03-.11-.84.49-.4.91l-.92,1.01-3.09-1.79,11.57,16.42,17.4,10.05-11.6-16.4-14.1-8.18.9-.98c.46.36,1.05.47.88-.49h0ZM564.48,227.49c-1.13-4.61-8.2-11.35-12.59-11.25-.79.02-1.68,1.93-2.21,2.92l7.26,4.19,4.95,7.02c.95-.73,2.66-1.5,2.59-2.88h0ZM565.94,214.89c-.29,1.55-2.88,4.07-4.22,4.3l7.74,12.9c1.13.17,4.01-2.73,4.42-4.01l-7.94-13.18h0ZM561.34,219.6l7.31,12.27-3.68-2.85c2.03-3.79-8.47-14.67-13.83-13.72l-2.83-4.33.52-.57,12.5,9.19h0ZM553,205.86l12.5,8.97.25-.35-12.46-8.94-.29.32h0ZM571.16,210.14c-.36,1.68-2.94,3.88-4.48,4.33l7.79,12.94c.96.15,4.35-3.1,4.43-4.32l-7.74-12.95h0ZM557.56,200.86l13.07,9.32.25-.35-13.03-9.29-.29.32h0ZM575.94,205.02c.02,1.47-2.44,4.15-4.03,4.69l7.59,12.71c1.14-.02,4.18-3.24,4.11-4.52l-7.66-12.88h0Z"/>
    <path class="cls-2" d="M1043.95,152.49l13.56,1.18,5.22,14.85-13.72-.72-5.06-15.32h0ZM1041.81,172.43c.07-1.67.42-2.7,1.03-3.92-1.06-.9-1.44-1.63-1.82-2.97-.77.1-1.53.32-2.22.64.32,1.13.35,2.3.02,3.49,1.22.82,2.04,1.49,2.97,2.78l-1.07-3.31-.38-.63.22-.37.38.19.05.71.83,3.39h0ZM1040.97,164.81c-1.03.22-1.47.35-2.46.7-6.42-16.08-.6-17.77,2.46-.7h0ZM1063.03,171.5l-.78.69-17.03-.78c-2.25-6.68-3.69-11.13-5.37-16.82.13-1.42,2.3-2.5,3.64-2.03,1.84,5.69,3.17,9.73,5.11,15.52-.95.89-1.68,1.56-2.83,2.68l17.26.73h0Z"/>
    <path class="cls-2" d="M746.47,82.88l-21.41-2.73.07.52,21.41,2.73-.07-.52h0ZM756.14,54.47c-.06,1.83,1.09,13.47,1.51,14.15.18.29,1.1.26,1.25-.16.27-.72-1.55-12.37-2.1-14.08,0-.08-.02-.16-.03-.23.1-.15.1-.13-.03-.24.1-.14.11-.12-.03-.22.1-.15.1-.13-.03-.24-.01-.08-.02-.16-.03-.23.28-.52.12-.79-.19-1.38-.3-.57-.28-.78-.22-1.24,1.26-.74,2.5-1.47,3.57-2.1l-19.78.59-15.04,8.83c2.68-.21,9.53-1.35,11.2-1.35.11,2.06,0,2.98-.21,5.9,6.46.54,10.02-.44,15.76-2.87-.66-2.04-1.08-3.57-1.52-5.44,1.46-.86,3.5-2.06,5.53-3.26.18.38.11.58.01,1.08-.11.6-.23.83.22,1.33.01.08.02.16.03.23-.12.15-.11.12.03.24-.12.14-.11.11.03.22-.12.15-.11.12.03.24,0,.08.02.15.03.23h0ZM747.74,84.27c.99-1.8.32-6.57-.82-8.32l20.02-8.02c1.34,2.49,1.76,5.91,1.22,8.23l-20.43,8.1h0ZM746.92,73.97l20-8.1.07.52-20,8.1-.07-.52h0ZM746.16,68.07l9.95-4.03c.02.18.04.35.06.52l-9.94,4.02-.07-.52h0ZM759.23,62.78l6.93-2.8.07.52-6.93,2.8c-.02-.17-.05-.34-.07-.52h0ZM746.35,69.55l9.93-4.02c.02.18.04.35.06.52l-9.93,4.02-.07-.52h0ZM759.43,64.24l6.92-2.79.07.52-6.92,2.79c-.02-.17-.04-.34-.07-.52h0ZM746.54,71.02l9.93-4.02c.03.18.05.35.08.51l-9.94,4.02-.07-.52h0ZM759.62,65.72l6.93-2.8.07.52-6.93,2.8c-.02-.17-.04-.34-.06-.52h0ZM746.73,72.5l9.98-4.04c.05.25.1.42.14.49l-10.06,4.07-.07-.52h0ZM759.77,67.21l6.96-2.81.07.52-7.01,2.83c0-.14-.01-.32-.03-.53h0ZM749.2,91.5l20-8.1.07.52-20,8.1-.07-.52h0ZM748.43,85.6l20-8.1.07.52-20,8.1-.07-.52h0ZM748.62,87.08l20-8.1.07.52-20,8.1-.07-.52h0ZM748.81,88.55l20-8.1.07.52-20,8.1-.07-.52h0ZM749.01,90.03l20-8.1.07.52-20,8.1-.07-.52h0ZM746.04,75.52c-1.42-1.48-1.99-6.27-1.33-8.25l-21.41-2.65c-.67,2.75-.19,6.16.92,8.27l21.82,2.63h0ZM748.31,93.05c-1.42-1.48-1.99-6.27-1.33-8.25l-21.41-2.65c-.66,2.75-.19,6.16.92,8.27l21.82,2.63h0ZM745.4,66.56l-21.94-2.73,11.74-4c-.04.79-.16,1.96-.26,3.28,6.27,1,12.01.07,17.91-3.03-.3-.91-.68-2.17-.9-2.96l3.48.55c.11,1.34.28,3.13.44,4.69l-10.47,4.2h0ZM758.22,57.73l7.51.82-6.98,2.67c-.2-1.32-.33-2.33-.53-3.49h0ZM745.7,76.98l-21.41-2.73.07.52,21.41,2.73-.07-.52h0ZM745.89,78.46l-21.41-2.73.07.52,21.41,2.73-.07-.52h0ZM746.08,79.93l-21.41-2.73.07.52,21.41,2.73-.07-.52h0ZM746.28,81.41l-21.41-2.73.07.52,21.41,2.73-.07-.52h0Z"/>
    <path class="cls-2" d="M927.29,285.75c-2.39.82-4.53,1-6.29.71-2.18-2.17-3.72-4.94-4.25-7.69,1.07-2.15,3.42-4.45,7.39-6.5.31-.26.57-.52.85-.8,1.07,1.38,1.92,2.15,1.81,4.06.44-.06.96-.2,1.42-.42,1.73-.81,1.14-1.63.83-2.98-.75-3.26-.25-6.1,2.4-7.72l9.27,19.26c-4.47,1.44-6.95-2.33-8.35-3.91-.72-.69-1.19-.83-2.12-.32-.42.23-.82.57-1.14.92,1.58,1.08,1.55,1.81,1.98,3.6-1.16.3-1.17.88-3.81,1.79h0ZM912.97,277.51c.97-.28,6.85-2.9,7.14-3.24.12-.14-.05-.62-.3-.63-.42-.02-6.2,2.95-7,3.53-.04.02-.08.04-.12.06-.1-.02-.08-.03-.12.06-.09-.03-.08-.03-.11.05-.1-.02-.09-.03-.12.06-.04.02-.08.04-.12.06-.32-.06-.43.07-.69.34-.24.26-.36.28-.61.33-.6-.53-1.76-1.49-2.28-1.94l4,10.22,8.18,7.49c-1.41-2.51-3.02-5.45-3.31-6.32,1.06-.41,1.56-.52,3.12-.91-2.25-2.31-4.05-5.65-4.23-7.74-.95.7-1.68,1.18-2.58,1.74-.7-.62-1.68-1.47-2.66-2.33.17-.16.29-.16.56-.19.33-.05.48-.03.66-.34.04-.02.08-.04.12-.06.1.03.08.04.12-.06.09.04.08.04.11-.05.1.03.08.04.12-.06.04-.02.08-.04.12-.06h0ZM918.15,278.65c2.2-.13,3.04,2.35,2.22,3.47,1.3-.32,2.93,2.07.93,3.06,5.39.28,5.83-4.66,8.68-6.24.76-.42,1.61-.55,2.34,0,1.42-2.08-.15-4.69-2.33-5.43.14,1.03-.68,1.73-1.52,2.13-3.2,1.5-7.42-1.42-10.32,3.03h0Z"/>
    <path class="cls-2" d="M342.25,288.53c1.59,1.48,3.18,2.96,4.76,4.44.02-.15,13.59,1.03,14.89,1.13,1.92,1.79,3.83,3.57,5.75,5.36.69,4.88,1.39,9.75,2.08,14.63-.1.02,3.38,3.21,3.9,3.7-7.47,8.01-14.93,16.01-22.39,24.02-.97-.91-1.7-1.59-2.68-2.5,3.58,1.06,8.04-3.92,8.08-7.83,4.19-4.49,8.44-9.06,12.63-13.55-8.93-8.33-17.87-16.66-26.8-24.98-5.86,6.29-11.72,12.57-17.58,18.86,5.49,5.12,10.73,10.01,16.22,15.12-.78,1.35-1.2,2.81-1.27,4.24-6.74-6.29-13.24-12.34-19.98-18.63,7.47-8.01,14.93-16.01,22.39-24.02h0ZM359.04,316.5l-14.48-13.5-1.35,1.45,14.48,13.5,1.35-1.45h0ZM355.29,320.52l-14.48-13.5-1.35,1.45,14.48,13.5,1.35-1.45h0ZM348.89,294.72c6.3,5.87,12.6,11.75,18.9,17.62-.62-3.99-1.24-7.97-1.86-11.96-1.65-1.54-3.3-3.08-4.95-4.61-4.03-.35-8.06-.7-12.09-1.05h0ZM361.87,299.99c1.1,1.03-.52,2.77-1.63,1.74-1.1-1.03.52-2.77,1.63-1.74h0ZM346.2,337.21l-3.54,3.79-1.29-2.57-2.84-1.28c.78-.84,2.81-3.02,3.59-3.85-.84-2.41,0-4.56,1.34-6.01,2.03-2.18,4.59-2.34,6.66-1.39l.07.06.02-.02c3.3,1.58,5.34,5.98,2.03,9.53-1.62,1.74-3.92,2.4-6.05,1.72h0ZM349.84,329.27c1.19,1.11,1.27,2.97.18,4.15-1.1,1.18-2.95,1.23-4.15.11-1.19-1.11-1.27-2.97-.18-4.15,1.1-1.18,2.96-1.23,4.15-.11h0ZM355.66,328.43c-1.2-2.11-2.98-3.78-4.96-4.68l-13.65-12.72-1.35,1.45,11.33,10.57c-1.49.1-2.96.71-4.26,1.95-4.76-4.44-9.39-8.76-14.15-13.19,4.82-5.17,9.63-10.33,14.45-15.5,7.6,7.08,15.2,14.17,22.79,21.25-3.06,3.29-7.15,7.59-10.21,10.87h0Z"/>
    <path class="cls-2" d="M563.17,178.64l-7.12-12.3,8.12-4.7,7.12,12.31-8.12,4.7h0ZM569.03,173.83l-2.27-1.03.12,1.5-2.34-2.56,3.43-.48-1.04,1.08,2.4.62c.41.1-.05.99-.29.87h0ZM557.49,166.77l3.36,5.8.4-.23-3.36-5.8-.4.23h0ZM559.71,165.49l3.36,5.8.4-.23-3.36-5.8-.4.23h0ZM558.6,166.13l3.36,5.8.4-.23-3.36-5.8-.4.23h0ZM565.11,158.56c.15.25.06.57-.19.72-.25.15-.57.06-.72-.19-.15-.25-.06-.57.19-.72.25-.15.57-.06.72.19h0ZM571.79,170.46l-.51-.87-.19.11.5.87.19-.11h0ZM573.12,172.76l-.5-.87-.19.11.5.87.19-.11h0ZM572.46,171.61l-.5-.87-.19.11.5.87.19-.11h0ZM570.65,169.02l-2.58-4.46.26-.15,2.58,4.46-.26.15h0ZM562.85,180.35l-8.45-14.6,9.68-5.6-.69-1.19c-.33-.56-.13-1.29.43-1.62h0c.56-.33,1.29-.13,1.62.43l9.78,16.9c.33.56.13,1.29-.43,1.62h0c-.56.33-1.29.13-1.62-.43l-.64-1.11-9.68,5.6h0Z"/>
    <path class="cls-2" d="M540.47,460.44l21.45-39.44,28.35,15.42-1.73,3.18c-2.99-1.75-5.19-2.72-7.04-.67l-19.48-10.6-16.83,30.95,21.5,11.69,9.66-17.77c1.01.75,2.57,1.4,4.04,1.39l-11.57,21.27-28.35-15.42h0ZM561.29,442.57l-8.9,16.36,1.63.89,8.9-16.36-1.63-.89h0ZM570.37,447.51l-8.9,16.36,1.63.89,8.9-16.36-1.63-.89h0ZM565.83,445.04l-8.9,16.36,1.63.89,8.9-16.36-1.63-.89h0ZM580.65,434.75c-.44.8-1.44,1.1-2.25.66-.8-.44-1.1-1.44-.66-2.25.44-.8,1.44-1.1,2.25-.66.8.44,1.1,1.44.66,2.25h0ZM569.94,428.92c-.44.8-1.44,1.1-2.25.66-.8-.44-1.1-1.44-.66-2.25.44-.8,1.44-1.1,2.25-.66.8.44,1.1,1.44.66,2.25h0ZM575.29,431.83c-.44.8-1.44,1.1-2.25.66-.8-.44-1.1-1.44-.66-2.25.44-.8,1.44-1.1,2.25-.66.8.44,1.1,1.44.66,2.25h0ZM591.77,446.64c-1.02,1.88-2.05,3.77-3.07,5.65-.34-.19-.68-.37-1.03-.56-2.72,1.88-7.17,1.7-10.33.06-.98-.5-.23-2.27.68-2.07,1.01.37,1.89.73,3.17.7-3.18-1.73-6.32-3.53-9.54-5.19-1.88-.96-.05-4.21,1.86-3.22,1.79.92,3.59,1.85,5.38,2.77,1.29-2.43,2.8-5.06,5.19-4.79,1.4.16,4.13,1.81,6.04,2.91.5,1.12-.07,2.96,1.65,3.74h0Z"/>
    <path class="cls-2" d="M768.97,409.1c-1.58-5.84-7.68-9.34-13.52-7.76-5.84,1.58-9.34,7.68-7.76,13.52,1.58,5.84,7.68,9.34,13.52,7.76,5.84-1.58,9.34-7.68,7.76-13.52h0ZM769.24,419.73c-4.58,6.51-13.92,7.47-19.74,2l.82-1.17c5.17,5.03,13.62,4.23,17.75-1.65,4.14-5.88,2.03-14.1-4.44-17.27l.82-1.17c1.67.85,3.07,2.01,4.18,3.36l1.09-.82c-1.31-2.22-1.35-4.69-.08-6.03l7,9.28c-1.64.85-4.01.13-5.78-1.74l-1.14.86c2.58,4.29,2.62,9.92-.49,14.35h0ZM751.09,418.79c-1.39-1.48-2.28-3.34-2.58-5.3l3.05,1.75c-.24,1.13-.4,2.31-.46,3.55h0ZM754.79,421.27c-.48-.18-.95-.41-1.41-.67-.46-.26-.89-.56-1.29-.88.01-1.38.15-2.69.41-3.93l5.47,3.14c-.94.85-2,1.63-3.18,2.34h0ZM761.98,421.23c-1.85.73-3.9.9-5.88.44,1.03-.68,1.98-1.41,2.83-2.19l3.05,1.75h0ZM751.88,413.94l-3.49-2c0-1.47.33-2.95,1.02-4.34l4.11,2.36c-.69,1.25-1.23,2.58-1.64,3.99h0ZM758.94,418l-6.11-3.51c.4-1.41.97-2.73,1.67-3.97l7.02,4.03c-.71,1.23-1.57,2.39-2.58,3.45h0ZM766.61,417.47c-.86,1.29-1.97,2.33-3.23,3.07l-3.49-2c1.01-1.06,1.88-2.2,2.62-3.43l4.11,2.36h0ZM754.17,408.85l-4.13-2.37c.86-1.29,1.97-2.33,3.23-3.07l3.6,2.06c-1.04,1.05-1.94,2.17-2.71,3.37h0ZM762.12,413.41l-6.95-3.99c.79-1.19,1.73-2.29,2.78-3.33l5.63,3.23c-.36,1.44-.84,2.8-1.47,4.08h0ZM768.27,412.02c0,1.47-.33,2.95-1.02,4.34l-4.13-2.37c.65-1.27,1.16-2.62,1.54-4.04l3.6,2.07h0ZM757.85,404.55l-3.17-1.82c1.89-.74,3.99-.91,6.01-.41-1.02.7-1.97,1.44-2.84,2.23h0ZM765.47,405.06c1.45,1.5,2.37,3.4,2.68,5.4l-3.17-1.82c.24-1.15.4-2.34.49-3.58h0ZM763.28,403.35c.38.22.75.46,1.09.72-.08,1.36-.24,2.67-.48,3.93l-4.93-2.83c.97-.85,2.02-1.65,3.15-2.4.4.16.79.36,1.17.58h0Z"/>
    <path class="cls-2" d="M879.35,528.46c10.14,4.07,21.81-.91,25.88-11.05,4.07-10.14-.91-21.81-11.05-25.88-10.14-4.07-21.81.91-25.88,11.05-4.07,10.14.91,21.81,11.05,25.88h0ZM863.74,517.3c-4.4-13.68,4.37-28.19,18.58-30.62l.79,2.46c-12.86,1.99-20.9,15.03-16.93,27.38,3.98,12.35,18.11,18.26,29.72,12.37l.79,2.46c-3.04,1.48-6.23,2.25-9.39,2.38v2.46c4.61.53,8.22,3.15,8.79,6.44h-20.99c.57-3.29,4.18-5.91,8.79-6.44v-2.58c-8.99-.95-17.15-7.01-20.15-16.3h0ZM884.82,492.15c3.65-.4,7.29.34,10.45,2.04l-5.83,2.49c-1.37-1.58-2.9-3.09-4.61-4.53h0ZM877.22,494.8c.78-.49,1.62-.93,2.5-1.3.88-.38,1.77-.68,2.67-.9,1.97,1.52,3.71,3.15,5.22,4.87l-10.48,4.47c-.2-2.28-.18-4.66.09-7.14h0ZM869.47,505.2c.96-3.45,2.94-6.59,5.75-8.95-.15,2.23-.12,4.38.08,6.46l-5.83,2.49h0ZM890.95,498.56l6.68-2.85c2.11,1.6,3.89,3.69,5.15,6.19l-7.86,3.36c-1.05-2.35-2.37-4.58-3.97-6.69h0ZM877.43,504.33l11.7-5c1.59,2.12,2.88,4.36,3.9,6.72l-13.44,5.74c-1.01-2.37-1.74-4.85-2.16-7.47h0ZM869.83,515.96c-.93-2.64-1.21-5.37-.91-8l6.68-2.85c.42,2.61,1.13,5.11,2.09,7.49l-7.87,3.36h0ZM895.8,507.41l7.9-3.37c.93,2.64,1.21,5.37.91,8l-6.89,2.94c-.39-2.63-1.02-5.16-1.92-7.57h0ZM880.57,513.91l13.29-5.68c.85,2.43,1.43,4.98,1.77,7.63l-10.78,4.6c-1.68-2.08-3.11-4.26-4.29-6.56h0ZM875.9,524.29c-2.11-1.6-3.89-3.69-5.15-6.19l7.9-3.37c1.13,2.31,2.51,4.52,4.14,6.62l-6.89,2.94h0ZM897.99,517.39l6.07-2.59c-.98,3.53-3.03,6.74-5.95,9.12.11-2.24.07-4.41-.12-6.52h0ZM888.96,527.82c-3.73.46-7.47-.28-10.7-2.01l6.07-2.59c1.4,1.59,2.94,3.13,4.63,4.6h0ZM893.81,526.51c-.73.31-1.48.57-2.22.78-1.87-1.59-3.59-3.25-5.15-4.97l9.44-4.03c.17,2.32.17,4.71.03,7.16-.67.4-1.37.75-2.1,1.06h0Z"/>
    <path class="cls-2" d="M1105.5,690.35l-6.88,11.27,7.52,4.59.59-.98,3.69,14.56-14.56,3.69.89-1.49-7.69-4.69-6.97,11.42-7.76-4.73-2.77,4.54-14.94-9.11c9.71-15.91,19.42-31.82,29.13-47.73l14.93,9.11-2.95,4.83,7.76,4.73h0ZM1095.11,713.17l2.99-.76c.02-.13.07-.26.14-.38.3-.49.94-.64,1.42-.35.31.19.48.51.5.85l2.53,1.54c.64.39.05,1.37-.59.97l-2.53-1.54c-.3.14-.67.13-.98-.05-.11-.07-.21-.15-.28-.25l-2.99.76c-.52.13-.72-.66-.2-.79h0ZM1101.52,709.4l-.4.66c-.27.45-.95.03-.68-.42l.4-.66c.27-.45.95-.03.68.42h0ZM1097.81,715.49l-.4.66c-.28.45-.96.03-.68-.42l.4-.66c.27-.45.95-.03.68.42h0ZM1095.95,710.17l.66.4c.45.28.04.96-.42.68l-.66-.4c-.45-.28-.03-.96.42-.68h0ZM1065.08,718.86c-.15.24-.07.55.17.7.24.15.55.07.7-.17.15-.24.07-.55-.17-.7-.24-.15-.55-.07-.7.17h0ZM1068.23,709.85l5.42,3.31,6.43-10.54-5.42-3.31-6.43,10.54h0ZM1076.12,696.93l5.6,3.42,6.43-10.54-5.6-3.42-6.43,10.54h0ZM1103.43,715.23c-1.59,2.6-4.47,2.88-6.58,1.72-2.25-1.24-3.61-4.11-1.92-6.9,1.63-2.68,4.64-2.88,6.76-1.61,2.14,1.29,3.39,4.08,1.73,6.79h0ZM1099.04,690.81l-2.68,4.39-5.01-3.06,2.68-4.39,5.02,3.06h0ZM1082.36,718.15l-2.68,4.39-5.01-3.06,2.68-4.39,5.02,3.06h0ZM1087.92,709.03l-2.68,4.39-5.02-3.06,2.68-4.39,5.02,3.06h0ZM1093.48,699.92l-2.68,4.39-5.02-3.06,2.68-4.39,5.01,3.06h0ZM1073.5,717.36l-3.55,5.82-9.55-5.83,3.55-5.82,9.55,5.83h0ZM1092.92,681.87l-3.13,5.12-5.54-3.38,3.13-5.13,5.54,3.38h0Z"/>
    <path class="cls-2" d="M921.95,381.03l-1.82.03-.92-1.27.62-1.67,2.11,2.91h0ZM924.63,384.66h-13.3c-1.9,0-3.45-1.55-3.45-3.45v-1.76h-1.27c-.36,0-.33-.9-.02-.9h1.29v-1.99h-1.27c-.36,0-.33-.9-.02-.9h1.29v-2h-1.27c-.36,0-.33-.9-.02-.9h1.29v-2h-1.27c-.36,0-.33-.9-.02-.9h1.29v-2h-1.27c-.36,0-.33-.9-.02-.9h1.29v-1.76c0-1.9,1.55-3.45,3.45-3.45h13.3c1.9,0,3.45,1.55,3.45,3.45v4.84l-1.44,1.05v-5.89c0-1.1-.9-2-2.01-2h-13.3c-1.1,0-2.01.9-2.01,2v1.76h.42c.15-.23.41-.38.7-.38.46,0,.83.37.83.83s-.37.83-.83.83c-.3,0-.55-.15-.7-.38h-.42v2h.42c.15-.23.41-.38.7-.38.46,0,.83.37.83.83s-.37.83-.83.83c-.3,0-.55-.15-.7-.38h-.42v2h.42c.15-.23.41-.38.7-.38.46,0,.83.37.83.83s-.37.83-.83.83c-.3,0-.55-.15-.7-.38h-.42v2h.42c.15-.23.41-.38.7-.38.46,0,.83.37.83.83s-.37.83-.83.83c-.3,0-.55-.15-.7-.38h-.42v1.99h.42c.15-.23.41-.38.7-.38.46,0,.83.37.83.83s-.37.83-.83.83c-.3,0-.55-.15-.7-.38h-.42v1.76c0,1.1.9,2.01,2.01,2.01h13.3c1.1,0,2.01-.9,2.01-2.01v-1.49l1.44-1.04v2.54c0,1.9-1.55,3.45-3.45,3.45h0ZM912.28,368.8c-.28,0-.27-.42,0-.42.65,0,.87-.2,1.53-.84.1-.1.23-.2.37-.06.06.06.07.16.04.23-.44,1.03-.67,2.51-.58,3.63,0,.12-.08.22-.19.23-.12,0-.22-.08-.23-.19-.08-.99.07-2.07.34-3.03-.4.33-.69.46-1.28.45h0ZM915.39,368.81c-.05-.27.36-.35.41-.08.02.09.04.26.05.45.19-.02.35-.04.43-.05.36-.05.4.37.06.42-.08.01-.25.03-.45.06.02.21.03.38.04.42.05.27-.36.35-.41.08-.01-.07-.03-.25-.05-.46-.2.02-.38.02-.5.01-.28-.02-.24-.44.03-.42.1,0,.26,0,.43-.01-.02-.18-.03-.33-.05-.42h0ZM917.25,368.27c-.07.27-.48.15-.41-.11.11-.37.41-.68.75-.85.77-.39,1.73-.15,1.75.82.01.46-.19.99-.55,1.28-.34.28-.6.65-.79,1.04.28-.14.61-.19.89-.03.08.04.17.12.25.14.01,0,.02-.01.05-.07.09-.26.49-.13.4.14-.13.38-.35.41-.58.33-.12-.04-.21-.11-.32-.17-.32-.17-.82.18-1,.43-.15.17-.42.02-.36-.2.22-.73.6-1.45,1.2-1.94.26-.21.4-.62.4-.95-.01-.65-.64-.71-1.14-.46-.23.12-.46.33-.54.59h0ZM920.24,369c-.28,0-.29-.41-.01-.42.4-.01.8-.1,1.2-.12.28-.01.3.4.02.42-.4.02-.81.11-1.21.12h0ZM920.27,369.67c-.27-.04-.22-.45.06-.42.29.04.8-.09,1.14-.11.28-.01.3.4.02.42-.38.02-.85.15-1.21.1h0ZM922.31,367.64c-.03.28-.45.22-.42-.05.04-.35.22-.65.45-.85.4-.36.99-.4,1.24.14.25.56.1,1.16-.26,1.63.69.03,1.06.64,1.01,1.28-.06.74-.62,1.26-1.36,1.15-.42-.06-.91-.33-.84-.81.04-.27.46-.21.42.06-.03.21.33.31.48.33.5.08.84-.27.88-.76.04-.56-.27-.89-.85-.81-.45.07-.39-.31-.15-.6.3-.36.49-.84.28-1.29-.12-.27-.4-.15-.57,0-.15.14-.28.34-.31.58h0ZM922.31,381.5l-4.31.14,1.5-4.01,12.47-9.03,2.8,3.86-12.47,9.03h0Z"/>
    <path class="cls-2" d="M376.28,646.72l-5.52-13.21,26.62-16.4,1.74,4.15,8.69-5.38,5.82.18.08,2.07-1.84,4.32-9.03,5.59,8.26-2,4.37,1.73,1.42,1.52-3.97,4.27-7.88,1.9,1.61,3.85-30.37,7.41h0ZM399.5,622.18l2.25,5.4,8.76-5.42-3.01-4.93-8.01,4.96h0ZM402.41,629.15l2.25,5.4,7.09-1.71-1.39-5.6-7.95,1.92h0ZM377.88,642.48l-.99-2.38,24.16-5.69.99,2.38-24.16,5.69h0Z"/>
    <path class="cls-2" d="M1270.63,304.54l-6.39-9.77,1.65-1.08,3.84,5.87.88-.57-3.84-5.87,1.66-1.09,2.19,3.35.57-.38-2.19-3.35,1.64-1.07,3.84,5.87.88-.57-3.84-5.87,1.66-1.09,2.19,3.35.57-.38-2.19-3.35,1.64-1.07,3.84,5.87.87-.57-3.84-5.87,1.66-1.09,2.19,3.35.57-.38-2.19-3.35,1.33-.87,6.39,9.76-15.59,10.2h0ZM1274.01,273.16h0v-.02s0,.01,0,.02h0ZM1271.87,258.25l3.09,1.81-2.67,1.75-.42-3.56h0ZM1306.26,299.12c1.34,2.04,4.46,5.01-1.46,8.89-6.32,4.14-7.74.35-9.21-1.9-1.07-1.63,9.6-8.62,10.67-6.99h0ZM1274.64,273.91c.9-.97,1.33-1.36,2.34-2.03,2.22-1.47,4.85-.19,5.06-.32.25-.16-.3-2.31,3.06-4.51.11.05.2.08.24.14l19.99,30.52c-1.77-.44-10.01,4.67-10.67,6.99l-20-30.54s-.02-.16-.01-.25h0ZM1274.82,260.5l3.75,2.15,6.01,3.45s-.07-.03-.12-.05c-3.37,2.21-2.82,4.35-3.06,4.51-.21.13-2.84-1.15-5.06.32-1.01.67-1.44,1.05-2.34,2.03,0,.04,0,.08,0,.12l-.76-6.89-.47-4.3.1.81,2.67-1.75-.71-.41h0ZM1284.65,266.15h.02s.02.04.02.04c-.01-.02-.03-.03-.04-.04h0ZM1292.93,276l.73-.48,2.19,3.35.57-.38-2.19-3.35,1.64-1.07,3.84,5.87.87-.57-3.84-5.87,1.66-1.09,2.19,3.35.57-.38-2.19-3.35,1.64-1.07,3.84,5.87.87-.57-3.84-5.87,1.66-1.09,2.19,3.35.57-.38-2.19-3.35,6.13-4.01,6.39,9.76-16.93,11.08-6.39-9.76h0ZM1309.32,272.25c-.38-.58-.22-1.36.37-1.74.58-.38,1.36-.22,1.74.36.38.58.22,1.36-.37,1.74-.58.38-1.36.22-1.74-.36h0Z"/>
    <path class="cls-2" d="M51.72,395.26l-1.4-11.4,1.93-.24.84,6.85,1.02-.12-.84-6.86,1.94-.24.48,3.91.67-.08-.48-3.91,1.91-.24.84,6.86,1.02-.12-.84-6.86,1.94-.24.48,3.91.67-.08-.48-3.91,1.91-.24.84,6.86,1.02-.13-.84-6.85,1.94-.24.48,3.91.67-.08-.48-3.91,1.55-.19,1.4,11.4-18.2,2.24h0ZM68.33,369.02h0s0-.02,0-.02c0,0,0,.01,0,.02h0ZM72.92,354.93l1.94,2.94-3.12.39,1.17-3.32h0ZM85.53,405.95c.29,2.38,1.77,6.36-5.15,7.22-7.38.91-6.98-3.05-7.31-5.68-.23-1.9,12.22-3.44,12.46-1.54h0ZM68.57,369.96c1.22-.47,1.76-.62,2.95-.77,2.6-.34,4.36,1.94,4.61,1.91.29-.03.73-2.17,4.66-2.65.08.09.14.15.15.23l4.39,35.63c-1.37-1.16-10.87-.22-12.46,1.54l-4.39-35.66s.05-.15.09-.22h0ZM74.55,358.2l2.37,3.53,3.81,5.65s-.05-.06-.08-.1c-3.93.49-4.38,2.62-4.67,2.65-.24.03-2-2.25-4.61-1.91-1.18.15-1.73.31-2.94.77-.02.03-.04.07-.06.1l2.32-6.41,1.45-4-.27.76,3.12-.39-.44-.67h0ZM80.77,367.45v.02s.02.04.02.04c0-.02,0-.04-.02-.06h0ZM83.81,379.75l.85-.1.48,3.91.67-.08-.48-3.91,1.91-.24.84,6.86,1.02-.13-.84-6.85,1.94-.24.48,3.91.67-.08-.48-3.91,1.91-.23.84,6.86,1.02-.13-.84-6.86,1.94-.24.48,3.91.67-.08-.48-3.91,7.15-.88,1.4,11.4-19.76,2.43-1.4-11.4h0ZM99.91,383.56c-.08-.68.4-1.3,1.08-1.38.68-.08,1.3.4,1.38,1.08.08.68-.4,1.3-1.08,1.38-.68.08-1.3-.4-1.38-1.08h0Z"/>
    <path class="cls-2" d="M525.79,524.63c.85-4.35,1.88-8.73,3.09-13.16,8.76.73,17.53,1.45,26.29,2.18-1.23,4.14-2.28,8.31-3.16,12.5-3.48-2.53-7.68-4.16-12.28-4.54-5.03-.42-9.84.73-13.93,3.02h0ZM524.53,530.62c-8.44,7.15-9.5,19.94-2.35,28.37,7.15,8.44,19.94,9.5,28.37,2.35,8.44-7.14,9.5-19.94,2.35-28.37-7.15-8.44-19.94-9.5-28.37-2.35h0ZM522.47,528.19c9.77-8.28,24.58-7.05,32.86,2.72,8.28,9.77,7.05,24.58-2.72,32.86-9.77,8.28-24.58,7.05-32.86-2.72-8.28-9.77-7.05-24.58,2.72-32.86h0ZM580.77,549.47c1.07-15.78,6.5-32.43,9.6-32.17,3.1.26,5.44,15.33,3.94,33.41-1.5,18.08-6.26,32.33-9.36,32.07-3.1-.26-5.25-17.54-4.18-33.31h0ZM538.81,527.51c7.29.7,13.48,5.17,15.3,10.44-3.87,1.81-7.74,3.61-11.62,5.42-1.25-1.91-2.79-2.77-4.74-3.17h0c.35-4.23.7-8.46,1.05-12.69h0ZM533.64,545.64c.17-2.01,1.93-3.5,3.94-3.33,2.01.17,3.5,1.93,3.34,3.94-.17,2.01-1.93,3.5-3.94,3.33-2.01-.17-3.5-1.93-3.34-3.94h0ZM535.78,564.17c6.6.84,14.03-2.22,16.83-7.99h0c-3.52-2.42-7.05-4.84-10.57-7.25-.8,1.93-3.43,2.97-5.21,2.56l-1.05,12.69h0ZM522.19,535.52c-3.94,4.68-4.79,13.87-1.51,18.23,3.88-1.88,7.76-3.75,11.63-5.63-1.07-1.23-.77-4.49.46-5.56h0c-3.53-2.35-7.06-4.69-10.59-7.04h0ZM553.11,580.9c-.48-5.12-.78-10.25-.88-15.4,5.43-4.03,9.17-10.3,9.77-17.57.6-7.3-2.07-14.11-6.79-18.99.92-4.95,2.06-9.95,3.44-15.01,8.76.73,17.53,1.45,26.29,2.18-8.71,23.16-10.3,45.67-5.54,66.96-8.76-.73-17.53-1.45-26.29-2.18h0ZM493.55,575.96c-3.77-18-1.85-47.87,5.54-66.96,8.76.72,17.53,1.45,26.29,2.18-1.63,5.49-2.95,11.02-3.97,16.59-4.47,4.01-7.48,9.68-8.01,16.13-.54,6.49,1.52,12.6,5.31,17.3.1,5.66.49,11.32,1.13,16.94-8.76-.73-17.53-1.45-26.29-2.18h0ZM523.33,578.43c-.42-4.47-.7-8.95-.83-13.45,3.65,2.92,8.18,4.82,13.19,5.23,4.62.38,9.05-.55,12.92-2.49.18,4.31.52,8.6,1.01,12.88-8.76-.72-17.53-1.45-26.29-2.18h0Z"/>
    <path class="cls-1" d="M308.83,610.05l-9.87-15.89c-1.76,1.71-6.79,1.66-8.58,0-3.08,5.3-6.16,10.59-9.24,15.89,8.53,4.64,19.17,4.64,27.69,0h0ZM269.49,611.42c-14.01-13.3-14.01-35.14,0-48.45,14.01-13.31,37-13.31,51.01,0,14.01,13.3,14.01,35.14,0,48.45-14.01,13.31-37,13.31-51.01,0h0ZM294.99,592.54c-3.1,0-5.62-2.39-5.62-5.33s2.52-5.34,5.62-5.34,5.62,2.39,5.62,5.34-2.51,5.33-5.62,5.33h0ZM272.97,608.12c12.1,11.49,31.95,11.49,44.04,0,12.1-11.49,12.1-30.35,0-41.83s-31.95-11.49-44.04,0c-12.1,11.49-12.1,30.35,0,41.83h0ZM308.44,564.14l-9.48,15.76c3.06.93,5,4.63,4.58,7.29h19.17c0-9.62-5.43-18.42-14.27-23.05h0ZM281.06,564.4l9.32,15.5c-2.77,2.05-3.9,4.4-4.26,7.29h-18.84c0-9.43,5.22-18.08,13.78-22.78h0Z"/>
    <path class="cls-1" d="M1134.17,553.65c-9.76-9.76-9.76-25.77,0-35.53,9.76-9.76,25.77-9.76,35.53,0,9.76,9.76,9.76,25.77,0,35.53-9.76,9.76-25.77,9.76-35.53,0h0ZM1136.59,551.23c8.42,8.42,22.25,8.42,30.68,0s8.42-22.25,0-30.68-22.25-8.42-30.68,0c-8.42,8.42-8.42,22.25,0,30.68h0ZM1158.38,550.41c.2-.73.59-1.37,1.16-1.92,1.67-1.4,2.85-2.47,4.34-6.29.55-1.53,1.34-2.75,2.33-3.45.87-.62,1.62-1.4,1.57-1.95-.16-1.63-2.67-1.37-3.9-1.14-1.7.47-3.73,2.06-4.33,3.58.1-2.29.1-3.69.16-7.16,0-2.94.1-6.8-.03-9.75-.12-2.78-4.22-2.55-4.35-.1-.14,2.68-.26,6.72-.35,9.94-.18,0-.43,0-.61,0,.09-3.25.1-8.87-.02-11.75-.1-2.49-3.77-2.43-3.92-.03-.15,2.57-.24,8.35-.3,12.11-.18.02-.36.02-.55.02.03-3.38.01-7.84-.06-10.42-.07-2.5-3.66-2.18-3.78-.07-.12,2.18-.26,7.09-.25,10.78-.22,0-.33,0-.55,0-.04-3.05,0-5.67-.15-8.07.04-1.9-3.33-1.83-3.42.08-.19.92-.09,4.66-.2,8.82-.3,11.81,2.22,13.46,2.87,16.61.79,3.85,13.28,3.99,14.32.16h0Z"/>
    <path class="cls-2" d="M584.11,82.05c-3-3.23-4.38-7.85-3.26-12.46,1.77-7.28,9.11-11.75,16.39-9.98,6.9,1.68,11.27,8.35,10.21,15.25,1.59-.32,3.31-.29,5.13.15,7.28,1.77,11.75,9.11,9.98,16.39-1.77,7.28-9.11,11.75-16.39,9.98-1.82-.44-3.36-1.21-4.62-2.22-2.22,6.61-9.17,10.54-16.07,8.86-7.28-1.77-11.75-9.11-9.98-16.39,1.12-4.6,4.47-8.08,8.62-9.57h0ZM588.92,76.07c3.58-3.44,8.85-4.55,13.51-2.82-.39.97-.95,1.83-1.64,2.57-3.24-.96-6.77-.22-9.35,1.95-.96-.41-1.81-.99-2.53-1.7h0ZM602.31,85.71l-1.51-.37c.05-1.69-1.08-3.24-2.78-3.66-.22-.05-.43-.09-.65-.1l-.43-1.48c3.68-.83,6.76-3.67,7.71-7.58,1.34-5.5-2.04-11.04-7.54-12.38-5.5-1.34-11.04,2.04-12.38,7.54-1.34,5.5,2.04,11.04,7.54,12.38,1.06.26,2.13.34,3.17.26l.43,1.48c-1.09.41-1.96,1.34-2.26,2.55-.29,1.2.05,2.42.81,3.28l-1.07,1.13c-.88-.53-1.85-.95-2.91-1.2-5.5-1.34-11.04,2.04-12.38,7.54-1.34,5.5,2.04,11.04,7.54,12.38,5.5,1.34,11.04-2.04,12.38-7.54.95-3.92-.49-7.87-3.4-10.29l1.06-1.11c.21.09.42.17.65.23,1.71.42,3.43-.44,4.15-1.97l1.51.37c-.9,5.36,2.58,10.4,7.69,11.64,5.5,1.34,11.04-2.04,12.38-7.54,1.34-5.5-2.04-11.04-7.54-12.38-5.14-1.25-10.53,1.68-12.17,6.81h0ZM610.05,80.84c1.87,4.97.48,10.66-3.46,14.21-.74-.66-1.36-1.46-1.82-2.34,2.87-2.7,3.89-6.91,2.59-10.63.81-.57,1.73-.99,2.69-1.24h0ZM596.29,98.28c-4.92-.62-9.08-4.02-10.67-8.72.96-.29,1.99-.41,3.03-.33,1.28,3.11,4.06,5.38,7.37,6.02.27.97.37,1.99.27,3.03h0Z"/>
    <path class="cls-2" d="M69.97,282.93c-2,3.03-5.43,5.02-9.33,5.02-6.16,0-11.15-5.01-11.15-11.17,0-5.84,4.49-10.63,10.21-11.11-.56-1.21-.87-2.59-.87-4.13,0-6.16,5.01-11.15,11.17-11.15,6.16,0,11.15,5,11.15,11.17,0,1.54-.32,2.92-.88,4.13,5.71.49,10.2,5.29,10.19,11.13,0,6.16-5.01,11.16-11.17,11.15-3.9,0-7.33-2.01-9.32-5.03h0ZM64.25,280.24c-3.45-2.19-5.35-6.19-4.87-10.25.85.12,1.65.4,2.37.81-.14,2.78,1.14,5.46,3.37,7.09-.14.85-.44,1.64-.87,2.35h0ZM69.37,267.67v1.28c-1.36.28-2.38,1.49-2.39,2.93,0,.18.02.36.05.54l-1.1.63c-1.37-2.78-4.24-4.69-7.55-4.7-4.65,0-8.43,3.77-8.43,8.42,0,4.65,3.77,8.43,8.42,8.43,4.65,0,8.43-3.77,8.43-8.42,0-.9-.14-1.77-.4-2.58l1.1-.64c.54.79,1.45,1.31,2.48,1.31,1.02,0,1.92-.51,2.46-1.29l1.11.64c-.26.81-.4,1.67-.4,2.56,0,4.65,3.77,8.43,8.42,8.43,4.65,0,8.43-3.77,8.43-8.42,0-4.65-3.77-8.43-8.42-8.43-3.32,0-6.19,1.92-7.57,4.71l-1.09-.63c.03-.18.05-.37.05-.57,0-1.44-1.02-2.65-2.38-2.94v-1.28c4.45-.32,7.81-4.07,7.82-8.4,0-4.65-3.77-8.43-8.42-8.43-4.65,0-8.43,3.77-8.43,8.42,0,4.35,3.38,8.09,7.8,8.41h0ZM63.98,262.43c3.61-2.45,8.42-2.45,12.03.01-.39.72-.9,1.37-1.52,1.91-2.72-1.77-6.28-1.77-9,0-.61-.54-1.13-1.19-1.51-1.91h0ZM80.58,270.05c.46,4.05-1.46,8.03-4.9,10.21-.42-.71-.71-1.51-.85-2.35,2.24-1.63,3.51-4.29,3.39-7.05.72-.41,1.52-.68,2.37-.81h0Z"/>
    <path class="cls-2" d="M740.93,163.05c-2.43.72-4.38-2.28-2.29-4.21-.41-1.2-.78-2.58-1.04-3.83-10.82,6.06-15.39,1.39-8.5-8.73-11.53-3.42-11.04-9.91.62-12.06-5.63-10.49-1.09-14.56,8.71-8.17,3.18-11.59,9.65-10.22,11.99.83.14-.08.29-.15.43-.23,0,0,0,0,0,.01-.08-2.2,2.62-3.35,4.2-1.77,9.77-2.72,7.24,5.44,3.58,10.86,3.99.95,10.22,3.58,7.84,8.3.81,2.36-2.16,4.33-4.02,2.55-1.41.51-2.8.87-4.26,1.16,5.39,9.91,1.44,14.99-8.56,8.33-1.01,3.49-4.31,11.27-8.7,6.96h0ZM757.51,137.33c-1.08,1.43-2.27,2.83-3.45,4.18,1.3,1.74,2.54,3.48,3.63,5.36,1.42-.29,2.81-.66,4.15-1.22-.68-1.91,1.13-3.79,3.06-3.16.54-2.72-5.05-4.66-7.39-5.16h0ZM742.34,161.87c2.55,2.46,5.17-5.05,5.68-6.9-1.58-1.15-3.12-2.36-4.61-3.64-1.6,1.13-3.26,2.19-4.95,3.18.28,1.32.64,2.57,1.14,3.82,2.23-.61,3.83,1.74,2.74,3.53h0ZM751.53,128.37c-.25.13-.51.27-.76.41.29,1.81.45,3.63.58,5.45,2.11.32,4.26.67,6.32,1.24,2.31-3.49,5.27-10.58-1.91-8.83-.03,1.56-1.5,2.72-3.04,2.34-.65-.16-1.19-.61-1.19-.61h0ZM743.47,146.43c-2.78-.13-4.91-2.5-4.78-5.28.13-2.77,2.49-4.92,5.27-4.79,2.78.13,4.91,2.5,4.78,5.28-.14,2.77-2.49,4.92-5.27,4.79h0ZM730.88,136.22c-.08-.12-.15-.25-.23-.38-9.27,1.6-10.78,6.74-1.03,9.71,1.27-1.77,2.69-3.41,4.16-5.02-.06-.08-.17-.24-.24-.34-2.44.96-4.46-2.1-2.66-3.98h0ZM733.05,135.5c2.07.35,2.7,2.91,1.23,4.24.03.05.06.09.1.14.67-.72,1.35-1.44,2.05-2.13.03-.46.07-.93.11-1.39.04-.41.08-.81.13-1.2-1.21.08-2.42.21-3.62.35h0ZM736.89,133.5c.28-1.86.63-3.73,1.06-5.56-7.94-5.31-11.95-2.89-7.24,6.11,2.06-.32,4.1-.46,6.17-.55h0ZM751.46,135.98c.04.77.07,1.55.08,2.32.68.82,1.34,1.66,1.99,2.51,1.04-1.23,2.05-2.47,3.01-3.75-1.67-.44-3.39-.78-5.09-1.08h0ZM749.84,135.72c-.21-.03-.42-.06-.62-.09.22.24.44.49.66.74-.01-.22-.03-.43-.04-.65h0ZM746.68,135.31c-1.63-.17-3.26-.27-4.89-.3-.82.68-1.62,1.37-2.39,2.08-.77.7-1.51,1.43-2.24,2.17-.06,1.47-.05,2.93.01,4.4,1.13,1.42,2.33,2.78,3.6,4.07,1.9.17,3.8.24,5.71.21,1.12-.94,2.2-1.93,3.23-2.96.19-2.03.28-4.05.25-6.09-1.04-1.24-2.14-2.43-3.28-3.58h0ZM739.3,135.03c-.6.02-1.2.04-1.8.07-.07.59-.13,1.18-.18,1.77.65-.63,1.31-1.24,1.98-1.85h0ZM731.42,146.06c1.7.44,3.42.82,5.15,1.12-.09-1.06-.17-2.13-.21-3.2-.55-.69-1.08-1.39-1.6-2.09-1.16,1.34-2.29,2.74-3.34,4.17h0ZM737.44,147.32c.69.11,1.38.2,2.07.28-.78-.82-1.53-1.67-2.25-2.53.05.75.11,1.5.19,2.25h0ZM747.78,147.91c.54-.02,1.07-.05,1.61-.08.07-.52.14-1.05.2-1.57-.59.56-1.19,1.11-1.81,1.65h0ZM751.11,147.71c1.57-.13,3.18-.28,4.73-.51-.89-1.5-1.88-3-2.89-4.43-.51.56-1.02,1.12-1.55,1.67-.07,1.09-.17,2.19-.3,3.27h0ZM756.34,148.07c-1.76.25-3.56.39-5.34.51-.28,2.23-.58,4.47-1.15,6.65,8.45,5.5,10.82.61,6.48-7.16h0ZM749.27,148.68c-.83.04-1.66.07-2.5.09-.87.72-1.76,1.41-2.67,2.08,1.34,1.15,2.73,2.23,4.15,3.27.44-1.77.75-3.63,1.02-5.43h0ZM745.47,148.78c-1.27,0-2.53-.05-3.8-.14.59.57,1.19,1.12,1.8,1.66.68-.49,1.34-1,2-1.52h0ZM740.4,148.52c-.96-.09-1.92-.22-2.87-.36.2,1.82.43,3.7.77,5.49,1.53-.9,3.04-1.86,4.49-2.88-.82-.73-1.62-1.48-2.39-2.26h0ZM736.65,148.02c-1.94-.33-3.84-.75-5.75-1.24-5.67,8.13-2.56,12.4,6.53,7.37-.37-1.99-.59-4.1-.78-6.13h0ZM737.72,133.47c1.14-.04,2.29-.06,3.44-.05.32-.27.65-.54,1-.82.28-.22.57-.45.87-.68-1.4-1.2-2.83-2.4-4.34-3.47-.39,1.66-.71,3.34-.97,5.02h0ZM743.73,133.48c.37.02.74.03,1.12.06-.18-.17-.36-.33-.54-.49-.19.14-.39.29-.58.44h0ZM747.43,133.74c.76.07,1.52.16,2.27.26-.14-1.42-.32-2.85-.54-4.26-1.17.74-2.33,1.51-3.46,2.31.59.55,1.16,1.12,1.73,1.7h0ZM735.33,141.23c.32.45.65.89.98,1.33-.02-.8-.02-1.61,0-2.41-.33.36-.66.72-.99,1.08h0ZM744.42,130.86c1.42-1.05,2.91-2.12,4.4-3.05-1.76-8.73-6.84-11.09-9.64-1.26,1.84,1.27,3.59,2.82,5.24,4.31h0ZM751.48,143.15c.33-.35.65-.71.97-1.08-.3-.4-.59-.8-.9-1.2-.01.76-.04,1.52-.07,2.28h0Z"/>
    <path class="cls-2" d="M826.86,223.01c1.51,2.71-1.55,5.84-4.41,3.86-1.32.81-2.87,1.63-4.29,2.27,10.14,11.28,5.8,17.99-8.13,12.49-.98,14.68-8.85,15.84-14.56,2.5-11.01,9.53-17.08,5.22-12.09-8.19-14.69-.68-14.79-8.76-2.24-14.53-.13-.15-.26-.3-.39-.46,0,0,.01,0,.02,0-2.61.68-4.7-2.23-3.24-4.53-5.87-10.93,4.54-10.1,12-7.19.06-5.02,1.52-13.16,7.8-11.59,2.6-1.6,5.74,1.41,4.12,4.12.99,1.54,1.79,3.1,2.53,4.78,10.37-9.1,17.5-5.75,12.24,7.98,4.44.27,14.61,2.11,10.64,8.51h0ZM791.71,210.14c2,.91,3.99,1.95,5.92,2.99,1.72-2.01,3.47-3.96,5.42-5.77-.73-1.61-1.54-3.18-2.57-4.62-2.09,1.33-4.82-.33-4.59-2.8-3.39.09-4.21,7.28-4.17,10.21h0ZM825.07,221.63c2.26-3.7-7.42-4.81-9.76-4.92-.95,2.2-1.98,4.36-3.1,6.47,1.78,1.61,3.49,3.3,5.13,5.05,1.49-.69,2.89-1.45,4.25-2.39-1.33-2.49,1.05-5.04,3.48-4.22h0ZM782.63,219.67c.23.27.46.53.69.79,2.08-.83,4.21-1.51,6.35-2.16-.18-2.6-.34-5.26-.22-7.87-4.78-1.82-14.05-3.44-10.02,4.66,1.87-.39,3.65,1.07,3.61,3-.02.82-.41,1.58-.41,1.58h0ZM806.34,224.44c.58,3.35-1.67,6.53-5.01,7.12-3.35.58-6.54-1.65-7.13-5-.59-3.35,1.67-6.53,5.01-7.12,3.35-.58,6.54,1.65,7.13,5h0ZM797.55,242.21c-.13.13-.26.25-.39.38,4.41,10.63,10.94,11.06,11.86-1.38-2.45-1.04-4.8-2.3-7.11-3.61-.08.09-.24.26-.34.37,1.81,2.65-1.31,5.89-4.03,4.24h0ZM796.1,239.81c-.14-2.57,2.75-4.01,4.73-2.6.05-.05.1-.1.14-.15-1.04-.61-2.08-1.23-3.1-1.88-.56.09-1.13.17-1.69.24-.5.06-.99.12-1.47.17.43,1.42.89,2.83,1.39,4.22h0ZM792.69,235.77c-2.3.17-4.62.25-6.92.23-4.2,10.9-.24,15.04,9.24,6.99-.94-2.37-1.65-4.77-2.31-7.22h0ZM791.73,217.71c.91-.26,1.83-.5,2.75-.73.8-1.03,1.62-2.05,2.46-3.05-1.74-.91-3.5-1.78-5.29-2.59-.08,2.11-.02,4.25.08,6.36h0ZM791.84,219.72c.02.26.04.51.06.77.23-.33.47-.66.7-.99-.25.07-.51.15-.76.22h0ZM792.21,223.59c.24,1.99.56,3.96.96,5.92,1.03.8,2.07,1.56,3.12,2.29,1.04.72,2.11,1.42,3.2,2.09,1.77-.33,3.51-.73,5.25-1.2,1.39-1.73,2.69-3.52,3.89-5.39-.3-2.31-.74-4.6-1.29-6.87-1.42-1.08-2.9-2.1-4.4-3.06-2.47.32-4.91.76-7.33,1.34-1.2,1.58-2.33,3.21-3.39,4.88h0ZM793.86,232.49c.18.71.37,1.42.57,2.12.72-.07,1.44-.16,2.16-.26-.92-.61-1.84-1.23-2.74-1.87h0ZM809.14,238.92c.07-2.15.06-4.3-.05-6.45-1.24.4-2.5.77-3.76,1.11-.67.84-1.36,1.66-2.07,2.48,1.91,1.02,3.88,1.99,5.87,2.86h0ZM809.03,231.4c-.06-.85-.13-1.7-.22-2.55-.77,1.15-1.58,2.27-2.42,3.37.88-.26,1.76-.54,2.63-.83h0ZM806.95,218.9c-.17-.64-.34-1.27-.53-1.9-.64.06-1.29.12-1.93.19.83.55,1.65,1.12,2.46,1.71h0ZM805.81,214.98c-.58-1.84-1.19-3.71-1.88-5.51-1.55,1.47-3.08,3.05-4.51,4.64.81.45,1.61.92,2.4,1.4,1.32-.21,2.65-.38,3.99-.53h0ZM804.83,208.63c.77,2.04,1.42,4.15,2.04,6.23,2.74-.27,5.49-.51,8.24-.42,4.29-11.56-2.18-13.08-10.28-5.81h0ZM807.47,216.92c.27.98.53,1.97.77,2.96,1.09.84,2.16,1.72,3.19,2.63,1.01-1.91,1.93-3.85,2.78-5.83-2.23-.05-4.54.08-6.75.25h0ZM808.6,221.42c.33,1.51.62,3.04.85,4.57.52-.85,1.02-1.72,1.5-2.59-.77-.68-1.55-1.34-2.35-1.98h0ZM809.66,227.54c.15,1.17.26,2.35.34,3.53,2.12-.73,4.3-1.51,6.35-2.4-1.48-1.59-3.03-3.13-4.64-4.59-.65,1.17-1.33,2.33-2.05,3.46h0ZM810.07,232.15c.13,2.4.13,4.79.06,7.19,11.22,4.58,15.48-.28,7.04-9.77-2.28.98-4.74,1.81-7.1,2.58h0ZM792.42,234.78c-.36-1.36-.69-2.72-.98-4.09-.4-.31-.82-.64-1.25-.98-.34-.27-.69-.56-1.05-.85-1.06,1.99-2.11,4.03-2.97,6.11,2.08.01,4.18-.05,6.25-.2h0ZM790.82,227.61c-.08-.45-.16-.9-.23-1.35-.15.26-.3.51-.44.77.22.19.45.38.67.57h0ZM790.14,223.13c-.12-.93-.22-1.85-.3-2.78-1.66.55-3.31,1.15-4.94,1.79,1.2,1.2,2.43,2.37,3.69,3.51.51-.85,1.02-1.69,1.56-2.52h0ZM802.33,235.55c.45-.51.89-1.02,1.32-1.53-.95.23-1.91.45-2.88.64.51.3,1.03.6,1.56.89h0ZM787.51,227.49c-1.64-1.41-3.31-2.9-4.83-4.43-9.94,4.44-11.39,11.14,1.09,11.84,1.03-2.54,2.4-5.04,3.74-7.41h0ZM800.27,215.76c-.51-.3-1.03-.58-1.54-.87-.4.46-.8.92-1.19,1.39.91-.19,1.82-.37,2.74-.53h0Z"/>
    <path class="cls-2" d="M1005.89,607.21c2.95,7.19-.49,15.41-7.68,18.35-7.19,2.95-15.41-.49-18.35-7.68-2.95-7.19.49-15.41,7.68-18.35,7.19-2.95,15.41.49,18.35,7.68h0ZM967.38,617.8l-3.53-8.61c-4.03,2.01-.98,9.9,3.53,8.61h0ZM973.69,594.8l19.11-7.83c-5.35-6.01-17.21-2.87-19.11,7.83h0ZM960.22,600.33l6.38-2.61c5.06-24.42,25.26-22.76,33.13-13.58l7.21-2.96,17.79,43.4c-15.57,6.38-31.14,12.77-46.71,19.15l-1.01-2.46-2,.82,1,2.44-3.95,1.62-4.84-11.81,3.95-1.62,1.08,2.63,2-.82-4.67-11.4c-10.43,2.58-17.14-13.81-7.89-19.24l-1.46-3.57h0ZM987.21,619.9c2.62,2.03,6.11,2.49,9.2,1.23-.8-1.95-1.6-3.9-2.4-5.85-.99.28-1.9.24-2.92-.35l-3.88,4.97h0ZM983.64,611.44c.39-3.36,2.57-6.23,5.71-7.52l2.44,5.95c-.92.23-1.88,1.33-1.8,2.4l-6.35-.83h0ZM1002.52,616.55c-2.21,5.29-8.37,7.82-13.66,5.6-5.29-2.21-7.82-8.37-5.6-13.66,2.21-5.29,8.37-7.82,13.66-5.6,5.29,2.21,7.82,8.37,5.6,13.66h0ZM994.63,611.8c-.4-.96-1.5-1.42-2.46-1.03-.96.39-1.42,1.49-1.03,2.46.39.96,1.5,1.42,2.46,1.03.96-.39,1.42-1.5,1.03-2.46h0ZM1004.04,617.19c2.57-6.13-.36-13.26-6.49-15.82-6.13-2.57-13.26.36-15.82,6.49-2.56,6.13.36,13.26,6.49,15.82,6.13,2.56,13.26-.36,15.82-6.49h0ZM998.59,605.16c2.6,2.03,3.95,5.33,3.52,8.59-2.12-.25-4.24-.49-6.36-.74.31-.78-.31-2.35-1.09-2.66l3.94-5.19h0Z"/>
    <path class="cls-2" d="M169.86,71.43c-4.34-3.57-4.96-9.98-1.39-14.31,3.57-4.34,9.98-4.96,14.31-1.39,4.34,3.57,4.96,9.98,1.39,14.31-3.57,4.34-9.98,4.96-14.31,1.39h0ZM190.75,51.51l5.2,4.27c1.88-2.66-2.77-6.64-5.2-4.27h0ZM194.61,68.31l-9.48,11.53c5.46,1.99,11.94-4.06,9.48-11.53h0ZM201.29,60.18l-3.16,3.85c5.14,17.27-8.29,23.14-16.44,19.98l-3.58,4.35-26.18-21.54c7.73-9.39,15.46-18.79,23.18-28.18l1.48,1.22.99-1.21-1.47-1.21,1.96-2.38,7.12,5.86-1.96,2.38-1.59-1.31-.99,1.21,6.88,5.66c5.76-5.22,15.64,2.93,11.61,9.55l2.15,1.77h0ZM177.42,56.96c-2.37-.39-4.74.51-6.27,2.37,1.18.97,2.35,1.93,3.53,2.9.54-.51,1.13-.8,1.98-.78l.77-4.49h0ZM182.58,61.13c.91,2.27.49,4.84-1.06,6.74l-3.59-2.95c.51-.46.75-1.49.32-2.14l4.33-1.65h0ZM168.81,64.33c-.4-4.13,2.66-7.84,6.78-8.24,4.13-.4,7.84,2.66,8.24,6.78.4,4.13-2.66,7.84-6.78,8.24-4.13.4-7.84-2.66-8.24-6.78h0ZM175.46,64.65c.58.48,1.44.39,1.92-.19.48-.58.39-1.44-.19-1.92-.58-.48-1.44-.39-1.92.19-.48.58-.39,1.44.19,1.92h0ZM167.63,64.45c.46,4.78,4.77,8.32,9.55,7.85,4.78-.46,8.32-4.77,7.85-9.55-.46-4.78-4.77-8.32-9.55-7.85-4.78.46-8.32,4.77-7.85,9.55h0ZM175.21,70.23c-2.35-.4-4.34-2.04-5.18-4.26,1.43-.57,2.87-1.14,4.3-1.71.07.6,1,1.39,1.61,1.32l-.73,4.65h0Z"/>
    <path class="cls-2" d="M1072.9,243.08l9.09,6.01,2.7,10.55c-3.65.78-2.33,6.34,1.27,5.42.88-.22,1.56-.85,1.88-1.63.66.53,1.55.76,2.44.53,3.61-.92,2.1-6.43-1.48-5.36l-1.54-6.02,5.18,3.43c-2.18,3.04,2.53,6.27,4.58,3.16.5-.76.58-1.68.3-2.48.85-.05,1.66-.48,2.16-1.25,2.05-3.11-2.76-6.17-4.7-2.98l-9.09-6.01-2.7-10.55c3.66-.78,2.33-6.34-1.27-5.42-.88.22-1.56.85-1.88,1.63-.66-.53-1.55-.76-2.44-.53-3.61.92-2.1,6.43,1.48,5.36l1.54,6.02-5.18-3.43c2.18-3.04-2.53-6.27-4.58-3.16-.5.76-.58,1.68-.3,2.48-.84.05-1.66.48-2.16,1.25-2.05,3.11,2.76,6.17,4.7,2.98h0ZM1090.35,234.2c-3.12-1.9-.74-6.71,2.66-5.41.54-2.35,1.82-4.43,3.8-5.84,12.57-8.95,27.29,11.77,14.73,20.7-1.98,1.41-4.36,1.94-6.76,1.67.11,3.64-5.21,4.31-5.99.74-2.69,1.91-4.49,3.63-7.94,1.61,3.32-2.36,2.29-2.82-.86-.58-.21-.16-.42-.33-.62-.52,3.81-2.71,2.95-3.29-.69-.69-.17-.19-.34-.39-.51-.6,3.88-2.76,3.31-3.55-.56-.79-.14-.22-.28-.44-.4-.67,3.64-2.59,3.38-3.59-.43-.88-.11-.25-.2-.5-.29-.75,3.15-2.24,3.06-3.36-.26-1-.78-3.93,1.43-5.07,4.12-6.98h0ZM1094.91,233.78c-2.33-3.27,2.64-6.81,4.97-3.54,2.33,3.27-2.64,6.8-4.97,3.54h0ZM1100.68,241.89c-2.33-3.27,2.64-6.81,4.97-3.54,2.33,3.27-2.64,6.8-4.97,3.54h0ZM1095.13,238.38c-2.06.11-3.78-.59-2.52,1.17.31.44,1.6.19,1.92.62.29.41-.39,1.52-.1,1.93,1.34,1.89,1.18.05,2.02-1.98.72-1.76.61-1.85-1.31-1.74h0Z"/>
    <path class="cls-2" d="M311.68,83.6l12.19-22.64c1.22-2.26,4.07-3.12,6.34-1.9l32.81,17.67c2.27,1.22,3.12,4.07,1.9,6.34l-12.19,22.64c-1.22,2.26-4.07,3.12-6.34,1.9l-32.81-17.67c-2.27-1.22-3.12-4.07-1.9-6.34h0ZM342,72.4l-2.29,4.24,4.25,2.29,2.29-4.25-4.25-2.29h0ZM327.6,64.64l-2.29,4.24,4.24,2.29,2.29-4.25-4.24-2.29h0ZM319.09,80.43l-2.29,4.24,4.25,2.29,2.29-4.25-4.24-2.29h0ZM323.34,72.54l-2.29,4.24,4.24,2.29,2.29-4.25-4.25-2.29h0ZM334.8,68.52l-2.29,4.24,4.25,2.29,2.29-4.24-4.25-2.29h0ZM326.29,84.31l-2.29,4.25,4.25,2.29,2.29-4.24-4.25-2.29h0ZM330.55,76.42l-2.29,4.24,4.25,2.29,2.29-4.24-4.25-2.29h0ZM333.5,88.19l-2.29,4.24,4.25,2.29,2.29-4.25-4.25-2.29h0ZM337.75,80.29l-2.29,4.24,4.25,2.29,2.29-4.25-4.25-2.29h0ZM354.51,76.75l-12.78,23.73,7.29,3.92,12.78-23.73-7.29-3.92h0Z"/>
    <path class="cls-2" d="M1339.48,467.54l-29.67,19.58-14.74-22.34,29.67-19.58,14.74,22.33h0ZM1317.85,453.56l1.03-.68,2.58,3.9c.14-.6.41-1.16.81-1.67l.62.94c-.21.27-.39.63-.55,1.08-.15.46-.18.88-.08,1.29l-.84.55-3.58-5.42h0ZM1315.4,456.29l.93,1.4,1.42-.93.64.96-1.42.93.92,1.4-.94.62-.93-1.4-1.42.93-.64-.96,1.42-.93-.93-1.4.94-.62h0ZM1309.04,460.75l-.63-.96,3.62-2.39c.2.39.31.81.33,1.27.02.45-.08,1.14-.31,2.06-.18.74-.27,1.22-.27,1.45,0,.31.07.57.21.78.15.23.33.37.54.41.21.04.42,0,.63-.15.22-.14.34-.32.39-.54.04-.21-.03-.48-.21-.79l1.1-.58c.31.61.39,1.15.23,1.61-.16.46-.48.85-.97,1.17-.53.35-1.05.48-1.54.4-.49-.09-.88-.35-1.16-.77-.16-.24-.27-.5-.33-.78-.06-.28-.07-.6-.04-.96.02-.24.09-.62.22-1.14.13-.51.21-.85.23-1.01s.03-.3.02-.43l-2.06,1.36h0ZM1309.69,463.24l.63.96-3.77,2.49-.63-.96,3.77-2.49h0ZM1308.61,461.6l.63.96-3.77,2.49-.63-.96,3.77-2.49h0ZM1304.29,464.56l-.92.78c-.2-.24-.41-.38-.64-.42-.23-.04-.44,0-.64.13-.21.14-.34.34-.38.6-.04.26.03.52.22.8.17.26.38.42.62.48.24.06.46.02.66-.11.13-.09.27-.22.42-.39l.44.91c-.28.18-.46.38-.52.6-.06.22-.02.44.12.66.12.18.27.29.45.33.18.04.36,0,.54-.12.18-.12.29-.28.33-.48.04-.21,0-.44-.13-.69l1.06-.46c.15.37.22.7.22.99,0,.28-.09.56-.25.83-.16.27-.4.5-.69.7-.51.33-1.02.44-1.54.32-.43-.1-.75-.32-.97-.65-.31-.47-.31-1.03.03-1.65-.35.14-.7.15-1.04.04-.34-.11-.61-.33-.83-.65-.31-.47-.41-.99-.28-1.55.13-.56.44-1.01.96-1.35.49-.32.98-.45,1.49-.38.51.07.94.31,1.29.74h0ZM1319.93,438.62l-1.84,1.22c-.4.26-.51.81-.25,1.21l1.22,1.84c.27.4.81.51,1.21.25l1.84-1.22c.4-.26.51-.81.25-1.21l-1.22-1.84c-.27-.4-.81-.51-1.21-.25h0ZM1306.15,430.41l-1.84,1.22c-.4.27-.51.81-.25,1.22l1.22,1.84c.27.4.81.51,1.21.25l1.84-1.22c.4-.27.51-.81.25-1.22l-1.22-1.84c-.27-.4-.81-.51-1.21-.25h0ZM1290.61,440.67l-1.84,1.22c-.4.27-.51.81-.25,1.22l1.22,1.84c.27.4.81.51,1.21.25l1.84-1.22c.4-.27.51-.81.25-1.22l-1.22-1.84c-.27-.4-.81-.51-1.21-.25h0ZM1294.5,438.11l-1.84,1.22c-.4.27-.51.81-.25,1.22l1.22,1.84c.27.4.81.51,1.21.25l1.84-1.22c.4-.27.51-.81.25-1.22l-1.22-1.84c-.27-.4-.81-.51-1.21-.25h0ZM1298.38,435.54l-1.84,1.22c-.4.27-.51.81-.25,1.22l1.22,1.84c.27.4.81.51,1.21.25l1.84-1.22c.4-.27.51-.81.25-1.22l-1.22-1.84c-.27-.4-.81-.51-1.21-.25h0ZM1302.27,432.98l-1.84,1.22c-.4.27-.51.81-.25,1.22l1.22,1.84c.27.4.81.51,1.21.25l1.84-1.22c.4-.27.51-.81.25-1.22l-1.22-1.84c-.27-.4-.81-.51-1.21-.25h0ZM1310.74,433.15l-1.84,1.22c-.4.27-.51.81-.25,1.21l1.22,1.84c.27.4.81.51,1.21.25l1.84-1.22c.4-.26.51-.81.25-1.21l-1.22-1.84c-.27-.4-.81-.51-1.21-.25h0ZM1291.32,445.97l-1.84,1.22c-.4.27-.51.81-.25,1.21l1.22,1.84c.27.4.81.51,1.21.25l1.84-1.22c.4-.26.51-.81.25-1.21l-1.22-1.84c-.27-.4-.81-.51-1.21-.25h0ZM1295.21,443.4l-1.84,1.22c-.4.27-.51.81-.25,1.21l1.22,1.84c.27.4.81.51,1.21.25l1.84-1.22c.4-.26.51-.81.25-1.21l-1.22-1.84c-.27-.4-.81-.51-1.21-.25h0ZM1299.09,440.84l-1.84,1.22c-.4.27-.51.81-.25,1.21l1.22,1.84c.27.4.81.51,1.21.25l1.84-1.22c.4-.26.51-.81.25-1.21l-1.22-1.84c-.27-.4-.81-.51-1.21-.25h0ZM1302.98,438.28l-1.84,1.22c-.4.27-.51.81-.25,1.21l1.22,1.84c.27.4.81.51,1.21.25l1.84-1.22c.4-.26.51-.81.25-1.21l-1.22-1.84c-.27-.4-.81-.51-1.21-.25h0ZM1306.86,435.71l-1.84,1.22c-.4.27-.51.81-.25,1.21l1.22,1.84c.27.4.81.51,1.21.25l1.84-1.22c.4-.26.51-.81.25-1.21l-1.22-1.84c-.27-.4-.81-.51-1.21-.25h0ZM1315.34,435.88l-1.84,1.22c-.4.27-.51.81-.25,1.21l1.22,1.84c.27.4.81.51,1.21.25l1.84-1.22c.4-.26.51-.81.25-1.21l-1.22-1.84c-.27-.4-.81-.51-1.21-.25h0ZM1292.03,451.27l-1.84,1.22c-.4.27-.51.81-.25,1.21l1.22,1.84c.27.4.81.51,1.21.25l1.84-1.22c.4-.26.51-.81.25-1.21l-1.22-1.84c-.27-.4-.81-.51-1.21-.25h0ZM1295.92,448.7l-1.84,1.22c-.4.27-.51.81-.25,1.21l1.22,1.84c.27.4.81.51,1.21.25l1.84-1.22c.4-.26.51-.81.25-1.21l-1.22-1.84c-.27-.4-.81-.51-1.21-.25h0ZM1299.8,446.14l-1.84,1.22c-.4.27-.51.81-.25,1.21l1.22,1.84c.27.4.81.51,1.21.25l1.84-1.22c.4-.26.51-.81.25-1.21l-1.22-1.84c-.27-.4-.81-.51-1.21-.25h0ZM1303.69,443.57l-1.84,1.22c-.4.27-.51.81-.25,1.21l1.22,1.84c.27.4.81.51,1.21.25l1.84-1.22c.4-.26.51-.81.25-1.21l-1.22-1.84c-.27-.4-.81-.51-1.21-.25h0ZM1307.57,441.01l-1.84,1.22c-.4.27-.51.81-.25,1.21l1.22,1.84c.27.4.81.51,1.21.25l1.84-1.22c.4-.26.51-.81.25-1.21l-1.22-1.84c-.27-.4-.81-.51-1.21-.25h0ZM1311.45,438.45l-1.84,1.22c-.4.27-.51.81-.25,1.21l1.22,1.84c.27.4.81.51,1.21.25l1.84-1.22c.4-.26.51-.81.25-1.21l-1.22-1.84c-.27-.4-.81-.51-1.21-.25h0ZM1292.74,456.56l-1.84,1.22c-.4.26-.51.81-.25,1.21l1.22,1.84c.27.4.81.51,1.21.25l1.84-1.22c.4-.26.51-.81.25-1.21l-1.22-1.84c-.27-.4-.81-.51-1.21-.25h0ZM1296.63,454l-1.84,1.22c-.4.26-.51.81-.25,1.21l1.22,1.84c.27.4.81.51,1.21.25l1.84-1.22c.4-.26.51-.81.25-1.21l-1.22-1.84c-.27-.4-.81-.51-1.21-.25h0ZM1300.51,451.44l-1.84,1.22c-.4.26-.51.81-.25,1.21l1.22,1.84c.27.4.81.51,1.21.25l1.84-1.22c.4-.26.51-.81.25-1.21l-1.22-1.84c-.27-.4-.81-.51-1.21-.25h0ZM1304.39,448.87l-1.84,1.22c-.4.26-.51.81-.25,1.21l1.22,1.84c.27.4.81.51,1.21.25l1.84-1.22c.4-.26.51-.81.25-1.21l-1.22-1.84c-.27-.4-.81-.51-1.21-.25h0ZM1308.28,446.31l-1.84,1.22c-.4.26-.51.81-.25,1.21l1.22,1.84c.27.4.81.51,1.21.25l1.84-1.22c.4-.26.51-.81.25-1.21l-1.22-1.84c-.27-.4-.81-.51-1.21-.25h0ZM1312.16,443.75l-1.84,1.22c-.4.26-.51.81-.25,1.21l1.22,1.84c.27.4.81.51,1.21.25l1.84-1.22c.4-.26.51-.81.25-1.21l-1.22-1.84c-.27-.4-.81-.51-1.21-.25h0ZM1316.05,441.18l-1.84,1.22c-.4.26-.51.81-.25,1.21l1.22,1.84c.27.4.81.51,1.21.25l1.84-1.22c.4-.26.51-.81.25-1.21l-1.22-1.84c-.27-.4-.81-.51-1.21-.25h0ZM1338.24,479.74l-16.72,11.04c-6.04,3.99-13.13,4.01-17.12-2.04l-21.33-32.31c-3.99-6.04-2.31-14.25,3.73-18.24l16.72-11.04c6.04-3.99,14.25-2.31,18.24,3.73l21.33,32.31c3.99,6.04,1.19,12.55-4.85,16.54h0Z"/>
    <path class="cls-2" d="M953.99,46.6l18.91,18.57,5.7-5.81-18.91-18.57-5.7,5.81h0ZM944.15,74.96c-.11.11-.16.22-.17.34,0,.12.03.21.12.3.08.08.18.12.29.11.11,0,.22-.07.33-.18.1-.1.15-.2.15-.31,0-.11-.03-.21-.12-.29-.1-.09-.2-.13-.31-.11-.11.02-.21.07-.28.15h0ZM945.06,74.11c-.08.08-.12.16-.11.25,0,.09.04.17.11.24.07.07.16.11.24.11.09,0,.17-.04.25-.12.07-.07.11-.15.11-.24,0-.09-.04-.17-.11-.24-.08-.08-.16-.11-.25-.11-.09,0-.17.04-.24.11h0ZM944.59,74.43c-.06-.14-.08-.27-.05-.39.03-.12.08-.23.17-.32.15-.15.33-.23.53-.22.21,0,.41.1.6.3.2.19.3.39.31.6,0,.21-.06.39-.21.54-.09.1-.2.16-.32.18-.12.03-.25.01-.38-.03.07.16.09.31.06.46-.03.15-.1.28-.21.39-.19.19-.4.29-.64.29-.24,0-.46-.1-.66-.3-.19-.18-.29-.39-.32-.61-.03-.26.05-.49.25-.69.11-.11.24-.19.38-.23.15-.04.3-.03.47.04h0ZM951.68,80.95c.13-.13.19-.25.2-.38.01-.13-.02-.23-.1-.3-.07-.07-.16-.1-.27-.09-.1.01-.22.08-.35.21-.13.13-.2.26-.21.37,0,.11.03.21.1.29.08.07.17.11.28.1.11,0,.22-.07.34-.19h0ZM949.94,80.94l.42.33c-.07.09-.1.17-.1.24,0,.08.04.15.1.21.08.08.19.11.32.09.13-.02.32-.14.57-.36-.21.02-.39-.05-.54-.19-.16-.16-.24-.36-.23-.6,0-.24.11-.46.3-.66.21-.21.43-.32.68-.32.25,0,.47.08.66.27.21.2.3.45.28.75-.03.29-.22.63-.58,1-.37.38-.71.58-1.01.61-.3.03-.57-.06-.79-.28-.16-.16-.25-.33-.26-.51-.01-.18.05-.37.19-.57h0ZM938.5,67.36l.36-.37,1.35,1.33-.28.29c-.22,0-.49.05-.8.14-.32.09-.62.22-.91.4-.29.17-.52.35-.7.53l-.38-.37c.29-.28.63-.51,1.03-.7.4-.19.81-.31,1.23-.36l-.9-.88h0ZM956.19,75.38c-.13.13-.19.26-.2.39,0,.13.02.23.1.3.07.07.16.1.27.09.1-.01.22-.08.35-.21.13-.13.2-.26.21-.37,0-.11-.03-.21-.1-.29-.08-.07-.17-.11-.28-.1-.11,0-.22.07-.34.19h0ZM957.93,75.39l-.42-.33c.07-.09.1-.17.1-.25,0-.08-.03-.14-.1-.21-.08-.08-.19-.11-.32-.1-.13.02-.32.14-.57.36.21-.02.39.04.54.19.16.16.24.36.24.6,0,.24-.11.46-.3.66-.21.21-.44.32-.69.33-.25,0-.47-.09-.66-.28-.21-.2-.3-.45-.27-.75.03-.29.22-.62.58-.99.37-.38.71-.58,1.01-.61.3-.03.57.06.79.28.16.15.24.32.26.51.02.19-.04.38-.18.58h0ZM944,63.31l.69-.7-1.16.24.47.46h0ZM943.25,64.07l.41-.41-.84-.82.34-.34,2.18-.44.33.33-1.29,1.31.26.25-.34.35-.26-.25-.41.41-.38-.38h0ZM949.31,68.9l.43.35c-.08.1-.11.2-.11.31,0,.11.04.19.11.27.08.08.19.12.31.1.12-.01.25-.08.38-.22.13-.13.19-.25.2-.37,0-.12-.04-.22-.13-.31-.11-.11-.26-.16-.45-.15l-.27-.36,1.25-.87,1.04,1.03-.36.37-.74-.73-.4.29c.13.04.24.11.33.2.17.17.26.38.26.63,0,.25-.1.47-.3.68-.17.17-.37.27-.6.31-.31.05-.59-.04-.83-.28-.19-.19-.3-.39-.32-.61-.02-.22.04-.43.19-.62h0ZM961.24,69.35l.43.33c-.08.11-.12.22-.12.32,0,.1.04.19.12.27.08.08.18.12.3.11.11,0,.22-.06.33-.17.1-.1.15-.2.15-.31,0-.11-.03-.2-.11-.28-.05-.05-.12-.1-.21-.15l.36-.28c.1.11.21.16.31.17.1,0,.2-.03.28-.11.07-.07.1-.15.1-.23,0-.08-.04-.16-.1-.22-.07-.07-.15-.1-.24-.1-.09,0-.19.04-.29.12l-.3-.42c.15-.1.28-.16.41-.19.12-.03.25-.01.39.03.13.05.26.13.37.24.19.19.29.4.28.64,0,.2-.07.36-.19.49-.18.18-.42.23-.72.14.09.14.13.29.12.45-.02.16-.08.3-.21.42-.18.18-.4.27-.65.27-.26,0-.48-.1-.68-.29-.19-.18-.29-.39-.3-.62-.02-.23.05-.44.2-.63h0ZM949.24,58.67l-.39-.39,1.46-1.49c-.28,0-.55-.07-.8-.2l.35-.36c.14.07.31.11.52.14.21.03.4,0,.57-.08l.32.31-2.03,2.07h0ZM956.13,64.72l-.36.37-1.38-1.36c.15-.12.33-.21.52-.26.2-.05.51-.07.93-.06.34,0,.56,0,.66-.02.13-.03.24-.08.32-.16.09-.09.13-.18.13-.27s-.04-.18-.13-.26c-.08-.08-.17-.12-.27-.12-.1,0-.21.06-.33.16l-.35-.43c.24-.19.46-.28.68-.25.22.03.42.13.6.31.2.2.31.41.32.64,0,.22-.07.42-.23.58-.09.09-.19.17-.31.22s-.25.09-.42.11c-.11.01-.28.02-.52,0-.24,0-.39-.01-.46,0-.07,0-.13.02-.19.03l.79.77h0ZM952.74,63.4l3.38,3.32,3.32-3.38-3.38-3.32-3.32,3.38h0ZM946.45,57.22l3.38,3.32,3.32-3.38-3.38-3.32-3.32,3.38h0ZM935.18,68.7l3.38,3.32,3.32-3.38-3.38-3.32-3.32,3.38h0ZM947.76,81.06l3.38,3.32,3.32-3.38-3.38-3.32-3.32,3.38h0ZM941.47,74.88l3.38,3.32,3.32-3.38-3.38-3.32-3.32,3.38h0ZM940.82,62.96l3.38,3.32,3.32-3.38-3.38-3.32-3.32,3.38h0ZM953.4,75.32l3.38,3.32,3.32-3.38-3.38-3.32-3.32,3.38h0ZM947.11,69.14l3.38,3.32,3.32-3.38-3.38-3.32-3.32,3.38h0ZM959.04,69.58l3.38,3.32,3.32-3.38-3.38-3.32-3.32,3.38h0ZM948.72,88.93l-18.04-17.72c-1.81-1.77-1.83-4.7-.06-6.51l25.68-26.14c1.77-1.81,4.7-1.83,6.51-.06l18.04,17.72c1.81,1.77,1.83,4.7.06,6.51l-25.68,26.14c-1.77,1.81-4.7,1.83-6.5.06h0Z"/>
    <path class="cls-2" d="M1234.12,89.75s-.07.1-.07.16c0,.06.02.14.08.23.07.12.22.29.45.51.23.22.4.37.5.43.11.06.19.09.26.08.06,0,.11-.03.16-.08.04-.04.07-.1.07-.16,0-.06-.02-.14-.08-.23-.07-.12-.22-.29-.45-.51-.23-.22-.4-.36-.5-.43-.11-.06-.19-.09-.26-.08-.06,0-.12.03-.16.08h0ZM1239.76,84.9l.34.51.31-.32-.35-.5-.31.32h0ZM1240.04,86.12l-.19.2-.32-.31.26-.26-.34-.5-.34.35-.32-.31.41-.42-.45-.67.32-.33.45.67.3-.31-.46-.66.33-.34.45.67.19-.2.32.31-.26.26.34.51.34-.35.32.31-.4.42.45.66-.32.33-.46-.66-.31.32.45.67-.32.33-.45-.67h0ZM1240.5,88.72l3.32-3.41-4.14-4.03-3.32,3.41,4.14,4.03h0ZM1230.11,86.37c.1.1.21.15.32.16.11,0,.2-.03.28-.11.07-.08.11-.17.1-.27,0-.1-.06-.21-.17-.31-.09-.09-.19-.14-.3-.14-.11,0-.2.03-.27.11-.09.09-.12.19-.1.3.02.11.07.2.14.27h0ZM1229.31,85.52c.08.07.15.11.24.11.08,0,.16-.04.23-.11.07-.07.1-.15.1-.23,0-.08-.04-.16-.11-.23-.07-.07-.15-.1-.23-.1-.08,0-.16.04-.22.1-.07.07-.1.15-.1.23,0,.08.04.16.11.23h0ZM1229.61,85.97c-.13.06-.26.07-.37.05-.11-.03-.21-.08-.3-.16-.15-.14-.22-.31-.21-.5,0-.19.1-.38.28-.57.18-.19.37-.28.56-.29.19-.01.36.06.51.2.09.09.15.19.17.31.03.12.01.23-.03.35.15-.07.29-.09.43-.06.14.03.26.09.37.2.18.17.27.37.27.6,0,.22-.09.43-.28.62-.17.18-.36.28-.57.3-.24.03-.46-.05-.66-.23-.1-.1-.18-.22-.21-.36-.04-.14-.03-.29.03-.44h0ZM1230.41,89.46l3.32-3.41-4.14-4.03-3.32,3.41,4.13,4.03h0ZM1235.21,79.79c-.12-.12-.24-.18-.36-.19-.12,0-.22.02-.29.1-.07.07-.1.15-.08.25,0,.1.08.21.2.33.13.12.24.19.35.19.11,0,.2-.03.27-.1.07-.07.1-.16.09-.26,0-.1-.07-.21-.18-.32h0ZM1235.2,81.42l.31-.4c.08.06.16.09.23.09.07,0,.14-.03.2-.09.07-.08.1-.18.08-.3-.02-.12-.13-.3-.34-.53.02.2-.04.37-.18.51-.15.15-.34.23-.56.22-.23,0-.43-.1-.62-.28-.2-.19-.3-.4-.31-.64,0-.23.08-.44.26-.62.19-.2.43-.28.7-.26.28.02.59.2.94.55.36.35.55.66.58.95.03.29-.06.53-.26.75-.15.15-.31.23-.48.25-.17.01-.35-.04-.54-.18h0ZM1235.7,84.04l3.32-3.41-4.13-4.03-3.33,3.41,4.14,4.03h0ZM1223.48,91.2l-.34-.34,1.24-1.28.27.26c0,.21.05.46.13.76.09.3.21.58.37.85.16.27.33.49.5.65l-.35.36c-.26-.27-.48-.59-.66-.97-.18-.38-.29-.76-.34-1.15l-.83.85h0ZM1225.12,94.88l3.32-3.41-4.14-4.03-3.32,3.41,4.14,4.03h0ZM1230.57,76.17c.12.12.24.18.36.19.12,0,.22-.02.29-.1.07-.07.1-.15.09-.25-.01-.1-.08-.21-.2-.33-.13-.12-.24-.19-.35-.2-.11,0-.2.03-.27.1-.07.07-.1.16-.09.26,0,.1.07.21.18.32h0ZM1230.58,74.53l-.31.4c-.08-.06-.16-.1-.23-.09-.07,0-.13.03-.19.09-.08.08-.11.18-.09.3.02.12.13.3.34.53-.02-.2.04-.37.17-.51.15-.15.34-.23.57-.23.23,0,.43.1.62.28.2.19.3.41.31.64,0,.24-.08.44-.26.63-.19.2-.43.28-.7.26-.28-.02-.59-.2-.94-.54-.36-.35-.55-.66-.58-.95-.03-.29.06-.53.26-.74.14-.15.3-.23.48-.25.18-.02.36.04.54.17h0ZM1230.9,79.36l3.32-3.41-4.14-4.03-3.32,3.41,4.14,4.03h0ZM1220.27,86.64l-.66-.65.23,1.09.43-.44h0ZM1220.99,87.34l-.39-.38-.77.79-.32-.32-.42-2.05.31-.31,1.24,1.2.24-.24.33.32-.24.24.39.38-.35.36h0ZM1220.32,90.21l3.32-3.41-4.14-4.03-3.33,3.41,4.14,4.03h0ZM1225.01,82.15l.32-.41c.09.07.19.11.29.1.1,0,.18-.04.25-.11.08-.08.11-.17.1-.29-.01-.12-.08-.24-.21-.36-.12-.12-.24-.18-.35-.18-.11,0-.21.04-.29.12-.1.11-.15.25-.14.43l-.34.26-.83-1.18.96-.99.35.34-.69.7.27.38c.04-.12.1-.23.19-.32.16-.17.36-.25.59-.24.23,0,.45.1.64.29.16.16.26.34.29.56.05.3-.04.55-.26.78-.17.18-.37.28-.57.3-.21.02-.4-.04-.59-.18h0ZM1225.61,84.78l3.32-3.41-4.14-4.03-3.32,3.41,4.14,4.03h0ZM1230.03,97.03l-.64.09c-.02-.25-.03-.49-.02-.73,0-.1,0-.16,0-.19-.04.03-.19.12-.42.27-.17.1-.28.17-.34.2l-.29-.57c.29-.13.57-.22.84-.29-.3-.22-.54-.41-.71-.57l.42-.43c.12.12.32.35.59.71.02-.05.06-.15.11-.3.08-.21.15-.4.22-.57l.56.3c-.14.22-.3.47-.49.74l.62.03c.12,0,.22.02.3.02l-.12.61-.87-.21c.08.27.16.57.23.89h0ZM1229.92,99.56l3.32-3.41-4.14-4.03-3.32,3.41,4.14,4.03h0ZM1225.53,72.07l.31-.4c.1.08.2.12.3.11.1,0,.18-.04.25-.11.08-.08.11-.17.1-.28,0-.11-.06-.21-.16-.31-.09-.09-.19-.14-.3-.14-.1,0-.19.03-.26.1-.05.05-.09.11-.14.2l-.26-.34c.1-.1.15-.2.16-.3,0-.1-.03-.18-.11-.26-.07-.06-.14-.1-.21-.1-.08,0-.15.03-.21.1-.06.06-.09.14-.09.23,0,.09.04.18.11.27l-.39.28c-.1-.14-.16-.27-.18-.39-.03-.12-.01-.24.03-.36.04-.13.12-.24.22-.35.18-.18.38-.27.6-.27.18,0,.34.06.46.18.17.17.22.39.14.68.13-.09.27-.13.42-.11.15.01.28.08.4.19.17.17.26.37.25.61,0,.24-.09.46-.27.64-.17.18-.36.27-.58.29-.21.02-.41-.05-.59-.19h0ZM1226.12,74.71l3.32-3.41-4.14-4.03-3.32,3.41,4.14,4.03h0ZM1216.54,82.36l-.36.37-1.41-1.37c0,.26-.07.51-.19.76l-.34-.33c.06-.13.11-.29.13-.49.02-.2,0-.38-.08-.54l.3-.3,1.95,1.91h0ZM1215.55,85.55l3.32-3.41-4.14-4.03-3.32,3.41,4.14,4.03h0ZM1221.7,76.38l.35.34-1.27,1.31c-.12-.14-.2-.31-.25-.49-.05-.19-.07-.48-.06-.87,0-.32,0-.53-.02-.62-.03-.13-.08-.23-.15-.3-.08-.08-.17-.12-.26-.12-.09,0-.17.04-.25.12-.08.08-.11.16-.11.26,0,.09.05.19.16.31l-.4.34c-.18-.22-.26-.44-.24-.64.03-.2.12-.39.29-.57.19-.19.39-.29.6-.3.21,0,.39.06.55.21.09.09.16.18.21.29.05.11.08.24.1.39.01.1.02.26.01.49,0,.22,0,.37,0,.44,0,.06.01.12.03.18l.72-.74h0ZM1220.84,80.13l3.32-3.41-4.14-4.03-3.32,3.41,4.14,4.03h0ZM1233.81,89.45c.18-.19.39-.27.63-.24.28.03.61.22.98.58.37.36.57.68.61.97.03.23-.05.45-.23.63-.19.19-.41.27-.66.24-.26-.03-.58-.22-.95-.59-.37-.36-.57-.68-.61-.96-.03-.24.05-.45.23-.64h0ZM1235.21,94.14l3.32-3.41-4.14-4.03-3.33,3.41,4.14,4.03h0ZM1223.15,65.02l-14.04,14.4c-.62.64-1.66.65-2.3.03l-4.52-4.4c-.64-.62-.65-1.66-.03-2.3l14.04-14.4c.62-.64,1.66-.65,2.3-.03l4.52,4.4c.64.62.65,1.66.03,2.3h0ZM1247.29,86.49l-16.09,16.51c-.94.96-2.49.98-3.45.04l-28.08-27.37c-.96-.93-.98-2.48-.05-3.44l16.09-16.51c.93-.96,2.48-.98,3.44-.04l28.08,27.37c.96.93.98,2.48.04,3.44h0Z"/>
    <path class="cls-2" d="M1123.93,625.19c-5.13,0-9.29-4.16-9.29-9.29s4.16-9.29,9.29-9.29,9.29,4.16,9.29,9.29-4.16,9.29-9.29,9.29h0ZM1117.73,617.48v-3.17h12.4v3.17h-12.4ZM1123.93,649.97c-5.13,0-9.29-4.16-9.29-9.29s4.16-9.29,9.29-9.29,9.29,4.16,9.29,9.29-4.16,9.29-9.29,9.29h0ZM1117.73,642.26v-3.17h12.4v3.17h-12.4ZM1124.96,637.99h-2.06c-.44,0-.8-.36-.8-.8v-2.06c0-.44.36-.8.8-.8h2.06c.44,0,.8.36.8.8v2.06c0,.44-.36.8-.8.8h0ZM1124.96,647.03h-2.06c-.44,0-.8-.36-.8-.8v-2.06c0-.44.36-.8.8-.8h2.06c.44,0,.8.36.8.8v2.06c0,.44-.36.8-.8.8h0ZM1099.35,649.97c-5.13,0-9.29-4.16-9.29-9.29s4.16-9.29,9.29-9.29,9.29,4.16,9.29,9.29-4.16,9.29-9.29,9.29h0ZM1096.09,646.17l-2.24-2.24,3.26-3.26-3.26-3.26,2.24-2.24,3.26,3.26,3.26-3.26,2.24,2.24-3.26,3.26,3.26,3.26-2.24,2.24-3.26-3.26-3.26,3.26h0ZM1099.35,625.19c-5.13,0-9.29-4.16-9.29-9.29s4.16-9.29,9.29-9.29,9.29,4.16,9.29,9.29-4.16,9.29-9.29,9.29h0ZM1097.8,622.08v-4.6h-4.65v-3.17h4.65v-4.6h3.09v4.6h4.65v3.17h-4.65v4.6h-3.09Z"/>
    <path class="cls-2" d="M953.88,368.18l.28,14.22,4.37-.09-.28-14.22-4.37.09h0ZM935.98,382.43l-.27-13.56c-.03-1.36,1.06-2.49,2.42-2.52l19.65-.38c1.36-.03,2.49,1.06,2.51,2.42l.27,13.56c.03,1.36-1.06,2.49-2.42,2.51l-19.65.39c-1.36.03-2.49-1.06-2.52-2.42h0ZM945.37,375l-.13-6.66,6.66-.13.13,6.65-6.65.13h0ZM946.11,371.03l1.87-.04-.04-1.89,1.29-.03.04,1.89,1.87-.04.03,1.25-1.87.04.04,1.89-1.29.03-.04-1.89-1.87.04-.03-1.25h0ZM937.83,375.15l-.13-6.65,6.65-.13.13,6.66-6.65.13h0ZM938.84,370.48l.89-.93,1.35,1.3,1.3-1.35.93.89-1.3,1.35,1.35,1.3-.89.93-1.35-1.3-1.3,1.35-.93-.89,1.3-1.35-1.35-1.3h0ZM937.98,382.71l-.13-6.65,6.65-.13.13,6.65-6.65.13h0ZM938.67,379.79l-.02-.84c0-.18.14-.33.32-.33l.84-.02c.18,0,.33.14.33.32l.02.84c0,.18-.14.33-.32.33l-.84.02c-.18,0-.33-.14-.33-.32h0ZM942.34,379.72l-.02-.84c0-.18.14-.33.32-.33l.84-.02c.18,0,.33.14.33.32l.02.84c0,.18-.14.33-.32.33l-.84.02c-.18,0-.33-.14-.33-.32h0ZM940.55,376.82l1.28-.03c.06,3.25.03,1.78.1,5.03l-1.28.03c-.06-3.25-.03-1.78-.1-5.03h0ZM945.52,382.57l-.13-6.65,6.66-.13.13,6.65-6.66.13h0ZM948.09,376.67l1.29-.03c.06,3.25.04,1.78.1,5.03l-1.28.03c-.06-3.25-.04-1.78-.1-5.03h0Z"/>
    <path class="cls-2" d="M452.89,86.36l-9.36,5c-1.42.76-2.76-1.74-1.34-2.5l.64-.34c-1.76-3.28-5.06-10.14-7.27-12.66-6.85-7.82-15.19-10.17-21.13-15.81-5.45-5.17,27.27-23.51,28.67-15.04,1.33,8.01-1.39,16.39,1.38,26.18.91,3.22,4.66,9.74,6.42,13.01l.64-.34c1.42-.76,2.76,1.74,1.34,2.5h0ZM426.89,50.58c.61-.33,1.38-.1,1.71.52.33.62.1,1.38-.52,1.71-.61.33-1.38.1-1.71-.52-.33-.62-.1-1.38.52-1.71h0ZM428.33,54.4c1.7-.91,3.82-.27,4.73,1.43.91,1.7.27,3.82-1.43,4.73-1.7.91-3.82.27-4.73-1.43-.91-1.7-.27-3.82,1.43-4.73h0ZM433.09,61.69c1.34-.72,3.01-.21,3.72,1.13.72,1.34.21,3.01-1.13,3.72-1.34.72-3.01.21-3.72-1.13-.72-1.34-.21-3.01,1.13-3.72h0ZM428.14,62.47c.61-.33,1.37-.1,1.7.52.33.61.1,1.37-.52,1.7-.61.33-1.37.1-1.7-.51-.33-.61-.1-1.38.52-1.7h0ZM436.3,55.22c1.06-.57,2.37-.17,2.94.89.57,1.06.17,2.37-.89,2.94-1.06.56-2.37.17-2.94-.89-.57-1.06-.17-2.37.89-2.94h0ZM432.33,50.99c.82-.44,1.85-.13,2.29.69.44.82.13,1.85-.69,2.29-.82.44-1.85.13-2.29-.69-.44-.82-.13-1.85.69-2.29h0Z"/>
    <path class="cls-2" d="M692.93,211.53l4.34.43,2.28,3.67-9.47-.94,2.85-3.16h0ZM692.48,233.21l-5.97,6.05s-.06-.01-.1-.01c-.5-.05-.95.32-1,.82-.05.5.32.95.82,1,.5.05.95-.32.99-.82.01-.11,0-.22-.03-.32l5.73-5.81,4.48,6.82c-.05.1-.08.2-.09.31-.05.5.32.95.82,1,.5.05.95-.32,1-.82.05-.5-.32-.95-.82-.99-.03,0-.06,0-.1,0l-4.67-7.1.14-1.46c6.33.91,10.87,6.66,10.24,13.08-.65,6.61-6.54,11.43-13.15,10.78-6.61-.65-11.43-6.54-10.78-13.15.64-6.42,6.22-11.16,12.6-10.82l-.14,1.46h0ZM694.66,247.51l-2.25-5.42-.52-.05-3.27,4.88-2.25-5.42-.52-.05,2.51,6.05c.07.17.31.19.41.04l3.34-4.98,2.3,5.54c.07.17.3.19.41.04l3.65-5.44-.52-.05-3.27,4.88h0ZM699.51,221.06l-.09.92s0,.02,0,.03l.61.06c.28.03.49.27.47.53l-.15,1.48-12.7-1.26.15-1.48c.03-.26.28-.46.56-.43l.61.06s0-.02,0-.04l.09-.92,10.46,1.04h0ZM699.66,219.5l-.08.78-10.46-1.04.08-.77,10.46,1.04h0ZM699.82,217.94l-.08.77-10.46-1.04.08-.77,10.46,1.04h0ZM690.03,215.4l9.43.93c.28.03.49.27.47.53l-.03.3-10.46-1.03.03-.3c.03-.26.28-.45.56-.43h0ZM700.24,224.96l1.68,1.68-.45,4.62c4.33,3.3,6.66,8.59,6.12,14.04-.85,8.62-8.53,14.91-17.15,14.06-8.62-.85-14.91-8.53-14.06-17.15.54-5.44,3.86-10.17,8.75-12.56l.46-4.69,2.16-1.24,12.49,1.24h0Z"/>
    <path class="cls-2" d="M944.88,716.9c1.14,9.25,9.36,16.07,18.75,15.36,9.67-.73,16.92-9.16,16.19-18.83-.73-9.67-9.16-16.92-18.83-16.19-9.39.71-16.5,8.68-16.23,18l1.21-.09,9.53-8.97s-.02-.1-.02-.15c-.06-.77.52-1.44,1.29-1.5.77-.06,1.45.52,1.5,1.29.06.77-.52,1.44-1.29,1.5-.17.01-.34,0-.49-.05l-9.15,8.61,10.33,7.14c.15-.07.31-.11.48-.12.77-.06,1.44.52,1.5,1.29.06.77-.52,1.44-1.29,1.5-.77.06-1.44-.52-1.5-1.29,0-.05,0-.1,0-.15l-10.77-7.43-1.21.09h0ZM967.19,709.69l-7.62,4.86.06.81,8.26,3.66-7.62,4.86.06.81,8.5-5.42c.24-.15.21-.51-.05-.63l-8.44-3.74,7.78-4.96c.24-.15.21-.51-.05-.63l-9.22-4.08.06.81,8.26,3.66h0ZM918.55,718.05c-.22-2.86,1.01-5.59,3.23-7.83l1.14,15.08c-2.53-1.88-4.15-4.39-4.37-7.25h0ZM923.31,708.87c.46-.36.96-.7,1.47-1.01l1.46,19.32c-.56-.24-1.1-.5-1.61-.78l-1.32-17.53h0ZM926.35,706.99c.48-.24.98-.46,1.5-.66l1.65,21.9c-.54-.12-1.07-.27-1.58-.43l-1.57-20.81h0ZM929.45,705.77c.5-.15,1-.29,1.52-.41l1.77,23.37c-.53-.04-1.05-.1-1.57-.18l-1.72-22.78h0ZM932.58,705.04c.63-.1,1.27-.18,1.91-.23l1.81,23.94c-.65.04-1.29.06-1.93.06l-1.79-23.76h0ZM935.57,704.8l6.37-.55c3.65-7.07,10.67-11.76,18.65-12.36,12.62-.95,23.62,8.5,24.57,21.12.95,12.62-8.5,23.62-21.12,24.57-7.97.6-15.62-2.97-20.29-9.41l-6.38.48-1.8-23.85h0Z"/>
    <path class="cls-1" d="M246.17,319c1.4.87,4.4.26,5.94.01,8.03-1.28,17.5-.69,18.16,9.67.4,6.28-3.39,13.8-8.75,17.13-8.79,5.45-14.98-2.14-18.64-9.35-.64-1.26-1.82-3.88-3.2-4.42l1.42-2.87c2.3,1.03,3.54,3.71,4.62,5.84,2.69,5.3,7.27,12.32,14.1,8.09,4.37-2.71,7.56-9.09,7.24-14.21-.51-8.06-8.56-7.66-14.46-6.72-2.53.4-5.5.97-7.87-.3l1.43-2.87h0ZM246.44,327.96l3.31,7.21s-.03.05-.04.08c-.21.42-.04.93.38,1.14.42.21.93.04,1.14-.38.21-.42.04-.93-.38-1.14-.09-.05-.19-.07-.29-.08l-3.18-6.92,7.44-1.65c.07.07.15.13.24.18.42.21.93.04,1.14-.38.21-.42.04-.93-.38-1.14-.42-.21-.93-.04-1.14.38-.01.03-.03.06-.04.08l-7.75,1.72-4.71-2.34,2.86-5.75c.18-.37.05-.8-.29-.97l-4.25-2.1-2.44,1.17-4.84,9.75.53,2.8,4.18,2.12c.34.17.77,0,.95-.36l2.85-5.74,4.71,2.34h0ZM259.64,330.79l-5.48.17-.22.44,3.18,4.47-5.48.17-.22.44,6.11-.19c.17,0,.27-.2.17-.34l-3.24-4.56,5.59-.17c.17,0,.27-.2.17-.34l-3.54-4.99-.22.44,3.18,4.47h0ZM227.41,322.44l3.58-7.21c.11-.22.36-.31.56-.21l.23.11-3.97,8-.23-.11c-.2-.1-.28-.36-.17-.57h0ZM232.38,315.42l.59.29-3.97,8-.59-.29,3.97-8h0ZM233.57,316.01l.59.3-3.97,8-.59-.29,3.97-8h0ZM234.76,316.61l.7.35s.02,0,.03.01l.23-.47c.11-.22.36-.31.56-.21l1.13.56-4.82,9.71-1.13-.56c-.2-.1-.28-.36-.17-.57l.23-.47s-.02,0-.03-.01l-.7-.35,3.97-8h0ZM225.2,318.96l1.65-3.32,3.6-.71-3.6,7.24-1.65-3.22h0Z"/>
    <path class="cls-1" d="M449.51,368.7c1.57-.39,3.2-2.9,4.09-4.16,4.62-6.51,11.54-12.74,19.27-6.08,4.68,4.04,7.35,11.86,5.99,17.9-2.22,9.91-11.79,9.03-19.37,6.64-1.32-.42-3.97-1.4-5.3-.8l-1.03-2.97c2.31-.91,5.03.07,7.27.77,5.56,1.75,13.64,3.37,15.36-4.33,1.1-4.92-1.17-11.55-4.98-14.84-6-5.18-11.25.73-14.65,5.52-1.45,2.05-3.1,4.52-5.62,5.31l-1.03-2.97h0ZM455.98,374.68l7.33,2.64s.02.06.03.08c.15.44.63.67,1.06.51.43-.15.67-.63.51-1.06-.15-.44-.63-.67-1.06-.51-.1.03-.18.08-.26.14l-7.04-2.53,3.95-6.35c.1,0,.19-.01.29-.05.44-.15.67-.63.51-1.06-.15-.44-.63-.67-1.06-.51-.44.15-.67.63-.51,1.06.01.03.02.06.03.08l-4.12,6.61-4.88,1.69-2.07-5.95c-.13-.38-.53-.59-.88-.47l-4.39,1.54-.86,2.51,3.5,10.09,2.33,1.55,4.36-1.47c.35-.12.53-.53.4-.91l-2.06-5.95,4.87-1.69h0ZM467.04,367.36l-3.65,3.96.16.46,5.31.85-3.65,3.96.16.46,4.07-4.42c.12-.12.04-.33-.12-.35l-5.43-.86,3.72-4.04c.11-.12.05-.33-.12-.35l-5.93-.94.16.46,5.32.85h0ZM439.03,384.21l-2.59-7.47c-.08-.22.03-.46.24-.54l.24-.08,2.88,8.28-.24.08c-.21.07-.44-.05-.52-.28h0ZM437.53,375.91l.61-.21,2.88,8.28-.61.21-2.88-8.28h0ZM438.76,375.48l.61-.21,2.88,8.28-.61.21-2.88-8.28h0ZM439.99,375.06l.73-.25s.02,0,.03,0l-.17-.48c-.08-.22.03-.47.24-.54l1.17-.41,3.49,10.06-1.17.41c-.21.07-.44-.05-.52-.28l-.17-.48s-.02,0-.03.01l-.73.25-2.88-8.28h0ZM435.08,383.37l-1.19-3.44,1.98-3.01,2.6,7.5-3.39-1.05h0Z"/>
    <path class="cls-1" d="M244.77,200.18c2.4-.41,6.87-4.76,9.56-6.5,40.21-26.04,39.67,55.5-.73,28.2-2.47-1.67-6.71-5.95-8.82-6.37v-4.23c3.3-.13,8.11,4.99,11.21,7.14,31.99,22.13,32.34-42.38.57-21.19-3.31,2.21-8.23,7.28-11.79,7.17v-4.23h0ZM250.24,208.67l7.77,6.27s0,.08,0,.11c0,.59.48,1.07,1.07,1.07.59,0,1.07-.48,1.07-1.07,0-.59-.48-1.07-1.07-1.07-.13,0-.26.02-.37.07l-7.46-6.02,7.45-6.03c.12.04.24.07.37.07.59,0,1.07-.48,1.07-1.07,0-.59-.48-1.07-1.07-1.07-.59,0-1.07.48-1.07,1.07,0,.04,0,.08,0,.11l-7.76,6.28h-6.54s0-7.12,0-7.12h-2.23s.01,15.26.01,15.26h2.23s0-6.86,0-6.86h6.53ZM266.7,204.45l-6.07,3.26v.62s6.08,3.25,6.08,3.25l-6.07,3.26v.62s6.78-3.64,6.78-3.64c.19-.1.19-.38,0-.48l-6.21-3.32,6.2-3.33c.19-.1.19-.38,0-.48l-6.78-3.63v.62s6.08,3.25,6.08,3.25h0ZM228.08,203.89v1.85c-1.16.05-1.54,1-1.54,2.17,0,1.17.39,2.13,1.55,2.17v1.85c0,1.98,1.33,3.6,2.94,3.6h3.29s-.01-15.26-.01-15.26h-3.29c-1.61,0-2.93,1.63-2.93,3.61h0ZM235.77,215.54h1.4s-.01-15.26-.01-15.26h-1.4s.01,15.26.01,15.26h0ZM238.62,215.53h1.4s-.01-15.26-.01-15.26h-1.4s.01,15.26.01,15.26h0Z"/>
    <path class="cls-1" d="M1212.67,523.46c-1.5-2.17-7.79-4.59-10.72-6.44-43.83-27.69,36.54-64.16,28.04-12.08-.52,3.18-2.8,9.3-2.26,11.56l-4.15,1.92c-1.63-3.19,1.22-10.24,1.93-14.26,7.23-41.47-56.31-12.54-21.08,9.06,3.67,2.25,10.88,4.78,12.4,8.33l-4.15,1.92h0ZM1218.53,514.23l2.63-10.48s.08-.03.12-.05c.58-.27.83-.96.56-1.54-.27-.58-.96-.83-1.54-.56-.58.27-.83.96-.57,1.54.06.13.14.24.24.33l-2.53,10.06-9.3-4.58c-.01-.13-.04-.27-.1-.4-.27-.58-.96-.83-1.54-.56-.58.27-.83.96-.56,1.54.27.58.96.83,1.54.56.04-.02.08-.04.11-.06l9.69,4.77,2.97,6.42-7,3.24,1.01,2.19,14.99-6.94-1.01-2.19-6.73,3.12-2.97-6.42h0ZM1206.92,499.98l5.96,4.49.61-.28.44-7.45,5.96,4.49.61-.28-6.65-5.01c-.19-.14-.46-.01-.47.22l-.45,7.61-6.09-4.58c-.18-.14-.46-.02-.47.22l-.49,8.31.61-.28.44-7.45h0ZM1223.88,538.17l1.82-.84c.57,1.12,1.69,1.06,2.84.53,1.15-.53,1.91-1.35,1.43-2.51l1.82-.84c1.95-.9,2.94-2.94,2.21-4.52l-1.49-3.23-14.99,6.94,1.49,3.23c.73,1.58,2.93,2.14,4.87,1.24h0ZM1231.84,525.34l-.64-1.38-14.99,6.94.64,1.38,14.99-6.94h0ZM1230.54,522.53l-.64-1.38-14.99,6.94.64,1.38,14.99-6.94h0Z"/>
    <path class="cls-1" d="M830.13,39.62c.26-5.32,2.28-10.13,5.46-13.9l31.08,34.27c-4.07,2.8-9.05,4.34-14.37,4.08-12.88-.63-22.8-11.58-22.18-24.45h0ZM840.21,21.53c4.07-2.8,9.05-4.34,14.37-4.09,12.88.63,22.8,11.58,22.18,24.45-.26,5.31-2.28,10.13-5.47,13.9l-31.08-34.27h0Z"/>
    <path class="cls-1" d="M526.22,41.52l13.34-15.5c2.37,2.67,3.92,6.11,4.21,9.94.66,8.84-5.62,16.59-14.23,17.93.05-.88.04-1.77-.03-2.67-.27-3.59-1.45-6.89-3.3-9.7h0ZM521.94,63.74c-2.51,2.91-5.8,4.76-9.29,5.5l-2.49-33.34c3.56.21,7.09,1.55,10.01,4.06,7.06,6.08,7.86,16.73,1.78,23.79h0ZM508.16,69.58c-3.56-.21-7.09-1.55-10.01-4.06-7.06-6.08-7.86-16.73-1.78-23.79,2.51-2.91,5.8-4.76,9.29-5.5l2.49,33.34h0ZM510.78,32.38c1.95-6.5,7.74-11.45,14.91-11.98,3.84-.29,7.47.73,10.46,2.68l-12.85,14.93c-3.32-3.19-7.71-5.25-12.51-5.63h0Z"/>
    <path class="cls-2" d="M992.3,363.7l-1.27-11.49c-.24-2.13,1.32-4.07,3.45-4.31,1.91-.21,9.83-1.76,10.7-.5,1.4,2.04,4.66,1.65,5.54-.68.48-1.27,5.02-1.17,6.64-1.35,2.14-.24,8.17,2.83,8.4,4.96l.84,7.61c.24,2.13-4.98,6.44-7.12,6.68-1.9.21-5.91,1.52-6.83.05-1.39-1.98-4.56-1.64-5.49.61-.61,1.47-8.6,1.66-10.56,1.87-2.13.24-4.07-1.32-4.31-3.45h0ZM1028.11,358.93l-1.08-9.75,3.4-.38,1.08,9.75-3.4.38h0ZM1032.13,351.01c7.65-.85,8.21,4.16.55,5.01l-.55-5.01h0ZM1014.28,362.3l-1.48-13.4,4.14-.46,1.48,13.4-4.14.46h0Z"/>
    <path class="cls-2" d="M672.77,493.06l-9.8-2.14c-1.82-.4-2.98-2.21-2.59-4.03.36-1.63,1.27-8.57,2.55-8.94,2.07-.59,2.65-3.38.98-4.74-.91-.74.43-4.45.73-5.84.4-1.82,4.59-5.93,6.41-5.54l6.49,1.42c1.82.4,3.92,5.88,3.52,7.7-.35,1.62-.38,5.28-1.85,5.63-2.02.59-2.61,3.3-1.02,4.68,1.04.91-1.02,7.53-1.39,9.2-.4,1.82-2.21,2.98-4.03,2.59h0ZM678.77,462.29l-8.32-1.82.63-2.9,8.32,1.82-.63,2.9h0ZM673.37,456.8c1.42-6.53,5.69-5.59,4.27.93l-4.27-.93h0ZM677.71,474.6l-11.43-2.5.77-3.53,11.43,2.49-.77,3.53h0Z"/>
    <path class="cls-2" d="M878.31,619.08c1.77,2.37,3.83,5.11,5.6,7.48-.35.37-.71.74-1.07,1.11,2.88,3.85,2.87-1.56,8.16,1.59l3.98,5.32-12.72,9.53,9.52,12.71,12.72-9.53,4.88,6.51c-6.3,4.72-12.59,9.43-18.89,14.15-6.13-8.18-12.25-16.35-18.38-24.53-1.54-5.96,3.65-4.42.76-8.28-.46.24-.91.47-1.37.71l-5.6-7.48,12.4-9.29h0Z"/>
    <path class="cls-2" d="M389.85,151.38c-1.14,4.7-2.47,10.17-3.62,14.87-.84-.06-1.68-.12-2.52-.19-1.86,7.66,4.96,2,6.48,11.97l-2.57,10.57-25.29-6.15-6.14,25.27,25.29,6.15-3.15,12.94c-12.52-3.04-25.04-6.09-37.56-9.13,3.95-16.26,7.91-32.52,11.86-48.78,5.94-8.16,9.39,0,11.26-7.66-.77-.33-1.55-.66-2.32-.99l3.62-14.87,24.66,6h0Z"/>
    <path class="cls-2" d="M439.25,254.23l-4.33,1.27c-.13-1.1.56-2.14,1.63-2.46,1.07-.31,2.21.19,2.7,1.19h0ZM444.88,265.85l-13.4-7.33c-1.25-.68-1.71-2.26-1.03-3.51l10.69-19.54c.68-1.25,2.26-1.71,3.51-1.03l13.4,7.33c1.25.68,1.71,2.26,1.03,3.51l-10.69,19.54c-.68,1.25-2.26,1.71-3.51,1.03h0ZM431.85,257.84l13.4,7.33c.87.48,1.98.15,2.46-.72l10.69-19.54c.48-.87.15-1.98-.72-2.46l-13.4-7.33c-.87-.48-1.98-.15-2.45.72l-10.69,19.54c-.48.87-.15,1.98.72,2.45h0ZM446.61,258.26l-4.33,1.27c-.13-1.1.56-2.14,1.63-2.46,1.07-.31,2.21.19,2.7,1.19h0ZM454.39,244.04l-4.33,1.27c-.13-1.1.56-2.14,1.63-2.46,1.07-.31,2.21.19,2.7,1.19h0ZM455.22,244.21c.47,1.59-.45,3.27-2.04,3.73-1.6.47-3.27-.45-3.73-2.04-.47-1.59.45-3.27,2.04-3.73,1.59-.47,3.27.45,3.73,2.04h0ZM450.5,251.15l-4.33,1.27c-.13-1.1.56-2.14,1.63-2.46,1.07-.31,2.21.19,2.7,1.19h0ZM451.33,251.31c.47,1.59-.45,3.27-2.04,3.73-1.6.47-3.27-.45-3.73-2.04-.47-1.59.45-3.27,2.04-3.73,1.59-.47,3.27.45,3.73,2.04h0ZM447.44,258.42c.47,1.6-.45,3.27-2.04,3.73-1.59.47-3.27-.45-3.73-2.04-.47-1.59.45-3.27,2.04-3.73,1.6-.47,3.27.45,3.73,2.04h0ZM447.02,240.01l-4.33,1.27c-.13-1.1.56-2.14,1.63-2.46,1.07-.31,2.21.19,2.7,1.19h0ZM447.86,240.18c.47,1.59-.45,3.27-2.04,3.73-1.59.47-3.27-.45-3.73-2.04-.47-1.59.45-3.27,2.04-3.73,1.59-.47,3.27.45,3.73,2.04h0ZM443.14,247.12l-4.33,1.27c-.13-1.1.56-2.14,1.63-2.46,1.07-.31,2.21.19,2.7,1.19h0ZM443.97,247.29c.47,1.59-.45,3.27-2.04,3.73-1.59.47-3.27-.45-3.73-2.04-.47-1.6.45-3.27,2.04-3.73,1.6-.47,3.27.45,3.73,2.04h0ZM440.08,254.4c.47,1.6-.45,3.27-2.04,3.73-1.59.47-3.27-.45-3.73-2.04-.47-1.6.45-3.27,2.04-3.73,1.59-.47,3.27.45,3.73,2.04h0Z"/>
    <path class="cls-2" d="M1367.14,21.26l-19.07,16.94-1.14-1.28,19.07-16.94,1.14,1.28h0ZM1372.73,33.29l-1.54,26-10.88-.64,1.54-26,4.38.26-.85,14.33,2.12.13.85-14.33,4.38.26h0ZM1369.55,25.22l-1.68-3.14-2,2.92,3.68.22h0ZM1372.84,31.35l-2.56-4.78-5.27-.31-3.05,4.45v.06s10.88.64,10.88.64v-.06h0ZM1371.06,61.42l-.18,3.04c-.07,1.1-1.02,1.95-2.12,1.89l-6.87-.41c-1.1-.06-1.95-1.02-1.89-2.12l.18-3.03,10.88.64h0Z"/>
  </g>
</svg>