<svg width="87" height="105" viewBox="0 0 87 105" fill="none" xmlns="http://www.w3.org/2000/svg">
<path d="M86.5 68.5C86.5 88.3037 67.334 104.5 43.5 104.5C19.666 104.5 0.5 88.3037 0.5 68.5C0.5 48.6963 19.666 32.5 43.5 32.5C67.334 32.5 86.5 48.6963 86.5 68.5Z" fill="#D9D9D9" stroke="#594E4E"/>
<path d="M86.5 52.5C86.5 72.3037 67.334 88.5 43.5 88.5C19.666 88.5 0.5 72.3037 0.5 52.5C0.5 32.6963 19.666 16.5 43.5 16.5C67.334 16.5 86.5 32.6963 86.5 52.5Z" fill="#D9D9D9" stroke="#594E4E"/>
<line x1="0.5" y1="52" x2="0.5" y2="70" stroke="#594E4E"/>
<line x1="86.5" y1="52" x2="86.5" y2="69" stroke="#594E4E"/>
<path d="M79 51C79 66.2508 63.1229 79 43 79C22.8771 79 7 66.2508 7 51C7 35.7492 22.8771 23 43 23C63.1229 23 79 35.7492 79 51Z" fill="black" stroke="#594E4E" stroke-width="2"/>
<line x1="7" y1="50" x2="7" y2="32" stroke="#594E4E" stroke-width="2"/>
<line x1="79" y1="51" x2="79" y2="33" stroke="#594E4E" stroke-width="2"/>
<rect x="8" y="26" width="70" height="24" fill="black"/>
<path d="M79 34C79 49.2508 63.1229 62 43 62C22.8771 62 7 49.2508 7 34C7 18.7492 22.8771 6 43 6C63.1229 6 79 18.7492 79 34Z" fill="black" stroke="#594E4E" stroke-width="2"/>
<path d="M28.2486 30H24.8906V21.2727H28.2145C29.1122 21.2727 29.8878 21.4474 30.5412 21.7969C31.1974 22.1435 31.7031 22.6435 32.0582 23.2969C32.4162 23.9474 32.5952 24.7273 32.5952 25.6364C32.5952 26.5455 32.4176 27.3267 32.0625 27.9801C31.7074 28.6307 31.2045 29.1307 30.554 29.4801C29.9034 29.8267 29.1349 30 28.2486 30ZM27.2599 27.9886H28.1634C28.5952 27.9886 28.9631 27.919 29.267 27.7798C29.5739 27.6406 29.8068 27.4006 29.9659 27.0597C30.1278 26.7187 30.2088 26.2443 30.2088 25.6364C30.2088 25.0284 30.1264 24.554 29.9616 24.2131C29.7997 23.8722 29.5611 23.6321 29.2457 23.4929C28.9332 23.3537 28.5497 23.2841 28.0952 23.2841H27.2599V27.9886ZM42.146 25.6364C42.146 26.608 41.957 27.4276 41.5792 28.0952C41.2013 28.7599 40.6914 29.2642 40.0494 29.608C39.4073 29.9489 38.6914 30.1193 37.9016 30.1193C37.1062 30.1193 36.3874 29.9474 35.7454 29.6037C35.1062 29.2571 34.5977 28.7514 34.2198 28.0866C33.8448 27.419 33.6573 26.6023 33.6573 25.6364C33.6573 24.6648 33.8448 23.8466 34.2198 23.1818C34.5977 22.5142 35.1062 22.0099 35.7454 21.669C36.3874 21.3253 37.1062 21.1534 37.9016 21.1534C38.6914 21.1534 39.4073 21.3253 40.0494 21.669C40.6914 22.0099 41.2013 22.5142 41.5792 23.1818C41.957 23.8466 42.146 24.6648 42.146 25.6364ZM39.7085 25.6364C39.7085 25.1136 39.6388 24.6733 39.4996 24.3153C39.3633 23.9545 39.1602 23.6818 38.8903 23.4972C38.6232 23.3097 38.2937 23.2159 37.9016 23.2159C37.5096 23.2159 37.1786 23.3097 36.9087 23.4972C36.6417 23.6818 36.4386 23.9545 36.2994 24.3153C36.163 24.6733 36.0948 25.1136 36.0948 25.6364C36.0948 26.1591 36.163 26.6009 36.2994 26.9616C36.4386 27.3196 36.6417 27.5923 36.9087 27.7798C37.1786 27.9645 37.5096 28.0568 37.9016 28.0568C38.2937 28.0568 38.6232 27.9645 38.8903 27.7798C39.1602 27.5923 39.3633 27.3196 39.4996 26.9616C39.6388 26.6009 39.7085 26.1591 39.7085 25.6364ZM50.7933 21.2727V30H48.8161L45.6626 25.4148H45.6115V30H43.2422V21.2727H45.2536L48.3558 25.8409H48.424V21.2727H50.7933ZM53.8913 21.2727V22.2955C53.8913 22.5739 53.8345 22.8523 53.7209 23.1307C53.6101 23.4062 53.468 23.6634 53.2947 23.902C53.1243 24.1378 52.9482 24.3352 52.7663 24.4943L51.7947 24C51.9141 23.7955 52.0206 23.5582 52.1143 23.2884C52.2081 23.0185 52.255 22.6875 52.255 22.2955V21.2727H53.8913ZM54.7575 23.1818V21.2727H62.3427V23.1818H59.7177V30H57.3825V23.1818H54.7575ZM21.693 38.1818V36.2727H29.2782V38.1818H26.6532V45H24.318V38.1818H21.693ZM38.2143 40.6364C38.2143 41.608 38.0254 42.4276 37.6476 43.0952C37.2697 43.7599 36.7598 44.2642 36.1177 44.608C35.4757 44.9489 34.7598 45.1193 33.97 45.1193C33.1745 45.1193 32.4558 44.9474 31.8137 44.6037C31.1745 44.2571 30.666 43.7514 30.2882 43.0866C29.9132 42.419 29.7257 41.6023 29.7257 40.6364C29.7257 39.6648 29.9132 38.8466 30.2882 38.1818C30.666 37.5142 31.1745 37.0099 31.8137 36.669C32.4558 36.3253 33.1745 36.1534 33.97 36.1534C34.7598 36.1534 35.4757 36.3253 36.1177 36.669C36.7598 37.0099 37.2697 37.5142 37.6476 38.1818C38.0254 38.8466 38.2143 39.6648 38.2143 40.6364ZM35.7768 40.6364C35.7768 40.1136 35.7072 39.6733 35.568 39.3153C35.4316 38.9545 35.2285 38.6818 34.9586 38.4972C34.6916 38.3097 34.362 38.2159 33.97 38.2159C33.5779 38.2159 33.247 38.3097 32.9771 38.4972C32.71 38.6818 32.5069 38.9545 32.3677 39.3153C32.2314 39.6733 32.1632 40.1136 32.1632 40.6364C32.1632 41.1591 32.2314 41.6009 32.3677 41.9616C32.5069 42.3196 32.71 42.5923 32.9771 42.7798C33.247 42.9645 33.5779 43.0568 33.97 43.0568C34.362 43.0568 34.6916 42.9645 34.9586 42.7798C35.2285 42.5923 35.4316 42.3196 35.568 41.9616C35.7072 41.6009 35.7768 41.1591 35.7768 40.6364ZM44.4753 36.2727H46.8446V41.8636C46.8446 42.5284 46.6855 43.1037 46.3674 43.5895C46.052 44.0724 45.6117 44.446 45.0463 44.7102C44.481 44.9716 43.8248 45.1023 43.0776 45.1023C42.3248 45.1023 41.6657 44.9716 41.1003 44.7102C40.535 44.446 40.0946 44.0724 39.7793 43.5895C39.4668 43.1037 39.3105 42.5284 39.3105 41.8636V36.2727H41.6799V41.6591C41.6799 41.929 41.7395 42.1705 41.8588 42.3835C41.9782 42.5937 42.1429 42.7585 42.3532 42.8778C42.5662 42.9972 42.8077 43.0568 43.0776 43.0568C43.3503 43.0568 43.5918 42.9972 43.802 42.8778C44.0123 42.7585 44.177 42.5937 44.2963 42.3835C44.4157 42.1705 44.4753 41.929 44.4753 41.6591V36.2727ZM56.1184 39.5455H53.715C53.698 39.3466 53.6525 39.1662 53.5787 39.0043C53.5076 38.8423 53.4082 38.7031 53.2804 38.5866C53.1554 38.4673 53.0034 38.3764 52.8244 38.3139C52.6454 38.2486 52.4423 38.2159 52.215 38.2159C51.8173 38.2159 51.4806 38.3125 51.2051 38.5057C50.9324 38.6989 50.725 38.9759 50.5829 39.3366C50.4437 39.6974 50.3741 40.1307 50.3741 40.6364C50.3741 41.1705 50.4451 41.6179 50.5872 41.9787C50.7321 42.3366 50.9409 42.6065 51.2136 42.7884C51.4863 42.9673 51.8145 43.0568 52.198 43.0568C52.4167 43.0568 52.6127 43.0298 52.786 42.9759C52.9593 42.919 53.1099 42.8381 53.2377 42.733C53.3656 42.6278 53.4693 42.5014 53.5488 42.3537C53.6312 42.2031 53.6866 42.0341 53.715 41.8466L56.1184 41.8636C56.09 42.233 55.9863 42.6094 55.8074 42.9929C55.6284 43.3736 55.3741 43.7259 55.0446 44.0497C54.7179 44.3707 54.313 44.6293 53.8301 44.8253C53.3471 45.0213 52.786 45.1193 52.1468 45.1193C51.3457 45.1193 50.627 44.9474 49.9906 44.6037C49.3571 44.2599 48.8556 43.7543 48.4863 43.0866C48.1199 42.419 47.9366 41.6023 47.9366 40.6364C47.9366 39.6648 48.1241 38.8466 48.4991 38.1818C48.8741 37.5142 49.3798 37.0099 50.0162 36.669C50.6525 36.3253 51.3627 36.1534 52.1468 36.1534C52.698 36.1534 53.2051 36.2287 53.6681 36.3793C54.1312 36.5298 54.5375 36.75 54.8869 37.0398C55.2363 37.3267 55.5176 37.6804 55.7306 38.1009C55.9437 38.5213 56.073 39.0028 56.1184 39.5455ZM57.1934 45V36.2727H59.5627V39.6818H62.699V36.2727H65.0684V45H62.699V41.5909H59.5627V45H57.1934Z" fill="white"/>
</svg>
