<?xml version="1.0" encoding="UTF-8"?>
<svg id="Button_1" xmlns="http://www.w3.org/2000/svg" viewBox="0 0 94.34 105" width="50" height="50">
  <defs>
    <style>
      .cls-1 {
        fill: #f2d972;
      }

      .cls-1, .cls-2, .cls-3, .cls-4, .cls-5 {
        stroke-width: 0px;
      }

      .cls-2 {
        fill: #756316;
      }

      .cls-3 {
        fill: #b79a23;
      }

      .cls-4 {
        fill: #1b1c28;
      }

      .cls-6 {
        fill: #1e2037;
      }

      .cls-6, .cls-7, .cls-8 {
        stroke: #000;
      }

      .cls-7 {
        fill: #f7cf28;
      }

      .cls-8 {
        fill: #ba9d22;
      }

      .cls-5 {
        fill: #2a2d3f;
      }
    </style>
  </defs>
  <g id="Bot_blue">
    <path class="cls-6" d="M86.5,52.5v16c0,19.8-19.17,36-43,36S.5,88.3.5,68.5v-16c0,2.75.37,5.43,1.07,8,4.34,15.99,21.41,28,41.93,28s37.59-12.01,41.93-28c.7-2.57,1.07-5.25,1.07-8Z"/>
    <path class="cls-4" d="M86,67.89v.61c0,19.58-19.07,35.5-42.5,35.5-.75,0-1.49-.02-2.22-.05,1.65-.41,3.29-.82,4.94-1.23,1.92-.5,3.91-1.08,5.98-1.74,2.78-.89,5.38-1.85,7.79-2.82,2.77-.98,6.53-2.65,10.45-5.55,3.29-2.44,5.68-5,7.34-7.07,1.99-2.45,4.39-6,6.21-10.66,1-2.55,1.62-4.93,2.02-6.99Z"/>
  </g>
  <g id="Top_blue">
    <path class="cls-6" d="M86.5,52.5c0,2.75-.37,5.43-1.07,8-4.34,15.99-21.41,28-41.93,28S5.91,76.49,1.57,60.5c-.7-2.57-1.07-5.25-1.07-8C.5,32.7,19.67,16.5,43.5,16.5s43,16.2,43,36Z"/>
    <path class="cls-5" d="M39.16,87.81c-18.08-1.5-33.01-12.36-37.11-27.44-.7-2.57-1.05-5.21-1.05-7.87,0-4.9,1.2-9.57,3.36-13.82-.61,2.27-1.25,5.47-1.34,9.34-.05,2.18-.14,7.85,2.05,13.62,3.15,8.32,10.48,13.5,17.67,18.16,4.33,2.8,8.72,4.95,13.51,6.86,1.44.57,2.95,1.15,2.91,1.15Z"/>
  </g>
  <path class="cls-8" d="M23.1,28.21v18.43c0,.29-.12.56-.3.78-.26.32-.69.52-1.17.52H4.98c-.81,0-1.46-.59-1.46-1.3v-21.04c0,.32.06.65.16,1,.55,1.74,2.07.57,3.08,1.1,1.05.56,2.25.94,5.87,1.15l1.04.05c.36.03.74.04,1.14.05,4.74.14,8.29-.74,8.29-.74Z"/>
  <path class="cls-8" d="M33.25,17.11v18.54h0c-1.16.92-2.37,1.97-3.58,3.15-.12.1-.22.22-.35.33-.61.61-1.24,1.29-1.75,1.85-.58.68-1.41,1.72-1.99,2.51-.98,1.34-1.68,2.77-2.79,3.92,0,0,.18-.19,0,0,.2-.21.3-.48.3-.78v-18.43c.68-1.2,1.5-2.51,2.49-3.85.58-.79,1.42-1.84,1.99-2.51.59-.66,1.39-1.49,2.1-2.18,1.17-1.15,2.34-2.17,3.47-3.05.07.15.12.32.12.5Z"/>
  <g>
    <path class="cls-7" d="M33.25,18.52s-.07.06-.12.09c-1.13.88-2.3,1.9-3.47,3.05-.71.69-1.5,1.52-2.1,2.18-.58.68-1.42,1.72-1.99,2.51-.98,1.34-1.81,2.65-2.49,3.85,0,0-3.55.88-8.29.74-.4-.01-.78-.03-1.14-.05l-1.04-.05c-3.61-.2-4.81-.59-5.87-1.15-1.01-.54-2.53-1.37-3.08-3.1-.1-.34-.16-.68-.16-1v-.28s0-.06.01-.09c.04-1.39.72-2.53.95-2.86,1.81-2.82,3.35-4.89,3.35-4.89,1.18-1.61,2.46-3.13,3.6-4.44,1.14-1.33,2.49-2.79,3.93-4.24,0,0,1.86-1.85,4.48-4.13.42-.36,2.11-1.77,4.42-1.77,2.04.01,3.32,1.1,4.18,1.81,1.05.89,1.88,2.02,3.47,6.55,1.37,4.01,1.34,7.26,1.34,7.26Z"/>
    <path class="cls-3" d="M32.75,18.28c-.27.22-.54.43-.81.66-.29.24-.59.49-.88.75-.11.1-.23.2-.34.3-.47.42-.94.86-1.4,1.32-.7.68-1.51,1.52-2.13,2.21-.53.62-1.38,1.69-2.01,2.54-.86,1.16-1.66,2.41-2.4,3.71-.19.04-.47.1-.81.16-1.19.22-2.11.31-2.7.37-.52.05-1.28.11-2.21.15-.89.03-1.55.02-2.24.01-1.33-.02-2.17-.03-2.17-.11,0-.1,1.41-.24,3.87-.59,1.34-.19,2.43-.36,3.15-.48.45-.06,1.36-.23,2.24-.91.54-.42.88-.88,1.08-1.21.72-.95,1.48-1.91,2.28-2.88,1.46-1.76,2.91-3.37,4.33-4.84.38-.42.89-1.09,1.28-2.01.28-.66.42-1.27.48-1.74-.02-.72-.06-1.47-.13-2.26-.14-1.58-.38-3.04-.67-4.34.97,2.21,1.8,4.86,2.09,7.9.04.44.07.87.09,1.29Z"/>
    <path class="cls-1" d="M29.06,6.12c-.37-.29-.99-.7-1.85-.92-1.49-.38-2.74.05-3.2.24-.69.34-1.72.9-2.89,1.73-1.37.97-2.28,1.85-5.01,4.76-1.72,1.83-1.6,1.74-4.27,4.62-.52.57-2.56,2.76-4.59,5.72-.57.82-1.28,1.93-1.13,3.28.1.92.57,1.59.81,1.94.84,1.21,1.97,1.74,2.74,2.09.55.26,1.39.57,2.47.72-.58-.05-1.16-.1-1.75-.15-1.97-.23-2.73-.55-3.41-.91-.93-.49-2.34-1.24-2.83-2.8-.1-.32-.14-.6-.14-.85v-.36c.06-1.37.79-2.46.89-2.6,1.77-2.77,3.31-4.84,3.33-4.86,1.29-1.75,2.66-3.36,3.57-4.41,1.25-1.45,2.6-2.9,3.91-4.21.02-.02,1.88-1.87,4.45-4.11,1.25-1.07,2.71-1.66,4.09-1.66,1.85.02,3.01.98,3.86,1.7.31.27.61.55.94,1.02Z"/>
  </g>
  <path class="cls-2" d="M22.6,36v10.64s0,.1-.02.14c-.01.05-.02.09-.04.13-.03.06-.06.12-.11.17,0,.01-.01.02-.02.03-.18.2-.47.33-.79.33h-9.81c.69-.08,4.6-.57,7.13-1.79.95-.46,1.5-.92,1.91-1.41.58-.7.84-1.42.96-1.88.13-.91.25-1.83.38-2.74.14-1.21.28-2.41.42-3.62Z"/>
  <path class="cls-8" d="M63.9,28.21v18.43c0,.29.12.56.3.78.26.32.69.52,1.17.52h16.64c.81,0,1.46-.59,1.46-1.3v-21.04c0,.32-.06.65-.16,1-.55,1.74-2.07.57-3.08,1.1-1.05.56-2.25.94-5.87,1.15l-1.04.05c-.36.03-.74.04-1.14.05-4.74.14-8.29-.74-8.29-.74Z"/>
  <path class="cls-8" d="M53.75,17.11v18.54h0c1.16.92,2.37,1.97,3.58,3.15.12.1.22.22.35.33.61.61,1.24,1.29,1.75,1.85.58.68,1.41,1.72,1.99,2.51.98,1.34,1.68,2.77,2.79,3.92,0,0-.18-.19,0,0-.2-.21-.3-.48-.3-.78v-18.43c-.68-1.2-1.5-2.51-2.49-3.85-.58-.79-1.42-1.84-1.99-2.51-.59-.66-1.39-1.49-2.1-2.18-1.17-1.15-2.34-2.17-3.47-3.05-.07.15-.12.32-.12.5Z"/>
  <path class="cls-2" d="M82.98,39.07v7.57c0,.44-.43.8-.96.8h-5.22c.28-.06.57-.11.86-.16.22-.04.5-.11.85-.22.46-.14.82-.29,1.02-.38.55-.25.85-.38,1.19-.65.5-.4.76-.84.93-1.12.24-.41.35-.76.57-1.46.21-.67.33-1.19.36-1.32.15-.68.34-1.72.41-3.05Z"/>
  <g>
    <path class="cls-7" d="M53.75,18.52s.07.06.12.09c1.13.88,2.3,1.9,3.47,3.05.71.69,1.5,1.52,2.1,2.18.58.68,1.42,1.72,1.99,2.51.98,1.34,1.81,2.65,2.49,3.85,0,0,3.55.88,8.29.74.4-.01.78-.03,1.14-.05l1.04-.05c3.61-.2,4.81-.59,5.87-1.15,1.01-.54,2.53-1.37,3.08-3.1.1-.34.16-.68.16-1v-.28s0-.06-.01-.09c-.04-1.39-.72-2.53-.95-2.86-1.81-2.82-3.35-4.89-3.35-4.89-1.18-1.61-2.46-3.13-3.6-4.44-1.14-1.33-2.49-2.79-3.93-4.24,0,0-1.86-1.85-4.48-4.13-.42-.36-2.11-1.77-4.42-1.77-2.04.01-3.32,1.1-4.18,1.81-1.05.89-1.88,2.02-3.47,6.55-1.37,4.01-1.34,7.26-1.34,7.26Z"/>
    <path class="cls-1" d="M66.83,5.05c-1.78-.07-3.21.19-4.16.43-1.41.36-2.66.69-3.69,1.79-.51.54-.8,1.1-.97,1.49-.38.99-.76,1.99-1.15,2.98-.42,1.45-.61,2.71-.71,3.69-.09.97-.15,1.61-.03,2.41.11.76.44,2.06,1.56,3.47-.69-.67-1.43-1.36-2.24-2.05-.4-.34-.8-.67-1.19-.98.03-.8.19-3.59,1.31-6.85,1.63-4.64,2.44-5.58,3.33-6.34.84-.71,2-1.67,3.84-1.69,1.39,0,2.85.59,4.1,1.65Z"/>
    <path class="cls-3" d="M82.98,25.61c0,.25-.04.53-.13.84-.5,1.57-1.91,2.32-2.84,2.81-.89.47-1.92.88-5.66,1.09l-1.05.06c-.35.02-.72.03-1.12.05-2.14.06-4.03-.09-5.46-.28,2.58-.14,4.76-.36,6.46-.56,1.5-.18,2.8-.37,4.25-1.04.34-.16,1.44-.68,2.52-1.71.6-.57.82-.94.89-1.06.54-.94.55-1.9.51-2.41-.16-.86-.32-1.72-.48-2.58.39.57.8,1.19,1.22,1.85.09.12.82,1.21.87,2.58v.36Z"/>
  </g>
  <path class="cls-8" d="M58.44,50.08c0,6.42-6.83,11.61-15.26,11.61s-15.26-5.19-15.26-11.61v-19.11h30.5v18.51c.01.2.03.4.03.6Z"/>
  <g>
    <ellipse class="cls-7" cx="43.18" cy="31.66" rx="15.26" ry="11.62"/>
    <path class="cls-1" d="M37.77,21.32c-.76.4-1.86,1.07-2.94,2.16-1.28,1.3-1.94,2.57-2.64,3.95-.84,1.67-1.52,3.02-1.74,4.42-.63,4.04,2.76,7.64,3.72,8.6-3.41-1.97-5.64-5.04-5.75-8.5-.01-.28-.01-.61.02-.98,0,0,.02-.25.06-.5.59-4.18,4.26-7.67,9.27-9.15Z"/>
    <path class="cls-3" d="M57.94,31.66c0,.19-.01.38-.02.57-.4,5.87-6.85,10.54-14.74,10.54-.06,0-.4.03-.41-.01,0-.06.92-.21,2.11-.53.55-.15,1.02-.3,1.95-.61,1.32-.44,1.97-.65,2.45-.85.86-.35,2.03-.84,3.29-1.81.48-.36,1.2-.93,1.92-1.86.35-.45,1.11-1.56,1.61-3.17.21-.67.43-1.66.38-2.86-.03-.78-.16-1.45-.31-1.98-.33-1.3-.67-2.6-1-3.9,1.45,1.52,2.41,3.33,2.68,5.28.03.16.05.33.06.5.02.23.03.46.03.69Z"/>
  </g>
  <path class="cls-8" d="M60.46,74.59c0,.73-.09,2.56-1.47,4.06-1.13,1.23-2.5,1.82-4.04,2.02-3.41.45-6.05.63-6.05.63-2.04.14-4.05.18-5.82.18s-3.78-.04-5.83-.18c0,0-2.62-.18-6.05-.63-1.74-.23-2.97-.86-4.04-2.02-1.37-1.49-1.48-3.29-1.49-4.02.21-5.86.42-9.73.63-15.59h33.59c.18,5.85.36,9.7.54,15.56Z"/>
  <g>
    <path class="cls-7" d="M59.08,60.77c-1.33,1.62-3.49,1.94-4.04,2.02-3.41.45-6.05.63-6.05.63-2.04.14-4.05.18-5.82.18s-3.78-.04-5.83-.18c0,0-2.62-.18-6.05-.63-.54-.08-2.7-.4-4.04-2.02-1.15-1.43-.98-3-.86-4.03.15-1.28.62-2.54,3.55-6.41,2.59-3.41,5.37-5.36,5.37-5.36,1.43.26,3,.47,4.7.6.99.08,2.15.13,3.04.14.9-.01,2.27-.06,3.26-.14,1.7-.13,3.27-.34,4.69-.6,0,0,2.77,1.95,5.37,5.36,2.92,3.87,3.4,5.13,3.55,6.41.12,1.03.3,2.6-.86,4.03Z"/>
    <path class="cls-1" d="M40,46.07c-.97.12-1.76.32-2.32.49-.4.12-.98.32-1.69.71-.57.31-.99.62-1.25.83-.55.44-.99.9-1.32,1.31-.62.71-1.11,1.34-1.47,1.82-.51.69-1.24,1.67-1.98,3.06-.38.72-.6,1.14-.82,1.78-.18.52-.53,1.57-.49,2.98.02,1.03.25,1.9.49,2.56-.59-.3-1.08-.69-1.46-1.15-.24-.3-.42-.61-.54-.91-.07-.17-.13-.34-.16-.5-.05-.17-.08-.34-.1-.5-.08-.65-.01-1.27.05-1.75.12-1.07.46-2.2,3.44-6.16,2.16-2.83,4.47-4.66,5.1-5.13,1.52.26,3.05.45,4.54.57Z"/>
    <path class="cls-3" d="M59.48,58.54c-.02.16-.05.33-.09.5-.04.16-.09.33-.16.5-.12.3-.3.61-.54.91-.8.97-2.08,1.61-3.71,1.84-3.35.44-5.99.62-6.01.62-1.75.12-3.64.18-5.78.18s-4.04-.06-5.8-.18c-.01,0-.55-.04-1.45-.12l2.96-.09c1.4-.1,2.57-.2,3.44-.28,1.5-.14,3.04-.29,5.03-.59,1.09-.17,1.99-.33,2.59-.44.86-.18,1.73-.35,2.59-.53.73-.12,1.57-.3,2.48-.6.67-.22,1.27-.47,1.8-.72.23-.1.83-.41,1.25-1.11.44-.73.42-1.43.41-1.68-.21-1.17-.42-2.33-.62-3.5,1.29,1.94,1.49,2.76,1.58,3.54.06.48.13,1.1.04,1.75Z"/>
  </g>
  <path class="cls-2" d="M59.96,74.6c0,.84-.17,2.43-1.34,3.71-.97,1.05-2.19,1.66-3.74,1.86-3.35.44-5.98.62-6.01.62-1.73.12-3.62.18-5.78.18-.5,0-.98,0-1.45,0,1.82-.23,3.65-.45,5.47-.68,1.46-.18,2.92-.39,4.38-.63,1.33-.22,2.75-.38,4.01-.88.55-.22,1.13-.53,1.64-.88.39-.36.9-.93,1.34-1.72.37-.66.57-1.27.68-1.74.12-.68.24-1.36.35-2.05.1-.98.19-1.95.29-2.93l.16,5.16Z"/>
</svg>