<svg width="87" height="105" viewBox="0 0 87 105" fill="none" xmlns="http://www.w3.org/2000/svg">
<path d="M86.5 68.5C86.5 88.3037 67.334 104.5 43.5 104.5C19.666 104.5 0.5 88.3037 0.5 68.5C0.5 48.6963 19.666 32.5 43.5 32.5C67.334 32.5 86.5 48.6963 86.5 68.5Z" fill="#D9D9D9" stroke="black"/>
<path d="M86.5 52.5C86.5 72.3037 67.334 88.5 43.5 88.5C19.666 88.5 0.5 72.3037 0.5 52.5C0.5 32.6963 19.666 16.5 43.5 16.5C67.334 16.5 86.5 32.6963 86.5 52.5Z" fill="#D9D9D9" stroke="black"/>
<line x1="0.5" y1="52" x2="0.5" y2="70" stroke="black"/>
<line x1="86.5" y1="52" x2="86.5" y2="69" stroke="black"/>
<path d="M79 51C79 66.2508 63.1229 79 43 79C22.8771 79 7 66.2508 7 51C7 35.7492 22.8771 23 43 23C63.1229 23 79 35.7492 79 51Z" fill="#E62727" stroke="black" stroke-width="2"/>
<line x1="7" y1="50" x2="7" y2="37" stroke="black" stroke-width="2"/>
<line x1="79" y1="51" x2="79" y2="37" stroke="black" stroke-width="2"/>
<path d="M79 38C79 53.2508 63.1229 66 43 66C22.8771 66 7 53.2508 7 38C7 22.7492 22.8771 10 43 10C63.1229 10 79 22.7492 79 38Z" fill="#E62727" stroke="black" stroke-width="2"/>
<path d="M28.2486 34H24.8906V25.2727H28.2145C29.1122 25.2727 29.8878 25.4474 30.5412 25.7969C31.1974 26.1435 31.7031 26.6435 32.0582 27.2969C32.4162 27.9474 32.5952 28.7273 32.5952 29.6364C32.5952 30.5455 32.4176 31.3267 32.0625 31.9801C31.7074 32.6307 31.2045 33.1307 30.554 33.4801C29.9034 33.8267 29.1349 34 28.2486 34ZM27.2599 31.9886H28.1634C28.5952 31.9886 28.9631 31.919 29.267 31.7798C29.5739 31.6406 29.8068 31.4006 29.9659 31.0597C30.1278 30.7187 30.2088 30.2443 30.2088 29.6364C30.2088 29.0284 30.1264 28.554 29.9616 28.2131C29.7997 27.8722 29.5611 27.6321 29.2457 27.4929C28.9332 27.3537 28.5497 27.2841 28.0952 27.2841H27.2599V31.9886ZM42.146 29.6364C42.146 30.608 41.957 31.4276 41.5792 32.0952C41.2013 32.7599 40.6914 33.2642 40.0494 33.608C39.4073 33.9489 38.6914 34.1193 37.9016 34.1193C37.1062 34.1193 36.3874 33.9474 35.7454 33.6037C35.1062 33.2571 34.5977 32.7514 34.2198 32.0866C33.8448 31.419 33.6573 30.6023 33.6573 29.6364C33.6573 28.6648 33.8448 27.8466 34.2198 27.1818C34.5977 26.5142 35.1062 26.0099 35.7454 25.669C36.3874 25.3253 37.1062 25.1534 37.9016 25.1534C38.6914 25.1534 39.4073 25.3253 40.0494 25.669C40.6914 26.0099 41.2013 26.5142 41.5792 27.1818C41.957 27.8466 42.146 28.6648 42.146 29.6364ZM39.7085 29.6364C39.7085 29.1136 39.6388 28.6733 39.4996 28.3153C39.3633 27.9545 39.1602 27.6818 38.8903 27.4972C38.6232 27.3097 38.2937 27.2159 37.9016 27.2159C37.5096 27.2159 37.1786 27.3097 36.9087 27.4972C36.6417 27.6818 36.4386 27.9545 36.2994 28.3153C36.163 28.6733 36.0948 29.1136 36.0948 29.6364C36.0948 30.1591 36.163 30.6009 36.2994 30.9616C36.4386 31.3196 36.6417 31.5923 36.9087 31.7798C37.1786 31.9645 37.5096 32.0568 37.9016 32.0568C38.2937 32.0568 38.6232 31.9645 38.8903 31.7798C39.1602 31.5923 39.3633 31.3196 39.4996 30.9616C39.6388 30.6009 39.7085 30.1591 39.7085 29.6364ZM50.7933 25.2727V34H48.8161L45.6626 29.4148H45.6115V34H43.2422V25.2727H45.2536L48.3558 29.8409H48.424V25.2727H50.7933ZM53.8913 25.2727V26.2955C53.8913 26.5739 53.8345 26.8523 53.7209 27.1307C53.6101 27.4062 53.468 27.6634 53.2947 27.902C53.1243 28.1378 52.9482 28.3352 52.7663 28.4943L51.7947 28C51.9141 27.7955 52.0206 27.5582 52.1143 27.2884C52.2081 27.0185 52.255 26.6875 52.255 26.2955V25.2727H53.8913ZM54.7575 27.1818V25.2727H62.3427V27.1818H59.7177V34H57.3825V27.1818H54.7575ZM21.693 42.1818V40.2727H29.2782V42.1818H26.6532V49H24.318V42.1818H21.693ZM38.2143 44.6364C38.2143 45.608 38.0254 46.4276 37.6476 47.0952C37.2697 47.7599 36.7598 48.2642 36.1177 48.608C35.4757 48.9489 34.7598 49.1193 33.97 49.1193C33.1745 49.1193 32.4558 48.9474 31.8137 48.6037C31.1745 48.2571 30.666 47.7514 30.2882 47.0866C29.9132 46.419 29.7257 45.6023 29.7257 44.6364C29.7257 43.6648 29.9132 42.8466 30.2882 42.1818C30.666 41.5142 31.1745 41.0099 31.8137 40.669C32.4558 40.3253 33.1745 40.1534 33.97 40.1534C34.7598 40.1534 35.4757 40.3253 36.1177 40.669C36.7598 41.0099 37.2697 41.5142 37.6476 42.1818C38.0254 42.8466 38.2143 43.6648 38.2143 44.6364ZM35.7768 44.6364C35.7768 44.1136 35.7072 43.6733 35.568 43.3153C35.4316 42.9545 35.2285 42.6818 34.9586 42.4972C34.6916 42.3097 34.362 42.2159 33.97 42.2159C33.5779 42.2159 33.247 42.3097 32.9771 42.4972C32.71 42.6818 32.5069 42.9545 32.3677 43.3153C32.2314 43.6733 32.1632 44.1136 32.1632 44.6364C32.1632 45.1591 32.2314 45.6009 32.3677 45.9616C32.5069 46.3196 32.71 46.5923 32.9771 46.7798C33.247 46.9645 33.5779 47.0568 33.97 47.0568C34.362 47.0568 34.6916 46.9645 34.9586 46.7798C35.2285 46.5923 35.4316 46.3196 35.568 45.9616C35.7072 45.6009 35.7768 45.1591 35.7768 44.6364ZM44.4753 40.2727H46.8446V45.8636C46.8446 46.5284 46.6855 47.1037 46.3674 47.5895C46.052 48.0724 45.6117 48.446 45.0463 48.7102C44.481 48.9716 43.8248 49.1023 43.0776 49.1023C42.3248 49.1023 41.6657 48.9716 41.1003 48.7102C40.535 48.446 40.0946 48.0724 39.7793 47.5895C39.4668 47.1037 39.3105 46.5284 39.3105 45.8636V40.2727H41.6799V45.6591C41.6799 45.929 41.7395 46.1705 41.8588 46.3835C41.9782 46.5937 42.1429 46.7585 42.3532 46.8778C42.5662 46.9972 42.8077 47.0568 43.0776 47.0568C43.3503 47.0568 43.5918 46.9972 43.802 46.8778C44.0123 46.7585 44.177 46.5937 44.2963 46.3835C44.4157 46.1705 44.4753 45.929 44.4753 45.6591V40.2727ZM56.1184 43.5455H53.715C53.698 43.3466 53.6525 43.1662 53.5787 43.0043C53.5076 42.8423 53.4082 42.7031 53.2804 42.5866C53.1554 42.4673 53.0034 42.3764 52.8244 42.3139C52.6454 42.2486 52.4423 42.2159 52.215 42.2159C51.8173 42.2159 51.4806 42.3125 51.2051 42.5057C50.9324 42.6989 50.725 42.9759 50.5829 43.3366C50.4437 43.6974 50.3741 44.1307 50.3741 44.6364C50.3741 45.1705 50.4451 45.6179 50.5872 45.9787C50.7321 46.3366 50.9409 46.6065 51.2136 46.7884C51.4863 46.9673 51.8145 47.0568 52.198 47.0568C52.4167 47.0568 52.6127 47.0298 52.786 46.9759C52.9593 46.919 53.1099 46.8381 53.2377 46.733C53.3656 46.6278 53.4693 46.5014 53.5488 46.3537C53.6312 46.2031 53.6866 46.0341 53.715 45.8466L56.1184 45.8636C56.09 46.233 55.9863 46.6094 55.8074 46.9929C55.6284 47.3736 55.3741 47.7259 55.0446 48.0497C54.7179 48.3707 54.313 48.6293 53.8301 48.8253C53.3471 49.0213 52.786 49.1193 52.1468 49.1193C51.3457 49.1193 50.627 48.9474 49.9906 48.6037C49.3571 48.2599 48.8556 47.7543 48.4863 47.0866C48.1199 46.419 47.9366 45.6023 47.9366 44.6364C47.9366 43.6648 48.1241 42.8466 48.4991 42.1818C48.8741 41.5142 49.3798 41.0099 50.0162 40.669C50.6525 40.3253 51.3627 40.1534 52.1468 40.1534C52.698 40.1534 53.2051 40.2287 53.6681 40.3793C54.1312 40.5298 54.5375 40.75 54.8869 41.0398C55.2363 41.3267 55.5176 41.6804 55.7306 42.1009C55.9437 42.5213 56.073 43.0028 56.1184 43.5455ZM57.1934 49V40.2727H59.5627V43.6818H62.699V40.2727H65.0684V49H62.699V45.5909H59.5627V49H57.1934Z" fill="white"/>
</svg>
