<?xml version="1.0" encoding="UTF-8"?>
<svg id="Button3" xmlns="http://www.w3.org/2000/svg" viewBox="0 0 94.34 105" width="50" height="50">
  <defs>
    <style>
      .cls-1 {
        fill: #b72323;
      }

      .cls-1, .cls-2 {
        stroke-width: 2px;
      }

      .cls-1, .cls-2, .cls-3 {
        stroke: #000;
      }

      .cls-4 {
        fill: #a62727;
      }

      .cls-4, .cls-5, .cls-6, .cls-7, .cls-8 {
        stroke-width: 0px;
      }

      .cls-2 {
        fill: #e62727;
      }

      .cls-5 {
        fill: #1b1c28;
      }

      .cls-3 {
        fill: #1e2037;
      }

      .cls-6 {
        fill: #f94b4b;
      }

      .cls-7 {
        fill: #fff;
      }

      .cls-8 {
        fill: #2a2d3f;
      }
    </style>
  </defs>
  <g id="Bot_blue">
    <path class="cls-3" d="M86.5,52.5v16c0,19.8-19.17,36-43,36S.5,88.3.5,68.5v-16c0,2.75.37,5.43,1.07,8,4.34,15.99,21.41,28,41.93,28s37.59-12.01,41.93-28c.7-2.57,1.07-5.25,1.07-8Z"/>
    <path class="cls-5" d="M86,67.89v.61c0,19.58-19.07,35.5-42.5,35.5-.75,0-1.49-.02-2.22-.05,1.65-.41,3.29-.82,4.94-1.23,1.92-.5,3.91-1.08,5.98-1.74,2.78-.89,5.38-1.85,7.79-2.82,2.77-.98,6.53-2.65,10.45-5.55,3.29-2.44,5.68-5,7.34-7.07,1.99-2.45,4.39-6,6.21-10.66,1-2.55,1.62-4.93,2.02-6.99Z"/>
  </g>
  <g id="Top_blue">
    <path class="cls-3" d="M86.5,52.5c0,2.75-.37,5.43-1.07,8-4.34,15.99-21.41,28-41.93,28S5.91,76.49,1.57,60.5c-.7-2.57-1.07-5.25-1.07-8C.5,32.7,19.67,16.5,43.5,16.5s43,16.2,43,36Z"/>
    <path class="cls-8" d="M39.16,87.81c-18.08-1.5-33.01-12.36-37.11-27.44-.7-2.57-1.05-5.21-1.05-7.87,0-4.9,1.2-9.57,3.36-13.82-.61,2.27-1.25,5.47-1.34,9.34-.05,2.18-.14,7.85,2.05,13.62,3.15,8.32,10.48,13.5,17.67,18.16,4.33,2.8,8.72,4.95,13.51,6.86,1.44.57,2.95,1.15,2.91,1.15Z"/>
  </g>
  <g id="Bot_red">
    <path class="cls-1" d="M79,35v16c0,15.25-15.88,28-36,28S7,66.25,7,51v-16h13.76c6.09-3.75,13.79-6,22.24-6s16.15,2.25,22.24,6h13.76Z"/>
    <path class="cls-4" d="M77.98,40.67c0,3.44.01,6.89.02,10.33,0,14.89-15.7,27-35,27-5.37,0-10.46-.94-15.01-2.62,1.59.05,3.82.11,6.49.1,1.33,0,3.98-.02,6.31-.14,3.37-.18,8.3-.45,14.12-2.39,4.62-1.54,7.75-3.45,8.56-3.96,2.06-1.28,4.91-3.09,7.63-6.41.4-.49,2.04-2.53,3.57-5.73,2.87-6,3.39-11.98,3.32-16.17Z"/>
  </g>
  <g id="Top_red">
    <g id="Top_red-2" data-name="Top_red">
      <path class="cls-2" d="M79,35c0,15.25-15.88,28-36,28S7,50.25,7,35,22.88,7,43,7s36,12.75,36,28Z"/>
      <path class="cls-4" d="M78,35c0,14.89-15.7,27-35,27-.84,0-5.94-.13-5.94-.4,0-.11.79-.19,2.04-.34,2.04-.25,4.07-.56,6.11-.81,2.56-.31,5.17-.63,8.19-1.6,3.17-1.02,5.44-2.31,6.96-3.2,1.37-.8,3.72-2.17,6.31-4.52,2.65-2.4,4.22-4.6,5.45-6.35,1.74-2.46,3.98-6.13,5.84-11.02.03.42.04.83.04,1.25Z"/>
    </g>
    <path class="cls-6" d="M71.17,19c-2.05-.89-4.2-1.76-6.46-2.6-4.54-1.69-8.88-3.01-12.93-4.05-3.89-.84-8.72-1.35-14.14-.74-5.07.57-8.72,1.89-9.84,2.32-2.75,1.05-5.27,2.31-7.51,4.22-1.34,1.15-2.77,2.3-4.02,3.59-1.32,1.35-2.35,2.91-3.45,4.44-1.08,1.51-1.71,3.09-2.43,4.79-.78,1.86-1.55,3.71-2.33,5.57-.04-.51-.06-1.02-.06-1.53,0-14.89,15.7-27,35-27,11.54,0,21.79,4.33,28.17,11Z"/>
    <path id="Text" class="cls-7" d="M28.25,31h-3.36v-8.73h3.32c.9,0,1.67.17,2.33.52.66.35,1.16.85,1.52,1.5.36.65.54,1.43.54,2.34s-.18,1.69-.53,2.34c-.36.65-.86,1.15-1.51,1.5-.65.35-1.42.52-2.31.52ZM27.26,28.99h.9c.43,0,.8-.07,1.1-.21.31-.14.54-.38.7-.72.16-.34.24-.82.24-1.42s-.08-1.08-.25-1.42c-.16-.34-.4-.58-.72-.72-.31-.14-.7-.21-1.15-.21h-.84v4.7ZM42.15,26.64c0,.97-.19,1.79-.57,2.46-.38.66-.89,1.17-1.53,1.51-.64.34-1.36.51-2.15.51s-1.51-.17-2.16-.52c-.64-.35-1.15-.85-1.53-1.52-.38-.67-.56-1.48-.56-2.45s.19-1.79.56-2.45c.38-.67.89-1.17,1.53-1.51.64-.34,1.36-.52,2.16-.52s1.51.17,2.15.52c.64.34,1.15.85,1.53,1.51.38.66.57,1.48.57,2.45ZM39.71,26.64c0-.52-.07-.96-.21-1.32-.14-.36-.34-.63-.61-.82-.27-.19-.6-.28-.99-.28s-.72.09-.99.28c-.27.18-.47.46-.61.82-.14.36-.2.8-.2,1.32s.07.96.2,1.33c.14.36.34.63.61.82.27.18.6.28.99.28s.72-.09.99-.28c.27-.19.47-.46.61-.82.14-.36.21-.8.21-1.33ZM50.79,22.27v8.73h-1.98l-3.15-4.59h-.05v4.59h-2.37v-8.73h2.01l3.1,4.57h.07v-4.57h2.37ZM53.89,22.27v1.02c0,.28-.06.56-.17.84-.11.28-.25.53-.43.77-.17.24-.35.43-.53.59l-.97-.49c.12-.2.23-.44.32-.71.09-.27.14-.6.14-.99v-1.02h1.64ZM54.76,24.18v-1.91h7.59v1.91h-2.62v6.82h-2.34v-6.82h-2.62ZM21.69,39.18v-1.91h7.59v1.91h-2.62v6.82h-2.34v-6.82h-2.62ZM38.21,41.64c0,.97-.19,1.79-.57,2.46-.38.66-.89,1.17-1.53,1.51-.64.34-1.36.51-2.15.51s-1.51-.17-2.16-.52c-.64-.35-1.15-.85-1.53-1.52-.38-.67-.56-1.48-.56-2.45s.19-1.79.56-2.45c.38-.67.89-1.17,1.53-1.51.64-.34,1.36-.52,2.16-.52s1.51.17,2.15.52c.64.34,1.15.85,1.53,1.51.38.66.57,1.48.57,2.45ZM35.78,41.64c0-.52-.07-.96-.21-1.32-.14-.36-.34-.63-.61-.82-.27-.19-.6-.28-.99-.28s-.72.09-.99.28c-.27.18-.47.46-.61.82-.14.36-.2.8-.2,1.32s.07.96.2,1.33c.14.36.34.63.61.82.27.18.6.28.99.28s.72-.09.99-.28c.27-.19.47-.46.61-.82.14-.36.21-.8.21-1.33ZM44.48,37.27h2.37v5.59c0,.66-.16,1.24-.48,1.73-.32.48-.76.86-1.32,1.12-.57.26-1.22.39-1.97.39s-1.41-.13-1.98-.39c-.57-.26-1.01-.64-1.32-1.12-.31-.49-.47-1.06-.47-1.73v-5.59h2.37v5.39c0,.27.06.51.18.72.12.21.28.38.49.49.21.12.45.18.72.18s.51-.06.72-.18c.21-.12.38-.28.49-.49.12-.21.18-.45.18-.72v-5.39ZM56.12,40.55h-2.4c-.02-.2-.06-.38-.14-.54-.07-.16-.17-.3-.3-.42-.12-.12-.28-.21-.46-.27-.18-.07-.38-.1-.61-.1-.4,0-.73.1-1.01.29-.27.19-.48.47-.62.83-.14.36-.21.79-.21,1.3,0,.53.07.98.21,1.34.14.36.35.63.63.81.27.18.6.27.98.27.22,0,.41-.03.59-.08.17-.06.32-.14.45-.24.13-.11.23-.23.31-.38.08-.15.14-.32.17-.51l2.4.02c-.03.37-.13.75-.31,1.13-.18.38-.43.73-.76,1.06-.33.32-.73.58-1.21.78-.48.2-1.04.29-1.68.29-.8,0-1.52-.17-2.16-.52-.63-.34-1.14-.85-1.5-1.52-.37-.67-.55-1.48-.55-2.45s.19-1.79.56-2.45c.38-.67.88-1.17,1.52-1.51.64-.34,1.35-.52,2.13-.52.55,0,1.06.08,1.52.23.46.15.87.37,1.22.66.35.29.63.64.84,1.06.21.42.34.9.39,1.44ZM57.19,46v-8.73h2.37v3.41h3.14v-3.41h2.37v8.73h-2.37v-3.41h-3.14v3.41h-2.37Z"/>
  </g>
</svg>