<?xml version="1.0" encoding="UTF-8"?>
<svg id="Livello_2" data-name="Livello 2" xmlns="http://www.w3.org/2000/svg" viewBox="0 0 50.5 50.5" width="50" height="50">
  <defs>
    <style>
      .cls-1 {
        fill: #000;
      }

      .cls-1, .cls-2 {
        stroke-width: 0px;
      }

      .cls-2 {
        fill: #fff;
      }
    </style>
  </defs>
  <g id="fingers">
    <g id="finger1">
      <g>
        <path class="cls-2" d="M26.52,19.86v1.02h-1.25c-.92,0-1.4.06-1.81.2l-.56.19v-1.22c0-1.33.1-1.7.62-2.18.25-.23.77-.46,1.14-.49.06,0,.29.04.5.1.51.14,1.03.58,1.22,1.02.09.21.14.75.14,1.36Z"/>
        <path class="cls-2" d="M32.56,12.05l.03,8.83-2.05-.03-2.05-.03.03-.69c.02-.38.17-4.24.35-8.57s.34-8.03.37-8.22c.1-.62.85-1.16,1.65-1.19.15,0,.48.1.74.23.26.13.57.37.69.54.22.3.22.41.25,9.13Z"/>
        <path class="cls-2" d="M15.24,21.44c0,2.63,0,2.71-.24,3.06-.4.59-.76.79-1.4.79-.46,0-.64-.06-.95-.29-.69-.52-.71-.62-.71-3.53,0-2,.04-2.7.15-2.97.15-.37.7-.85,1.07-.95.39-.1,1.05.04,1.41.31.65.49.67.6.67,3.59Z"/>
        <path class="cls-1" d="M40.46,26.3c0,3.17-1.52,7.14-3.97,10.37-.83,1.09-2.42,2.66-3.19,3.14l-.38.24c-.14.09-.22.23-.22.39v2.26s0,4.69,0,4.69c0,.07-.08.71-.15,1.15l-.05-.06c-.09-.1-.22-.16-.36-.16h-1.29c-.05-.28-.07-.73-.07-.82v-5.13c0-1.64.03-3.05.07-3.15.04-.1.47-.44.96-.76,2.09-1.38,3.87-3.55,5.2-6.37,1.8-3.8,2.03-7.29.57-8.61-.76-.69-.85-.7-7.41-.7s-6.18-.01-6.7.55c-.32.35-.56.96-.56,1.44,0,.85.69,1.78,1.45,1.95.23.05,2.27.1,4.54.1h3.94c.12,0,.24.05.33.14l.13.12c.35.35.36.93.01,1.27-.14.14-.51.33-.82.44-1.71.56-3.57,1.81-4.51,3.03-.87,1.12-1.27,2.16-1.48,3.84-.16,1.25-.32,1.48-1.01,1.48-.42,0-.77-.28-.91-.72-.12-.39.14-2.23.43-3.1.45-1.36,1.05-2.29,2.23-3.49l.3-.31c.29-.29.09-.79-.32-.79l-1.1-.02c-2.12-.04-2.21-.05-2.81-.33-.76-.35-.77-.36-.85-.03-.1.38-1.1,1.36-1.69,1.64-.98.47-2.38.47-3.3,0-.99-.5-1.72-1.45-2.01-2.59-.07-.29-.14-.54-.14-.55s-.27.07-.59.18c-.71.24-1.39.26-2.08.05-.29-.09-.57-.16-.62-.16-.06,0-.07.59-.03,1.41.22,4.37,1.23,6.92,3.55,8.99.44.39.99.89,1.22,1.1l.26.25c.09.09.14.21.14.34v8.83c0,.26.21.47.47.47h13.23c.02.11.04.19.06.21l.15.43c.39.39.81.64,1.17.21l.21-.21s.06-.2.09-.42l.1.12c.23.28.28.41.23.72-.04.22-.18.48-.34.62l-.14.12c-.08.07-.19.11-.3.11h-10.31c-6.16,0-6.29-.01-6.48-.5-.04-.1-.07-2.42-.06-5.15v-4.73c0-.14-.06-.28-.17-.37l-.17-.13c-1.31-1-2.65-2.65-3.38-4.18-1.29-2.68-1.52-4.58-1.47-12.03l.03-4.89c0-.08.02-.15.06-.22l.31-.57c.67-1.23,1.74-1.87,3.15-1.87.95,0,1.56.21,2.29.79l.1.08c.18.14.44.13.61-.02.75-.7,1.91-1.08,2.91-.97.69.08,1.71.51,2.04.87.31.32.35.32.84-.07.74-.59,1.34-.79,2.34-.79.71,0,1.02.05,1.43.24.29.13.54.21.57.19s.11-1.62.19-3.54c.4-9.86.36-9.28.59-9.9.37-.98,1.21-1.76,2.28-2.08.31-.1.64-.15.98-.15h.13c.67.01,1.35.2,1.96.55.58.34.98.8,1.33,1.55l.23.49c.03.06.04.13.04.2l.03,8.86.03,8.5c0,.26.21.46.47.46h.36c.45,0,1.15.07,1.54.16,2.3.49,3.58,2.37,3.59,5.27ZM32.59,20.88l-.03-8.83c-.03-8.72-.03-8.83-.25-9.13-.12-.16-.43-.41-.69-.54-.26-.13-.59-.24-.74-.23-.8.03-1.55.57-1.65,1.19-.03.19-.2,3.89-.37,8.22s-.33,8.19-.35,8.57l-.03.69,2.05.03,2.05.03ZM26.52,20.88v-1.02c0-.62-.06-1.15-.14-1.36-.19-.44-.71-.88-1.22-1.02-.22-.06-.44-.11-.5-.1-.37.03-.89.26-1.14.49-.51.49-.62.86-.62,2.18v1.22l.56-.19c.41-.14.89-.19,1.81-.2h1.25ZM20.93,26.7c.04-.3.05-2.23.03-4.28-.03-3.67-.04-3.73-.28-4.12-.13-.22-.4-.49-.59-.6-.91-.55-2.11-.24-2.6.66-.16.3-.19.79-.22,4.47-.03,4.03-.03,4.15.19,4.6.32.66.75.93,1.53.98.54.03.7,0,1.01-.21.52-.36.83-.86.91-1.5ZM15,24.5c.23-.34.24-.43.24-3.06,0-2.98-.02-3.09-.67-3.59-.35-.27-1.01-.41-1.41-.31-.37.1-.92.58-1.07.95-.11.27-.15.97-.15,2.97,0,2.91.02,3,.71,3.53.31.24.5.29.95.29.64,0,1-.2,1.4-.79Z"/>
        <path class="cls-1" d="M30.89.25h-.13s.09,0,.13,0Z"/>
        <path class="cls-2" d="M20.97,22.42c.02,2.05,0,3.97-.03,4.28-.08.64-.38,1.15-.91,1.5-.31.21-.47.24-1.01.21-.79-.05-1.22-.32-1.53-.98-.22-.46-.23-.57-.19-4.6.03-3.69.05-4.17.22-4.47.49-.9,1.7-1.2,2.6-.66.19.11.45.38.59.6.24.39.25.44.28,4.12Z"/>
        <path class="cls-1" d="M32.5,48.5l.05.06c-.04.22-.07.39-.09.42l-.21.21c-.36.43-.78.18-1.17-.21l-.15-.43s-.05-.11-.06-.21h1.29c.14,0,.27.06.36.16Z"/>
        <path class="cls-2" d="M37.58,23.49c1.46,1.32,1.23,4.82-.57,8.61-1.34,2.82-3.11,4.99-5.2,6.37-.49.32-.93.67-.96.76-.04.1-.07,1.51-.07,3.15v5.13c0,.09.03.54.07.82h-13.23c-.26,0-.47-.21-.47-.47v-8.83c0-.13-.05-.25-.14-.34l-.26-.25c-.22-.21-.77-.71-1.22-1.1-2.33-2.07-3.33-4.62-3.55-8.99-.04-.82-.03-1.41.03-1.41.05,0,.33.07.62.16.7.21,1.37.19,2.08-.05.32-.11.59-.19.59-.18s.07.26.14.55c.29,1.14,1.02,2.09,2.01,2.59.92.47,2.32.47,3.3,0,.59-.28,1.59-1.26,1.69-1.64.08-.33.09-.33.85.03.61.28.69.29,2.81.33l1.1.02c.41,0,.61.5.32.79l-.3.31c-1.18,1.2-1.78,2.13-2.23,3.49-.29.87-.54,2.72-.43,3.1.13.44.48.72.91.72.69,0,.85-.23,1.01-1.48.22-1.68.62-2.71,1.48-3.84.94-1.22,2.8-2.47,4.51-3.03.32-.1.69-.3.82-.44.34-.34.33-.92-.01-1.27l-.13-.12c-.09-.09-.21-.14-.33-.14h-3.94c-2.27,0-4.31-.05-4.54-.1-.76-.18-1.44-1.1-1.45-1.95,0-.48.24-1.09.56-1.44.53-.56.37-.55,6.7-.55s6.65,0,7.41.7Z"/>
      </g>
    </g>
  </g>
</svg>