<?xml version="1.0" encoding="UTF-8"?>
<svg id="Livello_2" data-name="Livello 2" xmlns="http://www.w3.org/2000/svg" viewBox="0 0 50.5 50.5" width="50" height="50">
  <defs>
    <style>
      .cls-1 {
        fill: #000;
      }

      .cls-1, .cls-2 {
        stroke-width: 0px;
      }

      .cls-2 {
        fill: #fff;
      }
    </style>
  </defs>
  <g id="fingers">
    <g id="finger3">
      <g>
        <path class="cls-1" d="M34.71,12.57c2.99-1.9,6.58.94,5.46,4.32-1,3.03-3.91,10.81-4.42,11.84-1.49,2.96-3.2,4.57-5.63,5.3l-.63.19v3.26l.25.12c.14.06.34.26.45.45.18.3.2.51.2,2.2s-.02,1.9-.2,2.2c-.11.18-.32.38-.45.45-.25.11-.25.14-.25,1.26,0,.48.08,1.25-.26,1.44-.03.02-.09.03-.16.03-.13-.04-.29-.03-.43.01-.15,0-.28-.02-.33-.04-.28-.13-.37-.7-.23-1.37v-1.15h-13.04l.03,2.86.03,2.86h12.93c.02-.12.05-.23.07-.35-.07-.74-.05-1.35-.02-1.77.04-.54.11-.77.3-.91.07-.05.16-.09.26-.12.15,0,.31,0,.43-.01.06.02.12.04.17.08.21.17.06.45.15,1.47.04.47.08.55.1,1.01.03.56-.02.38,0,.88.02.28.03.5-.09.74-.04.07-.09.13-.16.21l-.25.25h-14.88l-.25-.25-.25-.25v-6.76l-.35-.35-.35-.35v-4.08l.35-.35.35-.35v-4.28l-.62-.45c-1.11-.81-1.95-1.99-2.48-3.48l-.29-.81-.03-8.01c-.03-.97-.22-7.21.09-8.08.2-.18.46-.36.69-.29.26.08.31.42.4.4.03,0,.05-.05.06-.12.09.42.11,1.9.15,7.92l.05,7.97.23.63c.7,1.89,2.23,3.28,4.08,3.72.5.12,1.46.15,4.62.15,3.24,0,4.15.03,4.85.16,1.04.2,2.86.14,3.8-.11,1.08-.29,2.41-1.01,3.13-1.68,1.47-1.37,2.17-2.79,4.27-8.63.36-1,.74-2.05.84-2.32.16-.44.49-1.34,1.33-3.66.24-.68.24-1.18-.02-1.75-.41-.91-1.09-1.35-2.06-1.36-.74,0-1.44.35-1.82.94-.14.21-.52,1.15-.86,2.09-1.7,4.71-2.35,6.38-2.68,6.78-.5.62-1.54,1.09-3.18,1.46-1.62.36-2.22.64-3.03,1.43-.5.48-.67.59-.95.59-.61,0-.89-.61-.54-1.15.16-.25.99-.98,1.55-1.36.49-.34,1.54-.7,2.82-.97,1.2-.25,2.06-.63,2.3-1.01.07-.12.36-.8.63-1.53l.5-1.31V2.87l-.31-.38c-.42-.53-.99-.8-1.62-.8-.61,0-1.06.24-1.5.79l-.31.39-.05,9.21-.05,9.21-.27.57c-1.03,2.19-3.59,2.76-5.37,1.19l-.44-.39-.34.35c-.58.6-1.32.89-2.27.9-.72,0-.89-.03-1.49-.33-.74-.37-1.29-.91-1.63-1.64-.21-.45-.22-.57-.27-7.78l-.05-7.33-.24-.38c-.13-.21-.4-.51-.6-.66-.32-.24-.45-.28-1.09-.28s-.77.03-1.12.31c-.21.17-.49.51-.62.75-.2.39-.23.6-.23,1.74,0,.5-.05.43-.1,1.36-.07,1.3.02,2.33-.04,2.68-.02-.08-.04-.12-.06-.15-.02-.02-.04-.03-.04-.03-.21-.17-.54-.2-.77-.09,0,0-.15.07-.25.22-.01.02-.02.04-.03.07,0,0-.01.01-.02.02-.04-.9-.07-1.8-.11-2.7l.03-1.58c.03-1.46.05-1.62.3-2.14.57-1.2,1.58-1.84,2.99-1.9.73-.03.9,0,1.41.23.65.3,1.02.61,1.46,1.23.51.73.6,1.32.6,4.01,0,2.26.01,2.41.18,2.34.1-.04.43-.17.73-.27,1.06-.37,2.49-.06,3.32.72.19.17.36.32.39.32s.23-.16.46-.36c.65-.59,1.2-.79,2.2-.79.73,0,.94.04,1.39.26l.53.26.03-4.55.03-4.56.29-.62c.44-.95,1.35-1.72,2.32-1.97.17-.04.38-.06.6-.06.55,0,1.19.12,1.59.32,1.09.55,1.73,1.41,1.92,2.58.06.4.11,2.84.11,6.21v5.56s.25-.59.25-.59c.31-.75.81-1.37,1.43-1.76ZM28.98,41.46v-2.73h-1.3l-.41,1.3c-.23.71-.41,1.33-.41,1.36s.48.06,1.06.06h1.06ZM28.07,37.11v-2.93h-.99c-.54,0-1.39-.07-1.89-.15-.69-.11-1.87-.15-4.9-.15-2.2,0-4.15-.04-4.35-.09-.19-.05-.45-.11-.56-.15-.12-.04-.24-.04-.28,0s-.07.83-.07,1.77v1.7h13.04ZM26.13,38.85c.04-.1-.18-.13-.9-.13h-.95l-.41,1.31c-.23.72-.39,1.34-.36,1.36.12.12,1.71.05,1.81-.07.05-.07.25-.63.43-1.24s.36-1.17.38-1.24ZM26.15,17.4c0-2.88-.02-3.39-.16-3.67-.21-.41-.53-.76-.85-.93-.69-.35-1.69-.21-2.24.32-.57.54-.59.66-.59,4.29s.01,3.84.83,4.43c.36.26.51.3,1.06.3.69,0,1.06-.14,1.41-.52.54-.59.54-.64.54-4.23ZM22.33,40.14c.21-.69.38-1.3.38-1.34,0-.14-1.82-.09-1.87.05-.25.73-.76,2.4-.76,2.49,0,.09.26.11.93.09l.93-.03.38-1.26ZM20.8,17.39c0-3.2,0-3.38-.21-3.79-.14-.29-.35-.52-.63-.68-1.06-.61-2.33-.25-2.8.79-.17.38-.19.71-.19,3.7s.02,3.32.19,3.7c.28.62.81.98,1.53,1.03.77.06,1.02-.01,1.47-.41.63-.56.64-.61.64-4.34ZM19.37,38.8s-.42-.08-.93-.08h-.94l-.41,1.29c-.22.71-.37,1.32-.34,1.37.04.04.45.07.92.05l.85-.03.42-1.26c.23-.69.42-1.3.43-1.34ZM15.54,40.17c.22-.71.41-1.32.41-1.36s-.36-.07-.81-.07h-.81v2.73h.8l.41-1.29Z"/>
        <path class="cls-2" d="M38.78,14.78c.26.57.26,1.07.02,1.75-.84,2.32-1.16,3.22-1.33,3.66-.1.28-.48,1.32-.84,2.32-2.1,5.84-2.8,7.26-4.27,8.63-.72.67-2.05,1.39-3.13,1.68-.94.25-2.76.31-3.8.11-.71-.13-1.61-.16-4.85-.16-3.16,0-4.12-.03-4.62-.15-1.85-.44-3.38-1.83-4.08-3.72l-.23-.63-.05-7.97c-.04-6.02-.05-7.5-.15-7.92h0c.06-.35-.03-1.38.04-2.68.05-.93.1-.87.1-1.36,0-1.15.03-1.35.23-1.74.13-.24.4-.58.62-.75.35-.28.46-.31,1.12-.31s.78.03,1.09.28c.2.15.47.45.6.66l.24.38.05,7.33c.05,7.21.05,7.33.27,7.78.34.72.89,1.27,1.63,1.64.6.29.77.33,1.49.33.94,0,1.69-.3,2.27-.9l.34-.35.44.39c1.78,1.57,4.35,1,5.37-1.19l.27-.57.05-9.21.05-9.21.31-.39c.44-.55.89-.78,1.5-.79.63,0,1.19.27,1.62.8l.31.38v16.5l-.5,1.31c-.27.72-.56,1.41-.63,1.53-.24.37-1.1.75-2.3,1.01-1.28.27-2.33.63-2.82.97-.56.39-1.39,1.11-1.55,1.36-.35.54-.07,1.15.54,1.15.27,0,.45-.11.95-.59.81-.79,1.41-1.07,3.03-1.43,1.64-.36,2.68-.84,3.18-1.46.33-.4.99-2.07,2.68-6.78.34-.94.73-1.89.86-2.09.38-.58,1.08-.94,1.82-.94.98,0,1.65.45,2.06,1.36Z"/>
        <path class="cls-2" d="M28.98,40.09v1.36h-1.06c-.58,0-1.06-.03-1.06-.06s.18-.65.41-1.36l.41-1.3h1.3v1.36Z"/>
        <path class="cls-1" d="M28.63,45.64c.14-.04.3-.05.43-.01-.12.01-.28.02-.43.01Z"/>
        <path class="cls-2" d="M28.63,45.64c-.1.03-.19.07-.26.12-.19.14-.26.37-.3.91-.03.43-.05,1.03.02,1.77-.02.12-.05.23-.07.35h-12.93l-.03-2.86-.03-2.86h13.04v1.15c-.14.67-.05,1.24.23,1.37.05.02.18.04.33.04Z"/>
        <path class="cls-2" d="M28.07,35.65v1.47h-13.04v-1.7c0-.94.03-1.73.07-1.77s.16-.04.28,0c.12.04.37.1.56.15.2.05,2.15.08,4.35.09,3.03,0,4.21.04,4.9.15.5.08,1.35.15,1.89.15h.99v1.47Z"/>
        <path class="cls-2" d="M25.22,38.73c.72,0,.94.03.9.13-.03.07-.2.63-.38,1.24s-.38,1.17-.43,1.24c-.1.13-1.69.19-1.81.07-.03-.03.13-.64.36-1.36l.41-1.31h.95Z"/>
        <path class="cls-2" d="M25.99,13.74c.14.28.16.79.16,3.67,0,3.59,0,3.64-.54,4.23-.35.38-.72.52-1.41.52-.56,0-.7-.04-1.06-.3-.81-.59-.83-.65-.83-4.43s.02-3.75.59-4.29c.56-.53,1.56-.67,2.24-.32.32.16.64.51.85.93Z"/>
        <path class="cls-2" d="M22.72,38.8s-.17.64-.38,1.34l-.38,1.26-.93.03c-.67.02-.93,0-.93-.09,0-.09.51-1.76.76-2.49.05-.14,1.87-.19,1.87-.05Z"/>
        <path class="cls-2" d="M20.58,13.59c.2.42.21.59.21,3.79,0,3.72,0,3.78-.64,4.34-.45.4-.7.47-1.47.41-.72-.05-1.25-.41-1.53-1.03-.17-.38-.19-.71-.19-3.7s.02-3.32.19-3.7c.47-1.04,1.74-1.4,2.8-.79.28.16.49.39.63.68Z"/>
        <path class="cls-2" d="M18.44,38.73c.52,0,.94.03.93.08,0,.04-.2.64-.43,1.34l-.42,1.26-.85.03c-.47.02-.88,0-.92-.05-.04-.04.11-.66.34-1.37l.41-1.29h.94Z"/>
        <path class="cls-2" d="M15.94,38.8s-.18.65-.41,1.36l-.41,1.29h-.8v-2.73h.81c.44,0,.81.03.81.07Z"/>
        <path class="cls-1" d="M11.45,12.38h0c-.01.08-.03.12-.06.13-.09.02-.14-.33-.4-.4-.23-.07-.49.11-.69.29.01-.03.02-.05.03-.07.1-.15.25-.22.25-.22.23-.11.56-.08.77.09,0,0,.02.02.04.03.02.03.05.07.06.15Z"/>
      </g>
    </g>
  </g>
</svg>