<?xml version="1.0" encoding="UTF-8"?>
<svg id="Livello_2" data-name="Livello 2" xmlns="http://www.w3.org/2000/svg" viewBox="0 0 50.5 50.5" width="50" height="50">
  <defs>
    <style>
      .cls-1 {
        fill: #000;
      }

      .cls-1, .cls-2 {
        stroke-width: 0px;
      }

      .cls-2 {
        fill: #fff;
      }
    </style>
  </defs>
  <g id="fingers">
    <g id="finger2">
      <g>
        <path class="cls-1" d="M19.23,10.18c-.33-1.21-.92-2.64-.85-3.04.17.43.33.71.43.7.12-.01.15-.45.42-.49.09-.01.12.03.17.02.08-.02.13-.21.09-.71.23.49,1.2,3.36,2.13,6.87.22.82.43,1.5.47,1.5s.1-.12.13-.26c.17-.79,3.29-12.26,3.45-12.65.27-.68,1.22-1.48,2.01-1.71.29-.08.58-.12.86-.12,1.71,0,3.27,1.41,3.27,3.17,0,.41-.44,2.15-1.99,7.88-.19.71-.32,1.33-.29,1.38.03.05.4.1.82.1.52,0,.9.07,1.21.23.48.25,1,.79,1.13,1.19.06.17.13.22.27.16.44-.19,2.56-.2,3.22,0,.76.22,1.41.85,1.61,1.56.37,1.33.24,2.09.13,4.21-.19,3.38.64,5.23-.07,5.91-.04-.06-.08-.12-.14-.16-.25-.17-.66-.17-.91,0-.08.05-.14.12-.18.2-.34-.47-.07-1.83-.12-2.5-.02-.3-.1-.36-.14-.37-.02,0-.04,0-.06,0-.09.02-.6.07-1.12.1-1.12.08-2.23-.1-2.68-.44l-.33-.24-.38.27c-.36.25-.49.27-2.22.27h-1.84l-.13.43c-.27.91-1.46,2.33-2.17,2.61-.07.03.09.27.37.53,1.79,1.73,2.07,4.42.68,6.52-.48.72-.71.89-1.16.89-.31,0-.66-.38-.66-.72,0-.11.2-.44.45-.75,1.16-1.41,1.08-3.41-.18-4.77-.71-.76-1.47-1.07-2.8-1.14-.58-.03-1.12-.11-1.2-.17-.21-.17-.18-.85.05-1.04.13-.11.68-.18,1.67-.23,1.73-.08,2.16-.24,2.93-1.12.5-.57.89-1.55.81-2.07l-.04-.26-4.51-.03c-4.4-.03-4.52-.02-5.03.22-.31.15-.64.44-.83.73l-.32.48-.04,3.06c-.03,2.76-.01,3.16.21,4.12.3,1.29.74,2.26,1.61,3.49,1.18,1.68,1.44,2.53,1.53,4.92l.07,1.73h1.1c.6,0,2.58.01,4.39.01s4.47,0,5.91,0h2.63s.06-1.85.06-1.85c.07-2.28.3-3.03,1.39-4.64,1.37-2.02,1.84-3.42,1.95-5.87.05-1.04-.09-1.77.13-2.16.02.02.03.04.05.06.22.22.73.2,1.06,0,.05-.03.1-.06.14-.1.17.3.11.93.04,2.47-.11,2.55-.64,4.13-2.12,6.35-.99,1.48-1.14,1.98-1.22,3.97-.06,1.67-.06,1.68.2,1.75.59.15,1.25.61,1.59,1.08.32.45.35.59.35,1.42s-.03.97-.35,1.43c-.32.46-.97.9-1.61,1.09-.19.06-.21.26-.21,2.11v2.05l-.31.24c-.3.24-.43.24-5.05.24s-5.98,0-6.21-.23c.29-.29.28-.72,0-.98.19-.17,1.94-.2,5.76-.22l4.34-.03.03-1.54.03-1.54-1.09-.09c-.6-.05-1.27-.07-1.5-.05-.37.04-5.26.06-5.81.03-.13,0-1.46.01-2.96.04l-2.73.05v3.16h1.25c1,0,2.51.04,2.68.19h0s0,0,0,0c-.28.25-.29.69,0,.98-.21.21-1.62.23-3.12.23h-1.65l-.34-.34-.34-.34v-3.97l-.48-.14c-1.3-.39-2-2.07-1.41-3.36.26-.57,1.06-1.29,1.56-1.39l.36-.07-.04-1.85c-.05-2.15-.12-2.36-1.42-4.34-1.58-2.4-1.84-3.53-1.84-7.9,0-2.87.02-3.21.24-3.78.28-.76.87-1.47,1.47-1.79l.43-.23-.08-.88c-.11-1.25-.55-3.38-1.25-5.94-2.67-9.89-2.73-10.12-2.65-10.74.16-1.32,1.09-2.4,2.43-2.81.22-.07.46-.1.7-.1.75,0,1.56.3,2.16.83.23.2.4.38.55.58.47.67.65,1.28.85,2.32.26,1.33.39,2.17.43,2.68-.01-.02-.02-.04-.03-.06-.25-.38-.82.04-1.06.47,0,.02-.02.04-.02.06-.34-.84-.73-2.26-.84-3.26-.02-.14-.1-.76-.48-1.33-.08-.12-.17-.22-.29-.33-.58-.57-1.18-.68-1.91-.35-.55.24-.94.73-1.07,1.32-.07.31.15,1.19,2.5,9.97.53,1.98,1.04,4.19,1.2,5.17.15.94.29,1.77.31,1.85.03.11,1,.15,4.33.15h4.29v-2.85c0-2.51.03-2.9.22-3.32.21-.45.85-1.11,1.08-1.11.14,0,.27-.33.64-1.73,1.43-5.34,1.94-7.29,2-7.61.1-.53-.3-1.39-.79-1.69-.6-.37-1.06-.41-1.65-.15-.88.39-.84.31-2.07,4.9-2.76,10.31-2.55,9.6-2.94,9.95-.5.45-1.16.45-1.65,0-.32-.29-.43-.6-1-2.73-.35-1.32-.81-3.03-1.02-3.8ZM35.81,21.49c.35-.35.37-.58.33-3.09-.03-2.18-.05-2.32-.29-2.56-.21-.21-.41-.26-1.29-.29-2.05-.07-2.04-.09-2.04,3.14,0,2.45,0,2.45.29,2.74.27.27.37.29,1.53.29,1.08,0,1.27-.03,1.47-.23ZM34.7,43.72c.41-.44.39-1.02-.06-1.46l-.34-.34h-2.8s-2.8,0-2.8,0l1.07,1.05,1.07,1.06h1.78c1.78,0,1.78,0,2.07-.31ZM31.12,17.91c0-3.14-.06-3.56-.53-3.74-.1-.04-.72-.07-1.36-.07-1.08,0-1.19.02-1.46.29l-.29.29v6.48l.29.29c.27.27.37.29,1.46.29.64,0,1.26-.03,1.36-.07.47-.18.53-.6.53-3.74ZM28.82,44.03l-.88-.89c-.48-.49-1.02-.96-1.2-1.06-.23-.12-.78-.17-2.08-.17-.97,0-1.77.03-1.77.07s.43.52.96,1.06l.96.98h4ZM19.94,44.03h2.89l-1.03-1.03-1.03-1.03-1.82-.04-1.82-.04-.35.35c-.45.45-.46.93-.05,1.42l.3.36h2.89Z"/>
        <path class="cls-2" d="M25.85,6.76c1.23-4.59,1.2-4.51,2.07-4.9.59-.26,1.05-.22,1.65.15.49.3.89,1.15.79,1.69-.06.32-.57,2.28-2,7.61-.37,1.4-.5,1.73-.64,1.73-.24,0-.88.66-1.08,1.11-.19.42-.22.81-.22,3.32v2.85h-4.29c-3.33,0-4.3-.03-4.33-.15-.02-.08-.16-.91-.31-1.85-.15-.97-.66-3.18-1.2-5.17-2.35-8.78-2.57-9.66-2.5-9.97.13-.6.52-1.08,1.07-1.32.73-.32,1.33-.21,1.91.35.12.12.21.22.29.33.38.57.46,1.18.48,1.33.12,1,.5,2.42.84,3.26-.07.4.52,1.83.85,3.04.21.76.67,2.47,1.02,3.8.57,2.13.68,2.44,1,2.73.49.45,1.15.44,1.65,0,.39-.35.18.37,2.94-9.95Z"/>
        <path class="cls-2" d="M31.51,41.92h2.8s.34.34.34.34c.44.44.46,1.02.06,1.46-.29.31-.29.31-2.07.31h-1.78l-1.07-1.06-1.07-1.05h2.8Z"/>
        <path class="cls-2" d="M32.52,18.69c0-3.23-.01-3.21,2.04-3.14.88.03,1.08.08,1.29.29.24.24.25.38.29,2.56.04,2.51.02,2.74-.33,3.09-.2.2-.39.23-1.47.23-1.16,0-1.26-.02-1.53-.29-.29-.29-.29-.29-.29-2.74Z"/>
        <path class="cls-2" d="M26.82,44.03h-2l-.96-.98c-.53-.54-.96-1.02-.96-1.06s.79-.07,1.77-.07c1.3,0,1.85.04,2.08.17.17.09.71.57,1.2,1.06l.88.89h-2Z"/>
        <path class="cls-2" d="M27.48,21.15v-6.48l.29-.29c.27-.27.37-.29,1.46-.29.64,0,1.26.03,1.36.07.47.18.53.6.53,3.74s-.06,3.56-.53,3.74c-.1.04-.72.07-1.36.07-1.08,0-1.19-.02-1.46-.29l-.29-.29Z"/>
        <path class="cls-2" d="M24.72,45.59c.55.03,5.44,0,5.81-.03.23-.02.9,0,1.5.05l1.09.09-.03,1.54-.03,1.54-4.34.03c-3.82.03-5.57.05-5.76.22h0c-.17-.16-1.68-.19-2.68-.19h-1.25v-3.16l2.73-.05c1.5-.03,2.84-.05,2.96-.04Z"/>
        <path class="cls-2" d="M32.49,22.89c.45.33,1.56.52,2.68.44.52-.04,1.02-.08,1.12-.1.02,0,.04,0,.06,0,.04.02.12.07.14.37.05.66-.22,2.03.12,2.5-.22.4-.08,1.12-.13,2.16-.12,2.46-.58,3.85-1.95,5.87-1.09,1.61-1.32,2.36-1.39,4.64l-.06,1.85h-2.63c-1.45,0-4.11.01-5.91.01s-3.78,0-4.39,0h-1.1s-.07-1.74-.07-1.74c-.09-2.39-.36-3.24-1.53-4.92-.86-1.23-1.31-2.2-1.61-3.49-.22-.96-.24-1.36-.21-4.12l.04-3.06.32-.48c.19-.29.52-.57.83-.73.5-.24.63-.25,5.03-.22l4.51.03.04.26c.07.52-.31,1.5-.81,2.07-.78.88-1.21,1.05-2.93,1.12-1,.04-1.54.12-1.67.23-.23.19-.26.87-.05,1.04.08.06.62.14,1.2.17,1.32.07,2.08.37,2.8,1.14,1.27,1.35,1.34,3.36.18,4.77-.25.3-.45.64-.45.75,0,.34.35.72.66.72.46,0,.69-.18,1.16-.89,1.39-2.1,1.11-4.79-.68-6.52-.27-.26-.44-.5-.37-.53.71-.28,1.9-1.7,2.17-2.61l.13-.43h1.84c1.73,0,1.86-.02,2.22-.27l.38-.27.33.24Z"/>
        <path class="cls-1" d="M22.96,49.04c.28.26.29.69,0,.98-.29-.29-.28-.72,0-.98h0Z"/>
        <path class="cls-1" d="M19.49,6.66c.04.49,0,.68-.09.71-.05.01-.08-.03-.17-.02-.26.04-.3.48-.42.49-.1.01-.26-.27-.43-.7,0-.02.01-.04.02-.06.24-.43.81-.85,1.06-.47,0,.01.02.03.03.06Z"/>
        <path class="cls-1" d="M37.85,26.05s-.08.07-.14.1c-.33.2-.83.22-1.06,0-.02-.02-.03-.04-.05-.06.04-.08.1-.15.18-.2.26-.17.66-.17.91,0,.06.04.11.09.14.16Z"/>
        <path class="cls-2" d="M22.84,44.03h-5.79l-.3-.36c-.41-.49-.4-.97.05-1.42l.35-.35,1.82.04,1.82.04,1.03,1.03,1.03,1.03Z"/>
      </g>
    </g>
  </g>
</svg>