<?xml version="1.0" encoding="UTF-8"?>
<svg id="Livello_2" data-name="Livello 2" xmlns="http://www.w3.org/2000/svg" viewBox="0 0 50.5 50.5" width="50" height="50">
  <defs>
    <style>
      .cls-1 {
        fill: #000;
      }

      .cls-1, .cls-2 {
        stroke-width: 0px;
      }

      .cls-2 {
        fill: #fff;
      }
    </style>
  </defs>
  <g id="fingers">
    <g id="finger5">
      <g>
        <path class="cls-1" d="M26.96,50.25c-.32,0-.6,0-.83,0h.83Z"/>
        <path class="cls-1" d="M29.34,49.54c0,.14.02.16,0,.22-.14.34-.74.43-1.87.47-.18,0-.35,0-.51.01h-.83c-.33,0-.53-.01-.53-.01-2.69-.13-2.83-.27-3.94-.18-.25.02-.58.05-1.23.05-1.45,0-1.76-.12-1.92-.72-.06-.22-.1-1.7-.1-3.91,0-3.49,0-3.55-.2-3.73-.46-.42-1.56-2.26-1.98-3.31-.11-.28-.27-.41-.86-.74-2.14-1.17-4.6-3.24-6.09-5.13-1.03-1.3-2.07-3.02-2.69-4.43-2.2-5-2.35-10.36-.44-15.55.52-1.41.78-1.7,1.38-1.62.56.07.77.34,1,1.31.36,1.5.89,2.72,1.57,3.64.59.79,1.95,1.98,2.1,1.83.02-.02-.03-.33-.11-.69-.11-.49-.15-1.16-.15-2.66,0-1.74.03-2.13.21-2.94.57-2.53,1.62-4.83,3.17-6.92.58-.78.93-.95,1.47-.73.5.21.57.42.63,1.91.05,1.36.29,2.81.57,3.49.19.45.83,1.14,1.26,1.36.87.44,2.02.42,2.91-.07,1.14-.63,1.57-1.77,1.57-4.28,0-1.31-.14-2.58-.4-3.81-.31-1.45-.24-1.85.35-2.11.08-.03.17-.05.28-.05.28,0,.68.13,1.3.42,1.78.83,3.86,2.53,5.04,4.09,1.07,1.43,1.91,3.13,2.34,4.72.13.46.24.85.26.87.07.07.52-1.25.66-1.97.08-.39.19-1.28.23-1.98.08-1.2.1-1.28.34-1.54.21-.21.34-.27.69-.27.42,0,.44.02,1.25.86,2.76,2.89,4.19,6.91,3.69,10.36-.05.35-.07.66-.05.69.02.02.24-.1.49-.27.97-.67,1.69-1.48,2.45-2.77.45-.76.57-.86,1.12-.86.28,0,.43.06.59.23.34.36.87,2.25,1.14,4.06.22,1.46.22,4.31,0,5.78-.78,5.19-3.5,9.88-7.61,13.14-.78.62-1.04.89-1.28,1.33-.28.49-1.55,2.21-3,4.03l-.52.65-.04,3.85-.05,3.84-.26.26c-.25.26-.28.26-1.5.29-1.05.03-1.37.02-1.56-.09-.1-.06-.15-.12-.17-.14-.08-.09-.14-.2-.17-.31ZM29.34,48.83c-.02.14-.07.43,0,.7,0-.06,0-.13,0-.24,0-.36.03-.56.04-.7.01-.05.03-.08.05-.12.26-.43,1-.35,1.08-.35h.58v-3.3c0-1.82.04-3.4.08-3.52.05-.12.87-1.22,1.82-2.46,2.91-3.75,2.91-3.77,1.78-8.84-.39-1.73-.77-3.26-.84-3.4-.19-.35-.61-.73-1.01-.9-.29-.12-.87-.14-3.59-.14-3,0-3.26.01-3.5.17-.79.52-.78,1.51.02,2.04.3.21.39.21,2.46.21h2.14l.32.32.32.32v2.2c0,2.8-.02,2.86-1.26,2.99-1.31.14-2.57,1.14-2.94,2.34-.1.34-.19.76-.19.93,0,.93-.97,1.41-1.59.79-.38-.37-.42-.66-.24-1.58.4-2.02,1.78-3.57,3.71-4.17l.54-.17v-2.02h-1.43c-1.51,0-2.19-.11-2.78-.46l-.32-.19-.31.32c-.84.87-2.44,1.02-3.49.33l-.42-.28-.35.24c-.65.44-1.48.6-2.21.43l-.35-.08v2.54c0,2.75.08,3.56.5,4.79.29.86.86,1.85,1.51,2.62.97,1.15.88.71.88,4.53v3.37c.15,0,.4.02.7.04,2.03.11,2.42.19,3.6.21h3.73c.61-.04.81-.14.93,0,.05.06.06.12.04.23-.01.06-.03.13-.04.23ZM43.25,24.18c.4-1.66.55-3.2.49-5.03-.05-1.37-.24-3.01-.36-3.13-.04,0-.42.34-.87.78-1.14,1.1-2.57,1.91-3.85,2.18-.49.1-.57.09-.86-.07-.52-.31-.56-.62-.24-1.84.49-1.88.45-3.95-.13-5.76-.25-.79-1.03-2.35-1.46-2.93l-.35-.47-.13.61c-.38,1.87-1.11,3.45-2.09,4.51-.63.69-.97.86-1.45.74-.5-.13-.69-.45-.77-1.36-.22-2.38-.86-4.26-2.08-6.05-.58-.85-1.82-2.11-2.77-2.82-.77-.58-.98-.65-.89-.32.03.12.1.85.16,1.62.12,1.56.01,3.32-.25,4.36-.93,3.62-5.55,4.85-8.13,2.17-.81-.85-1.13-1.56-1.55-3.46l-.06-.28-.13.23c-.35.63-.93,2.09-1.18,2.93-.75,2.57-.69,5.08.16,7.61.32.95.33,1,.19,1.33-.29.71-1.04.75-2.57.14-1.75-.7-3.59-2.49-4.41-4.3-.11-.24-.23-.44-.27-.44s-.13.28-.21.63c-.7,3.12-.53,6.75.47,9.81.33,1.02,1.19,2.89,1.77,3.86,1.12,1.86,3.26,4.16,5.03,5.42l1.01.71.05-6.37.05-6.37.25-.47c.63-1.2,1.92-1.84,3.15-1.59l.54.11.21-.46c.56-1.23,1.97-1.89,3.36-1.55.45.11.5.11.61-.06.41-.62.7-.9,1.2-1.17.5-.27.64-.3,1.31-.3.58,0,.85.05,1.23.21.45.2,1.13.83,1.39,1.27.09.16.14.17.48.07.82-.24,1.73-.1,2.47.39.97.63,1.29,1.44,1.29,3.24v1.19l.43.14c1.09.37,1.99,1.29,2.35,2.41.23.71,1.38,5.69,1.53,6.64.06.38.14.7.17.7.03,0,.45-.41.94-.91,2.25-2.31,4.05-5.5,4.78-8.51ZM31.09,23.62v-1.17c0-1.14,0-1.17-.26-1.45-.47-.52-1.24-.42-1.56.19-.1.2-.14.57-.14,1.35v1.08h1.96ZM27.18,23.59v-3.81l-.27-.28c-.38-.38-.91-.38-1.34,0l-.3.27-.03,2.03-.03,2.03.26-.07c.14-.03.59-.09.99-.12l.72-.06ZM23.36,24.55c0-3.38-.02-3.49-.56-3.77-.44-.22-.73-.18-1.09.17l-.32.32v3.28c0,2.07.04,3.34.1,3.45.22.42.99.59,1.38.32.47-.33.49-.46.49-3.77ZM19.45,27.82l-.03-2.33-.03-2.33-.24-.24c-.26-.26-.77-.37-1.08-.24-.11.04-.28.2-.4.34-.19.24-.2.35-.2,2.48,0,2.42.04,2.64.51,2.85.44.2.78.14,1.13-.21l.32-.32Z"/>
        <path class="cls-2" d="M43.74,19.14c.07,1.83-.08,3.37-.49,5.03-.73,3.01-2.53,6.2-4.78,8.51-.49.5-.92.91-.94.91-.03,0-.11-.31-.17-.7-.15-.96-1.29-5.93-1.53-6.64-.36-1.12-1.26-2.04-2.35-2.41l-.43-.14v-1.19c0-1.8-.32-2.61-1.29-3.24-.74-.49-1.65-.63-2.47-.39-.34.1-.39.1-.48-.07-.25-.44-.94-1.07-1.39-1.27-.38-.17-.65-.22-1.23-.21-.67,0-.81.03-1.31.3-.49.27-.79.56-1.2,1.17-.11.16-.16.17-.61.06-1.38-.33-2.8.33-3.36,1.55l-.21.46-.54-.11c-1.23-.25-2.52.39-3.15,1.59l-.25.47-.05,6.37-.05,6.37-1.01-.71c-1.77-1.26-3.91-3.56-5.03-5.42-.58-.97-1.44-2.83-1.77-3.86-1-3.06-1.17-6.69-.47-9.81.08-.35.17-.63.21-.63s.16.2.27.44c.82,1.81,2.66,3.6,4.41,4.3,1.53.61,2.27.57,2.57-.14.14-.33.13-.38-.19-1.33-.85-2.53-.91-5.04-.16-7.61.24-.84.83-2.3,1.18-2.93l.13-.23.06.28c.42,1.9.75,2.61,1.55,3.46,2.58,2.68,7.2,1.46,8.13-2.17.27-1.04.37-2.79.25-4.36-.06-.78-.13-1.51-.16-1.62-.09-.33.12-.26.89.32.96.71,2.19,1.97,2.77,2.82,1.22,1.79,1.86,3.67,2.08,6.05.08.91.27,1.23.77,1.36.48.12.82-.06,1.45-.74.98-1.07,1.7-2.64,2.09-4.51l.13-.61.35.47c.43.58,1.21,2.13,1.46,2.93.58,1.8.62,3.88.13,5.76-.32,1.22-.28,1.53.24,1.84.28.16.36.17.86.07,1.28-.27,2.71-1.07,3.85-2.18.45-.44.84-.78.87-.78.12.12.31,1.76.36,3.13Z"/>
        <path class="cls-2" d="M34.78,30.02c1.13,5.07,1.13,5.09-1.78,8.84-.95,1.23-1.77,2.34-1.82,2.46-.05.12-.08,1.7-.08,3.52v3.3h-.58c-.07,0-.82-.08-1.08.35-.02.04-.04.07-.05.12.01-.12,0-.18-.04-.23-.12-.14-.33-.04-.93,0h-3.73c-1.18-.02-1.57-.1-3.6-.21-.3-.02-.54-.03-.7-.04v-3.37c0-3.82.08-3.38-.88-4.53-.64-.77-1.21-1.76-1.51-2.62-.42-1.24-.5-2.05-.5-4.79v-2.54l.35.08c.73.17,1.56,0,2.21-.43l.35-.24.42.28c1.05.69,2.65.54,3.49-.33l.31-.32.32.19c.59.35,1.27.46,2.78.46h1.43v2.02l-.54.17c-1.93.6-3.31,2.16-3.71,4.17-.18.92-.14,1.2.24,1.58.62.63,1.59.14,1.59-.79,0-.18.08-.6.19-.93.37-1.2,1.63-2.2,2.94-2.34,1.23-.14,1.26-.19,1.26-2.99v-2.2l-.32-.32-.32-.32h-2.14c-2.07,0-2.15,0-2.46-.21-.8-.53-.81-1.52-.02-2.04.24-.16.5-.17,3.5-.17,2.72,0,3.3.02,3.59.14.4.17.82.54,1.01.9.07.14.45,1.67.84,3.4Z"/>
        <path class="cls-2" d="M31.09,22.46v1.17h-1.96v-1.08c0-.78.04-1.15.14-1.35.32-.61,1.09-.7,1.56-.19.25.28.26.31.26,1.45Z"/>
        <path class="cls-2" d="M27.18,21.69v1.9l-.72.06c-.4.03-.84.08-.99.12l-.26.07.03-2.03.03-2.03.3-.27c.42-.38.96-.38,1.34,0l.27.28v1.9Z"/>
        <path class="cls-2" d="M22.8,20.78c.54.28.56.39.56,3.77s-.02,3.44-.49,3.77c-.39.27-1.16.1-1.38-.32-.06-.11-.1-1.39-.1-3.45v-3.28l.32-.32c.35-.35.65-.4,1.09-.17Z"/>
        <path class="cls-2" d="M19.42,25.49l.03,2.33-.32.32c-.35.35-.69.41-1.13.21-.47-.21-.51-.43-.51-2.85,0-2.14,0-2.24.2-2.48.11-.14.29-.29.4-.34.31-.14.82-.02,1.08.24l.24.24.03,2.33Z"/>
      </g>
    </g>
  </g>
</svg>