<?xml version="1.0" encoding="UTF-8"?>
<svg id="Livello_2" data-name="Livello 2" xmlns="http://www.w3.org/2000/svg" viewBox="0 0 50.5 50.5" width="50" height="50">
  <defs>
    <style>
      .cls-1 {
        fill: #000;
      }

      .cls-1, .cls-2 {
        stroke-width: 0px;
      }

      .cls-2 {
        fill: #fff;
      }
    </style>
  </defs>
  <g id="fingers">
    <g id="finger4">
      <g>
        <path class="cls-1" d="M27,36.46c-.18-.43,0-1.96.35-3.13.46-1.51,1.68-3.3,2.89-4.24l.6-.47-2.23-.06c-2.16-.06-2.25-.07-2.88-.37-.78-.38-1.35-1.01-1.82-2-.3-.64-.35-.86-.35-1.64,0-.74.06-1.02.32-1.59.38-.83,1.15-1.63,1.93-1.99.56-.25.64-.26,5.1-.29l4.53-.03.3-1.26c.16-.7.7-2.97,1.2-5.05.5-2.08,1.02-4.28,1.17-4.91.15-.62.48-2.03.74-3.13.55-2.29.53-2.66-.14-3.14-.54-.39-1.49-.42-2.01-.07-.21.15-.48.44-.59.66-.11.21-1.35,3.49-2.76,7.27-1.64,4.41-2.66,6.97-2.82,7.14-.33.34-.84.33-1.24-.02-.3-.26-.32-.31-.29-1.15.02-.48.15-2.68.3-4.89.55-7.95.58-8.85.37-9.18-.33-.5-.73-.69-1.5-.69-.54,0-.78.05-1.02.23-.65.48-.81.98-1.22,3.79-.21,1.45-.54,3.67-.73,4.94-.52,3.46-.9,6.1-.9,6.22,0,.27-.57.66-.96.66-.64,0-.89-.34-1.06-1.41-.15-.92-.63-3.9-1.53-9.45-.32-1.99-.58-3.24-.7-3.42-.44-.68-1.58-.92-2.3-.48-.49.3-.64.5-.79,1.03-.13.47-.12.5,1.08,8.43.34,2.27.62,4.31.62,4.55,0,.56-.14.8-.56.98-.67.28-.81.13-3.39-3.56-1.32-1.88-2.51-3.53-2.65-3.66-.39-.37-.97-.42-1.59-.12-.64.31-.95.79-.95,1.45,0,.52.01.55,3.85,7.48l1.23,2.22-.18,2.8c-.4,6.21.32,9.17,2.81,11.71.56.57,1.3,1.27,1.64,1.55l.61.51-.03,4.81-.03,4.81h5.32c2.86.09,5.72.17,8.58.26.01.38.03.75.04,1.13h1.13c.25.05.46.11.56,0v.56h-.17c-3.61-.01-7.2-.02-10.81-.03h-5.88l-.33-.33-.33-.33v-9.96l-1.19-1.13c-1.92-1.83-2.91-3.52-3.49-5.98-.53-2.23-.6-3.7-.38-7.6l.14-2.38-.77-1.4c-.42-.77-.87-1.58-1-1.8-.73-1.3-2.75-4.97-2.92-5.3-.5-.98-.46-2.26.11-3.3,1.02-1.89,3.7-2.4,5.31-1.02.25.22.98,1.14,1.6,2.03.62.88,1.15,1.6,1.18,1.6.03-.03-.16-1.36-.91-6.41-.37-2.5-.32-3.13.33-4.12.73-1.09,1.89-1.63,3.06-1.63s2.38.56,3.11,1.69c.35.55.41.79.95,4.06.32,1.91.6,3.51.64,3.54.03,0,.2-.94.38-2.11.83-5.62.91-5.96,1.7-6.83.49-.55,1.02-.89,1.67-1.09.32-.1.68-.15,1.04-.15.96,0,1.99.34,2.62.93.28.26.63.72.78,1.04.33.7.34,1.67.06,5.72-.11,1.54-.16,2.75-.12,2.71s.66-1.68,1.38-3.64c.73-1.95,1.45-3.82,1.62-4.15.37-.74,1.22-1.53,1.92-1.76.3-.1.89-.18,1.39-.18.74,0,.97.05,1.55.34.74.37,1.23.85,1.63,1.6.48.92.39,1.65-.97,7.31-.66,2.76-1.48,6.19-1.82,7.62-.34,1.41-.62,2.63-.62,2.74,0,.08.16.14.41.14.23,0,.75.06,1.16.12,2.52.43,3.87,2.32,3.87,5.4,0,3.1-1.53,7.14-3.85,10.21-.79,1.04-2.52,2.77-3.27,3.27l-.68.46c0,.82,0,1.64,0,2.46-.06,2.56-.07,3.72-.07,4.29v2.25c.02.34.08.47,0,.56h-.56c-.27-.05-.65-.07-1.13,0v-1.13h-.04c-.04-1.1-.08-2.2-.12-3.3v-3.03c0-3.38-.02-3.28.82-3.71.59-.3,1.55-1.09,2.29-1.86,2.66-2.8,4.5-6.8,4.64-10.09.1-2.13-.33-3.14-1.54-3.71-.5-.23-.71-.24-6.45-.26-6.57-.04-6.47-.05-7.01.67-.62.82-.64,1.72-.06,2.58.54.79.56.79,5.25.79h4.22l.33.33c.61.61.3,1.32-.71,1.65-.95.31-2.45,1.13-3.28,1.79-1.67,1.33-2.58,2.96-2.81,5.02-.13,1.16-.3,1.51-.83,1.64-.38.1-.89-.2-1.06-.61Z"/>
        <path class="cls-2" d="M14.71,14.73c2.58,3.69,2.72,3.83,3.39,3.56.42-.17.56-.42.56-.98,0-.24-.28-2.29-.62-4.55-1.2-7.92-1.2-7.96-1.08-8.43.15-.53.3-.73.79-1.03.71-.43,1.85-.2,2.3.48.12.18.38,1.43.7,3.42.9,5.55,1.38,8.53,1.53,9.45.16,1.07.42,1.41,1.06,1.41.39,0,.96-.39.96-.66,0-.12.38-2.76.9-6.22.19-1.27.52-3.5.73-4.94.41-2.81.57-3.31,1.22-3.79.25-.18.48-.23,1.02-.23.77,0,1.17.19,1.5.69.21.33.18,1.23-.37,9.18-.15,2.21-.29,4.41-.3,4.89-.02.84-.01.89.29,1.15.4.35.91.36,1.24.02.16-.16,1.18-2.73,2.82-7.14,1.41-3.78,2.65-7.06,2.76-7.27.11-.21.38-.51.59-.66.52-.35,1.47-.32,2.01.07.67.48.69.86.14,3.14-.26,1.1-.6,2.52-.74,3.13-.15.62-.67,2.83-1.17,4.91-.5,2.08-1.04,4.35-1.2,5.05l-.3,1.26-4.53.03c-4.46.03-4.54.04-5.1.29-.78.35-1.55,1.15-1.93,1.99-.26.57-.32.84-.32,1.59,0,.78.05,1,.35,1.64.47.99,1.05,1.62,1.82,2,.62.3.71.32,2.88.37l2.23.06-.6.47c-1.2.94-2.43,2.74-2.89,4.24-.35,1.17-.53,2.7-.35,3.13.17.41.68.7,1.06.61.52-.13.7-.48.83-1.64.23-2.06,1.14-3.69,2.81-5.02.83-.66,2.33-1.48,3.28-1.79,1.02-.33,1.33-1.04.71-1.65l-.33-.33h-4.22c-4.69,0-4.71,0-5.25-.79-.59-.86-.57-1.76.06-2.58.54-.72.44-.71,7.01-.67,5.74.03,5.95.04,6.45.26,1.22.57,1.64,1.58,1.54,3.71-.15,3.29-1.99,7.29-4.64,10.09-.73.77-1.7,1.56-2.29,1.86-.84.43-.82.33-.82,3.71v3.03c.04,1.1.08,2.21.12,3.3-2.86-.09-5.72-.17-8.58-.26h-5.32l.03-4.81.03-4.81-.61-.51c-.34-.28-1.08-.98-1.64-1.55-2.5-2.53-3.21-5.49-2.81-11.71l.18-2.8-1.23-2.22c-3.84-6.93-3.85-6.96-3.85-7.48,0-.66.31-1.14.95-1.45.62-.3,1.19-.25,1.59.12.14.13,1.33,1.78,2.65,3.66Z"/>
      </g>
    </g>
  </g>
</svg>