<?xml version="1.0" encoding="UTF-8"?>
<svg id="Livello_2" data-name="Livello 2" xmlns="http://www.w3.org/2000/svg" viewBox="0 0 87.27 139.01" width="86.7" height="135">
  <defs>
    <style>
      .cls-1 {
        font-family: MergeW00-Bold, MergeW00-Bold;
        font-size: 12px;
        font-weight: 700;
      }

      .cls-1, .cls-2 {
        fill: #000;
      }

      .cls-1, .cls-3 {
        isolation: isolate;
      }

      .cls-4 {
        fill: #b72323;
      }

      .cls-4, .cls-5 {
        stroke-width: 2px;
      }

      .cls-4, .cls-5, .cls-6 {
        stroke: #000;
      }

      .cls-7 {
        fill: #a62727;
      }

      .cls-7, .cls-8, .cls-2, .cls-9, .cls-10, .cls-11 {
        stroke-width: 0px;
      }

      .cls-5 {
        fill: #e62727;
      }

      .cls-8 {
        fill: #1b1c28;
      }

      .cls-6 {
        fill: #1e2037;
      }

      .cls-9 {
        fill: #f94b4b;
      }

      .cls-10 {
        fill: #fff;
      }

      .cls-11 {
        fill: #2a2d3f;
      }
    </style>
  </defs>
  <g id="Livello_2-2" data-name="Livello 2">
    <rect class="cls-10" width="87.27" height="139.01"/>
    <g id="Button">
      <g id="Bot_blue" data-name="Bot blue">
        <path class="cls-6" d="M86.5,52.5v16c0,19.8-19.17,36-43,36S.5,88.3.5,68.5v-16c0,2.75.37,5.43,1.07,8,4.34,15.99,21.41,28,41.93,28s37.59-12.01,41.93-28c.7-2.57,1.07-5.25,1.07-8Z"/>
        <path class="cls-8" d="M86,67.89v.61c0,19.58-19.07,35.5-42.5,35.5-.75,0-1.49-.02-2.22-.05,1.65-.41,3.29-.82,4.94-1.23,1.92-.5,3.91-1.08,5.98-1.74,2.78-.89,5.38-1.85,7.79-2.82,2.77-.98,6.53-2.65,10.45-5.55,3.29-2.44,5.68-5,7.34-7.07,1.99-2.45,4.39-6,6.21-10.66,1-2.55,1.62-4.93,2.02-6.99h0Z"/>
      </g>
      <g id="Top_blue" data-name="Top blue">
        <path class="cls-6" d="M86.5,52.5c0,2.75-.37,5.43-1.07,8-4.34,15.99-21.41,28-41.93,28S5.91,76.49,1.57,60.5c-.7-2.57-1.07-5.25-1.07-8C.5,32.7,19.67,16.5,43.5,16.5s43,16.2,43,36Z"/>
        <path class="cls-11" d="M39.16,87.81c-18.08-1.5-33.01-12.36-37.11-27.44-.7-2.57-1.05-5.21-1.05-7.87,0-4.9,1.2-9.57,3.36-13.82-.61,2.27-1.25,5.47-1.34,9.34-.05,2.18-.14,7.85,2.05,13.62,3.15,8.32,10.48,13.5,17.67,18.16,4.33,2.8,8.72,4.95,13.51,6.86,1.44.57,2.95,1.15,2.91,1.15Z"/>
      </g>
      <g id="Bot_red" data-name="Bot red">
        <path class="cls-4" d="M79,29v22c0,15.25-15.88,28-36,28S7,66.25,7,51v-22h13.76c6.09-3.75,13.79-6,22.24-6s16.15,2.25,22.24,6h13.76Z"/>
        <path class="cls-7" d="M77.98,40.67c0,3.44.01,6.89.02,10.33,0,14.89-15.7,27-35,27-5.37,0-10.46-.94-15.01-2.62,1.59.05,3.82.11,6.49.1,1.33,0,3.98-.02,6.31-.14,3.37-.18,8.3-.45,14.12-2.39,4.62-1.54,7.75-3.45,8.56-3.96,2.06-1.28,4.91-3.09,7.63-6.41.4-.49,2.04-2.53,3.57-5.73,2.87-6,3.39-11.98,3.32-16.17h0Z"/>
      </g>
      <g id="Top_red" data-name="Top red">
        <g id="Top_red-2" data-name="Top red-2">
          <path class="cls-5" d="M79,29c0,15.25-15.88,28-36,28S7,44.25,7,29,22.88,1,43,1s36,12.75,36,28Z"/>
          <path class="cls-7" d="M78,29c0,14.89-15.7,27-35,27-.84,0-5.94-.13-5.94-.4,0-.11.79-.19,2.04-.34,2.04-.25,4.07-.56,6.11-.81,2.56-.31,5.17-.63,8.19-1.6,3.17-1.02,5.44-2.31,6.96-3.2,1.37-.8,3.72-2.17,6.31-4.52,2.65-2.4,4.22-4.6,5.45-6.35,1.74-2.46,3.98-6.13,5.84-11.02.03.42.04.83.04,1.25h0Z"/>
        </g>
        <path class="cls-9" d="M71.17,13c-2.05-.89-4.2-1.76-6.46-2.6-4.54-1.69-8.88-3.01-12.93-4.05-3.89-.84-8.72-1.35-14.14-.74-5.07.57-8.72,1.89-9.84,2.32-2.75,1.05-5.27,2.31-7.51,4.22-1.34,1.15-2.77,2.3-4.02,3.59-1.32,1.35-2.35,2.91-3.45,4.44-1.08,1.51-1.71,3.09-2.43,4.79-.78,1.86-1.55,3.71-2.33,5.57-.04-.51-.06-1.02-.06-1.53,0-14.9,15.7-27.01,35-27.01,11.54,0,21.79,4.33,28.17,11Z"/>
      </g>
      <g class="cls-3">
        <text class="cls-1" transform="translate(4.05 117.53)"><tspan x="0" y="0">DON’T TOUCH </tspan></text>
        <text class="cls-1" transform="translate(2.62 131.93)"><tspan x="0" y="0">THAT BUTTON</tspan></text>
      </g>
    </g>
    <g id="Cursors">
      <path class="cls-2" d="M70.4,39.89l-5.2-1.39c-2.13-.57-5.62-1.51-7.76-2.08l-5.2-1.39c-2.13-.57-3.41.71-2.84,2.84l1.39,5.2c.57,2.13,1.51,5.62,2.08,7.76l1.39,5.2c.57,2.13,2.32,2.6,3.88,1.04l3.81-3.81.24-.24c.07.09.15.17.23.26l7.39,7.39c1.18,1.18,3.09,1.18,4.27,0l.96-.96c1.18-1.18,1.18-3.09,0-4.27l-7.39-7.39c-.08-.08-.17-.16-.26-.23.08-.08.16-.16.24-.24l3.81-3.81c1.56-1.56,1.09-3.31-1.04-3.88Z"/>
    </g>
  </g>
</svg>