<?xml version="1.0" encoding="UTF-8"?>
<svg id="Livello_2" data-name="Livello 2" xmlns="http://www.w3.org/2000/svg" viewBox="0 0 74 74" width="70" height="70">
  <defs>
    <style>
      .cls-1 {
        fill: #fff;
        stroke: #161d4c;
        stroke-miterlimit: 10;
        stroke-width: 4px;
      }
    </style>
  </defs>
  <g id="Settings">
    <path class="cls-1" d="M65.78,17.75l-7.12,2.95c-.41.17-.87.03-1.18-.39-1.15-1.35-2.42-2.66-3.82-3.76-.3-.28-.55-.72-.35-1.21l2.93-7.14c.2-.41.18-.88.02-1.29s-.49-.75-.92-.9l-9.36-3.88c-.84-.35-1.87.08-2.22.92l-2.94,7.11c-.16.4-.58.64-1.12.57-1.79-.17-3.59-.19-5.38,0-.38.05-.87-.08-1.08-.58l-2.95-7.12c-.36-.87-1.37-1.26-2.21-.91l-9.37,3.88c-.87.36-1.28,1.33-.91,2.21l2.95,7.12c.17.41,0,.88-.39,1.19-1.4,1.13-2.66,2.42-3.8,3.81-.23.32-.68.57-1.16.37l-7.14-2.93c-.88-.37-1.85.04-2.22.92l-3.88,9.36c-.16.4-.18.88-.02,1.29s.52.73.92.9l7.15,2.96c.4.16.61.59.57,1.12-.22,1.77-.19,3.59-.02,5.35.02.4-.1.92-.56,1.11l-7.15,2.96c-.84.35-1.28,1.33-.91,2.21l3.88,9.37c.36.87,1.37,1.26,2.21.91l7.12-2.95c.41-.17.87-.03,1.22.37,1.12,1.37,2.42,2.66,3.81,3.8.29.25.57.68.37,1.16l-2.96,7.16c-.16.4-.18.88-.02,1.29.17.41.52.73.92.9l9.38,3.91c.87.33,1.84-.07,2.22-.92l2.93-7.14c.2-.41.62-.62,1.12-.57,1.79.17,3.59.19,5.38,0,.38-.05.92.1,1.11.56l2.95,7.12c.36.87,1.33,1.28,2.21.91l9.37-3.88c.84-.35,1.28-1.33.91-2.21l-2.95-7.12c-.17-.41-.03-.87.36-1.17,1.4-1.13,2.66-2.42,3.8-3.81.23-.32.71-.59,1.19-.38l7.12,2.98c.43.15.87.15,1.31-.03.41-.17.75-.49.91-.89l3.87-9.4c.38-.85-.04-1.85-.91-2.19l-7.12-2.98c-.4-.16-.64-.58-.59-1.07.2-1.8.18-3.63.03-5.39-.05-.38.06-.9.56-1.11l7.12-2.95c.87-.36,1.28-1.33.91-2.21l-3.88-9.37c-.36-.87-1.33-1.28-2.21-.91ZM42.5,50.23c-7.31,3.03-15.7-.45-18.72-7.76-3.03-7.31.45-15.7,7.76-18.73,7.28-3.01,15.7.45,18.72,7.76,3.03,7.31-.48,15.71-7.76,18.73Z"/>
  </g>
</svg>