<svg width="37" height="45" viewBox="0 0 37 45" fill="none" xmlns="http://www.w3.org/2000/svg">
<path d="M36.5 29.342C36.5 37.6386 28.5225 44.5 18.5 44.5C8.47745 44.5 0.5 37.6386 0.5 29.342C0.5 21.0454 8.47745 14.1841 18.5 14.1841C28.5225 14.1841 36.5 21.0454 36.5 29.342Z" fill="#D9D9D9" stroke="black"/>
<path d="M36.5 22.4783C36.5 30.7748 28.5225 37.6362 18.5 37.6362C8.47745 37.6362 0.5 30.7748 0.5 22.4783C0.5 14.1817 8.47745 7.32028 18.5 7.32028C28.5225 7.32028 36.5 14.1817 36.5 22.4783Z" fill="#D9D9D9" stroke="black"/>
<line x1="0.5" y1="22.2638" x2="0.5" y2="29.9855" stroke="black"/>
<line x1="36.5" y1="22.1478" x2="36.5" y2="29.4406" stroke="black"/>
<path d="M33.023 21.8348C33.023 27.947 26.6574 33.2754 18.2874 33.2754C9.91731 33.2754 3.55173 27.947 3.55173 21.8348C3.55173 15.7226 9.91731 10.3942 18.2874 10.3942C26.6574 10.3942 33.023 15.7226 33.023 21.8348Z" fill="#F5D115" stroke="black" stroke-width="2"/>
<line x1="3.60001" y1="21.1391" x2="3.60001" y2="16.0957" stroke="black" stroke-width="2"/>
<line x1="33" y1="22.1478" x2="33" y2="14.0783" stroke="black" stroke-width="2"/>
<path d="M33.023 17.4406C33.023 23.5528 26.6574 28.8812 18.2874 28.8812C9.91731 28.8812 3.55173 23.5528 3.55173 17.4406C3.55173 11.3284 9.91731 6 18.2874 6C26.6574 6 33.023 11.3284 33.023 17.4406Z" fill="#F5D115" stroke="black" stroke-width="2"/>
<path d="M7.06543 17.0522V12.6885H8.94895C9.27282 12.6885 9.5562 12.7525 9.79909 12.8803C10.042 13.0082 10.2309 13.1878 10.3659 13.4194C10.5008 13.6509 10.5683 13.9215 10.5683 14.2312C10.5683 14.5437 10.4987 14.8143 10.3595 15.043C10.2217 15.2716 10.0278 15.4478 9.77779 15.5714C9.52921 15.6949 9.23873 15.7567 8.90634 15.7567H7.78134V14.8363H8.6677C8.80691 14.8363 8.92551 14.8121 9.02353 14.7638C9.12296 14.7141 9.19895 14.6438 9.25151 14.5529C9.30549 14.462 9.33248 14.3547 9.33248 14.2312C9.33248 14.1062 9.30549 13.9996 9.25151 13.9116C9.19895 13.8221 9.12296 13.7539 9.02353 13.707C8.92551 13.6587 8.80691 13.6346 8.6677 13.6346H8.25009V17.0522H7.06543ZM11.0029 17.0522V12.6885H12.1876V16.0976H13.9518V17.0522H11.0029ZM14.4307 17.0522V12.6885H17.5756V13.6431H15.6153V14.3931H17.4136V15.3476H15.6153V16.0976H17.567V17.0522H14.4307ZM19.2966 17.0522H18.0182L19.4585 12.6885H21.0779L22.5182 17.0522H21.2398L20.2852 13.8903H20.2512L19.2966 17.0522ZM19.058 15.3306H21.4614V16.217H19.058V15.3306ZM25.1208 14.0522C25.1095 13.9101 25.0562 13.7993 24.961 13.7198C24.8673 13.6403 24.7245 13.6005 24.5328 13.6005C24.4106 13.6005 24.3105 13.6154 24.2323 13.6452C24.1556 13.6736 24.0988 13.7127 24.0619 13.7624C24.0249 13.8121 24.0058 13.8689 24.0044 13.9329C24.0015 13.9854 24.0107 14.033 24.032 14.0756C24.0548 14.1168 24.0903 14.1545 24.1386 14.1885C24.1869 14.2212 24.2487 14.251 24.324 14.278C24.3992 14.305 24.4887 14.3292 24.5924 14.3505L24.9504 14.4272C25.1919 14.4783 25.3985 14.5458 25.5704 14.6296C25.7423 14.7134 25.8829 14.8121 25.9923 14.9258C26.1017 15.038 26.1819 15.1644 26.233 15.305C26.2856 15.4457 26.3126 15.5991 26.314 15.7653C26.3126 16.0522 26.2409 16.2951 26.0988 16.4939C25.9568 16.6928 25.7536 16.8441 25.4894 16.9478C25.2267 17.0515 24.9106 17.1033 24.5413 17.1033C24.162 17.1033 23.8311 17.0472 23.5484 16.935C23.2671 16.8228 23.0484 16.6502 22.8921 16.4172C22.7373 16.1829 22.6592 15.8832 22.6578 15.5181H23.7828C23.7899 15.6516 23.8232 15.7638 23.8829 15.8547C23.9426 15.9457 24.0264 16.0145 24.1343 16.0614C24.2437 16.1083 24.3737 16.1317 24.5242 16.1317C24.6507 16.1317 24.7565 16.1161 24.8417 16.0849C24.9269 16.0536 24.9916 16.0103 25.0356 15.9549C25.0796 15.8995 25.1024 15.8363 25.1038 15.7653C25.1024 15.6985 25.0803 15.6403 25.0377 15.5905C24.9965 15.5394 24.9284 15.4939 24.8332 15.4542C24.738 15.413 24.6095 15.3746 24.4475 15.3391L24.0129 15.2454C23.6265 15.1616 23.3218 15.0216 23.0988 14.8256C22.8772 14.6282 22.7671 14.359 22.7686 14.0181C22.7671 13.7411 22.841 13.4989 22.9901 13.2915C23.1407 13.0827 23.3488 12.9201 23.6144 12.8036C23.8815 12.6871 24.1876 12.6289 24.5328 12.6289C24.885 12.6289 25.1897 12.6878 25.4468 12.8057C25.7039 12.9236 25.9021 13.0898 26.0413 13.3043C26.1819 13.5174 26.2529 13.7667 26.2544 14.0522H25.1208ZM26.7646 17.0522V12.6885H29.9095V13.6431H27.9493V14.3931H29.7476V15.3476H27.9493V16.0976H29.901V17.0522H26.7646ZM18.0012 19.6885V24.0522H17.0125L15.4358 21.7596H15.4102V24.0522H14.2256V19.6885H15.2313L16.7824 21.9726H16.8165V19.6885H18.0012ZM22.7888 21.8704C22.7888 22.3562 22.6943 22.766 22.5054 23.0998C22.3165 23.4322 22.0615 23.6843 21.7405 23.8562C21.4195 24.0266 21.0615 24.1118 20.6666 24.1118C20.2689 24.1118 19.9095 24.0259 19.5885 23.854C19.2689 23.6807 19.0146 23.4279 18.8257 23.0955C18.6382 22.7617 18.5445 22.3533 18.5445 21.8704C18.5445 21.3846 18.6382 20.9755 18.8257 20.6431C19.0146 20.3093 19.2689 20.0572 19.5885 19.8867C19.9095 19.7148 20.2689 19.6289 20.6666 19.6289C21.0615 19.6289 21.4195 19.7148 21.7405 19.8867C22.0615 20.0572 22.3165 20.3093 22.5054 20.6431C22.6943 20.9755 22.7888 21.3846 22.7888 21.8704ZM21.57 21.8704C21.57 21.609 21.5352 21.3888 21.4656 21.2099C21.3975 21.0295 21.2959 20.8931 21.161 20.8008C21.0274 20.707 20.8627 20.6601 20.6666 20.6601C20.4706 20.6601 20.3051 20.707 20.1702 20.8008C20.0367 20.8931 19.9351 21.0295 19.8655 21.2099C19.7973 21.3888 19.7632 21.609 19.7632 21.8704C19.7632 22.1317 19.7973 22.3526 19.8655 22.533C19.9351 22.712 20.0367 22.8483 20.1702 22.9421C20.3051 23.0344 20.4706 23.0806 20.6666 23.0806C20.8627 23.0806 21.0274 23.0344 21.161 22.9421C21.2959 22.8483 21.3975 22.712 21.4656 22.533C21.5352 22.3526 21.57 22.1317 21.57 21.8704Z" fill="black"/>
</svg>
