<svg width="292" height="73" viewBox="0 0 292 73" fill="none" xmlns="http://www.w3.org/2000/svg">
<rect x="0.500061" y="0.5" width="291" height="72" rx="4.5" fill="#B0F5FA" stroke="black"/>
<rect x="15.1001" y="15.1" width="42.8" height="42.8" rx="4.5" fill="white" stroke="black"/>
<rect x="208.5" y="15.5" width="74" height="42" rx="4.5" fill="#7FFA7D" stroke="black"/>
<rect x="0.500061" y="0.5" width="291" height="72" rx="4.5" fill="#292E2E" fill-opacity="0.65" stroke="black"/>
<path d="M67.1928 18.5455V28H64.626V18.5455H67.1928ZM76.5896 18.5455V28H74.4476L71.0314 23.0327H70.976V28H68.4092V18.5455H70.5882L73.949 23.4943H74.0229V18.5455H76.5896ZM86.6305 22.0909H84.0268C84.0083 21.8755 83.9591 21.68 83.8791 21.5046C83.8021 21.3292 83.6944 21.1784 83.5559 21.0522C83.4205 20.9229 83.2558 20.8245 83.0619 20.7567C82.868 20.686 82.648 20.6506 82.4018 20.6506C81.9709 20.6506 81.6062 20.7552 81.3077 20.9645C81.0122 21.1738 80.7876 21.4738 80.6337 21.8647C80.4829 22.2556 80.4075 22.7249 80.4075 23.2727C80.4075 23.8513 80.4844 24.3361 80.6383 24.7269C80.7952 25.1147 81.0215 25.4071 81.3169 25.604C81.6124 25.7979 81.9678 25.8949 82.3833 25.8949C82.6203 25.8949 82.8327 25.8656 83.0204 25.8072C83.2081 25.7456 83.3712 25.6579 83.5097 25.544C83.6482 25.4302 83.7606 25.2932 83.8467 25.1332C83.936 24.9701 83.996 24.7869 84.0268 24.5838L86.6305 24.6023C86.5997 25.0024 86.4874 25.4102 86.2935 25.8256C86.0996 26.238 85.8241 26.6197 85.4671 26.9705C85.1132 27.3183 84.6746 27.5984 84.1514 27.8107C83.6282 28.0231 83.0204 28.1293 82.3279 28.1293C81.46 28.1293 80.6814 27.9431 79.992 27.5707C79.3057 27.1983 78.7625 26.6504 78.3624 25.9272C77.9653 25.204 77.7668 24.3191 77.7668 23.2727C77.7668 22.2202 77.97 21.3338 78.3762 20.6136C78.7825 19.8904 79.3303 19.3441 80.0197 18.9748C80.7091 18.6024 81.4785 18.4162 82.3279 18.4162C82.925 18.4162 83.4743 18.4978 83.976 18.6609C84.4777 18.824 84.9178 19.0625 85.2963 19.3764C85.6749 19.6873 85.9796 20.0704 86.2104 20.5259C86.4412 20.9814 86.5812 21.5031 86.6305 22.0909ZM87.795 28V18.5455H91.8759C92.5777 18.5455 93.1916 18.6732 93.7179 18.9286C94.2442 19.1841 94.6535 19.5518 94.9459 20.032C95.2383 20.5121 95.3845 21.0876 95.3845 21.7585C95.3845 22.4356 95.2337 23.0065 94.9321 23.4712C94.6335 23.936 94.2134 24.2868 93.6718 24.5238C93.1332 24.7608 92.5038 24.8793 91.7836 24.8793H89.3461V22.8849H91.2666C91.5682 22.8849 91.8252 22.848 92.0375 22.7741C92.253 22.6972 92.4176 22.5756 92.5315 22.4094C92.6484 22.2433 92.7069 22.0263 92.7069 21.7585C92.7069 21.4877 92.6484 21.2676 92.5315 21.0984C92.4176 20.926 92.253 20.7998 92.0375 20.7198C91.8252 20.6367 91.5682 20.5952 91.2666 20.5952H90.3617V28H87.795ZM93.3348 23.6605L95.6984 28H92.91L90.6018 23.6605H93.3348ZM96.4786 28V18.5455H103.292V20.6136H99.0453V22.2386H102.942V24.3068H99.0453V25.9318H103.274V28H96.4786ZM107.021 28H104.252L107.372 18.5455H110.881L114.002 28H111.232L109.164 21.1491H109.09L107.021 28ZM106.504 24.2699H111.712V26.1903H106.504V24.2699ZM119.641 21.5C119.616 21.1922 119.501 20.9522 119.294 20.7798C119.091 20.6075 118.782 20.5213 118.366 20.5213C118.102 20.5213 117.885 20.5536 117.716 20.6183C117.549 20.6798 117.426 20.7644 117.346 20.8722C117.266 20.9799 117.225 21.103 117.222 21.2415C117.215 21.3554 117.235 21.4585 117.282 21.5508C117.331 21.64 117.408 21.7216 117.512 21.7955C117.617 21.8662 117.751 21.9309 117.914 21.9893C118.077 22.0478 118.271 22.1001 118.496 22.1463L119.271 22.3125C119.794 22.4233 120.242 22.5695 120.615 22.7511C120.987 22.9326 121.292 23.1465 121.529 23.3928C121.766 23.6359 121.94 23.9098 122.05 24.2145C122.164 24.5192 122.223 24.8516 122.226 25.2116C122.223 25.8333 122.067 26.3596 121.76 26.7905C121.452 27.2214 121.012 27.5491 120.439 27.7738C119.87 27.9985 119.185 28.1108 118.385 28.1108C117.563 28.1108 116.846 27.9892 116.234 27.7461C115.624 27.503 115.15 27.129 114.812 26.6243C114.476 26.1165 114.307 25.4671 114.304 24.6761H116.741C116.757 24.9654 116.829 25.2086 116.958 25.4055C117.088 25.6025 117.269 25.7518 117.503 25.8533C117.74 25.9549 118.022 26.0057 118.348 26.0057C118.622 26.0057 118.851 25.9718 119.036 25.9041C119.22 25.8364 119.361 25.7425 119.456 25.6225C119.551 25.5025 119.601 25.3655 119.604 25.2116C119.601 25.067 119.553 24.9408 119.461 24.8331C119.371 24.7223 119.224 24.6238 119.017 24.5376C118.811 24.4484 118.533 24.3653 118.182 24.2884L117.24 24.0852C116.403 23.9036 115.743 23.6005 115.26 23.1758C114.779 22.748 114.541 22.1648 114.544 21.4261C114.541 20.826 114.701 20.3013 115.024 19.8519C115.35 19.3995 115.801 19.0471 116.377 18.7947C116.955 18.5424 117.619 18.4162 118.366 18.4162C119.13 18.4162 119.79 18.5439 120.347 18.7994C120.904 19.0548 121.333 19.4149 121.635 19.8796C121.94 20.3413 122.093 20.8814 122.097 21.5H119.641ZM123.202 28V18.5455H130.016V20.6136H125.769V22.2386H129.665V24.3068H125.769V25.9318H129.998V28H123.202ZM136.446 18.5455V28H133.879V18.5455H136.446ZM145.843 18.5455V28H143.701L140.284 23.0327H140.229V28H137.662V18.5455H139.841L143.202 23.4943H143.276V18.5455H145.843ZM155.883 22.0909H153.28C153.261 21.8755 153.212 21.68 153.132 21.5046C153.055 21.3292 152.947 21.1784 152.809 21.0522C152.673 20.9229 152.509 20.8245 152.315 20.7567C152.121 20.686 151.901 20.6506 151.655 20.6506C151.224 20.6506 150.859 20.7552 150.561 20.9645C150.265 21.1738 150.04 21.4738 149.887 21.8647C149.736 22.2556 149.66 22.7249 149.66 23.2727C149.66 23.8513 149.737 24.3361 149.891 24.7269C150.048 25.1147 150.274 25.4071 150.57 25.604C150.865 25.7979 151.221 25.8949 151.636 25.8949C151.873 25.8949 152.086 25.8656 152.273 25.8072C152.461 25.7456 152.624 25.6579 152.763 25.544C152.901 25.4302 153.013 25.2932 153.1 25.1332C153.189 24.9701 153.249 24.7869 153.28 24.5838L155.883 24.6023C155.853 25.0024 155.74 25.4102 155.546 25.8256C155.353 26.238 155.077 26.6197 154.72 26.9705C154.366 27.3183 153.928 27.5984 153.404 27.8107C152.881 28.0231 152.273 28.1293 151.581 28.1293C150.713 28.1293 149.934 27.9431 149.245 27.5707C148.559 27.1983 148.015 26.6504 147.615 25.9272C147.218 25.204 147.02 24.3191 147.02 23.2727C147.02 22.2202 147.223 21.3338 147.629 20.6136C148.035 19.8904 148.583 19.3441 149.273 18.9748C149.962 18.6024 150.731 18.4162 151.581 18.4162C152.178 18.4162 152.727 18.4978 153.229 18.6609C153.731 18.824 154.171 19.0625 154.549 19.3764C154.928 19.6873 155.232 20.0704 155.463 20.5259C155.694 20.9814 155.834 21.5031 155.883 22.0909ZM166.207 23.2727C166.207 24.3253 166.002 25.2132 165.593 25.9364C165.184 26.6566 164.631 27.2029 163.936 27.5753C163.24 27.9446 162.465 28.1293 161.609 28.1293C160.747 28.1293 159.969 27.9431 159.273 27.5707C158.581 27.1952 158.03 26.6474 157.62 25.9272C157.214 25.204 157.011 24.3191 157.011 23.2727C157.011 22.2202 157.214 21.3338 157.62 20.6136C158.03 19.8904 158.581 19.3441 159.273 18.9748C159.969 18.6024 160.747 18.4162 161.609 18.4162C162.465 18.4162 163.24 18.6024 163.936 18.9748C164.631 19.3441 165.184 19.8904 165.593 20.6136C166.002 21.3338 166.207 22.2202 166.207 23.2727ZM163.566 23.2727C163.566 22.7064 163.491 22.2294 163.34 21.8416C163.192 21.4508 162.972 21.1553 162.68 20.9553C162.391 20.7521 162.034 20.6506 161.609 20.6506C161.184 20.6506 160.826 20.7521 160.533 20.9553C160.244 21.1553 160.024 21.4508 159.873 21.8416C159.725 22.2294 159.652 22.7064 159.652 23.2727C159.652 23.839 159.725 24.3176 159.873 24.7085C160.024 25.0962 160.244 25.3917 160.533 25.5948C160.826 25.7949 161.184 25.8949 161.609 25.8949C162.034 25.8949 162.391 25.7949 162.68 25.5948C162.972 25.3917 163.192 25.0962 163.34 24.7085C163.491 24.3176 163.566 23.839 163.566 23.2727ZM167.395 18.5455H170.589L172.787 23.9006H172.897L175.095 18.5455H178.289V28H175.778V22.5341H175.704L173.599 27.9261H172.085L169.98 22.4972H169.906V28H167.395V18.5455ZM179.506 28V18.5455H186.32V20.6136H182.073V22.2386H185.969V24.3068H182.073V25.9318H186.301V28H179.506Z" fill="black"/>
<path d="M65.7399 35.7273V43H64.8593V35.7273H65.7399ZM68.2302 39.7188V43H67.3921V37.5455H68.2018V38.3977H68.2728C68.4006 38.1207 68.5948 37.8982 68.8552 37.7301C69.1156 37.5597 69.4518 37.4744 69.8637 37.4744C70.233 37.4744 70.5562 37.5502 70.8332 37.7017C71.1101 37.8509 71.3256 38.0781 71.4795 38.3835C71.6333 38.6866 71.7103 39.0701 71.7103 39.5341V43H70.8722V39.5909C70.8722 39.1624 70.761 38.8286 70.5384 38.5895C70.3159 38.348 70.0105 38.2273 69.6222 38.2273C69.3547 38.2273 69.1156 38.2853 68.9049 38.4013C68.6966 38.5173 68.532 38.6866 68.4113 38.9091C68.2905 39.1316 68.2302 39.4015 68.2302 39.7188ZM75.4576 43.1136C74.9463 43.1136 74.5059 42.9929 74.1366 42.7514C73.7673 42.5099 73.4832 42.1773 73.2843 41.7536C73.0855 41.3298 72.986 40.8456 72.986 40.3011C72.986 39.7472 73.0878 39.2583 73.2914 38.8345C73.4974 38.4084 73.7839 38.0758 74.1508 37.8366C74.5201 37.5952 74.951 37.4744 75.4434 37.4744C75.8269 37.4744 76.1726 37.5455 76.4804 37.6875C76.7881 37.8295 77.0402 38.0284 77.2367 38.2841C77.4332 38.5398 77.5552 38.8381 77.6025 39.179H76.7644C76.7005 38.9304 76.5585 38.7102 76.3383 38.5185C76.1205 38.3243 75.8269 38.2273 75.4576 38.2273C75.1309 38.2273 74.8445 38.3125 74.5983 38.483C74.3544 38.651 74.1638 38.889 74.0265 39.1967C73.8916 39.5021 73.8241 39.8608 73.8241 40.2727C73.8241 40.6941 73.8904 41.0611 74.023 41.3736C74.1579 41.6861 74.3473 41.9287 74.5911 42.1016C74.8374 42.2744 75.1262 42.3608 75.4576 42.3608C75.6754 42.3608 75.8731 42.3229 76.0507 42.2472C76.2282 42.1714 76.3786 42.0625 76.5017 41.9205C76.6248 41.7784 76.7124 41.608 76.7644 41.4091H77.6025C77.5552 41.7311 77.438 42.0211 77.2509 42.2791C77.0663 42.5348 76.8213 42.7384 76.5159 42.8899C76.2128 43.0391 75.8601 43.1136 75.4576 43.1136ZM78.8277 43V37.5455H79.6373V38.3693H79.6941C79.7936 38.0994 79.9735 37.8804 80.2339 37.7124C80.4943 37.5443 80.7879 37.4602 81.1146 37.4602C81.1761 37.4602 81.2531 37.4614 81.3454 37.4638C81.4377 37.4661 81.5076 37.4697 81.5549 37.4744V38.3267C81.5265 38.3196 81.4614 38.3089 81.3596 38.2947C81.2602 38.2782 81.1548 38.2699 81.0436 38.2699C80.7784 38.2699 80.5417 38.3255 80.3333 38.4368C80.1274 38.5457 79.964 38.6972 79.8433 38.8913C79.7249 39.0831 79.6657 39.3021 79.6657 39.5483V43H78.8277ZM84.6693 43.1136C84.1437 43.1136 83.6903 42.9976 83.3092 42.7656C82.9304 42.5312 82.638 42.2045 82.4321 41.7855C82.2285 41.3641 82.1267 40.8741 82.1267 40.3153C82.1267 39.7566 82.2285 39.2642 82.4321 38.8381C82.638 38.4096 82.9245 38.0758 83.2914 37.8366C83.6608 37.5952 84.0916 37.4744 84.584 37.4744C84.8681 37.4744 85.1487 37.5218 85.4257 37.6165C85.7027 37.7112 85.9548 37.8651 86.1821 38.0781C86.4093 38.2888 86.5904 38.5682 86.7254 38.9162C86.8603 39.2642 86.9278 39.6927 86.9278 40.2017V40.5568H82.7233V39.8324H86.0755C86.0755 39.5246 86.014 39.25 85.8909 39.0085C85.7701 38.767 85.5973 38.5765 85.3724 38.4368C85.1499 38.2971 84.8871 38.2273 84.584 38.2273C84.2502 38.2273 83.9614 38.3101 83.7176 38.4759C83.4761 38.6392 83.2902 38.8523 83.16 39.1151C83.0298 39.3778 82.9647 39.6596 82.9647 39.9602V40.4432C82.9647 40.8551 83.0357 41.2043 83.1778 41.4908C83.3222 41.7749 83.5223 41.9915 83.7779 42.1406C84.0336 42.2874 84.3307 42.3608 84.6693 42.3608C84.8894 42.3608 85.0883 42.33 85.2659 42.2685C85.4458 42.2045 85.6009 42.1098 85.7311 41.9844C85.8613 41.8565 85.9619 41.6979 86.0329 41.5085L86.8426 41.7358C86.7573 42.0104 86.6141 42.2519 86.4129 42.4602C86.2116 42.6662 85.9631 42.8272 85.6671 42.9432C85.3712 43.0568 85.0386 43.1136 84.6693 43.1136ZM89.8078 43.1278C89.4621 43.1278 89.1484 43.0627 88.8667 42.9325C88.585 42.8 88.3613 42.6094 88.1956 42.3608C88.0298 42.1098 87.947 41.8068 87.947 41.4517C87.947 41.1392 88.0085 40.8859 88.1316 40.6918C88.2547 40.4953 88.4193 40.3414 88.6252 40.2301C88.8312 40.1188 89.0585 40.036 89.3071 39.9815C89.558 39.9247 89.8101 39.8797 90.0634 39.8466C90.3949 39.804 90.6636 39.772 90.8696 39.7507C91.0779 39.727 91.2294 39.688 91.3241 39.6335C91.4212 39.5791 91.4697 39.4844 91.4697 39.3494V39.321C91.4697 38.9706 91.3738 38.6984 91.1821 38.5043C90.9927 38.3101 90.705 38.2131 90.3191 38.2131C89.919 38.2131 89.6054 38.3007 89.3781 38.4759C89.1508 38.651 88.991 38.8381 88.8987 39.0369L88.1032 38.7528C88.2453 38.4214 88.4347 38.1634 88.6714 37.9787C88.9105 37.7917 89.1709 37.6615 89.4527 37.5881C89.7367 37.5123 90.0161 37.4744 90.2907 37.4744C90.4659 37.4744 90.6671 37.4957 90.8944 37.5384C91.1241 37.5786 91.3454 37.6626 91.5585 37.7905C91.7739 37.9183 91.9527 38.1113 92.0947 38.3693C92.2367 38.6274 92.3078 38.973 92.3078 39.4062V43H91.4697V42.2614H91.4271C91.3703 42.3797 91.2756 42.5064 91.143 42.6413C91.0104 42.7763 90.834 42.8911 90.6139 42.9858C90.3937 43.0805 90.125 43.1278 89.8078 43.1278ZM89.9356 42.375C90.267 42.375 90.5464 42.3099 90.7737 42.1797C91.0033 42.0495 91.1761 41.8814 91.2921 41.6754C91.4105 41.4695 91.4697 41.2528 91.4697 41.0256V40.2585C91.4342 40.3011 91.3561 40.3402 91.2353 40.3757C91.117 40.4089 90.9796 40.4384 90.8234 40.4645C90.6695 40.4882 90.5192 40.5095 90.3724 40.5284C90.228 40.545 90.1108 40.5592 90.0208 40.571C89.803 40.5994 89.5994 40.6456 89.41 40.7095C89.223 40.7711 89.0715 40.8646 88.9555 40.9901C88.8419 41.1132 88.785 41.2812 88.785 41.4943C88.785 41.7855 88.8928 42.0057 89.1082 42.1548C89.326 42.3016 89.6018 42.375 89.9356 42.375ZM97.7011 38.767L96.9482 38.9801C96.9009 38.8546 96.831 38.7327 96.7387 38.6143C96.6487 38.4936 96.5256 38.3942 96.3694 38.3161C96.2131 38.2379 96.0131 38.1989 95.7692 38.1989C95.4354 38.1989 95.1573 38.2758 94.9347 38.4297C94.7145 38.5812 94.6045 38.7741 94.6045 39.0085C94.6045 39.2169 94.6802 39.3814 94.8317 39.5021C94.9833 39.6229 95.22 39.7235 95.542 39.804L96.3516 40.0028C96.8393 40.1212 97.2027 40.3023 97.4418 40.5462C97.6809 40.7876 97.8005 41.099 97.8005 41.4801C97.8005 41.7926 97.7105 42.072 97.5306 42.3182C97.353 42.5644 97.1045 42.7585 96.7849 42.9006C96.4653 43.0426 96.0936 43.1136 95.6698 43.1136C95.1135 43.1136 94.653 42.9929 94.2884 42.7514C93.9238 42.5099 93.693 42.1572 93.5959 41.6932L94.3914 41.4943C94.4672 41.7879 94.6104 42.008 94.8211 42.1548C95.0342 42.3016 95.3123 42.375 95.6556 42.375C96.0462 42.375 96.3564 42.2921 96.586 42.1264C96.818 41.9583 96.934 41.7571 96.934 41.5227C96.934 41.3333 96.8677 41.1747 96.7351 41.0469C96.6026 40.9167 96.399 40.8196 96.1244 40.7557L95.2153 40.5426C94.7157 40.4242 94.3488 40.2408 94.1144 39.9922C93.8824 39.7412 93.7664 39.4276 93.7664 39.0511C93.7664 38.7434 93.8528 38.4711 94.0256 38.2344C94.2008 37.9976 94.4387 37.8118 94.7394 37.6768C95.0424 37.5419 95.3857 37.4744 95.7692 37.4744C96.309 37.4744 96.7328 37.5928 97.0405 37.8295C97.3507 38.0663 97.5708 38.3788 97.7011 38.767ZM101.349 43.1136C100.823 43.1136 100.37 42.9976 99.9889 42.7656C99.6101 42.5312 99.3177 42.2045 99.1117 41.7855C98.9081 41.3641 98.8063 40.8741 98.8063 40.3153C98.8063 39.7566 98.9081 39.2642 99.1117 38.8381C99.3177 38.4096 99.6042 38.0758 99.9711 37.8366C100.34 37.5952 100.771 37.4744 101.264 37.4744C101.548 37.4744 101.828 37.5218 102.105 37.6165C102.382 37.7112 102.634 37.8651 102.862 38.0781C103.089 38.2888 103.27 38.5682 103.405 38.9162C103.54 39.2642 103.607 39.6927 103.607 40.2017V40.5568H99.4029V39.8324H102.755C102.755 39.5246 102.694 39.25 102.571 39.0085C102.45 38.767 102.277 38.5765 102.052 38.4368C101.83 38.2971 101.567 38.2273 101.264 38.2273C100.93 38.2273 100.641 38.3101 100.397 38.4759C100.156 38.6392 99.9699 38.8523 99.8397 39.1151C99.7095 39.3778 99.6444 39.6596 99.6444 39.9602V40.4432C99.6444 40.8551 99.7154 41.2043 99.8575 41.4908C100.002 41.7749 100.202 41.9915 100.458 42.1406C100.713 42.2874 101.01 42.3608 101.349 42.3608C101.569 42.3608 101.768 42.33 101.946 42.2685C102.125 42.2045 102.281 42.1098 102.411 41.9844C102.541 41.8565 102.642 41.6979 102.713 41.5085L103.522 41.7358C103.437 42.0104 103.294 42.2519 103.093 42.4602C102.891 42.6662 102.643 42.8272 102.347 42.9432C102.051 43.0568 101.718 43.1136 101.349 43.1136ZM109.911 43.1136C109.399 43.1136 108.959 42.9929 108.59 42.7514C108.22 42.5099 107.936 42.1773 107.737 41.7536C107.539 41.3298 107.439 40.8456 107.439 40.3011C107.439 39.7472 107.541 39.2583 107.745 38.8345C107.951 38.4084 108.237 38.0758 108.604 37.8366C108.973 37.5952 109.404 37.4744 109.897 37.4744C110.28 37.4744 110.626 37.5455 110.933 37.6875C111.241 37.8295 111.493 38.0284 111.69 38.2841C111.886 38.5398 112.008 38.8381 112.056 39.179H111.218C111.154 38.9304 111.012 38.7102 110.791 38.5185C110.574 38.3243 110.28 38.2273 109.911 38.2273C109.584 38.2273 109.298 38.3125 109.051 38.483C108.808 38.651 108.617 38.889 108.48 39.1967C108.345 39.5021 108.277 39.8608 108.277 40.2727C108.277 40.6941 108.344 41.0611 108.476 41.3736C108.611 41.6861 108.8 41.9287 109.044 42.1016C109.29 42.2744 109.579 42.3608 109.911 42.3608C110.129 42.3608 110.326 42.3229 110.504 42.2472C110.681 42.1714 110.832 42.0625 110.955 41.9205C111.078 41.7784 111.165 41.608 111.218 41.4091H112.056C112.008 41.7311 111.891 42.0211 111.704 42.2791C111.519 42.5348 111.274 42.7384 110.969 42.8899C110.666 43.0391 110.313 43.1136 109.911 43.1136ZM114.119 35.7273V43H113.281V35.7273H114.119ZM115.654 43V37.5455H116.492V43H115.654ZM116.08 36.6364C115.917 36.6364 115.776 36.5807 115.657 36.4695C115.541 36.3582 115.483 36.2244 115.483 36.0682C115.483 35.9119 115.541 35.7782 115.657 35.6669C115.776 35.5556 115.917 35.5 116.08 35.5C116.243 35.5 116.383 35.5556 116.499 35.6669C116.617 35.7782 116.677 35.9119 116.677 36.0682C116.677 36.2244 116.617 36.3582 116.499 36.4695C116.383 36.5807 116.243 36.6364 116.08 36.6364ZM120.243 43.1136C119.731 43.1136 119.291 42.9929 118.922 42.7514C118.552 42.5099 118.268 42.1773 118.069 41.7536C117.871 41.3298 117.771 40.8456 117.771 40.3011C117.771 39.7472 117.873 39.2583 118.077 38.8345C118.283 38.4084 118.569 38.0758 118.936 37.8366C119.305 37.5952 119.736 37.4744 120.229 37.4744C120.612 37.4744 120.958 37.5455 121.266 37.6875C121.573 37.8295 121.825 38.0284 122.022 38.2841C122.218 38.5398 122.34 38.8381 122.388 39.179H121.55C121.486 38.9304 121.344 38.7102 121.123 38.5185C120.906 38.3243 120.612 38.2273 120.243 38.2273C119.916 38.2273 119.63 38.3125 119.383 38.483C119.14 38.651 118.949 38.889 118.812 39.1967C118.677 39.5021 118.609 39.8608 118.609 40.2727C118.609 40.6941 118.676 41.0611 118.808 41.3736C118.943 41.6861 119.132 41.9287 119.376 42.1016C119.623 42.2744 119.911 42.3608 120.243 42.3608C120.461 42.3608 120.658 42.3229 120.836 42.2472C121.013 42.1714 121.164 42.0625 121.287 41.9205C121.41 41.7784 121.498 41.608 121.55 41.4091H122.388C122.34 41.7311 122.223 42.0211 122.036 42.2791C121.851 42.5348 121.606 42.7384 121.301 42.8899C120.998 43.0391 120.645 43.1136 120.243 43.1136ZM124.394 41.0114L124.38 39.9744H124.55L126.937 37.5455H127.974L125.431 40.1165H125.36L124.394 41.0114ZM123.613 43V35.7273H124.451V43H123.613ZM127.079 43L124.948 40.3011L125.545 39.7188L128.144 43H127.079ZM131.865 43V37.5455H132.703V43H131.865ZM132.291 36.6364C132.128 36.6364 131.987 36.5807 131.868 36.4695C131.752 36.3582 131.694 36.2244 131.694 36.0682C131.694 35.9119 131.752 35.7782 131.868 35.6669C131.987 35.5556 132.128 35.5 132.291 35.5C132.454 35.5 132.594 35.5556 132.71 35.6669C132.828 35.7782 132.887 35.9119 132.887 36.0682C132.887 36.2244 132.828 36.3582 132.71 36.4695C132.594 36.5807 132.454 36.6364 132.291 36.6364ZM135.076 39.7188V43H134.238V37.5455H135.047V38.3977H135.118C135.246 38.1207 135.44 37.8982 135.701 37.7301C135.961 37.5597 136.297 37.4744 136.709 37.4744C137.079 37.4744 137.402 37.5502 137.679 37.7017C137.956 37.8509 138.171 38.0781 138.325 38.3835C138.479 38.6866 138.556 39.0701 138.556 39.5341V43H137.718V39.5909C137.718 39.1624 137.607 38.8286 137.384 38.5895C137.162 38.348 136.856 38.2273 136.468 38.2273C136.2 38.2273 135.961 38.2853 135.751 38.4013C135.542 38.5173 135.378 38.6866 135.257 38.9091C135.136 39.1316 135.076 39.4015 135.076 39.7188ZM142.303 43.1136C141.792 43.1136 141.352 42.9929 140.982 42.7514C140.613 42.5099 140.329 42.1773 140.13 41.7536C139.931 41.3298 139.832 40.8456 139.832 40.3011C139.832 39.7472 139.934 39.2583 140.137 38.8345C140.343 38.4084 140.63 38.0758 140.997 37.8366C141.366 37.5952 141.797 37.4744 142.289 37.4744C142.673 37.4744 143.018 37.5455 143.326 37.6875C143.634 37.8295 143.886 38.0284 144.082 38.2841C144.279 38.5398 144.401 38.8381 144.448 39.179H143.61C143.546 38.9304 143.404 38.7102 143.184 38.5185C142.966 38.3243 142.673 38.2273 142.303 38.2273C141.977 38.2273 141.69 38.3125 141.444 38.483C141.2 38.651 141.01 38.889 140.872 39.1967C140.737 39.5021 140.67 39.8608 140.67 40.2727C140.67 40.6941 140.736 41.0611 140.869 41.3736C141.004 41.6861 141.193 41.9287 141.437 42.1016C141.683 42.2744 141.972 42.3608 142.303 42.3608C142.521 42.3608 142.719 42.3229 142.896 42.2472C143.074 42.1714 143.224 42.0625 143.347 41.9205C143.47 41.7784 143.558 41.608 143.61 41.4091H144.448C144.401 41.7311 144.284 42.0211 144.097 42.2791C143.912 42.5348 143.667 42.7384 143.362 42.8899C143.059 43.0391 142.706 43.1136 142.303 43.1136ZM147.889 43.1136C147.397 43.1136 146.965 42.9964 146.593 42.7621C146.224 42.5277 145.935 42.1998 145.727 41.7784C145.521 41.357 145.418 40.8646 145.418 40.3011C145.418 39.733 145.521 39.237 145.727 38.8132C145.935 38.3894 146.224 38.0604 146.593 37.826C146.965 37.5916 147.397 37.4744 147.889 37.4744C148.382 37.4744 148.813 37.5916 149.182 37.826C149.554 38.0604 149.842 38.3894 150.048 38.8132C150.257 39.237 150.361 39.733 150.361 40.3011C150.361 40.8646 150.257 41.357 150.048 41.7784C149.842 42.1998 149.554 42.5277 149.182 42.7621C148.813 42.9964 148.382 43.1136 147.889 43.1136ZM147.889 42.3608C148.263 42.3608 148.571 42.2649 148.813 42.0732C149.054 41.8814 149.233 41.6293 149.349 41.3168C149.465 41.0043 149.523 40.6657 149.523 40.3011C149.523 39.9366 149.465 39.5968 149.349 39.282C149.233 38.9671 149.054 38.7126 148.813 38.5185C148.571 38.3243 148.263 38.2273 147.889 38.2273C147.515 38.2273 147.207 38.3243 146.966 38.5185C146.724 38.7126 146.546 38.9671 146.43 39.282C146.314 39.5968 146.256 39.9366 146.256 40.3011C146.256 40.6657 146.314 41.0043 146.43 41.3168C146.546 41.6293 146.724 41.8814 146.966 42.0732C147.207 42.2649 147.515 42.3608 147.889 42.3608ZM151.64 43V37.5455H152.45V38.3977H152.521C152.634 38.1065 152.818 37.8804 153.071 37.7195C153.325 37.5561 153.629 37.4744 153.984 37.4744C154.344 37.4744 154.643 37.5561 154.882 37.7195C155.124 37.8804 155.312 38.1065 155.447 38.3977H155.504C155.643 38.116 155.853 37.8923 156.132 37.7266C156.412 37.5585 156.747 37.4744 157.137 37.4744C157.625 37.4744 158.024 37.6271 158.334 37.9325C158.644 38.2356 158.799 38.7079 158.799 39.3494V43H157.961V39.3494C157.961 38.947 157.851 38.6593 157.631 38.4865C157.411 38.3137 157.152 38.2273 156.853 38.2273C156.47 38.2273 156.173 38.3433 155.962 38.5753C155.751 38.8049 155.646 39.0961 155.646 39.4489V43H154.794V39.2642C154.794 38.9541 154.693 38.7043 154.492 38.5149C154.29 38.3232 154.031 38.2273 153.714 38.2273C153.496 38.2273 153.293 38.2853 153.103 38.4013C152.916 38.5173 152.765 38.6783 152.649 38.8842C152.535 39.0878 152.478 39.3234 152.478 39.5909V43H151.64ZM162.618 43.1136C162.093 43.1136 161.64 42.9976 161.258 42.7656C160.88 42.5312 160.587 42.2045 160.381 41.7855C160.178 41.3641 160.076 40.8741 160.076 40.3153C160.076 39.7566 160.178 39.2642 160.381 38.8381C160.587 38.4096 160.874 38.0758 161.241 37.8366C161.61 37.5952 162.041 37.4744 162.533 37.4744C162.817 37.4744 163.098 37.5218 163.375 37.6165C163.652 37.7112 163.904 37.8651 164.131 38.0781C164.359 38.2888 164.54 38.5682 164.675 38.9162C164.81 39.2642 164.877 39.6927 164.877 40.2017V40.5568H160.672V39.8324H164.025C164.025 39.5246 163.963 39.25 163.84 39.0085C163.719 38.767 163.547 38.5765 163.322 38.4368C163.099 38.2971 162.836 38.2273 162.533 38.2273C162.199 38.2273 161.911 38.3101 161.667 38.4759C161.425 38.6392 161.239 38.8523 161.109 39.1151C160.979 39.3778 160.914 39.6596 160.914 39.9602V40.4432C160.914 40.8551 160.985 41.2043 161.127 41.4908C161.271 41.7749 161.471 41.9915 161.727 42.1406C161.983 42.2874 162.28 42.3608 162.618 42.3608C162.839 42.3608 163.038 42.33 163.215 42.2685C163.395 42.2045 163.55 42.1098 163.68 41.9844C163.81 41.8565 163.911 41.6979 163.982 41.5085L164.792 41.7358C164.707 42.0104 164.563 42.2519 164.362 42.4602C164.161 42.6662 163.912 42.8272 163.616 42.9432C163.32 43.0568 162.988 43.1136 162.618 43.1136ZM169.078 43V35.7273H169.916V38.4119H169.987C170.049 38.3172 170.134 38.1965 170.243 38.0497C170.354 37.9006 170.513 37.768 170.719 37.652C170.927 37.5336 171.209 37.4744 171.564 37.4744C172.023 37.4744 172.428 37.5893 172.778 37.8189C173.129 38.0485 173.402 38.3741 173.599 38.7955C173.795 39.2169 173.893 39.714 173.893 40.2869C173.893 40.8646 173.795 41.3653 173.599 41.7891C173.402 42.2105 173.13 42.5372 172.782 42.7692C172.434 42.9988 172.033 43.1136 171.578 43.1136C171.228 43.1136 170.947 43.0556 170.736 42.9396C170.526 42.8213 170.364 42.6875 170.25 42.5384C170.136 42.3868 170.049 42.2614 169.987 42.1619H169.888V43H169.078ZM169.902 40.2727C169.902 40.6847 169.962 41.0481 170.083 41.3629C170.204 41.6754 170.38 41.9205 170.612 42.098C170.844 42.2732 171.128 42.3608 171.464 42.3608C171.815 42.3608 172.107 42.2685 172.342 42.0838C172.578 41.8968 172.756 41.6458 172.874 41.331C172.995 41.0137 173.055 40.661 173.055 40.2727C173.055 39.8892 172.996 39.5436 172.878 39.2358C172.762 38.9257 172.585 38.6806 172.349 38.5007C172.114 38.3184 171.819 38.2273 171.464 38.2273C171.123 38.2273 170.837 38.3137 170.605 38.4865C170.373 38.657 170.198 38.8961 170.079 39.2038C169.961 39.5092 169.902 39.8655 169.902 40.2727ZM175.52 45.0455C175.378 45.0455 175.251 45.0336 175.14 45.0099C175.029 44.9886 174.952 44.9673 174.909 44.946L175.122 44.2074C175.326 44.2595 175.506 44.2784 175.662 44.2642C175.818 44.25 175.957 44.1802 176.077 44.0547C176.2 43.9316 176.313 43.7315 176.415 43.4545L176.571 43.0284L174.554 37.5455H175.463L176.969 41.892H177.025L178.531 37.5455H179.44L177.125 43.7955C177.021 44.0772 176.892 44.3104 176.738 44.495C176.584 44.6821 176.405 44.8205 176.202 44.9105C176 45.0005 175.773 45.0455 175.52 45.0455ZM183.345 43V42.3608L185.745 39.733C186.027 39.4252 186.259 39.1577 186.441 38.9304C186.624 38.7008 186.759 38.4853 186.846 38.2841C186.936 38.0805 186.981 37.8674 186.981 37.6449C186.981 37.3892 186.92 37.1679 186.796 36.9808C186.676 36.7938 186.51 36.6494 186.299 36.5476C186.089 36.4458 185.852 36.3949 185.589 36.3949C185.31 36.3949 185.066 36.4529 184.857 36.5689C184.652 36.6825 184.492 36.8423 184.378 37.0483C184.267 37.2543 184.211 37.4957 184.211 37.7727H183.373C183.373 37.3466 183.471 36.9725 183.668 36.6506C183.864 36.3286 184.132 36.0777 184.47 35.8977C184.811 35.7178 185.194 35.6278 185.617 35.6278C186.044 35.6278 186.421 35.7178 186.75 35.8977C187.079 36.0777 187.337 36.3203 187.524 36.6257C187.711 36.9311 187.805 37.2708 187.805 37.6449C187.805 37.9124 187.756 38.174 187.659 38.4297C187.565 38.683 187.399 38.9659 187.162 39.2784C186.928 39.5885 186.602 39.9673 186.186 40.4148L184.552 42.1619V42.2188H187.933V43H183.345ZM191.772 43.0994C191.237 43.0994 190.781 42.9538 190.404 42.6626C190.028 42.3691 189.74 41.9441 189.541 41.3878C189.343 40.8291 189.243 40.1544 189.243 39.3636C189.243 38.5777 189.343 37.9065 189.541 37.3501C189.743 36.7914 190.031 36.3653 190.408 36.0717C190.787 35.7758 191.241 35.6278 191.772 35.6278C192.302 35.6278 192.755 35.7758 193.132 36.0717C193.51 36.3653 193.799 36.7914 193.998 37.3501C194.199 37.9065 194.3 38.5777 194.3 39.3636C194.3 40.1544 194.201 40.8291 194.002 41.3878C193.803 41.9441 193.515 42.3691 193.139 42.6626C192.762 42.9538 192.307 43.0994 191.772 43.0994ZM191.772 42.3182C192.302 42.3182 192.714 42.0625 193.007 41.5511C193.301 41.0398 193.448 40.3106 193.448 39.3636C193.448 38.7339 193.38 38.1977 193.245 37.755C193.113 37.3123 192.921 36.9749 192.67 36.7429C192.421 36.5109 192.122 36.3949 191.772 36.3949C191.246 36.3949 190.835 36.6541 190.539 37.1726C190.243 37.6887 190.095 38.419 190.095 39.3636C190.095 39.9934 190.162 40.5284 190.294 40.9688C190.427 41.4091 190.617 41.7441 190.866 41.9737C191.117 42.2034 191.419 42.3182 191.772 42.3182ZM199.357 41.6364V41.2528C199.357 40.9877 199.411 40.745 199.52 40.5249C199.631 40.3023 199.792 40.1248 200.003 39.9922C200.216 39.8572 200.474 39.7898 200.777 39.7898C201.085 39.7898 201.343 39.8572 201.551 39.9922C201.76 40.1248 201.917 40.3023 202.024 40.5249C202.13 40.745 202.183 40.9877 202.183 41.2528V41.6364C202.183 41.9015 202.129 42.1454 202.02 42.3679C201.914 42.5881 201.755 42.7656 201.544 42.9006C201.336 43.0331 201.08 43.0994 200.777 43.0994C200.469 43.0994 200.21 43.0331 200 42.9006C199.789 42.7656 199.629 42.5881 199.52 42.3679C199.411 42.1454 199.357 41.9015 199.357 41.6364ZM200.081 41.2528V41.6364C200.081 41.8565 200.133 42.0542 200.237 42.2294C200.342 42.4022 200.522 42.4886 200.777 42.4886C201.026 42.4886 201.201 42.4022 201.303 42.2294C201.407 42.0542 201.459 41.8565 201.459 41.6364V41.2528C201.459 41.0327 201.409 40.8362 201.31 40.6634C201.21 40.4882 201.033 40.4006 200.777 40.4006C200.529 40.4006 200.35 40.4882 200.241 40.6634C200.134 40.8362 200.081 41.0327 200.081 41.2528ZM195.735 37.4744V37.0909C195.735 36.8258 195.789 36.5831 195.898 36.3629C196.009 36.1404 196.17 35.9628 196.381 35.8303C196.594 35.6953 196.852 35.6278 197.155 35.6278C197.463 35.6278 197.721 35.6953 197.929 35.8303C198.138 35.9628 198.295 36.1404 198.402 36.3629C198.508 36.5831 198.561 36.8258 198.561 37.0909V37.4744C198.561 37.7396 198.507 37.9834 198.398 38.206C198.291 38.4261 198.133 38.6037 197.922 38.7386C197.714 38.8712 197.458 38.9375 197.155 38.9375C196.847 38.9375 196.588 38.8712 196.377 38.7386C196.167 38.6037 196.007 38.4261 195.898 38.206C195.789 37.9834 195.735 37.7396 195.735 37.4744ZM196.459 37.0909V37.4744C196.459 37.6946 196.511 37.8923 196.615 38.0675C196.719 38.2403 196.899 38.3267 197.155 38.3267C197.404 38.3267 197.579 38.2403 197.681 38.0675C197.785 37.8923 197.837 37.6946 197.837 37.4744V37.0909C197.837 36.8707 197.787 36.6742 197.688 36.5014C197.588 36.3262 197.411 36.2386 197.155 36.2386C196.906 36.2386 196.728 36.3262 196.619 36.5014C196.512 36.6742 196.459 36.8707 196.459 37.0909ZM196.005 43L201.005 35.7273H201.814L196.814 43H196.005Z" fill="black"/>
<rect x="27.7268" y="36.6263" width="13.2698" height="24.51" rx="5" transform="rotate(-45 27.7268 36.6263)" fill="#444040"/>
<path d="M21.036 23.4474C20.7372 21.4526 22.4526 19.7372 24.4474 20.036L41.9212 22.6535C44.3568 23.0183 45.3396 26.0003 43.5981 27.7417L28.7417 42.5981C27.0003 44.3396 24.0183 43.3568 23.6535 40.9212L21.036 23.4474Z" fill="#444040"/>
</svg>
