<?xml version="1.0" encoding="UTF-8"?>
<svg id="Button_white1" xmlns="http://www.w3.org/2000/svg" viewBox="0 0 94.34 105">
  <defs>
    <style>
      .cls-1 {
        fill: #efefef;
      }

      .cls-1, .cls-2, .cls-3, .cls-4 {
        stroke: #000;
      }

      .cls-1, .cls-2, .cls-4 {
        stroke-miterlimit: 10;
        stroke-width: 2px;
      }

      .cls-2 {
        fill: #9e9e9e;
      }

      .cls-5 {
        fill: #565655;
      }

      .cls-5, .cls-6, .cls-7, .cls-8, .cls-9, .cls-10, .cls-11 {
        stroke-width: 0px;
      }

      .cls-6 {
        fill: #e0e0e0;
      }

      .cls-7 {
        fill: #7c7c7c;
      }

      .cls-8 {
        fill: #1b1c28;
      }

      .cls-9 {
        fill: #b2b2b2;
      }

      .cls-3 {
        fill: #1e2037;
      }

      .cls-4 {
        fill: #6d6d6d;
      }

      .cls-10 {
        fill: #fff;
      }

      .cls-11 {
        fill: #2a2d3f;
      }
    </style>
  </defs>
  <g id="Bot_blue">
    <path class="cls-3" d="M86.5,52.5v16c0,19.8-19.17,36-43,36S.5,88.3.5,68.5v-16c0,2.75.37,5.43,1.07,8,4.34,15.99,21.41,28,41.93,28s37.59-12.01,41.93-28c.7-2.57,1.07-5.25,1.07-8Z"/>
    <path class="cls-8" d="M86,67.89v.61c0,19.58-19.07,35.5-42.5,35.5-.75,0-1.49-.02-2.22-.05,1.65-.41,3.29-.82,4.94-1.23,1.92-.5,3.91-1.08,5.98-1.74,2.78-.89,5.38-1.85,7.79-2.82,2.77-.98,6.53-2.65,10.45-5.55,3.29-2.44,5.68-5,7.34-7.07,1.99-2.45,4.39-6,6.21-10.66,1-2.55,1.62-4.93,2.02-6.99Z"/>
  </g>
  <g id="Top_blue">
    <path class="cls-3" d="M86.5,52.5c0,2.75-.37,5.43-1.07,8-4.34,15.99-21.41,28-41.93,28S5.91,76.49,1.57,60.5c-.7-2.57-1.07-5.25-1.07-8C.5,32.7,19.67,16.5,43.5,16.5s43,16.2,43,36Z"/>
    <path class="cls-11" d="M39.16,87.81c-18.08-1.5-33.01-12.36-37.11-27.44-.7-2.57-1.05-5.21-1.05-7.87,0-4.9,1.2-9.57,3.36-13.82-.61,2.27-1.25,5.47-1.34,9.34-.05,2.18-.14,7.85,2.05,13.62,3.15,8.32,10.48,13.5,17.67,18.16,4.33,2.8,8.72,4.95,13.51,6.86,1.44.57,2.95,1.15,2.91,1.15Z"/>
  </g>
  <g>
    <path class="cls-2" d="M14.92,49.91c.27,1.18.82,2.26,1.58,3.17,1.43,1.72,3.6,2.82,6,2.82.05,0,.11.01.16.02h2.32c1.54,0,2.79,1.25,2.79,2.79v3.39c0,4.83,3.92,8.74,8.74,8.74h12.05c4.83,0,8.74-3.91,8.74-8.74v-3.39c0-1.54,1.25-2.79,2.79-2.79h2.32c.05,0,.11-.02.16-.02,2.4,0,4.57-1.1,6-2.82.76-.91,1.31-1.99,1.58-3.17.05-.19.07-.37.09-.56l-.09,12.56c-.27,1.18-.82,2.26-1.58,3.17-1.43,1.72-3.6,2.82-6,2.82-.05,0-.11.01-.16.02h-2.32c-.6,0-1.16.19-1.61.52-.71.5-1.18,1.33-1.18,2.27v3.39c0,4.83-3.91,8.74-8.74,8.74h-12.05c-4.82,0-8.74-3.91-8.74-8.74v-3.39c0-.89-.42-1.68-1.07-2.19-.47-.38-1.07-.6-1.72-.6h-2.32s-.11-.02-.16-.02c-2.4,0-4.57-1.1-6-2.82-.76-.91-1.31-1.99-1.58-3.17l-.09-12.56"/>
    <path class="cls-9" d="M27.33,67.75c-.66-.54-1.49-.83-2.35-.83h-2.24c-.08-.01-.16-.02-.24-.02-2.02,0-3.93-.89-5.23-2.46-.65-.77-1.11-1.69-1.35-2.65l-.06-9.13c.19,1.17.38,2.34.57,3.51.16,1.04.33,2.07.49,3.11.19.74.83,2.85,2.86,4.45,1.29,1.01,2.6,1.4,3.35,1.55l2.68.64c.15.04.83.22,1.24.88.23.38.27.76.28.95Z"/>
    <path class="cls-7" d="M69.18,56.7l-.03,5.09c-.24.96-.7,1.88-1.35,2.65-1.3,1.57-3.2,2.46-5.23,2.46-.07,0-.16,0-.24.02h-2.24c-.8,0-1.56.25-2.19.7-1,.71-1.6,1.87-1.6,3.09v3.39c0,4.27-3.46,7.73-7.73,7.74.45-.35,1.19-.94,2.13-1.67,1.8-1.39,2.23-1.69,2.65-2.33.35-.54.8-1.5.74-3.07.07-.96.14-1.93.21-2.89.12-.59.3-1.26.56-1.98.34-.92.73-1.7,1.09-2.33.4-.47.96-1.02,1.69-1.55.88-.64,1.72-1.03,2.36-1.27,1.2-.44,2.4-.87,3.6-1.31,1.09-.82,2.44-2.02,3.71-3.71.81-1.08,1.41-2.13,1.86-3.04Z"/>
  </g>
  <g>
    <path class="cls-1" d="M69.08,39.14c.82-2.63,1.27-5.43,1.27-8.33,0-1.93-.2-3.82-.57-5.64-2.59-12.6-13.7-22.09-27.05-22.18-.07,0-.13,0-.2,0s-.13,0-.2,0c-13.34.09-24.46,9.58-27.05,22.18-.37,1.82-.57,3.71-.57,5.64,0,2.9.44,5.7,1.27,8.33.55,1.75.38,3.63-.45,5.27-.52,1.02-.81,2.17-.82,3.4,0,.61.06,1.21.2,1.78.27,1.18.83,2.26,1.58,3.17,1.43,1.72,3.6,2.82,6,2.82.06,0,.11,0,.16.02h2.32c1.54,0,2.79,1.25,2.79,2.79v3.39c0,4.83,3.91,8.74,8.74,8.74h12.05c4.83,0,8.74-3.91,8.74-8.74v-3.39c0-1.54,1.25-2.79,2.79-2.79h2.32c.05-.01.11-.02.16-.02,2.4,0,4.57-1.1,6-2.82.76-.91,1.31-1.99,1.58-3.17.13-.57.2-1.17.2-1.78-.01-1.22-.31-2.37-.82-3.4-.82-1.64-1-3.52-.45-5.27Z"/>
    <path class="cls-4" d="M22.65,47.46c-2.91-2.85-2.96-7.52-.12-10.43,2.85-2.91,9.71-5.21,12.62-2.36,2.91,2.85.77,9.76-2.08,12.67-2.85,2.91-7.52,2.96-10.43.12Z"/>
    <path class="cls-4" d="M47.23,59.31l-.97.42c-.8.34-1.66.33-2.41.04-.84-.33-1.78-.33-2.63,0-.75.29-1.61.3-2.41-.04l-.97-.42c-1.61-.69-2.36-2.57-1.66-4.18l3-6.98c.52-1.22,1.72-1.94,2.97-1.92.26,0,.52,0,.78,0,1.25-.02,2.45.7,2.97,1.92l3,6.98c.69,1.61-.05,3.48-1.66,4.18Z"/>
    <path class="cls-4" d="M62.42,47.46c-2.91,2.85-7.58,2.79-10.43-.12-2.85-2.91-4.99-9.82-2.08-12.67,2.91-2.85,9.77-.55,12.62,2.36,2.85,2.91,2.79,7.58-.12,10.43Z"/>
    <path class="cls-6" d="M68.63,44.86c.2.53.4,1.07.52,1.63.44,1.98-.09,4.16-1.4,5.71s-3.35,2.46-5.38,2.37c2.26-1.93,4.69-4.2,4.84-7.17.08-1.7-.63-3.33-.98-5-.83-3.95.35-8.03.26-12.07-.12-5.63-2.76-11.01-6.51-15.21-2.17-2.43-4.69-4.51-7.38-6.34-1.35-.92-2.75-1.77-4.17-2.57-1.17-.66-2.96-2.06-4.32-2.14,7.77.45,15.26,4.49,19.91,10.73,4.65,6.24,6.38,14.57,4.6,22.14-.43,1.81-1.05,3.66-.75,5.5.14.84.46,1.63.76,2.43Z"/>
    <path class="cls-10" d="M30.43,6.92c-.83.75-1.7,1.6-2.59,2.56-.95,1.02-1.77,2.02-2.49,2.96-1.41,1.55-2.98,3.56-4.42,6.07-.82,1.43-1.46,2.79-1.98,4.05-.65,1.44-1.29,3.04-1.88,4.8-.54,1.61-.97,3.15-1.32,4.57-.02-.37-.03-.74-.03-1.11,0-1.84.19-3.66.55-5.44,1.68-8.15,7.06-14.85,14.16-18.46Z"/>
    <path class="cls-5" d="M32.36,46.65c-1.88,1.92-4.69,2.4-7.03,1.41.71-.3,1.58-.75,2.5-1.43,1.18-.88,1.99-1.82,2.51-2.54.19-.24,1.43-1.85,1.02-4.06-.37-2.04-1.87-3.09-2.15-3.28-.68-.49-1.36-.98-2.04-1.47,1.4-.56,2.89-.91,4.22-.91,1.23,0,2.33.3,3.06,1.02,2.43,2.37.42,8.69-2.09,11.26Z"/>
    <path class="cls-5" d="M63.64,42.26c-.02,1.7-.7,3.3-1.92,4.49-1.22,1.19-2.84,1.81-4.53,1.81-1.21-.01-2.37-.36-3.36-1.01,1.36-.62,2.4-1.29,3.12-1.8,1.44-1.03,2.6-2.13,3.01-3.93.04-.18.07-.36.07-.55,0-.2-.06-.41-.12-.6-.37-1.26-1.01-2.45-1.85-3.46-.93-1.12-2.3-1.92-3.47-2.79.45.05.93.13,1.43.25,2.22.53,4.5,1.73,5.8,3.06,1.19,1.22,1.84,2.83,1.82,4.53Z"/>
    <path class="cls-5" d="M46.84,58.39l-.97.42c-.53.22-1.12.23-1.66.02-.54-.21-1.11-.31-1.67-.31s-1.14.1-1.68.31c-.34.13-.71.18-1.06.13.56-.42,1.11-.83,1.67-1.25.35-.27.93-.8,1.36-1.65.55-1.07.56-2.05.54-2.52.02-.44.06-2.03-1.06-3.47-.77-.99-1.71-1.44-2.17-1.62.08-.17.31-.6.81-.92.35-.22.75-.33,1.18-.31h.81c.88-.05,1.69.5,2.04,1.32l3,6.97c.48,1.11-.04,2.39-1.14,2.87Z"/>
  </g>
</svg>