<svg width="37" height="45" viewBox="0 0 37 45" fill="none" xmlns="http://www.w3.org/2000/svg">
<path d="M36.5 29.3572C36.5 37.645 28.523 44.5 18.5 44.5C8.47697 44.5 0.5 37.645 0.5 29.3572C0.5 21.0693 8.47697 14.2143 18.5 14.2143C28.523 14.2143 36.5 21.0693 36.5 29.3572Z" fill="#D9D9D9" stroke="black"/>
<path d="M36.5 22.5C36.5 30.7878 28.523 37.6429 18.5 37.6429C8.47697 37.6429 0.5 30.7878 0.5 22.5C0.5 14.2122 8.47697 7.35715 18.5 7.35715C28.523 7.35715 36.5 14.2122 36.5 22.5Z" fill="#D9D9D9" stroke="black"/>
<line x1="0.5" y1="22.2857" x2="0.5" y2="30" stroke="black"/>
<line x1="36.5" y1="22.1699" x2="36.5" y2="29.4556" stroke="black"/>
<path d="M33.023 21.8571C33.023 27.9619 26.6584 33.2857 18.2874 33.2857C9.91633 33.2857 3.55173 27.9619 3.55173 21.8571C3.55173 15.7523 9.91633 10.4286 18.2874 10.4286C26.6584 10.4286 33.023 15.7523 33.023 21.8571Z" fill="#F5D115" stroke="black" stroke-width="2"/>
<line x1="3.60001" y1="21.0927" x2="3.60001" y2="12.0927" stroke="black" stroke-width="2"/>
<line x1="33" y1="22.1004" x2="33" y2="13.1004" stroke="black" stroke-width="2"/>
<path d="M33.023 12.4286C33.023 18.5334 26.6584 23.8571 18.2874 23.8571C9.91633 23.8571 3.55173 18.5334 3.55173 12.4286C3.55173 6.32378 9.91633 1 18.2874 1C26.6584 1 33.023 6.32378 33.023 12.4286Z" fill="#F5D115" stroke="black" stroke-width="2"/>
<path d="M7.06543 12.0463V7.68269H8.94895C9.27282 7.68269 9.5562 7.74661 9.79909 7.87445C10.042 8.00229 10.2309 8.18198 10.3659 8.41351C10.5008 8.64505 10.5683 8.91564 10.5683 9.2253C10.5683 9.5378 10.4987 9.8084 10.3595 10.0371C10.2217 10.2658 10.0278 10.4419 9.77779 10.5655C9.52921 10.6891 9.23873 10.7509 8.90634 10.7509H7.78134V9.83042H8.6677C8.80691 9.83042 8.92551 9.80627 9.02353 9.75797C9.12296 9.70826 9.19895 9.63794 9.25151 9.54704C9.30549 9.45613 9.33248 9.34888 9.33248 9.2253C9.33248 9.1003 9.30549 8.99377 9.25151 8.9057C9.19895 8.81621 9.12296 8.74803 9.02353 8.70116C8.92551 8.65286 8.80691 8.62871 8.6677 8.62871H8.25009V12.0463H7.06543ZM11.0029 12.0463V7.68269H12.1876V11.0918H13.9518V12.0463H11.0029ZM14.4307 12.0463V7.68269H17.5756V8.63723H15.6153V9.38723H17.4136V10.3418H15.6153V11.0918H17.567V12.0463H14.4307ZM19.2966 12.0463H18.0182L19.4585 7.68269H21.0779L22.5182 12.0463H21.2398L20.2852 8.88439H20.2512L19.2966 12.0463ZM19.058 10.3247H21.4614V11.2111H19.058V10.3247ZM25.1208 9.04633C25.1095 8.90428 25.0562 8.79348 24.961 8.71394C24.8673 8.63439 24.7245 8.59462 24.5328 8.59462C24.4106 8.59462 24.3105 8.60954 24.2323 8.63937C24.1556 8.66777 24.0988 8.70684 24.0619 8.75655C24.0249 8.80627 24.0058 8.86309 24.0044 8.92701C24.0015 8.97956 24.0107 9.02715 24.032 9.06976C24.0548 9.11096 24.0903 9.1486 24.1386 9.18269C24.1869 9.21536 24.2487 9.24519 24.324 9.27218C24.3992 9.29917 24.4887 9.32331 24.5924 9.34462L24.9504 9.42133C25.1919 9.47246 25.3985 9.53993 25.5704 9.62374C25.7423 9.70755 25.8829 9.80627 25.9923 9.91991C26.1017 10.0321 26.1819 10.1585 26.233 10.2992C26.2856 10.4398 26.3126 10.5932 26.314 10.7594C26.3126 11.0463 26.2409 11.2892 26.0988 11.4881C25.9568 11.687 25.7536 11.8382 25.4894 11.9419C25.2267 12.0456 24.9106 12.0975 24.5413 12.0975C24.162 12.0975 23.8311 12.0414 23.5484 11.9291C23.2671 11.8169 23.0484 11.6443 22.8921 11.4114C22.7373 11.177 22.6592 10.8773 22.6578 10.5122H23.7828C23.7899 10.6458 23.8232 10.758 23.8829 10.8489C23.9426 10.9398 24.0264 11.0087 24.1343 11.0556C24.2437 11.1024 24.3737 11.1259 24.5242 11.1259C24.6507 11.1259 24.7565 11.1102 24.8417 11.079C24.9269 11.0477 24.9916 11.0044 25.0356 10.949C25.0796 10.8936 25.1024 10.8304 25.1038 10.7594C25.1024 10.6926 25.0803 10.6344 25.0377 10.5847C24.9965 10.5335 24.9284 10.4881 24.8332 10.4483C24.738 10.4071 24.6095 10.3688 24.4475 10.3333L24.0129 10.2395C23.6265 10.1557 23.3218 10.0158 23.0988 9.81976C22.8772 9.62232 22.7671 9.35314 22.7686 9.01223C22.7671 8.73525 22.841 8.49306 22.9901 8.28567C23.1407 8.07687 23.3488 7.91422 23.6144 7.79775C23.8815 7.68127 24.1876 7.62303 24.5328 7.62303C24.885 7.62303 25.1897 7.68198 25.4468 7.79988C25.7039 7.91777 25.9021 8.08397 26.0413 8.29846C26.1819 8.51152 26.2529 8.76081 26.2544 9.04633H25.1208ZM26.7646 12.0463V7.68269H29.9095V8.63723H27.9493V9.38723H29.7476V10.3418H27.9493V11.0918H29.901V12.0463H26.7646ZM18.0012 14.6827V19.0463H17.0125L15.4358 16.7537H15.4102V19.0463H14.2256V14.6827H15.2313L16.7824 16.9668H16.8165V14.6827H18.0012ZM22.7888 16.8645C22.7888 17.3503 22.6943 17.7601 22.5054 18.0939C22.3165 18.4263 22.0615 18.6784 21.7405 18.8503C21.4195 19.0208 21.0615 19.106 20.6666 19.106C20.2689 19.106 19.9095 19.02 19.5885 18.8482C19.2689 18.6749 19.0146 18.422 18.8257 18.0896C18.6382 17.7558 18.5445 17.3475 18.5445 16.8645C18.5445 16.3787 18.6382 15.9696 18.8257 15.6372C19.0146 15.3034 19.2689 15.0513 19.5885 14.8808C19.9095 14.709 20.2689 14.623 20.6666 14.623C21.0615 14.623 21.4195 14.709 21.7405 14.8808C22.0615 15.0513 22.3165 15.3034 22.5054 15.6372C22.6943 15.9696 22.7888 16.3787 22.7888 16.8645ZM21.57 16.8645C21.57 16.6031 21.5352 16.383 21.4656 16.204C21.3975 16.0236 21.2959 15.8872 21.161 15.7949C21.0274 15.7012 20.8627 15.6543 20.6666 15.6543C20.4706 15.6543 20.3051 15.7012 20.1702 15.7949C20.0367 15.8872 19.9351 16.0236 19.8655 16.204C19.7973 16.383 19.7632 16.6031 19.7632 16.8645C19.7632 17.1259 19.7973 17.3468 19.8655 17.5271C19.9351 17.7061 20.0367 17.8425 20.1702 17.9362C20.3051 18.0286 20.4706 18.0747 20.6666 18.0747C20.8627 18.0747 21.0274 18.0286 21.161 17.9362C21.2959 17.8425 21.3975 17.7061 21.4656 17.5271C21.5352 17.3468 21.57 17.1259 21.57 16.8645Z" fill="black"/>
</svg>
