<svg width="37" height="45" viewBox="0 0 37 45" fill="none" xmlns="http://www.w3.org/2000/svg">
<path d="M36.5 29.3383C36.5 37.6397 28.5223 44.5046 18.5 44.5046C8.47772 44.5046 0.5 37.6397 0.5 29.3383C0.5 21.0369 8.47772 14.172 18.5 14.172C28.5223 14.172 36.5 21.0369 36.5 29.3383Z" fill="#D9D9D9" stroke="black"/>
<path d="M36.5 22.4709C36.5 30.7723 28.5223 37.6372 18.5 37.6372C8.47772 37.6372 0.5 30.7723 0.5 22.4709C0.5 14.1695 8.47772 7.3046 18.5 7.3046C28.5223 7.3046 36.5 14.1695 36.5 22.4709Z" fill="#D9D9D9" stroke="black"/>
<line x1="0.5" y1="22.2563" x2="0.5" y2="29.9821" stroke="black"/>
<line x1="36.5" y1="22.1403" x2="36.5" y2="29.4369" stroke="black"/>
<path d="M33.023 21.6897C33.023 27.7357 26.6662 33.023 18.2874 33.023C9.90849 33.023 3.55173 27.7357 3.55173 21.6897C3.55173 15.6436 9.90849 10.3563 18.2874 10.3563C26.6662 10.3563 33.023 15.6436 33.023 21.6897Z" fill="#F5D115" stroke="black" stroke-width="2"/>
<line x1="3.60001" y1="21" x2="3.60001" y2="14" stroke="black" stroke-width="2"/>
<line x1="33" y1="22" x2="33" y2="14" stroke="black" stroke-width="2"/>
<path d="M33.023 15.3333C33.023 21.3794 26.6662 26.6667 18.2874 26.6667C9.90849 26.6667 3.55173 21.3794 3.55173 15.3333C3.55173 9.2873 9.90849 4 18.2874 4C26.6662 4 33.023 9.2873 33.023 15.3333Z" fill="#F5D115" stroke="black" stroke-width="2"/>
<path d="M7.06543 15V10.6364H8.94895C9.27282 10.6364 9.5562 10.7003 9.79909 10.8281C10.042 10.956 10.2309 11.1357 10.3659 11.3672C10.5008 11.5987 10.5683 11.8693 10.5683 12.179C10.5683 12.4915 10.4987 12.7621 10.3595 12.9908C10.2217 13.2195 10.0278 13.3956 9.77779 13.5192C9.52921 13.6428 9.23873 13.7045 8.90634 13.7045H7.78134V12.7841H8.6677C8.80691 12.7841 8.92551 12.7599 9.02353 12.7116C9.12296 12.6619 9.19895 12.5916 9.25151 12.5007C9.30549 12.4098 9.33248 12.3026 9.33248 12.179C9.33248 12.054 9.30549 11.9474 9.25151 11.8594C9.19895 11.7699 9.12296 11.7017 9.02353 11.6548C8.92551 11.6065 8.80691 11.5824 8.6677 11.5824H8.25009V15H7.06543ZM11.0029 15V10.6364H12.1876V14.0455H13.9518V15H11.0029ZM14.4307 15V10.6364H17.5756V11.5909H15.6153V12.3409H17.4136V13.2955H15.6153V14.0455H17.567V15H14.4307ZM19.2966 15H18.0182L19.4585 10.6364H21.0779L22.5182 15H21.2398L20.2852 11.8381H20.2512L19.2966 15ZM19.058 13.2784H21.4614V14.1648H19.058V13.2784ZM25.1208 12C25.1095 11.858 25.0562 11.7472 24.961 11.6676C24.8673 11.5881 24.7245 11.5483 24.5328 11.5483C24.4106 11.5483 24.3105 11.5632 24.2323 11.593C24.1556 11.6214 24.0988 11.6605 24.0619 11.7102C24.0249 11.7599 24.0058 11.8168 24.0044 11.8807C24.0015 11.9332 24.0107 11.9808 24.032 12.0234C24.0548 12.0646 24.0903 12.1023 24.1386 12.1364C24.1869 12.169 24.2487 12.1989 24.324 12.2259C24.3992 12.2528 24.4887 12.277 24.5924 12.2983L24.9504 12.375C25.1919 12.4261 25.3985 12.4936 25.5704 12.5774C25.7423 12.6612 25.8829 12.7599 25.9923 12.8736C26.1017 12.9858 26.1819 13.1122 26.233 13.2528C26.2856 13.3935 26.3126 13.5469 26.314 13.7131C26.3126 14 26.2409 14.2429 26.0988 14.4418C25.9568 14.6406 25.7536 14.7919 25.4894 14.8956C25.2267 14.9993 24.9106 15.0511 24.5413 15.0511C24.162 15.0511 23.8311 14.995 23.5484 14.8828C23.2671 14.7706 23.0484 14.598 22.8921 14.3651C22.7373 14.1307 22.6592 13.831 22.6578 13.4659H23.7828C23.7899 13.5994 23.8232 13.7116 23.8829 13.8026C23.9426 13.8935 24.0264 13.9624 24.1343 14.0092C24.2437 14.0561 24.3737 14.0795 24.5242 14.0795C24.6507 14.0795 24.7565 14.0639 24.8417 14.0327C24.9269 14.0014 24.9916 13.9581 25.0356 13.9027C25.0796 13.8473 25.1024 13.7841 25.1038 13.7131C25.1024 13.6463 25.0803 13.5881 25.0377 13.5384C24.9965 13.4872 24.9284 13.4418 24.8332 13.402C24.738 13.3608 24.6095 13.3224 24.4475 13.2869L24.0129 13.1932C23.6265 13.1094 23.3218 12.9695 23.0988 12.7734C22.8772 12.576 22.7671 12.3068 22.7686 11.9659C22.7671 11.6889 22.841 11.4467 22.9901 11.2393C23.1407 11.0305 23.3488 10.8679 23.6144 10.7514C23.8815 10.6349 24.1876 10.5767 24.5328 10.5767C24.885 10.5767 25.1897 10.6357 25.4468 10.7536C25.7039 10.8714 25.9021 11.0376 26.0413 11.2521C26.1819 11.4652 26.2529 11.7145 26.2544 12H25.1208ZM26.7646 15V10.6364H29.9095V11.5909H27.9493V12.3409H29.7476V13.2955H27.9493V14.0455H29.901V15H26.7646ZM18.0012 17.6364V22H17.0125L15.4358 19.7074H15.4102V22H14.2256V17.6364H15.2313L16.7824 19.9205H16.8165V17.6364H18.0012ZM22.7888 19.8182C22.7888 20.304 22.6943 20.7138 22.5054 21.0476C22.3165 21.38 22.0615 21.6321 21.7405 21.804C21.4195 21.9744 21.0615 22.0597 20.6666 22.0597C20.2689 22.0597 19.9095 21.9737 19.5885 21.8018C19.2689 21.6286 19.0146 21.3757 18.8257 21.0433C18.6382 20.7095 18.5445 20.3011 18.5445 19.8182C18.5445 19.3324 18.6382 18.9233 18.8257 18.5909C19.0146 18.2571 19.2689 18.005 19.5885 17.8345C19.9095 17.6626 20.2689 17.5767 20.6666 17.5767C21.0615 17.5767 21.4195 17.6626 21.7405 17.8345C22.0615 18.005 22.3165 18.2571 22.5054 18.5909C22.6943 18.9233 22.7888 19.3324 22.7888 19.8182ZM21.57 19.8182C21.57 19.5568 21.5352 19.3366 21.4656 19.1577C21.3975 18.9773 21.2959 18.8409 21.161 18.7486C21.0274 18.6548 20.8627 18.608 20.6666 18.608C20.4706 18.608 20.3051 18.6548 20.1702 18.7486C20.0367 18.8409 19.9351 18.9773 19.8655 19.1577C19.7973 19.3366 19.7632 19.5568 19.7632 19.8182C19.7632 20.0795 19.7973 20.3004 19.8655 20.4808C19.9351 20.6598 20.0367 20.7962 20.1702 20.8899C20.3051 20.9822 20.4706 21.0284 20.6666 21.0284C20.8627 21.0284 21.0274 20.9822 21.161 20.8899C21.2959 20.7962 21.3975 20.6598 21.4656 20.4808C21.5352 20.3004 21.57 20.0795 21.57 19.8182Z" fill="black"/>
</svg>
