<svg width="37" height="45" viewBox="0 0 37 45" fill="none" xmlns="http://www.w3.org/2000/svg">
<path d="M36.5 28.9988C36.5 37.4942 28.5117 44.5 18.5 44.5C8.48831 44.5 0.5 37.4942 0.5 28.9988C0.5 20.5034 8.48831 13.4976 18.5 13.4976C28.5117 13.4976 36.5 20.5034 36.5 28.9988Z" fill="#D9D9D9" stroke="black"/>
<path d="M36.5 21.9846C36.5 30.48 28.5117 37.4858 18.5 37.4858C8.48831 37.4858 0.5 30.48 0.5 21.9846C0.5 13.4892 8.48831 6.4834 18.5 6.4834C28.5117 6.4834 36.5 13.4892 36.5 21.9846Z" fill="#D9D9D9" stroke="black"/>
<line x1="0.5" y1="21.7654" x2="0.5" y2="29.6564" stroke="black"/>
<line x1="36.5" y1="21.6469" x2="36.5" y2="29.0995" stroke="black"/>
<path d="M33.023 22.327C33.023 28.6074 26.6354 34.0403 18.2874 34.0403C9.93934 34.0403 3.55173 28.6074 3.55173 22.327C3.55173 16.0466 9.93934 10.6137 18.2874 10.6137C26.6354 10.6137 33.023 16.0466 33.023 22.327Z" fill="#F5D115" stroke="black" stroke-width="2"/>
<line x1="3.54999" y1="22" x2="3.54999" y2="14" stroke="black" stroke-width="2"/>
<line x1="33" y1="22.5758" x2="33" y2="13.3697" stroke="black" stroke-width="2"/>
<path d="M33.023 14.7133C33.023 20.9937 26.6354 26.4265 18.2874 26.4265C9.93934 26.4265 3.55173 20.9937 3.55173 14.7133C3.55173 8.43286 9.93934 3 18.2874 3C26.6354 3 33.023 8.43286 33.023 14.7133Z" fill="#F5D115" stroke="black" stroke-width="2"/>
<path d="M7.06543 14.1848V9.82121H8.94895C9.27282 9.82121 9.5562 9.88513 9.79909 10.013C10.042 10.1408 10.2309 10.3205 10.3659 10.552C10.5008 10.7836 10.5683 11.0542 10.5683 11.3638C10.5683 11.6763 10.4987 11.9469 10.3595 12.1756C10.2217 12.4043 10.0278 12.5804 9.77779 12.704C9.52921 12.8276 9.23873 12.8894 8.90634 12.8894H7.78134V11.9689H8.6677C8.80691 11.9689 8.92551 11.9448 9.02353 11.8965C9.12296 11.8468 9.19895 11.7765 9.25151 11.6856C9.30549 11.5946 9.33248 11.4874 9.33248 11.3638C9.33248 11.2388 9.30549 11.1323 9.25151 11.0442C9.19895 10.9547 9.12296 10.8865 9.02353 10.8397C8.92551 10.7914 8.80691 10.7672 8.6677 10.7672H8.25009V14.1848H7.06543ZM11.0029 14.1848V9.82121H12.1876V13.2303H13.9518V14.1848H11.0029ZM14.4307 14.1848V9.82121H17.5756V10.7758H15.6153V11.5258H17.4136V12.4803H15.6153V13.2303H17.567V14.1848H14.4307ZM19.2966 14.1848H18.0182L19.4585 9.82121H21.0779L22.5182 14.1848H21.2398L20.2852 11.0229H20.2512L19.2966 14.1848ZM19.058 12.4633H21.4614V13.3496H19.058V12.4633ZM25.1208 11.1848C25.1095 11.0428 25.0562 10.932 24.961 10.8525C24.8673 10.7729 24.7245 10.7331 24.5328 10.7331C24.4106 10.7331 24.3105 10.7481 24.2323 10.7779C24.1556 10.8063 24.0988 10.8454 24.0619 10.8951C24.0249 10.9448 24.0058 11.0016 24.0044 11.0655C24.0015 11.1181 24.0107 11.1657 24.032 11.2083C24.0548 11.2495 24.0903 11.2871 24.1386 11.3212C24.1869 11.3539 24.2487 11.3837 24.324 11.4107C24.3992 11.4377 24.4887 11.4618 24.5924 11.4831L24.9504 11.5598C25.1919 11.611 25.3985 11.6785 25.5704 11.7623C25.7423 11.8461 25.8829 11.9448 25.9923 12.0584C26.1017 12.1706 26.1819 12.2971 26.233 12.4377C26.2856 12.5783 26.3126 12.7317 26.314 12.8979C26.3126 13.1848 26.2409 13.4277 26.0988 13.6266C25.9568 13.8255 25.7536 13.9767 25.4894 14.0804C25.2267 14.1841 24.9106 14.236 24.5413 14.236C24.162 14.236 23.8311 14.1799 23.5484 14.0677C23.2671 13.9554 23.0484 13.7829 22.8921 13.5499C22.7373 13.3155 22.6592 13.0158 22.6578 12.6508H23.7828C23.7899 12.7843 23.8232 12.8965 23.8829 12.9874C23.9426 13.0783 24.0264 13.1472 24.1343 13.1941C24.2437 13.241 24.3737 13.2644 24.5242 13.2644C24.6507 13.2644 24.7565 13.2488 24.8417 13.2175C24.9269 13.1863 24.9916 13.1429 25.0356 13.0875C25.0796 13.0321 25.1024 12.9689 25.1038 12.8979C25.1024 12.8312 25.0803 12.7729 25.0377 12.7232C24.9965 12.6721 24.9284 12.6266 24.8332 12.5868C24.738 12.5456 24.6095 12.5073 24.4475 12.4718L24.0129 12.378C23.6265 12.2942 23.3218 12.1543 23.0988 11.9583C22.8772 11.7608 22.7671 11.4917 22.7686 11.1508C22.7671 10.8738 22.841 10.6316 22.9901 10.4242C23.1407 10.2154 23.3488 10.0527 23.6144 9.93627C23.8815 9.81979 24.1876 9.76155 24.5328 9.76155C24.885 9.76155 25.1897 9.8205 25.4468 9.9384C25.7039 10.0563 25.9021 10.2225 26.0413 10.437C26.1819 10.65 26.2529 10.8993 26.2544 11.1848H25.1208ZM26.7646 14.1848V9.82121H29.9095V10.7758H27.9493V11.5258H29.7476V12.4803H27.9493V13.2303H29.901V14.1848H26.7646ZM18.0012 16.8212V21.1848H17.0125L15.4358 18.8922H15.4102V21.1848H14.2256V16.8212H15.2313L16.7824 19.1053H16.8165V16.8212H18.0012ZM22.7888 19.003C22.7888 19.4888 22.6943 19.8986 22.5054 20.2324C22.3165 20.5648 22.0615 20.8169 21.7405 20.9888C21.4195 21.1593 21.0615 21.2445 20.6666 21.2445C20.2689 21.2445 19.9095 21.1586 19.5885 20.9867C19.2689 20.8134 19.0146 20.5606 18.8257 20.2282C18.6382 19.8944 18.5445 19.486 18.5445 19.003C18.5445 18.5172 18.6382 18.1081 18.8257 17.7758C19.0146 17.4419 19.2689 17.1898 19.5885 17.0194C19.9095 16.8475 20.2689 16.7615 20.6666 16.7615C21.0615 16.7615 21.4195 16.8475 21.7405 17.0194C22.0615 17.1898 22.3165 17.4419 22.5054 17.7758C22.6943 18.1081 22.7888 18.5172 22.7888 19.003ZM21.57 19.003C21.57 18.7417 21.5352 18.5215 21.4656 18.3425C21.3975 18.1621 21.2959 18.0258 21.161 17.9334C21.0274 17.8397 20.8627 17.7928 20.6666 17.7928C20.4706 17.7928 20.3051 17.8397 20.1702 17.9334C20.0367 18.0258 19.9351 18.1621 19.8655 18.3425C19.7973 18.5215 19.7632 18.7417 19.7632 19.003C19.7632 19.2644 19.7973 19.4853 19.8655 19.6657C19.9351 19.8446 20.0367 19.981 20.1702 20.0748C20.3051 20.1671 20.4706 20.2133 20.6666 20.2133C20.8627 20.2133 21.0274 20.1671 21.161 20.0748C21.2959 19.981 21.3975 19.8446 21.4656 19.6657C21.5352 19.4853 21.57 19.2644 21.57 19.003Z" fill="black"/>
</svg>
