<svg width="37" height="44" viewBox="0 0 37 44" fill="none" xmlns="http://www.w3.org/2000/svg">
<path d="M36.5 28.1322C36.5 36.3506 28.5269 43.1552 18.5 43.1552C8.4731 43.1552 0.5 36.3506 0.5 28.1322C0.5 19.9138 8.4731 13.1092 18.5 13.1092C28.5269 13.1092 36.5 19.9138 36.5 28.1322Z" fill="#D9D9D9" stroke="black"/>
<path d="M36.5 21.3276C36.5 29.546 28.5269 36.3506 18.5 36.3506C8.4731 36.3506 0.5 29.546 0.5 21.3276C0.5 13.1092 8.4731 6.3046 18.5 6.3046C28.5269 6.3046 36.5 13.1092 36.5 21.3276Z" fill="#D9D9D9" stroke="black"/>
<line x1="0.5" y1="21.1149" x2="0.5" y2="28.7701" stroke="black"/>
<line x1="36.5" y1="21" x2="36.5" y2="28.2299" stroke="black"/>
<path d="M33.023 20.6897C33.023 26.7357 26.6662 32.023 18.2874 32.023C9.90849 32.023 3.55173 26.7357 3.55173 20.6897C3.55173 14.6436 9.90849 9.35632 18.2874 9.35632C26.6662 9.35632 33.023 14.6436 33.023 20.6897Z" fill="#F5D115" stroke="black" stroke-width="2"/>
<line x1="3.60001" y1="19.931" x2="3.60001" y2="11" stroke="black" stroke-width="2"/>
<line x1="33" y1="20.931" x2="33" y2="12" stroke="black" stroke-width="2"/>
<path d="M33.023 12.3333C33.023 18.3794 26.6662 23.6667 18.2874 23.6667C9.90849 23.6667 3.55173 18.3794 3.55173 12.3333C3.55173 6.2873 9.90849 1 18.2874 1C26.6662 1 33.023 6.2873 33.023 12.3333Z" fill="#F5D115" stroke="black" stroke-width="2"/>
<path d="M7.06543 12V7.63636H8.94895C9.27282 7.63636 9.5562 7.70028 9.79909 7.82812C10.042 7.95597 10.2309 8.13565 10.3659 8.36719C10.5008 8.59872 10.5683 8.86932 10.5683 9.17898C10.5683 9.49148 10.4987 9.76207 10.3595 9.99077C10.2217 10.2195 10.0278 10.3956 9.77779 10.5192C9.52921 10.6428 9.23873 10.7045 8.90634 10.7045H7.78134V9.78409H8.6677C8.80691 9.78409 8.92551 9.75994 9.02353 9.71165C9.12296 9.66193 9.19895 9.59162 9.25151 9.50071C9.30549 9.4098 9.33248 9.30256 9.33248 9.17898C9.33248 9.05398 9.30549 8.94744 9.25151 8.85938C9.19895 8.76989 9.12296 8.7017 9.02353 8.65483C8.92551 8.60653 8.80691 8.58239 8.6677 8.58239H8.25009V12H7.06543ZM11.0029 12V7.63636H12.1876V11.0455H13.9518V12H11.0029ZM14.4307 12V7.63636H17.5756V8.59091H15.6153V9.34091H17.4136V10.2955H15.6153V11.0455H17.567V12H14.4307ZM19.2966 12H18.0182L19.4585 7.63636H21.0779L22.5182 12H21.2398L20.2852 8.83807H20.2512L19.2966 12ZM19.058 10.2784H21.4614V11.1648H19.058V10.2784ZM25.1208 9C25.1095 8.85795 25.0562 8.74716 24.961 8.66761C24.8673 8.58807 24.7245 8.5483 24.5328 8.5483C24.4106 8.5483 24.3105 8.56321 24.2323 8.59304C24.1556 8.62145 24.0988 8.66051 24.0619 8.71023C24.0249 8.75994 24.0058 8.81676 24.0044 8.88068C24.0015 8.93324 24.0107 8.98082 24.032 9.02344C24.0548 9.06463 24.0903 9.10227 24.1386 9.13636C24.1869 9.16903 24.2487 9.19886 24.324 9.22585C24.3992 9.25284 24.4887 9.27699 24.5924 9.2983L24.9504 9.375C25.1919 9.42614 25.3985 9.49361 25.5704 9.57741C25.7423 9.66122 25.8829 9.75994 25.9923 9.87358C26.1017 9.9858 26.1819 10.1122 26.233 10.2528C26.2856 10.3935 26.3126 10.5469 26.314 10.7131C26.3126 11 26.2409 11.2429 26.0988 11.4418C25.9568 11.6406 25.7536 11.7919 25.4894 11.8956C25.2267 11.9993 24.9106 12.0511 24.5413 12.0511C24.162 12.0511 23.8311 11.995 23.5484 11.8828C23.2671 11.7706 23.0484 11.598 22.8921 11.3651C22.7373 11.1307 22.6592 10.831 22.6578 10.4659H23.7828C23.7899 10.5994 23.8232 10.7116 23.8829 10.8026C23.9426 10.8935 24.0264 10.9624 24.1343 11.0092C24.2437 11.0561 24.3737 11.0795 24.5242 11.0795C24.6507 11.0795 24.7565 11.0639 24.8417 11.0327C24.9269 11.0014 24.9916 10.9581 25.0356 10.9027C25.0796 10.8473 25.1024 10.7841 25.1038 10.7131C25.1024 10.6463 25.0803 10.5881 25.0377 10.5384C24.9965 10.4872 24.9284 10.4418 24.8332 10.402C24.738 10.3608 24.6095 10.3224 24.4475 10.2869L24.0129 10.1932C23.6265 10.1094 23.3218 9.96946 23.0988 9.77344C22.8772 9.57599 22.7671 9.30682 22.7686 8.96591C22.7671 8.68892 22.841 8.44673 22.9901 8.23935C23.1407 8.03054 23.3488 7.8679 23.6144 7.75142C23.8815 7.63494 24.1876 7.5767 24.5328 7.5767C24.885 7.5767 25.1897 7.63565 25.4468 7.75355C25.7039 7.87145 25.9021 8.03764 26.0413 8.25213C26.1819 8.4652 26.2529 8.71449 26.2544 9H25.1208ZM26.7646 12V7.63636H29.9095V8.59091H27.9493V9.34091H29.7476V10.2955H27.9493V11.0455H29.901V12H26.7646ZM18.0012 14.6364V19H17.0125L15.4358 16.7074H15.4102V19H14.2256V14.6364H15.2313L16.7824 16.9205H16.8165V14.6364H18.0012ZM22.7888 16.8182C22.7888 17.304 22.6943 17.7138 22.5054 18.0476C22.3165 18.38 22.0615 18.6321 21.7405 18.804C21.4195 18.9744 21.0615 19.0597 20.6666 19.0597C20.2689 19.0597 19.9095 18.9737 19.5885 18.8018C19.2689 18.6286 19.0146 18.3757 18.8257 18.0433C18.6382 17.7095 18.5445 17.3011 18.5445 16.8182C18.5445 16.3324 18.6382 15.9233 18.8257 15.5909C19.0146 15.2571 19.2689 15.005 19.5885 14.8345C19.9095 14.6626 20.2689 14.5767 20.6666 14.5767C21.0615 14.5767 21.4195 14.6626 21.7405 14.8345C22.0615 15.005 22.3165 15.2571 22.5054 15.5909C22.6943 15.9233 22.7888 16.3324 22.7888 16.8182ZM21.57 16.8182C21.57 16.5568 21.5352 16.3366 21.4656 16.1577C21.3975 15.9773 21.2959 15.8409 21.161 15.7486C21.0274 15.6548 20.8627 15.608 20.6666 15.608C20.4706 15.608 20.3051 15.6548 20.1702 15.7486C20.0367 15.8409 19.9351 15.9773 19.8655 16.1577C19.7973 16.3366 19.7632 16.5568 19.7632 16.8182C19.7632 17.0795 19.7973 17.3004 19.8655 17.4808C19.9351 17.6598 20.0367 17.7962 20.1702 17.8899C20.3051 17.9822 20.4706 18.0284 20.6666 18.0284C20.8627 18.0284 21.0274 17.9822 21.161 17.8899C21.2959 17.7962 21.3975 17.6598 21.4656 17.4808C21.5352 17.3004 21.57 17.0795 21.57 16.8182Z" fill="black"/>
</svg>
