<svg width="292" height="73" viewBox="0 0 292 73" fill="none" xmlns="http://www.w3.org/2000/svg">
<rect x="0.5" y="0.5" width="291" height="72" rx="4.5" fill="#B0F5FA" stroke="black"/>
<rect x="15.1" y="15.1" width="42.8" height="42.8" rx="4.5" fill="#6AF1FB" stroke="black"/>
<rect x="208.5" y="15.5" width="74" height="42" rx="4.5" fill="#7FFA7D" stroke="black"/>
<path d="M72.2045 18.5455H74.7713V24.6023C74.7713 25.3224 74.599 25.9457 74.2543 26.4719C73.9126 26.9951 73.4356 27.3999 72.8232 27.6861C72.2107 27.9692 71.4998 28.1108 70.6903 28.1108C69.8748 28.1108 69.1607 27.9692 68.5483 27.6861C67.9358 27.3999 67.4588 26.9951 67.1172 26.4719C66.7786 25.9457 66.6094 25.3224 66.6094 24.6023V18.5455H69.1761V24.3807C69.1761 24.6731 69.2408 24.9347 69.37 25.1655C69.4993 25.3932 69.6778 25.5717 69.9055 25.701C70.1364 25.8303 70.398 25.8949 70.6903 25.8949C70.9858 25.8949 71.2474 25.8303 71.4751 25.701C71.7029 25.5717 71.8814 25.3932 72.0107 25.1655C72.1399 24.9347 72.2045 24.6731 72.2045 24.3807V18.5455ZM75.9912 28V18.5455H80.0722C80.7739 18.5455 81.3879 18.6839 81.9142 18.9609C82.4404 19.2379 82.8498 19.6272 83.1421 20.1289C83.4345 20.6306 83.5807 21.2169 83.5807 21.8878C83.5807 22.5649 83.4299 23.1512 83.1283 23.6467C82.8298 24.1422 82.4097 24.5238 81.868 24.7915C81.3294 25.0593 80.7 25.1932 79.9798 25.1932H77.5423V23.1989H79.4628C79.7644 23.1989 80.0214 23.1465 80.2338 23.0419C80.4492 22.9342 80.6138 22.7818 80.7277 22.5849C80.8447 22.3879 80.9031 22.1555 80.9031 21.8878C80.9031 21.617 80.8447 21.3861 80.7277 21.1953C80.6138 21.0014 80.4492 20.8537 80.2338 20.7521C80.0214 20.6475 79.7644 20.5952 79.4628 20.5952H78.558V28H75.9912ZM90.6624 21.6662C90.6224 21.5031 90.5593 21.36 90.4731 21.2369C90.3869 21.1107 90.2792 21.0045 90.1499 20.9183C90.0238 20.8291 89.876 20.7629 89.7068 20.7198C89.5406 20.6737 89.3575 20.6506 89.1574 20.6506C88.7265 20.6506 88.3588 20.7537 88.0541 20.9599C87.7525 21.1661 87.5216 21.4631 87.3616 21.8509C87.2046 22.2386 87.1262 22.7064 87.1262 23.2543C87.1262 23.8082 87.2016 24.2822 87.3524 24.6761C87.5032 25.0701 87.7278 25.3717 88.0264 25.581C88.3249 25.7902 88.6958 25.8949 89.1389 25.8949C89.5298 25.8949 89.8545 25.8379 90.113 25.7241C90.3746 25.6102 90.57 25.4486 90.6993 25.2393C90.8286 25.0301 90.8932 24.7839 90.8932 24.5007L91.3364 24.5469H89.1759V22.7188H93.3676V24.0298C93.3676 24.8916 93.1845 25.6287 92.8183 26.2411C92.4551 26.8505 91.9535 27.3183 91.3133 27.6445C90.6762 27.9677 89.9453 28.1293 89.1205 28.1293C88.2003 28.1293 87.3924 27.9338 86.6968 27.543C86.0013 27.1521 85.4581 26.5951 85.0672 25.8718C84.6794 25.1486 84.4855 24.2884 84.4855 23.2912C84.4855 22.5095 84.604 21.817 84.841 21.2138C85.0811 20.6106 85.4134 20.1012 85.8382 19.6857C86.2629 19.2672 86.7538 18.9517 87.3108 18.7393C87.8679 18.5239 88.4649 18.4162 89.102 18.4162C89.6621 18.4162 90.1823 18.4962 90.6624 18.6562C91.1456 18.8132 91.5718 19.0379 91.9411 19.3303C92.3135 19.6196 92.6136 19.9627 92.8414 20.3597C93.0691 20.7567 93.2076 21.1922 93.2568 21.6662H90.6624ZM94.5645 28V18.5455H98.6454C99.3471 18.5455 99.9611 18.6732 100.487 18.9286C101.014 19.1841 101.423 19.5518 101.715 20.032C102.008 20.5121 102.154 21.0876 102.154 21.7585C102.154 22.4356 102.003 23.0065 101.702 23.4712C101.403 23.936 100.983 24.2868 100.441 24.5238C99.9026 24.7608 99.2733 24.8793 98.5531 24.8793H96.1156V22.8849H98.036C98.3377 22.8849 98.5946 22.848 98.807 22.7741C99.0224 22.6972 99.1871 22.5756 99.301 22.4094C99.4179 22.2433 99.4764 22.0263 99.4764 21.7585C99.4764 21.4877 99.4179 21.2676 99.301 21.0984C99.1871 20.926 99.0224 20.7998 98.807 20.7198C98.5946 20.6367 98.3377 20.5952 98.036 20.5952H97.1312V28H94.5645ZM100.104 23.6605L102.468 28H99.6795L97.3713 23.6605H100.104ZM105.704 28H102.934L106.055 18.5455H109.563L112.684 28H109.914L107.846 21.1491H107.772L105.704 28ZM105.187 24.2699H110.394V26.1903H105.187V24.2699ZM117.233 28H113.595V18.5455H117.196C118.168 18.5455 119.008 18.7347 119.716 19.1133C120.427 19.4888 120.975 20.0304 121.36 20.7383C121.747 21.4431 121.941 22.2879 121.941 23.2727C121.941 24.2576 121.749 25.1039 121.364 25.8118C120.98 26.5166 120.435 27.0582 119.73 27.4368C119.025 27.8123 118.193 28 117.233 28ZM116.161 25.821H117.14C117.608 25.821 118.007 25.7456 118.336 25.5948C118.668 25.444 118.921 25.1839 119.093 24.8146C119.268 24.4453 119.356 23.9313 119.356 23.2727C119.356 22.6141 119.267 22.1001 119.088 21.7308C118.913 21.3615 118.654 21.1014 118.313 20.9506C117.974 20.7998 117.559 20.7244 117.066 20.7244H116.161V25.821ZM123.129 28V18.5455H129.943V20.6136H125.696V22.2386H129.592V24.3068H125.696V25.9318H129.924V28H123.129ZM133.806 28V18.5455H137.905C138.625 18.5455 139.23 18.6424 139.719 18.8363C140.212 19.0302 140.583 19.3041 140.832 19.658C141.084 20.012 141.21 20.429 141.21 20.9091C141.21 21.2569 141.134 21.5739 140.98 21.8601C140.829 22.1463 140.617 22.3864 140.343 22.5803C140.069 22.7711 139.749 22.9034 139.382 22.9773V23.0696C139.789 23.085 140.158 23.1881 140.49 23.3789C140.823 23.5666 141.087 23.8267 141.284 24.1591C141.481 24.4884 141.58 24.8762 141.58 25.3224C141.58 25.8395 141.444 26.2996 141.174 26.7028C140.906 27.1059 140.524 27.4229 140.029 27.6538C139.533 27.8846 138.942 28 138.256 28H133.806ZM136.372 25.9503H137.573C138.004 25.9503 138.327 25.8703 138.542 25.7102C138.758 25.5471 138.865 25.3071 138.865 24.9901C138.865 24.7685 138.815 24.5807 138.713 24.4268C138.611 24.273 138.467 24.156 138.279 24.076C138.094 23.996 137.871 23.956 137.61 23.956H136.372V25.9503ZM136.372 22.3679H137.425C137.65 22.3679 137.848 22.3325 138.021 22.2617C138.193 22.1909 138.327 22.0894 138.422 21.957C138.521 21.8216 138.57 21.657 138.57 21.4631C138.57 21.1707 138.465 20.9476 138.256 20.7937C138.047 20.6367 137.782 20.5582 137.462 20.5582H136.372V22.3679ZM148.084 18.5455H150.651V24.6023C150.651 25.3224 150.479 25.9457 150.134 26.4719C149.793 26.9951 149.315 27.3999 148.703 27.6861C148.091 27.9692 147.38 28.1108 146.57 28.1108C145.755 28.1108 145.041 27.9692 144.428 27.6861C143.816 27.3999 143.339 26.9951 142.997 26.4719C142.659 25.9457 142.489 25.3224 142.489 24.6023V18.5455H145.056V24.3807C145.056 24.6731 145.121 24.9347 145.25 25.1655C145.379 25.3932 145.558 25.5717 145.785 25.701C146.016 25.8303 146.278 25.8949 146.57 25.8949C146.866 25.8949 147.127 25.8303 147.355 25.701C147.583 25.5717 147.761 25.3932 147.891 25.1655C148.02 24.9347 148.084 24.6731 148.084 24.3807V18.5455ZM151.613 20.6136V18.5455H159.83V20.6136H156.986V28H154.456V20.6136H151.613ZM160.537 20.6136V18.5455H168.755V20.6136H165.911V28H163.381V20.6136H160.537ZM178.435 23.2727C178.435 24.3253 178.231 25.2132 177.821 25.9364C177.412 26.6566 176.86 27.2029 176.164 27.5753C175.469 27.9446 174.693 28.1293 173.837 28.1293C172.976 28.1293 172.197 27.9431 171.502 27.5707C170.809 27.1952 170.258 26.6474 169.849 25.9272C169.443 25.204 169.239 24.3191 169.239 23.2727C169.239 22.2202 169.443 21.3338 169.849 20.6136C170.258 19.8904 170.809 19.3441 171.502 18.9748C172.197 18.6024 172.976 18.4162 173.837 18.4162C174.693 18.4162 175.469 18.6024 176.164 18.9748C176.86 19.3441 177.412 19.8904 177.821 20.6136C178.231 21.3338 178.435 22.2202 178.435 23.2727ZM175.795 23.2727C175.795 22.7064 175.719 22.2294 175.569 21.8416C175.421 21.4508 175.201 21.1553 174.908 20.9553C174.619 20.7521 174.262 20.6506 173.837 20.6506C173.413 20.6506 173.054 20.7521 172.762 20.9553C172.473 21.1553 172.252 21.4508 172.102 21.8416C171.954 22.2294 171.88 22.7064 171.88 23.2727C171.88 23.839 171.954 24.3176 172.102 24.7085C172.252 25.0962 172.473 25.3917 172.762 25.5948C173.054 25.7949 173.413 25.8949 173.837 25.8949C174.262 25.8949 174.619 25.7949 174.908 25.5948C175.201 25.3917 175.421 25.0962 175.569 24.7085C175.719 24.3176 175.795 23.839 175.795 23.2727ZM187.803 18.5455V28H185.661L182.245 23.0327H182.19V28H179.623V18.5455H181.802L185.163 23.4943H185.237V18.5455H187.803Z" fill="black"/>
<path d="M67.7614 35.7273V43H66.8807V35.7273H67.7614ZM70.2516 39.7188V43H69.4135V37.5455H70.2232V38.3977H70.2942C70.4221 38.1207 70.6162 37.8982 70.8766 37.7301C71.137 37.5597 71.4732 37.4744 71.8851 37.4744C72.2544 37.4744 72.5776 37.5502 72.8546 37.7017C73.1316 37.8509 73.347 38.0781 73.5009 38.3835C73.6548 38.6866 73.7317 39.0701 73.7317 39.5341V43H72.8936V39.5909C72.8936 39.1624 72.7824 38.8286 72.5598 38.5895C72.3373 38.348 72.0319 38.2273 71.6436 38.2273C71.3761 38.2273 71.137 38.2853 70.9263 38.4013C70.718 38.5173 70.5534 38.6866 70.4327 38.9091C70.312 39.1316 70.2516 39.4015 70.2516 39.7188ZM77.479 43.1136C76.9677 43.1136 76.5273 42.9929 76.158 42.7514C75.7887 42.5099 75.5046 42.1773 75.3058 41.7536C75.1069 41.3298 75.0075 40.8456 75.0075 40.3011C75.0075 39.7472 75.1093 39.2583 75.3129 38.8345C75.5188 38.4084 75.8053 38.0758 76.1722 37.8366C76.5415 37.5952 76.9724 37.4744 77.4648 37.4744C77.8484 37.4744 78.194 37.5455 78.5018 37.6875C78.8095 37.8295 79.0617 38.0284 79.2582 38.2841C79.4547 38.5398 79.5766 38.8381 79.6239 39.179H78.7859C78.7219 38.9304 78.5799 38.7102 78.3597 38.5185C78.1419 38.3243 77.8484 38.2273 77.479 38.2273C77.1523 38.2273 76.8659 38.3125 76.6197 38.483C76.3758 38.651 76.1853 38.889 76.0479 39.1967C75.913 39.5021 75.8455 39.8608 75.8455 40.2727C75.8455 40.6941 75.9118 41.0611 76.0444 41.3736C76.1793 41.6861 76.3687 41.9287 76.6126 42.1016C76.8588 42.2744 77.1476 42.3608 77.479 42.3608C77.6969 42.3608 77.8945 42.3229 78.0721 42.2472C78.2496 42.1714 78.4 42.0625 78.5231 41.9205C78.6462 41.7784 78.7338 41.608 78.7859 41.4091H79.6239C79.5766 41.7311 79.4594 42.0211 79.2724 42.2791C79.0877 42.5348 78.8427 42.7384 78.5373 42.8899C78.2343 43.0391 77.8815 43.1136 77.479 43.1136ZM80.8491 43V37.5455H81.6587V38.3693H81.7156C81.815 38.0994 81.9949 37.8804 82.2553 37.7124C82.5157 37.5443 82.8093 37.4602 83.136 37.4602C83.1976 37.4602 83.2745 37.4614 83.3668 37.4638C83.4592 37.4661 83.529 37.4697 83.5763 37.4744V38.3267C83.5479 38.3196 83.4828 38.3089 83.381 38.2947C83.2816 38.2782 83.1763 38.2699 83.065 38.2699C82.7998 38.2699 82.5631 38.3255 82.3548 38.4368C82.1488 38.5457 81.9854 38.6972 81.8647 38.8913C81.7463 39.0831 81.6871 39.3021 81.6871 39.5483V43H80.8491ZM86.6907 43.1136C86.1651 43.1136 85.7118 42.9976 85.3306 42.7656C84.9518 42.5312 84.6594 42.2045 84.4535 41.7855C84.2499 41.3641 84.1481 40.8741 84.1481 40.3153C84.1481 39.7566 84.2499 39.2642 84.4535 38.8381C84.6594 38.4096 84.9459 38.0758 85.3129 37.8366C85.6822 37.5952 86.113 37.4744 86.6055 37.4744C86.8896 37.4744 87.1701 37.5218 87.4471 37.6165C87.7241 37.7112 87.9762 37.8651 88.2035 38.0781C88.4308 38.2888 88.6119 38.5682 88.7468 38.9162C88.8817 39.2642 88.9492 39.6927 88.9492 40.2017V40.5568H84.7447V39.8324H88.0969C88.0969 39.5246 88.0354 39.25 87.9123 39.0085C87.7915 38.767 87.6187 38.5765 87.3938 38.4368C87.1713 38.2971 86.9085 38.2273 86.6055 38.2273C86.2717 38.2273 85.9828 38.3101 85.739 38.4759C85.4975 38.6392 85.3117 38.8523 85.1815 39.1151C85.0513 39.3778 84.9862 39.6596 84.9862 39.9602V40.4432C84.9862 40.8551 85.0572 41.2043 85.1992 41.4908C85.3436 41.7749 85.5437 41.9915 85.7994 42.1406C86.055 42.2874 86.3522 42.3608 86.6907 42.3608C86.9109 42.3608 87.1097 42.33 87.2873 42.2685C87.4672 42.2045 87.6223 42.1098 87.7525 41.9844C87.8827 41.8565 87.9833 41.6979 88.0543 41.5085L88.864 41.7358C88.7788 42.0104 88.6355 42.2519 88.4343 42.4602C88.2331 42.6662 87.9845 42.8272 87.6886 42.9432C87.3926 43.0568 87.06 43.1136 86.6907 43.1136ZM91.8292 43.1278C91.4835 43.1278 91.1699 43.0627 90.8881 42.9325C90.6064 42.8 90.3827 42.6094 90.217 42.3608C90.0513 42.1098 89.9684 41.8068 89.9684 41.4517C89.9684 41.1392 90.0299 40.8859 90.1531 40.6918C90.2762 40.4953 90.4407 40.3414 90.6467 40.2301C90.8526 40.1188 91.0799 40.036 91.3285 39.9815C91.5794 39.9247 91.8316 39.8797 92.0849 39.8466C92.4163 39.804 92.685 39.772 92.891 39.7507C93.0993 39.727 93.2508 39.688 93.3455 39.6335C93.4426 39.5791 93.4911 39.4844 93.4911 39.3494V39.321C93.4911 38.9706 93.3952 38.6984 93.2035 38.5043C93.0141 38.3101 92.7264 38.2131 92.3406 38.2131C91.9405 38.2131 91.6268 38.3007 91.3995 38.4759C91.1722 38.651 91.0124 38.8381 90.9201 39.0369L90.1246 38.7528C90.2667 38.4214 90.4561 38.1634 90.6928 37.9787C90.9319 37.7917 91.1924 37.6615 91.4741 37.5881C91.7582 37.5123 92.0375 37.4744 92.3121 37.4744C92.4873 37.4744 92.6886 37.4957 92.9158 37.5384C93.1455 37.5786 93.3668 37.6626 93.5799 37.7905C93.7953 37.9183 93.9741 38.1113 94.1161 38.3693C94.2582 38.6274 94.3292 38.973 94.3292 39.4062V43H93.4911V42.2614H93.4485C93.3917 42.3797 93.297 42.5064 93.1644 42.6413C93.0318 42.7763 92.8555 42.8911 92.6353 42.9858C92.4151 43.0805 92.1464 43.1278 91.8292 43.1278ZM91.957 42.375C92.2885 42.375 92.5678 42.3099 92.7951 42.1797C93.0247 42.0495 93.1976 41.8814 93.3136 41.6754C93.4319 41.4695 93.4911 41.2528 93.4911 41.0256V40.2585C93.4556 40.3011 93.3775 40.3402 93.2567 40.3757C93.1384 40.4089 93.0011 40.4384 92.8448 40.4645C92.6909 40.4882 92.5406 40.5095 92.3938 40.5284C92.2494 40.545 92.1322 40.5592 92.0423 40.571C91.8245 40.5994 91.6209 40.6456 91.4315 40.7095C91.2444 40.7711 91.0929 40.8646 90.9769 40.9901C90.8633 41.1132 90.8065 41.2812 90.8065 41.4943C90.8065 41.7855 90.9142 42.0057 91.1296 42.1548C91.3474 42.3016 91.6232 42.375 91.957 42.375ZM99.7225 38.767L98.9696 38.9801C98.9223 38.8546 98.8525 38.7327 98.7601 38.6143C98.6702 38.4936 98.5471 38.3942 98.3908 38.3161C98.2346 38.2379 98.0345 38.1989 97.7907 38.1989C97.4569 38.1989 97.1787 38.2758 96.9561 38.4297C96.736 38.5812 96.6259 38.7741 96.6259 39.0085C96.6259 39.2169 96.7016 39.3814 96.8532 39.5021C97.0047 39.6229 97.2414 39.7235 97.5634 39.804L98.373 40.0028C98.8607 40.1212 99.2241 40.3023 99.4632 40.5462C99.7024 40.7876 99.8219 41.099 99.8219 41.4801C99.8219 41.7926 99.7319 42.072 99.552 42.3182C99.3745 42.5644 99.1259 42.7585 98.8063 42.9006C98.4867 43.0426 98.115 43.1136 97.6912 43.1136C97.1349 43.1136 96.6744 42.9929 96.3098 42.7514C95.9453 42.5099 95.7144 42.1572 95.6174 41.6932L96.4128 41.4943C96.4886 41.7879 96.6318 42.008 96.8425 42.1548C97.0556 42.3016 97.3337 42.375 97.677 42.375C98.0676 42.375 98.3778 42.2921 98.6074 42.1264C98.8394 41.9583 98.9554 41.7571 98.9554 41.5227C98.9554 41.3333 98.8891 41.1747 98.7566 41.0469C98.624 40.9167 98.4204 40.8196 98.1458 40.7557L97.2367 40.5426C96.7372 40.4242 96.3702 40.2408 96.1358 39.9922C95.9038 39.7412 95.7878 39.4276 95.7878 39.0511C95.7878 38.7434 95.8742 38.4711 96.0471 38.2344C96.2222 37.9976 96.4602 37.8118 96.7608 37.6768C97.0639 37.5419 97.4071 37.4744 97.7907 37.4744C98.3304 37.4744 98.7542 37.5928 99.062 37.8295C99.3721 38.0663 99.5923 38.3788 99.7225 38.767ZM103.37 43.1136C102.845 43.1136 102.391 42.9976 102.01 42.7656C101.632 42.5312 101.339 42.2045 101.133 41.7855C100.93 41.3641 100.828 40.8741 100.828 40.3153C100.828 39.7566 100.93 39.2642 101.133 38.8381C101.339 38.4096 101.626 38.0758 101.993 37.8366C102.362 37.5952 102.793 37.4744 103.285 37.4744C103.569 37.4744 103.85 37.5218 104.127 37.6165C104.404 37.7112 104.656 37.8651 104.883 38.0781C105.11 38.2888 105.292 38.5682 105.426 38.9162C105.561 39.2642 105.629 39.6927 105.629 40.2017V40.5568H101.424V39.8324H104.777C104.777 39.5246 104.715 39.25 104.592 39.0085C104.471 38.767 104.298 38.5765 104.074 38.4368C103.851 38.2971 103.588 38.2273 103.285 38.2273C102.951 38.2273 102.663 38.3101 102.419 38.4759C102.177 38.6392 101.991 38.8523 101.861 39.1151C101.731 39.3778 101.666 39.6596 101.666 39.9602V40.4432C101.666 40.8551 101.737 41.2043 101.879 41.4908C102.023 41.7749 102.223 41.9915 102.479 42.1406C102.735 42.2874 103.032 42.3608 103.37 42.3608C103.591 42.3608 103.789 42.33 103.967 42.2685C104.147 42.2045 104.302 42.1098 104.432 41.9844C104.562 41.8565 104.663 41.6979 104.734 41.5085L105.544 41.7358C105.458 42.0104 105.315 42.2519 105.114 42.4602C104.913 42.6662 104.664 42.8272 104.368 42.9432C104.072 43.0568 103.74 43.1136 103.37 43.1136ZM111.932 43.1136C111.421 43.1136 110.98 42.9929 110.611 42.7514C110.242 42.5099 109.958 42.1773 109.759 41.7536C109.56 41.3298 109.461 40.8456 109.461 40.3011C109.461 39.7472 109.562 39.2583 109.766 38.8345C109.972 38.4084 110.258 38.0758 110.625 37.8366C110.995 37.5952 111.426 37.4744 111.918 37.4744C112.301 37.4744 112.647 37.5455 112.955 37.6875C113.263 37.8295 113.515 38.0284 113.711 38.2841C113.908 38.5398 114.03 38.8381 114.077 39.179H113.239C113.175 38.9304 113.033 38.7102 112.813 38.5185C112.595 38.3243 112.301 38.2273 111.932 38.2273C111.605 38.2273 111.319 38.3125 111.073 38.483C110.829 38.651 110.638 38.889 110.501 39.1967C110.366 39.5021 110.299 39.8608 110.299 40.2727C110.299 40.6941 110.365 41.0611 110.498 41.3736C110.632 41.6861 110.822 41.9287 111.066 42.1016C111.312 42.2744 111.601 42.3608 111.932 42.3608C112.15 42.3608 112.348 42.3229 112.525 42.2472C112.703 42.1714 112.853 42.0625 112.976 41.9205C113.099 41.7784 113.187 41.608 113.239 41.4091H114.077C114.03 41.7311 113.913 42.0211 113.725 42.2791C113.541 42.5348 113.296 42.7384 112.99 42.8899C112.687 43.0391 112.335 43.1136 111.932 43.1136ZM118.74 40.7699V37.5455H119.578V43H118.74V42.0767H118.683C118.555 42.3537 118.356 42.5893 118.086 42.7834C117.816 42.9751 117.475 43.071 117.064 43.071C116.723 43.071 116.42 42.9964 116.154 42.8473C115.889 42.6958 115.681 42.4685 115.529 42.1655C115.378 41.8601 115.302 41.4754 115.302 41.0114V37.5455H116.14V40.9545C116.14 41.3523 116.252 41.6695 116.474 41.9062C116.699 42.143 116.985 42.2614 117.333 42.2614C117.542 42.2614 117.754 42.2081 117.969 42.1016C118.187 41.995 118.369 41.8317 118.516 41.6115C118.665 41.3913 118.74 41.1108 118.74 40.7699ZM121.113 43V37.5455H121.922V38.3693H121.979C122.079 38.0994 122.259 37.8804 122.519 37.7124C122.779 37.5443 123.073 37.4602 123.4 37.4602C123.461 37.4602 123.538 37.4614 123.631 37.4638C123.723 37.4661 123.793 37.4697 123.84 37.4744V38.3267C123.812 38.3196 123.747 38.3089 123.645 38.2947C123.545 38.2782 123.44 38.2699 123.329 38.2699C123.064 38.2699 122.827 38.3255 122.618 38.4368C122.412 38.5457 122.249 38.6972 122.128 38.8913C122.01 39.0831 121.951 39.3021 121.951 39.5483V43H121.113ZM128.697 38.767L127.944 38.9801C127.897 38.8546 127.827 38.7327 127.735 38.6143C127.645 38.4936 127.522 38.3942 127.365 38.3161C127.209 38.2379 127.009 38.1989 126.765 38.1989C126.431 38.1989 126.153 38.2758 125.931 38.4297C125.711 38.5812 125.6 38.7741 125.6 39.0085C125.6 39.2169 125.676 39.3814 125.828 39.5021C125.979 39.6229 126.216 39.7235 126.538 39.804L127.348 40.0028C127.835 40.1212 128.199 40.3023 128.438 40.5462C128.677 40.7876 128.797 41.099 128.797 41.4801C128.797 41.7926 128.707 42.072 128.527 42.3182C128.349 42.5644 128.1 42.7585 127.781 42.9006C127.461 43.0426 127.09 43.1136 126.666 43.1136C126.109 43.1136 125.649 42.9929 125.284 42.7514C124.92 42.5099 124.689 42.1572 124.592 41.6932L125.387 41.4943C125.463 41.7879 125.606 42.008 125.817 42.1548C126.03 42.3016 126.308 42.375 126.652 42.375C127.042 42.375 127.352 42.2921 127.582 42.1264C127.814 41.9583 127.93 41.7571 127.93 41.5227C127.93 41.3333 127.864 41.1747 127.731 41.0469C127.599 40.9167 127.395 40.8196 127.12 40.7557L126.211 40.5426C125.712 40.4242 125.345 40.2408 125.11 39.9922C124.878 39.7412 124.762 39.4276 124.762 39.0511C124.762 38.7434 124.849 38.4711 125.022 38.2344C125.197 37.9976 125.435 37.8118 125.735 37.6768C126.038 37.5419 126.382 37.4744 126.765 37.4744C127.305 37.4744 127.729 37.5928 128.037 37.8295C128.347 38.0663 128.567 38.3788 128.697 38.767ZM132.274 43.1136C131.782 43.1136 131.349 42.9964 130.978 42.7621C130.608 42.5277 130.32 42.1998 130.111 41.7784C129.905 41.357 129.802 40.8646 129.802 40.3011C129.802 39.733 129.905 39.237 130.111 38.8132C130.32 38.3894 130.608 38.0604 130.978 37.826C131.349 37.5916 131.782 37.4744 132.274 37.4744C132.766 37.4744 133.197 37.5916 133.567 37.826C133.938 38.0604 134.227 38.3894 134.433 38.8132C134.641 39.237 134.746 39.733 134.746 40.3011C134.746 40.8646 134.641 41.357 134.433 41.7784C134.227 42.1998 133.938 42.5277 133.567 42.7621C133.197 42.9964 132.766 43.1136 132.274 43.1136ZM132.274 42.3608C132.648 42.3608 132.956 42.2649 133.197 42.0732C133.439 41.8814 133.617 41.6293 133.733 41.3168C133.849 41.0043 133.907 40.6657 133.907 40.3011C133.907 39.9366 133.849 39.5968 133.733 39.282C133.617 38.9671 133.439 38.7126 133.197 38.5185C132.956 38.3243 132.648 38.2273 132.274 38.2273C131.9 38.2273 131.592 38.3243 131.351 38.5185C131.109 38.7126 130.93 38.9671 130.814 39.282C130.698 39.5968 130.64 39.9366 130.64 40.3011C130.64 40.6657 130.698 41.0043 130.814 41.3168C130.93 41.6293 131.109 41.8814 131.351 42.0732C131.592 42.2649 131.9 42.3608 132.274 42.3608ZM136.025 43V37.5455H136.835V38.3693H136.891C136.991 38.0994 137.171 37.8804 137.431 37.7124C137.692 37.5443 137.985 37.4602 138.312 37.4602C138.373 37.4602 138.45 37.4614 138.543 37.4638C138.635 37.4661 138.705 37.4697 138.752 37.4744V38.3267C138.724 38.3196 138.659 38.3089 138.557 38.2947C138.457 38.2782 138.352 38.2699 138.241 38.2699C137.976 38.2699 137.739 38.3255 137.531 38.4368C137.325 38.5457 137.161 38.6972 137.04 38.8913C136.922 39.0831 136.863 39.3021 136.863 39.5483V43H136.025ZM143.609 38.767L142.856 38.9801C142.809 38.8546 142.739 38.7327 142.647 38.6143C142.557 38.4936 142.434 38.3942 142.278 38.3161C142.121 38.2379 141.921 38.1989 141.677 38.1989C141.344 38.1989 141.065 38.2758 140.843 38.4297C140.623 38.5812 140.513 38.7741 140.513 39.0085C140.513 39.2169 140.588 39.3814 140.74 39.5021C140.891 39.6229 141.128 39.7235 141.45 39.804L142.26 40.0028C142.747 40.1212 143.111 40.3023 143.35 40.5462C143.589 40.7876 143.709 41.099 143.709 41.4801C143.709 41.7926 143.619 42.072 143.439 42.3182C143.261 42.5644 143.013 42.7585 142.693 42.9006C142.373 43.0426 142.002 43.1136 141.578 43.1136C141.022 43.1136 140.561 42.9929 140.197 42.7514C139.832 42.5099 139.601 42.1572 139.504 41.6932L140.3 41.4943C140.375 41.7879 140.519 42.008 140.729 42.1548C140.942 42.3016 141.22 42.375 141.564 42.375C141.954 42.375 142.265 42.2921 142.494 42.1264C142.726 41.9583 142.842 41.7571 142.842 41.5227C142.842 41.3333 142.776 41.1747 142.643 41.0469C142.511 40.9167 142.307 40.8196 142.032 40.7557L141.123 40.5426C140.624 40.4242 140.257 40.2408 140.023 39.9922C139.791 39.7412 139.675 39.4276 139.675 39.0511C139.675 38.7434 139.761 38.4711 139.934 38.2344C140.109 37.9976 140.347 37.8118 140.648 37.6768C140.951 37.5419 141.294 37.4744 141.677 37.4744C142.217 37.4744 142.641 37.5928 142.949 37.8295C143.259 38.0663 143.479 38.3788 143.609 38.767ZM149.388 43.1278C149.042 43.1278 148.728 43.0627 148.447 42.9325C148.165 42.8 147.941 42.6094 147.776 42.3608C147.61 42.1098 147.527 41.8068 147.527 41.4517C147.527 41.1392 147.589 40.8859 147.712 40.6918C147.835 40.4953 147.999 40.3414 148.205 40.2301C148.411 40.1188 148.638 40.036 148.887 39.9815C149.138 39.9247 149.39 39.8797 149.643 39.8466C149.975 39.804 150.244 39.772 150.45 39.7507C150.658 39.727 150.809 39.688 150.904 39.6335C151.001 39.5791 151.05 39.4844 151.05 39.3494V39.321C151.05 38.9706 150.954 38.6984 150.762 38.5043C150.573 38.3101 150.285 38.2131 149.899 38.2131C149.499 38.2131 149.185 38.3007 148.958 38.4759C148.731 38.651 148.571 38.8381 148.479 39.0369L147.683 38.7528C147.825 38.4214 148.015 38.1634 148.251 37.9787C148.491 37.7917 148.751 37.6615 149.033 37.5881C149.317 37.5123 149.596 37.4744 149.871 37.4744C150.046 37.4744 150.247 37.4957 150.474 37.5384C150.704 37.5786 150.925 37.6626 151.138 37.7905C151.354 37.9183 151.533 38.1113 151.675 38.3693C151.817 38.6274 151.888 38.973 151.888 39.4062V43H151.05V42.2614H151.007C150.95 42.3797 150.856 42.5064 150.723 42.6413C150.59 42.7763 150.414 42.8911 150.194 42.9858C149.974 43.0805 149.705 43.1278 149.388 43.1278ZM149.516 42.375C149.847 42.375 150.126 42.3099 150.354 42.1797C150.583 42.0495 150.756 41.8814 150.872 41.6754C150.991 41.4695 151.05 41.2528 151.05 41.0256V40.2585C151.014 40.3011 150.936 40.3402 150.815 40.3757C150.697 40.4089 150.56 40.4384 150.403 40.4645C150.25 40.4882 150.099 40.5095 149.952 40.5284C149.808 40.545 149.691 40.5592 149.601 40.571C149.383 40.5994 149.179 40.6456 148.99 40.7095C148.803 40.7711 148.652 40.8646 148.536 40.9901C148.422 41.1132 148.365 41.2812 148.365 41.4943C148.365 41.7855 148.473 42.0057 148.688 42.1548C148.906 42.3016 149.182 42.375 149.516 42.375ZM154.256 39.7188V43H153.417V37.5455H154.227V38.3977H154.298C154.426 38.1207 154.62 37.8982 154.881 37.7301C155.141 37.5597 155.477 37.4744 155.889 37.4744C156.258 37.4744 156.581 37.5502 156.858 37.7017C157.135 37.8509 157.351 38.0781 157.505 38.3835C157.659 38.6866 157.736 39.0701 157.736 39.5341V43H156.898V39.5909C156.898 39.1624 156.786 38.8286 156.564 38.5895C156.341 38.348 156.036 38.2273 155.648 38.2273C155.38 38.2273 155.141 38.2853 154.93 38.4013C154.722 38.5173 154.557 38.6866 154.437 38.9091C154.316 39.1316 154.256 39.4015 154.256 39.7188ZM161.327 43.1136C160.872 43.1136 160.471 42.9988 160.123 42.7692C159.775 42.5372 159.503 42.2105 159.306 41.7891C159.11 41.3653 159.011 40.8646 159.011 40.2869C159.011 39.714 159.11 39.2169 159.306 38.7955C159.503 38.3741 159.776 38.0485 160.126 37.8189C160.477 37.5893 160.882 37.4744 161.341 37.4744C161.696 37.4744 161.977 37.5336 162.183 37.652C162.391 37.768 162.549 37.9006 162.658 38.0497C162.77 38.1965 162.856 38.3172 162.918 38.4119H162.989V35.7273H163.827V43H163.017V42.1619H162.918C162.856 42.2614 162.768 42.3868 162.655 42.5384C162.541 42.6875 162.379 42.8213 162.168 42.9396C161.958 43.0556 161.677 43.1136 161.327 43.1136ZM161.44 42.3608C161.777 42.3608 162.061 42.2732 162.293 42.098C162.525 41.9205 162.701 41.6754 162.822 41.3629C162.942 41.0481 163.003 40.6847 163.003 40.2727C163.003 39.8655 162.944 39.5092 162.825 39.2038C162.707 38.8961 162.532 38.657 162.3 38.4865C162.068 38.3137 161.781 38.2273 161.44 38.2273C161.085 38.2273 160.789 38.3184 160.553 38.5007C160.318 38.6806 160.142 38.9257 160.023 39.2358C159.907 39.5436 159.849 39.8892 159.849 40.2727C159.849 40.661 159.909 41.0137 160.027 41.331C160.148 41.6458 160.325 41.8968 160.56 42.0838C160.796 42.2685 161.09 42.3608 161.44 42.3608ZM170.506 43.1136C169.995 43.1136 169.555 42.9929 169.185 42.7514C168.816 42.5099 168.532 42.1773 168.333 41.7536C168.134 41.3298 168.035 40.8456 168.035 40.3011C168.035 39.7472 168.137 39.2583 168.34 38.8345C168.546 38.4084 168.833 38.0758 169.2 37.8366C169.569 37.5952 170 37.4744 170.492 37.4744C170.876 37.4744 171.221 37.5455 171.529 37.6875C171.837 37.8295 172.089 38.0284 172.286 38.2841C172.482 38.5398 172.604 38.8381 172.651 39.179H171.813C171.749 38.9304 171.607 38.7102 171.387 38.5185C171.169 38.3243 170.876 38.2273 170.506 38.2273C170.18 38.2273 169.893 38.3125 169.647 38.483C169.403 38.651 169.213 38.889 169.075 39.1967C168.94 39.5021 168.873 39.8608 168.873 40.2727C168.873 40.6941 168.939 41.0611 169.072 41.3736C169.207 41.6861 169.396 41.9287 169.64 42.1016C169.886 42.2744 170.175 42.3608 170.506 42.3608C170.724 42.3608 170.922 42.3229 171.099 42.2472C171.277 42.1714 171.427 42.0625 171.55 41.9205C171.674 41.7784 171.761 41.608 171.813 41.4091H172.651C172.604 41.7311 172.487 42.0211 172.3 42.2791C172.115 42.5348 171.87 42.7384 171.565 42.8899C171.262 43.0391 170.909 43.1136 170.506 43.1136ZM174.714 35.7273V43H173.876V35.7273H174.714ZM176.249 43V37.5455H177.088V43H176.249ZM176.676 36.6364C176.512 36.6364 176.371 36.5807 176.253 36.4695C176.137 36.3582 176.079 36.2244 176.079 36.0682C176.079 35.9119 176.137 35.7782 176.253 35.6669C176.371 35.5556 176.512 35.5 176.676 35.5C176.839 35.5 176.979 35.5556 177.095 35.6669C177.213 35.7782 177.272 35.9119 177.272 36.0682C177.272 36.2244 177.213 36.3582 177.095 36.4695C176.979 36.5807 176.839 36.6364 176.676 36.6364ZM180.838 43.1136C180.327 43.1136 179.887 42.9929 179.517 42.7514C179.148 42.5099 178.864 42.1773 178.665 41.7536C178.466 41.3298 178.367 40.8456 178.367 40.3011C178.367 39.7472 178.469 39.2583 178.672 38.8345C178.878 38.4084 179.165 38.0758 179.532 37.8366C179.901 37.5952 180.332 37.4744 180.824 37.4744C181.208 37.4744 181.553 37.5455 181.861 37.6875C182.169 37.8295 182.421 38.0284 182.618 38.2841C182.814 38.5398 182.936 38.8381 182.983 39.179H182.145C182.081 38.9304 181.939 38.7102 181.719 38.5185C181.501 38.3243 181.208 38.2273 180.838 38.2273C180.512 38.2273 180.225 38.3125 179.979 38.483C179.735 38.651 179.545 38.889 179.407 39.1967C179.272 39.5021 179.205 39.8608 179.205 40.2727C179.205 40.6941 179.271 41.0611 179.404 41.3736C179.539 41.6861 179.728 41.9287 179.972 42.1016C180.218 42.2744 180.507 42.3608 180.838 42.3608C181.056 42.3608 181.254 42.3229 181.431 42.2472C181.609 42.1714 181.759 42.0625 181.882 41.9205C182.006 41.7784 182.093 41.608 182.145 41.4091H182.983C182.936 41.7311 182.819 42.0211 182.632 42.2791C182.447 42.5348 182.202 42.7384 181.897 42.8899C181.594 43.0391 181.241 43.1136 180.838 43.1136ZM184.99 41.0114L184.975 39.9744H185.146L187.532 37.5455H188.569L186.027 40.1165H185.956L184.99 41.0114ZM184.208 43V35.7273H185.047V43H184.208ZM187.674 43L185.544 40.3011L186.14 39.7188L188.74 43H187.674ZM66.767 55V49.5455H67.6051V55H66.767ZM67.1932 48.6364C67.0298 48.6364 66.889 48.5807 66.7706 48.4695C66.6546 48.3582 66.5966 48.2244 66.5966 48.0682C66.5966 47.9119 66.6546 47.7782 66.7706 47.6669C66.889 47.5556 67.0298 47.5 67.1932 47.5C67.3565 47.5 67.4962 47.5556 67.6122 47.6669C67.7306 47.7782 67.7898 47.9119 67.7898 48.0682C67.7898 48.2244 67.7306 48.3582 67.6122 48.4695C67.4962 48.5807 67.3565 48.6364 67.1932 48.6364ZM69.9782 51.7188V55H69.1401V49.5455H69.9498V50.3977H70.0208C70.1486 50.1207 70.3427 49.8982 70.6032 49.7301C70.8636 49.5597 71.1998 49.4744 71.6117 49.4744C71.981 49.4744 72.3042 49.5502 72.5811 49.7017C72.8581 49.8509 73.0736 50.0781 73.2275 50.3835C73.3813 50.6866 73.4583 51.0701 73.4583 51.5341V55H72.6202V51.5909C72.6202 51.1624 72.5089 50.8286 72.2864 50.5895C72.0639 50.348 71.7585 50.2273 71.3702 50.2273C71.1027 50.2273 70.8636 50.2853 70.6529 50.4013C70.4445 50.5173 70.28 50.6866 70.1593 50.9091C70.0385 51.1316 69.9782 51.4015 69.9782 51.7188ZM77.2056 55.1136C76.6942 55.1136 76.2539 54.9929 75.8846 54.7514C75.5153 54.5099 75.2312 54.1773 75.0323 53.7536C74.8335 53.3298 74.734 52.8456 74.734 52.3011C74.734 51.7472 74.8358 51.2583 75.0394 50.8345C75.2454 50.4084 75.5318 50.0758 75.8988 49.8366C76.2681 49.5952 76.699 49.4744 77.1914 49.4744C77.5749 49.4744 77.9206 49.5455 78.2283 49.6875C78.5361 49.8295 78.7882 50.0284 78.9847 50.2841C79.1812 50.5398 79.3031 50.8381 79.3505 51.179H78.5124C78.4485 50.9304 78.3065 50.7102 78.0863 50.5185C77.8685 50.3243 77.5749 50.2273 77.2056 50.2273C76.8789 50.2273 76.5924 50.3125 76.3462 50.483C76.1024 50.651 75.9118 50.889 75.7745 51.1967C75.6396 51.5021 75.5721 51.8608 75.5721 52.2727C75.5721 52.6941 75.6384 53.0611 75.771 53.3736C75.9059 53.6861 76.0953 53.9287 76.3391 54.1016C76.5853 54.2744 76.8742 54.3608 77.2056 54.3608C77.4234 54.3608 77.6211 54.3229 77.7987 54.2472C77.9762 54.1714 78.1265 54.0625 78.2496 53.9205C78.3728 53.7784 78.4603 53.608 78.5124 53.4091H79.3505C79.3031 53.7311 79.186 54.0211 78.9989 54.2791C78.8143 54.5348 78.5692 54.7384 78.2638 54.8899C77.9608 55.0391 77.6081 55.1136 77.2056 55.1136ZM82.7915 55.1136C82.2991 55.1136 81.8671 54.9964 81.4954 54.7621C81.1261 54.5277 80.8372 54.1998 80.6289 53.7784C80.4229 53.357 80.32 52.8646 80.32 52.3011C80.32 51.733 80.4229 51.237 80.6289 50.8132C80.8372 50.3894 81.1261 50.0604 81.4954 49.826C81.8671 49.5916 82.2991 49.4744 82.7915 49.4744C83.284 49.4744 83.7148 49.5916 84.0842 49.826C84.4558 50.0604 84.7447 50.3894 84.9506 50.8132C85.159 51.237 85.2631 51.733 85.2631 52.3011C85.2631 52.8646 85.159 53.357 84.9506 53.7784C84.7447 54.1998 84.4558 54.5277 84.0842 54.7621C83.7148 54.9964 83.284 55.1136 82.7915 55.1136ZM82.7915 54.3608C83.1656 54.3608 83.4734 54.2649 83.7148 54.0732C83.9563 53.8814 84.1351 53.6293 84.2511 53.3168C84.3671 53.0043 84.4251 52.6657 84.4251 52.3011C84.4251 51.9366 84.3671 51.5968 84.2511 51.282C84.1351 50.9671 83.9563 50.7126 83.7148 50.5185C83.4734 50.3243 83.1656 50.2273 82.7915 50.2273C82.4175 50.2273 82.1097 50.3243 81.8683 50.5185C81.6268 50.7126 81.448 50.9671 81.332 51.282C81.216 51.5968 81.158 51.9366 81.158 52.3011C81.158 52.6657 81.216 53.0043 81.332 53.3168C81.448 53.6293 81.6268 53.8814 81.8683 54.0732C82.1097 54.2649 82.4175 54.3608 82.7915 54.3608ZM86.5424 55V49.5455H87.3521V50.3977H87.4231C87.5368 50.1065 87.7202 49.8804 87.9735 49.7195C88.2269 49.5561 88.5311 49.4744 88.8862 49.4744C89.246 49.4744 89.5455 49.5561 89.7846 49.7195C90.0261 49.8804 90.2143 50.1065 90.3493 50.3977H90.4061C90.5458 50.116 90.7553 49.8923 91.0346 49.7266C91.314 49.5585 91.649 49.4744 92.0396 49.4744C92.5273 49.4744 92.9262 49.6271 93.2363 49.9325C93.5465 50.2356 93.7015 50.7079 93.7015 51.3494V55H92.8635V51.3494C92.8635 50.947 92.7534 50.6593 92.5332 50.4865C92.313 50.3137 92.0538 50.2273 91.7555 50.2273C91.372 50.2273 91.0749 50.3433 90.8642 50.5753C90.6535 50.8049 90.5481 51.0961 90.5481 51.4489V55H89.6958V51.2642C89.6958 50.9541 89.5952 50.7043 89.394 50.5149C89.1928 50.3232 88.9335 50.2273 88.6163 50.2273C88.3985 50.2273 88.1949 50.2853 88.0055 50.4013C87.8185 50.5173 87.667 50.6783 87.551 50.8842C87.4373 51.0878 87.3805 51.3234 87.3805 51.5909V55H86.5424ZM97.5208 55.1136C96.9952 55.1136 96.5418 54.9976 96.1607 54.7656C95.7819 54.5312 95.4895 54.2045 95.2836 53.7855C95.08 53.3641 94.9782 52.8741 94.9782 52.3153C94.9782 51.7566 95.08 51.2642 95.2836 50.8381C95.4895 50.4096 95.776 50.0758 96.1429 49.8366C96.5123 49.5952 96.9431 49.4744 97.4355 49.4744C97.7196 49.4744 98.0002 49.5218 98.2772 49.6165C98.5542 49.7112 98.8063 49.8651 99.0336 50.0781C99.2608 50.2888 99.4419 50.5682 99.5769 50.9162C99.7118 51.2642 99.7793 51.6927 99.7793 52.2017V52.5568H95.5748V51.8324H98.927C98.927 51.5246 98.8655 51.25 98.7424 51.0085C98.6216 50.767 98.4488 50.5765 98.2239 50.4368C98.0014 50.2971 97.7386 50.2273 97.4355 50.2273C97.1017 50.2273 96.8129 50.3101 96.5691 50.4759C96.3276 50.6392 96.1417 50.8523 96.0115 51.1151C95.8813 51.3778 95.8162 51.6596 95.8162 51.9602V52.4432C95.8162 52.8551 95.8873 53.2043 96.0293 53.4908C96.1737 53.7749 96.3738 53.9915 96.6294 54.1406C96.8851 54.2874 97.1822 54.3608 97.5208 54.3608C97.7409 54.3608 97.9398 54.33 98.1174 54.2685C98.2973 54.2045 98.4524 54.1098 98.5826 53.9844C98.7128 53.8565 98.8134 53.6979 98.8844 53.5085L99.6941 53.7358C99.6088 54.0104 99.4656 54.2519 99.2644 54.4602C99.0632 54.6662 98.8146 54.8272 98.5186 54.9432C98.2227 55.0568 97.8901 55.1136 97.5208 55.1136Z" fill="black"/>
</svg>
